<svg width="170" height="200" viewBox="0 0 170 200" fill="none" xmlns="http://www.w3.org/2000/svg">
<path fill-rule="evenodd" clip-rule="evenodd" d="M81.8885 169.454L82.5443 177.618L79.0217 177.96L77.9883 169.673L81.8885 169.454Z" fill="#15AD8B"/>
<path fill-rule="evenodd" clip-rule="evenodd" d="M81.8885 169.454L82.5443 177.618L79.0217 177.96L77.9883 169.673L81.8885 169.454Z" fill="#797979" fill-opacity="0.2" style="mix-blend-mode:multiply"/>
<path fill-rule="evenodd" clip-rule="evenodd" d="M98.4546 183.95C98.4546 183.95 91.2145 186.063 76.6172 184.235L76.938 182.517L77.6324 177.789C83.9419 175.039 88.2387 177.244 84.1379 178.469C89.5446 180.031 93.4371 180.196 98.4946 181.702C98.7076 181.765 98.8389 181.942 98.8077 182.125C98.7063 182.721 98.4546 183.95 98.4546 183.95Z" fill="#FFC520"/>
<path fill-rule="evenodd" clip-rule="evenodd" d="M98.4546 183.95C98.4546 183.95 91.2145 186.063 76.6172 184.235L76.8998 182.72C81.2962 183.234 87.9399 182.846 98.8079 182.123C98.7275 182.91 98.4546 183.95 98.4546 183.95Z" fill="#15AD8B"/>
<path fill-rule="evenodd" clip-rule="evenodd" d="M80.7041 181.319C80.4434 182.204 79.3547 182.575 78.7445 181.988C78.1344 181.401 78.4604 180.296 79.3312 179.998C80.2023 179.701 80.965 180.435 80.7041 181.319Z" fill="white"/>
<path fill-rule="evenodd" clip-rule="evenodd" d="M98.4546 183.95C87.536 185.745 76.6172 184.235 76.6172 184.235L98.4546 183.95Z" fill="#797979" fill-opacity="0.2" style="mix-blend-mode:multiply"/>
<path fill-rule="evenodd" clip-rule="evenodd" d="M85.9394 175.938C86.8489 175.526 87.7945 175.525 88.395 175.937C89.0322 176.375 89.0622 177.118 88.4788 177.781C88.1245 178.183 87.5621 178.553 86.8033 178.873L86.7199 178.908L86.7557 178.916C88.6338 179.353 89.4688 180.164 89.3142 181.262L89.3061 181.314C89.2127 181.869 88.8693 182.434 88.3588 182.995C88.1555 183.219 87.9386 183.427 87.7215 183.616L87.6381 183.687L87.5637 183.749L87.471 183.823L87.423 183.86L87.0437 184.145L86.3447 183.527L86.7538 183.22L86.8291 183.159L86.9207 183.083C86.9367 183.069 86.953 183.055 86.9697 183.041C87.1608 182.875 87.3521 182.691 87.5297 182.496C87.9464 182.037 88.2186 181.59 88.2842 181.2C88.4201 180.392 87.6271 179.797 85.3353 179.527L85.1195 179.503L84.8951 179.481L84.7796 179.47L84.688 178.65C86.2045 178.284 87.1967 177.795 87.6405 177.291C87.9314 176.961 87.9213 176.711 87.7299 176.579C87.4917 176.416 87.0055 176.416 86.4415 176.672C85.6893 177.014 84.9439 177.734 84.3202 178.831L84.262 178.934L84.0512 179.318L83.1099 178.974L83.3207 178.591C84.0408 177.282 84.9517 176.387 85.9394 175.938Z" fill="#15AD8B"/>
<path fill-rule="evenodd" clip-rule="evenodd" d="M57.8992 169.758L57.6228 178.517H53.7891L54.0655 169.758H57.8992Z" fill="#15AD8B"/>
<path fill-rule="evenodd" clip-rule="evenodd" d="M57.8992 169.758L57.6228 178.517H53.7891L54.0655 169.758H57.8992Z" fill="#797979" fill-opacity="0.2" style="mix-blend-mode:multiply"/>
<path fill-rule="evenodd" clip-rule="evenodd" d="M37.8854 183.95C37.8854 183.95 45.1258 186.063 59.7229 184.235L59.4023 182.517L58.7079 177.789C52.3982 175.039 48.1013 177.244 52.2024 178.469C46.7955 180.031 42.903 180.196 37.8455 181.702C37.6325 181.765 37.5012 181.942 37.5324 182.125C37.634 182.721 37.8854 183.95 37.8854 183.95Z" fill="#FFC520"/>
<path fill-rule="evenodd" clip-rule="evenodd" d="M37.8855 183.95C37.8855 183.95 45.1259 186.063 59.723 184.235L59.4403 182.72C55.044 183.234 48.4003 182.846 37.5322 182.123C37.6127 182.91 37.8855 183.95 37.8855 183.95Z" fill="#15AD8B"/>
<path fill-rule="evenodd" clip-rule="evenodd" d="M55.6359 181.319C55.8966 182.204 56.9853 182.575 57.5957 181.988C58.2058 181.401 57.8798 180.296 57.0088 179.998C56.1377 179.701 55.3752 180.435 55.6359 181.319Z" fill="white"/>
<path fill-rule="evenodd" clip-rule="evenodd" d="M37.8853 183.95C48.8038 185.745 59.7227 184.235 59.7227 184.235L37.8853 183.95Z" fill="#797979" fill-opacity="0.2" style="mix-blend-mode:multiply"/>
<path fill-rule="evenodd" clip-rule="evenodd" d="M47.9451 175.937C48.5456 175.525 49.4912 175.526 50.4007 175.938C51.3602 176.374 52.2471 177.231 52.9572 178.48L53.0194 178.591L53.2302 178.974L52.2889 179.318L52.0781 178.934C51.4427 177.779 50.6743 177.024 49.8986 176.672C49.3346 176.416 48.8484 176.416 48.6102 176.579C48.4188 176.711 48.4087 176.961 48.6996 177.291C49.1307 177.781 50.0794 178.257 51.5234 178.618L51.6521 178.65L51.5605 179.47L51.445 179.481L51.2206 179.503L51.0048 179.527C50.7932 179.552 50.5944 179.58 50.408 179.61L50.2256 179.641C50.1959 179.647 50.1665 179.652 50.1375 179.658L49.9673 179.691C48.4712 180.005 47.943 180.528 48.0559 181.2C48.1215 181.59 48.3937 182.037 48.8104 182.496C48.988 182.691 49.1793 182.875 49.3704 183.041L49.4194 183.083L49.511 183.159L49.6161 183.243L49.9954 183.527L49.2964 184.145L48.8946 183.843L48.8409 183.801L48.7764 183.749L48.702 183.687L48.6186 183.616C48.4015 183.427 48.1846 183.219 47.9813 182.995C47.4708 182.434 47.1274 181.869 47.034 181.314C46.8483 180.209 47.6482 179.388 49.4867 178.939L49.62 178.908L49.5368 178.873C48.8125 178.567 48.2672 178.217 47.9109 177.836L47.8613 177.781C47.2779 177.118 47.3079 176.375 47.9451 175.937Z" fill="#15AD8B"/>
<path fill-rule="evenodd" clip-rule="evenodd" d="M85.9394 175.938C86.8489 175.526 87.7945 175.525 88.395 175.937C89.0322 176.375 89.0622 177.118 88.4788 177.781C88.1245 178.183 87.5621 178.553 86.8033 178.873L86.7199 178.908L86.7557 178.916C88.6338 179.353 89.4688 180.164 89.3142 181.262L89.3061 181.314C89.2127 181.869 88.8693 182.434 88.3588 182.995C88.1555 183.219 87.9386 183.427 87.7215 183.616L87.6381 183.687L87.5637 183.749L87.471 183.823L87.423 183.86L87.0437 184.145L86.3447 183.527L86.7538 183.22L86.8291 183.159L86.9207 183.083C86.9367 183.069 86.953 183.055 86.9697 183.041C87.1608 182.875 87.3521 182.691 87.5297 182.496C87.9464 182.037 88.2186 181.59 88.2842 181.2C88.4201 180.392 87.6271 179.797 85.3353 179.527L85.1195 179.503L84.8951 179.481L84.7796 179.47L84.688 178.65C86.2045 178.284 87.1967 177.795 87.6405 177.291C87.9314 176.961 87.9213 176.711 87.7299 176.579C87.4917 176.416 87.0055 176.416 86.4415 176.672C85.6893 177.014 84.9439 177.734 84.3202 178.831L84.262 178.934L84.0512 179.318L83.1099 178.974L83.3207 178.591C84.0408 177.282 84.9517 176.387 85.9394 175.938Z" fill="#797979" fill-opacity="0.2" style="mix-blend-mode:multiply"/>
<path fill-rule="evenodd" clip-rule="evenodd" d="M47.9451 175.937C48.5456 175.525 49.4912 175.526 50.4007 175.938C51.3602 176.374 52.2471 177.231 52.9572 178.48L53.0194 178.591L53.2302 178.974L52.2889 179.318L52.0781 178.934C51.4427 177.779 50.6743 177.024 49.8986 176.672C49.3346 176.416 48.8484 176.416 48.6102 176.579C48.4188 176.711 48.4087 176.961 48.6996 177.291C49.1307 177.781 50.0794 178.257 51.5234 178.618L51.6521 178.65L51.5605 179.47L51.445 179.481L51.2206 179.503L51.0048 179.527C50.7932 179.552 50.5944 179.58 50.408 179.61L50.2256 179.641C50.1959 179.647 50.1665 179.652 50.1375 179.658L49.9673 179.691C48.4712 180.005 47.943 180.528 48.0559 181.2C48.1215 181.59 48.3937 182.037 48.8104 182.496C48.988 182.691 49.1793 182.875 49.3704 183.041L49.4194 183.083L49.511 183.159L49.6161 183.243L49.9954 183.527L49.2964 184.145L48.8946 183.843L48.8409 183.801L48.7764 183.749L48.702 183.687L48.6186 183.616C48.4015 183.427 48.1846 183.219 47.9813 182.995C47.4708 182.434 47.1274 181.869 47.034 181.314C46.8483 180.209 47.6482 179.388 49.4867 178.939L49.62 178.908L49.5368 178.873C48.8125 178.567 48.2672 178.217 47.9109 177.836L47.8613 177.781C47.2779 177.118 47.3079 176.375 47.9451 175.937Z" fill="#797979" fill-opacity="0.2" style="mix-blend-mode:multiply"/>
<path fill-rule="evenodd" clip-rule="evenodd" d="M78.0468 92.5912C78.103 93.7737 77.545 94.9234 76.4909 95.7929L75.7781 96.382C75.7781 96.382 62.1524 97.3969 53.4298 96.4189C52.3543 96.2992 51.3532 96.1493 50.4618 95.9624L49.429 94.8799C48.7243 94.1432 48.599 93.176 49.0979 92.3478L49.5838 91.5435C50.6567 82.5168 48.1505 72.6205 50.4192 71.084C52.6851 69.5473 57.3721 67.6694 63.7007 67.5845C69.7113 67.5062 74.2273 69.7516 75.8369 71.1754C76.4001 71.6773 76.5308 73.9357 76.7737 77.4873V77.4894C76.8379 78.4306 76.9125 79.4608 77.0032 80.5736C77.3769 85.1642 77.9215 90.0222 78.0468 92.5912Z" fill="#FF4654"/>
<path fill-rule="evenodd" clip-rule="evenodd" d="M62.2964 70.9912L63.3217 70.8994L63.3468 71.0905L63.3834 71.3891L63.4189 71.7018L63.4532 72.0285L63.4972 72.4856L63.5288 72.8443L63.5593 73.2166L63.5982 73.7336L63.6441 74.4127L63.6785 74.9817L63.7189 75.7247L63.7633 76.6617L63.7906 77.3134L63.8221 78.1578L63.8396 78.68L63.8715 79.7588L63.886 80.3151L63.9119 81.4606L63.9338 82.6492C63.9943 86.3075 63.9973 90.194 63.964 93.8921L63.9347 96.4275L63.9281 96.8476L62.8968 96.8358L62.911 95.8665L62.9249 94.6743C62.9632 91.0106 62.9668 87.1287 62.9145 83.4464L62.8991 82.463L62.8769 81.3019L62.8555 80.3663L62.8365 79.6393L62.8102 78.7579L62.7872 78.0752L62.756 77.2503L62.722 76.4579L62.6851 75.6985L62.6616 75.259L62.6287 74.6923L62.5938 74.1479L62.5665 73.7544L62.5381 73.3738L62.4883 72.7685L62.4463 72.3109L62.4136 71.9834L62.3911 71.7726L62.3565 71.468L62.3208 71.1772L62.2964 70.9912Z" fill="#FF4654"/>
<path fill-rule="evenodd" clip-rule="evenodd" d="M62.2964 70.9912L63.3217 70.8994L63.3468 71.0905L63.3834 71.3891L63.4189 71.7018L63.4532 72.0285L63.4972 72.4856L63.5288 72.8443L63.5593 73.2166L63.5982 73.7336L63.6441 74.4127L63.6785 74.9817L63.7189 75.7247L63.7633 76.6617L63.7906 77.3134L63.8221 78.1578L63.8396 78.68L63.8715 79.7588L63.886 80.3151L63.9119 81.4606L63.9338 82.6492C63.9943 86.3075 63.9973 90.194 63.964 93.8921L63.9347 96.4275L63.9281 96.8476L62.8968 96.8358L62.911 95.8665L62.9249 94.6743C62.9632 91.0106 62.9668 87.1287 62.9145 83.4464L62.8991 82.463L62.8769 81.3019L62.8555 80.3663L62.8365 79.6393L62.8102 78.7579L62.7872 78.0752L62.756 77.2503L62.722 76.4579L62.6851 75.6985L62.6616 75.259L62.6287 74.6923L62.5938 74.1479L62.5665 73.7544L62.5381 73.3738L62.4883 72.7685L62.4463 72.3109L62.4136 71.9834L62.3911 71.7726L62.3565 71.468L62.3208 71.1772L62.2964 70.9912Z" fill="#797979" fill-opacity="0.2" style="mix-blend-mode:multiply"/>
<path fill-rule="evenodd" clip-rule="evenodd" d="M58.0687 68.1747L57.942 68.5741C57.8567 68.8429 57.9988 69.1252 58.2909 69.268L62.4323 71.2917C62.6992 71.4221 63.0362 71.4086 63.2863 71.2576L66.9803 69.026C67.2209 68.8805 67.3359 68.6344 67.275 68.3957L67.1064 67.7338C67.1064 67.7338 63.11 66.9856 58.0687 68.1747Z" fill="#FF4654"/>
<path fill-rule="evenodd" clip-rule="evenodd" d="M58.0687 68.1747L57.942 68.5741C57.8567 68.8429 57.9988 69.1252 58.2909 69.268L62.4323 71.2917C62.6992 71.4221 63.0362 71.4086 63.2863 71.2576L66.9803 69.026C67.2209 68.8805 67.3359 68.6344 67.275 68.3957L67.1064 67.7338C67.1064 67.7338 63.11 66.9856 58.0687 68.1747Z" fill="#797979" fill-opacity="0.2" style="mix-blend-mode:multiply"/>
<path fill-rule="evenodd" clip-rule="evenodd" d="M65.8745 70.959L66.905 70.9951C66.8744 71.5739 66.8878 72.1903 66.9419 72.8392C67.0619 74.2778 67.3752 75.8216 67.8224 77.3871C68.0068 78.0323 68.203 78.6426 68.4003 79.2032L68.4986 79.4782L68.5917 79.7305L68.7431 80.1222L68.7559 80.1535L67.7781 80.421L67.7416 80.3301L67.6652 80.1342L67.5742 79.8927L67.4761 79.6241C67.2516 78.9993 67.0272 78.3105 66.8178 77.5774C66.3589 75.9713 66.037 74.3848 65.9128 72.8961C65.8625 72.293 65.8458 71.7146 65.8654 71.1641L65.8745 70.959Z" fill="white"/>
<path fill-rule="evenodd" clip-rule="evenodd" d="M59.29 70.916L60.1675 71.3575C58.7775 73.1894 58.5038 74.3077 58.896 75.6173L58.9385 75.7524L58.9837 75.8854C58.9917 75.9081 58.9999 75.9311 59.0083 75.9545L59.0623 76.0998C59.0719 76.125 59.0817 76.1506 59.0919 76.1769L59.2149 76.4841L59.4482 77.0553C59.9562 78.3191 60.2012 79.3104 60.216 80.6059L60.2166 80.7629L59.1852 80.761C59.1885 79.5395 58.9824 78.6282 58.5263 77.4636L58.4272 77.2163L58.1764 76.6023L58.1073 76.4271C58.0964 76.3991 58.0859 76.3717 58.0756 76.3447L58.0176 76.1883C57.9811 76.0872 57.9486 75.9915 57.9187 75.8969C57.4305 74.3512 57.7234 73.0131 59.2119 71.0197L59.29 70.916Z" fill="white"/>
<path fill-rule="evenodd" clip-rule="evenodd" d="M65.8745 70.959L66.905 70.9951C66.8744 71.5739 66.8878 72.1903 66.9419 72.8392C67.0619 74.2778 67.3752 75.8216 67.8224 77.3871C68.0068 78.0323 68.203 78.6426 68.4003 79.2032L68.4986 79.4782L68.5917 79.7305L68.7431 80.1222L68.7559 80.1535L67.7781 80.421L67.7416 80.3301L67.6652 80.1342L67.5742 79.8927L67.4761 79.6241C67.2516 78.9993 67.0272 78.3105 66.8178 77.5774C66.3589 75.9713 66.037 74.3848 65.9128 72.8961C65.8625 72.293 65.8458 71.7146 65.8654 71.1641L65.8745 70.959Z" fill="#797979" fill-opacity="0.2" style="mix-blend-mode:multiply"/>
<path fill-rule="evenodd" clip-rule="evenodd" d="M59.29 70.916L60.1675 71.3575C58.7775 73.1894 58.5038 74.3077 58.896 75.6173L58.9385 75.7524L58.9837 75.8854C58.9917 75.9081 58.9999 75.9311 59.0083 75.9545L59.0623 76.0998C59.0719 76.125 59.0817 76.1506 59.0919 76.1769L59.2149 76.4841L59.4482 77.0553C59.9562 78.3191 60.2012 79.3104 60.216 80.6059L60.2166 80.7629L59.1852 80.761C59.1885 79.5395 58.9824 78.6282 58.5263 77.4636L58.4272 77.2163L58.1764 76.6023L58.1073 76.4271C58.0964 76.3991 58.0859 76.3717 58.0756 76.3447L58.0176 76.1883C57.9811 76.0872 57.9486 75.9915 57.9187 75.8969C57.4305 74.3512 57.7234 73.0131 59.2119 71.0197L59.29 70.916Z" fill="#797979" fill-opacity="0.2" style="mix-blend-mode:multiply"/>
<path fill-rule="evenodd" clip-rule="evenodd" d="M86.9487 172.417C84.8373 172.93 82.2349 173.039 79.8515 172.982C76.1841 172.897 73.0427 172.417 73.0427 172.417C72.9386 171.193 72.8184 169.956 72.6877 168.707C71.0595 153.073 67.5896 135.31 65.209 114.377C65.0249 112.733 64.8431 111.071 64.6724 109.389C64.6136 108.821 64.0507 108.386 63.3699 108.386H61.1118C61.1118 109.732 61.1092 111.062 61.1066 112.375V112.381C61.0398 140.333 60.2711 160.969 59.9134 169.141C59.8013 171.663 59.7293 172.997 59.7293 172.997C57.4552 173.53 55.464 173.773 53.7558 173.839C48.4925 174.034 45.8901 172.535 45.8901 172.535L46.1251 169.196L51.0655 98.7163L75.4796 99.327C79.6833 128.17 81.976 142.598 86.2919 168.479C86.5054 169.763 86.7244 171.074 86.9487 172.417Z" fill="#6343F0"/>
<path fill-rule="evenodd" clip-rule="evenodd" d="M86.9486 172.417C84.8372 172.93 82.2348 173.039 79.8513 172.982C76.1839 172.897 73.0426 172.417 73.0426 172.417C72.9384 171.193 72.8182 169.956 72.6875 168.707C77.8415 169.191 85.4563 168.552 86.2918 168.479C86.5053 169.763 86.7242 171.074 86.9486 172.417Z" fill="white" fill-opacity="0.3" style="mix-blend-mode:lighten"/>
<path fill-rule="evenodd" clip-rule="evenodd" d="M59.9134 169.141C59.8013 171.662 59.7293 172.997 59.7293 172.997C57.4552 173.529 55.4642 173.773 53.7558 173.838C48.4925 174.034 45.8901 172.534 45.8901 172.534L46.1251 169.195L46.157 169.135C46.157 169.135 53.8226 170.224 59.9134 169.141Z" fill="white" fill-opacity="0.3" style="mix-blend-mode:lighten"/>
<path fill-rule="evenodd" clip-rule="evenodd" d="M77.5616 130.179C78.0688 133.342 76.4448 135.525 74.6384 134.109C72.8321 132.693 72.1977 128.739 73.4971 126.992C74.7962 125.245 77.0544 127.016 77.5616 130.179Z" fill="white" fill-opacity="0.3" style="mix-blend-mode:lighten"/>
<path fill-rule="evenodd" clip-rule="evenodd" d="M56.4294 130.541C56.6622 127.357 54.8535 125.271 53.1738 126.788C51.4943 128.305 51.2032 132.285 52.6501 133.953C54.097 135.621 56.1965 133.726 56.4294 130.541Z" fill="white" fill-opacity="0.3" style="mix-blend-mode:lighten"/>
<path fill-rule="evenodd" clip-rule="evenodd" d="M67.8788 107.912L67.8889 108.752L61.1166 108.806L61.1064 107.966L67.8788 107.912Z" fill="#6343F0"/>
<path fill-rule="evenodd" clip-rule="evenodd" d="M67.8788 107.912L67.8889 108.752L61.1166 108.806L61.1064 107.966L67.8788 107.912Z" fill="#797979" fill-opacity="0.2" style="mix-blend-mode:multiply"/>
<path fill-rule="evenodd" clip-rule="evenodd" d="M75.6988 101.015L75.7941 101.852L70.7936 102.229L70.6982 101.393L75.6988 101.015Z" fill="#797979" fill-opacity="0.2" style="mix-blend-mode:multiply"/>
<path fill-rule="evenodd" clip-rule="evenodd" d="M50.903 101.206L54.121 101.393L54.0475 102.231L50.8296 102.043L50.903 101.206Z" fill="#797979" fill-opacity="0.2" style="mix-blend-mode:multiply"/>
<path fill-rule="evenodd" clip-rule="evenodd" d="M63.835 99.3491L63.9804 105.626L62.9491 105.642L62.8037 99.365L63.835 99.3491Z" fill="#797979" fill-opacity="0.2" style="mix-blend-mode:multiply"/>
<path fill-rule="evenodd" clip-rule="evenodd" d="M68.0521 56.3915L68.0562 56.3673C68.0648 56.3738 68.0617 56.3818 68.0521 56.3915Z" fill="white"/>
<path fill-rule="evenodd" clip-rule="evenodd" d="M66.1443 64.647C65.9537 67.6173 66.3176 70.4346 59.842 68.9587C59.6507 68.9153 59.5133 68.7792 59.5011 68.6179L59.333 66.3865L59.2642 64.651L62.4351 64.6489L66.1443 64.647Z" fill="#FF9B89"/>
<path fill-rule="evenodd" clip-rule="evenodd" d="M66.1443 64.647C65.9537 67.6173 66.3176 70.4346 59.842 68.9587C59.6507 68.9153 59.5133 68.7792 59.5011 68.6179L59.333 66.3865L59.2642 64.651L62.4351 64.6489L66.1443 64.647Z" fill="#797979" fill-opacity="0.2" style="mix-blend-mode:multiply"/>
<path fill-rule="evenodd" clip-rule="evenodd" d="M66.1283 65.2916C63.7312 66.5528 60.594 66.4797 59.333 66.3865L59.2642 64.6509L62.4351 64.649C62.4351 64.649 66.6662 63.8788 66.1283 65.2916Z" fill="#797979" fill-opacity="0.2" style="mix-blend-mode:multiply"/>
<path fill-rule="evenodd" clip-rule="evenodd" d="M67.2711 56.9409C70.4059 56.7633 70.3603 59.6691 67.5147 60.3411C65.9822 60.99 67.2711 56.9409 67.2711 56.9409Z" fill="#FF9B89"/>
<path fill-rule="evenodd" clip-rule="evenodd" d="M67.2711 56.9409C70.4059 56.7633 70.3603 59.6691 67.5147 60.3411C65.9822 60.99 67.2711 56.9409 67.2711 56.9409Z" fill="#797979" fill-opacity="0.2" style="mix-blend-mode:multiply"/>
<path fill-rule="evenodd" clip-rule="evenodd" d="M56.2822 52.813C56.4086 65.3075 57.6876 66.2281 67.4734 65.151C67.617 65.1353 67.7264 65.0362 67.7274 64.9177C67.7336 63.5503 67.7145 62.0824 67.6823 60.6517C67.6645 59.943 67.6438 59.2448 67.624 58.5741C67.5177 55.2699 67.371 52.6051 67.371 52.6051C64.3243 49.4432 60.7348 49.9711 56.2822 52.813Z" fill="#FF9B89"/>
<path fill-rule="evenodd" clip-rule="evenodd" d="M59.9166 59.7644C59.2864 60.3234 58.1159 60.1382 57.9419 59.4929C57.7678 58.8478 58.5556 58.1492 59.3599 58.2353C60.1639 58.3216 60.5468 59.2054 59.9166 59.7644Z" fill="#FF9B89"/>
<path fill-rule="evenodd" clip-rule="evenodd" d="M63.6941 57.209L64.0067 58.8437L64.0388 58.8293C64.2408 58.7406 64.4123 58.689 64.5616 58.6733L64.6058 58.6696C65.0505 58.6435 65.2707 58.9189 65.2197 59.2499C65.1711 59.5655 64.8643 60.0572 64.5158 60.4484L64.4632 60.5063L63.8455 60.127C64.0423 59.9144 64.2329 59.6479 64.347 59.4357L64.3643 59.4023L64.3479 59.41C64.25 59.4561 64.1331 59.5169 63.9993 59.5931L63.9409 59.6266L63.334 59.4187L62.9297 57.306L63.6941 57.209Z" fill="#FF9B89"/>
<path fill-rule="evenodd" clip-rule="evenodd" d="M55.4068 55.0218C55.5729 55.9413 55.9161 56.9806 56.477 58.1473C57.9703 57.8812 57.6897 56.9134 57.6041 54.8462C57.5884 54.4405 57.5642 54.0798 57.544 53.8181C57.5234 53.5413 57.5079 53.3725 57.5185 53.3698C58.5141 52.8948 59.3945 52.5376 60.1738 52.2791C66.6277 50.1212 66.1166 54.5745 67.1315 53.2597C67.4621 58.6725 67.7287 58.6725 68.0544 53.958C68.1277 52.8992 68.0516 52.0275 67.5586 51.1374C67.3747 50.8072 67.1413 50.474 66.8494 50.1298C64.9043 47.8653 54.0231 47.3861 55.4068 55.0218Z" fill="#7D3F50"/>
<path fill-rule="evenodd" clip-rule="evenodd" d="M65.5104 57.7167C65.0754 57.7127 64.809 57.302 65.0313 56.9775C65.2533 56.6533 65.7971 56.6581 66.0101 56.9868C66.2231 57.3152 65.9454 57.7209 65.5104 57.7167Z" fill="#362B42"/>
<path fill-rule="evenodd" clip-rule="evenodd" d="M61.3589 57.9346C60.8867 57.9919 60.4981 57.5171 60.659 57.0799C60.8199 56.6425 61.4099 56.5707 61.7209 56.9505C62.0319 57.3304 61.8308 57.8772 61.3589 57.9346Z" fill="#362B42"/>
<path fill-rule="evenodd" clip-rule="evenodd" d="M62.3454 54.5723C62.5232 54.5716 62.6715 54.6346 62.8264 54.7392C62.8953 54.7857 62.9643 54.8406 63.0338 54.9026C63.0804 54.9441 63.1236 54.9853 63.1624 55.024L63.2336 55.0976C63.2444 55.1091 63.2546 55.1202 63.2641 55.1309L63.2909 55.1611L62.6592 55.5248L62.6041 55.4649C62.5591 55.4177 62.5111 55.3706 62.4628 55.3276C62.4392 55.3066 62.4162 55.2872 62.3944 55.2698L62.3645 55.247L62.2695 55.319L62 55.526C61.7876 55.6851 61.6103 55.7989 61.4269 55.8825C61.1803 55.9951 60.9378 56.0435 60.6943 56.0013C60.3031 55.9336 59.8716 55.7088 59.4251 55.4028L59.3856 55.3753L58.676 55.9618L58.125 55.5196L58.9423 54.8441C59.1694 54.6563 59.5371 54.6447 59.7798 54.82C60.1813 55.1092 60.5953 55.3401 60.8553 55.3851C60.8861 55.3905 60.9512 55.3775 61.0488 55.333C61.1549 55.2845 61.2745 55.21 61.4204 55.1037L61.4919 55.0505L61.8038 54.811L61.8453 54.7799C62.0437 54.6353 62.1586 54.573 62.3454 54.5723Z" fill="#7D3F50"/>
<path fill-rule="evenodd" clip-rule="evenodd" d="M64.4146 54.7879C65.1619 54.3194 65.659 54.3927 66.2476 54.8387L66.4039 54.9598L66.469 55.0079L66.525 55.0466C66.5861 55.0866 66.6333 55.11 66.6825 55.1264C66.7026 55.1331 66.7215 55.1343 66.7544 55.1294L66.7818 55.1247L66.8109 55.1178L66.8451 55.108C66.8514 55.106 66.8581 55.1039 66.8652 55.1015L66.975 55.0629L67.0535 55.0341C67.7709 54.7683 68.3036 54.8094 68.9573 55.3927L69.0106 55.4412L68.4292 55.8568C68.0282 55.4847 67.8491 55.4449 67.4632 55.5757L67.3738 55.6075L67.2304 55.6599L67.1557 55.6859L67.0924 55.706C67.0825 55.7089 67.0729 55.7117 67.0635 55.7143L67.0086 55.7281L66.9535 55.7393C66.9346 55.7428 66.9149 55.746 66.8936 55.7491C66.7216 55.7747 66.5535 55.7641 66.3895 55.7095C66.2096 55.6495 66.0838 55.5768 65.8985 55.4374L65.6831 55.2711L65.6164 55.2226C65.3827 55.06 65.2623 55.0627 64.9705 55.2357L64.8864 55.2871L64.4146 54.7879Z" fill="#7D3F50"/>
<path fill-rule="evenodd" clip-rule="evenodd" d="M67.1313 53.2593C65.7981 55.1108 65.427 52.6993 64.7842 52.2761C64.1416 51.8534 64.6204 53.2127 62.9152 53.7289C61.2099 54.2448 59.7854 53.1314 59.7854 53.1314C58.8066 54.8693 57.519 53.3706 57.519 53.3706L57.6794 52.4641L65.5054 50.9341L67.1313 53.2593Z" fill="#7D3F50"/>
<path fill-rule="evenodd" clip-rule="evenodd" d="M55.4068 55.0218C56.1051 54.7091 56.8053 54.2807 57.544 53.8181C57.6346 53.7606 57.7341 53.7064 57.822 53.6442C59.3125 52.5899 65.228 54.4838 67.5586 51.1374C67.3747 50.8072 67.1413 50.474 66.8494 50.1298C64.9043 47.8653 54.0231 47.3861 55.4068 55.0218Z" fill="#797979" fill-opacity="0.2" style="mix-blend-mode:multiply"/>
<path fill-rule="evenodd" clip-rule="evenodd" d="M63.047 63.7818C62.9194 63.7929 62.7925 63.7934 62.6659 63.7896C62.539 63.7879 62.414 63.7726 62.2881 63.7631C62.1626 63.7499 62.0383 63.7314 61.915 63.7062C61.7917 63.6802 61.6711 63.6527 61.5488 63.609L61.6249 63.3171C61.7464 63.3139 61.8706 63.3221 61.9924 63.3295C62.1146 63.3375 62.2358 63.3499 62.3567 63.3648C62.5981 63.3977 62.8397 63.4257 63.0795 63.4847L63.047 63.7818Z" fill="#FF9B89"/>
<path fill-rule="evenodd" clip-rule="evenodd" d="M55.2037 51.0892C54.6743 51.1064 54.1421 51.1377 53.6537 51.2288C53.4183 51.2782 53.1823 51.3458 53.0469 51.438C52.9139 51.5297 52.8984 51.5982 52.9348 51.7656C52.9838 51.9281 53.098 52.1158 53.2202 52.3086C53.3422 52.5037 53.4807 52.7076 53.5763 52.9613C53.6235 53.0866 53.6584 53.2336 53.6375 53.3983C53.6269 53.5631 53.5225 53.7345 53.394 53.8573C53.121 54.0982 52.8087 54.1874 52.5227 54.2668L52.3146 53.6895C52.54 53.636 52.7522 53.5568 52.8505 53.4703C52.8925 53.4253 52.9247 53.3928 52.9278 53.3346C52.9384 53.28 52.9286 53.2044 52.8982 53.1192C52.8399 52.9487 52.7249 52.7592 52.6047 52.5606C52.4863 52.3592 52.353 52.1494 52.2775 51.8811C52.2489 51.7429 52.2259 51.5869 52.2911 51.4191C52.3541 51.2582 52.4863 51.1075 52.6331 51.0239C52.9263 50.8416 53.2244 50.7805 53.5101 50.7217C54.082 50.6253 54.6372 50.6054 55.1901 50.5957L55.2037 51.0892Z" fill="#15AD8B"/>
<path fill-rule="evenodd" clip-rule="evenodd" d="M55.2037 51.0892C54.6743 51.1064 54.1421 51.1377 53.6537 51.2288C53.4183 51.2782 53.1823 51.3458 53.0469 51.438C52.9139 51.5297 52.8984 51.5982 52.9348 51.7656C52.9838 51.9281 53.098 52.1158 53.2202 52.3086C53.3422 52.5037 53.4807 52.7076 53.5763 52.9613C53.6235 53.0866 53.6584 53.2336 53.6375 53.3983C53.6269 53.5631 53.5225 53.7345 53.394 53.8573C53.121 54.0982 52.8087 54.1874 52.5227 54.2668L52.3146 53.6895C52.54 53.636 52.7522 53.5568 52.8505 53.4703C52.8925 53.4253 52.9247 53.3928 52.9278 53.3346C52.9384 53.28 52.9286 53.2044 52.8982 53.1192C52.8399 52.9487 52.7249 52.7592 52.6047 52.5606C52.4863 52.3592 52.353 52.1494 52.2775 51.8811C52.2489 51.7429 52.2259 51.5869 52.2911 51.4191C52.3541 51.2582 52.4863 51.1075 52.6331 51.0239C52.9263 50.8416 53.2244 50.7805 53.5101 50.7217C54.082 50.6253 54.6372 50.6054 55.1901 50.5957L55.2037 51.0892Z" fill="#797979" fill-opacity="0.2" style="mix-blend-mode:multiply"/>
<path fill-rule="evenodd" clip-rule="evenodd" d="M54.7142 52.5898C66.1823 51.8315 72.8391 49.5273 75.5828 48.3469C75.9224 48.2008 75.7535 47.7795 75.3729 47.8219L67.4624 48.7018L65.5908 44.8107C60.0311 43.9617 53.832 47.8331 53.832 47.8331L54.7142 52.5898Z" fill="#15AD8B"/>
<path d="M57.5317 45.8384C57.1716 47.5725 57.3939 49.213 57.9839 50.6733C58.0937 50.9452 58.21 51.1922 58.3267 51.4126L58.3774 51.3813L58.5688 51.2642C58.6018 51.2442 58.6353 51.224 58.6694 51.2036C59.3508 50.7963 60.1165 50.3893 60.9497 50.0093C63.0083 49.0704 65.1324 48.449 67.2388 48.2954L67.4243 48.2827L67.4995 49.1206C65.5026 49.2402 63.4516 49.8305 61.4536 50.7417C60.6594 51.1039 59.9288 51.4924 59.2798 51.8804L59.0923 51.9937L58.9185 52.1021L58.7573 52.2046L58.5562 52.3374L58.481 52.3892L58.3579 52.4761L54.687 52.7817L54.5825 51.9458L57.3628 51.7144C57.2397 51.4794 57.1181 51.2189 57.0034 50.9351C56.3817 49.3958 56.1372 47.6744 56.4839 45.8511L56.5142 45.6987L57.5317 45.8384Z" fill="#15AD8B"/>
<path d="M57.5317 45.8384C57.1716 47.5725 57.3939 49.213 57.9839 50.6733C58.0937 50.9452 58.21 51.1922 58.3267 51.4126L58.3774 51.3813L58.5688 51.2642C58.6018 51.2442 58.6353 51.224 58.6694 51.2036C59.3508 50.7963 60.1165 50.3893 60.9497 50.0093C63.0083 49.0704 65.1324 48.449 67.2388 48.2954L67.4243 48.2827L67.4995 49.1206C65.5026 49.2402 63.4516 49.8305 61.4536 50.7417C60.6594 51.1039 59.9288 51.4924 59.2798 51.8804L59.0923 51.9937L58.9185 52.1021L58.7573 52.2046L58.5562 52.3374L58.481 52.3892L58.3579 52.4761L54.687 52.7817L54.5825 51.9458L57.3628 51.7144C57.2397 51.4794 57.1181 51.2189 57.0034 50.9351C56.3817 49.3958 56.1372 47.6744 56.4839 45.8511L56.5142 45.6987L57.5317 45.8384Z" fill="#797979" fill-opacity="0.2" style="mix-blend-mode:multiply"/>
<path fill-rule="evenodd" clip-rule="evenodd" d="M58.9516 44.9779C58.5251 45.4399 57.7657 45.4271 57.5847 44.9546C57.4037 44.4824 57.9367 43.9049 58.5442 43.9152C59.1517 43.9257 59.3781 44.516 58.9516 44.9779Z" fill="#15AD8B"/>
<path fill-rule="evenodd" clip-rule="evenodd" d="M63.9681 46.9862C64.2869 47.9621 63.5362 48.7777 62.6172 48.4543C61.6979 48.1309 61.2997 46.9111 61.9001 46.2586C62.5006 45.6062 63.6494 46.0104 63.9681 46.9862Z" fill="white"/>
<path fill-rule="evenodd" clip-rule="evenodd" d="M57.0956 58.0383C54.5955 55.1872 51.5125 58.0108 53.1729 59.865C54.8333 61.719 57.176 60.6307 57.176 60.6307L57.0956 58.0383Z" fill="#FF9B89"/>
<path fill-rule="evenodd" clip-rule="evenodd" d="M54.3599 57.936L56.1673 59.3686L55.6277 59.82L53.8203 58.3875L54.3599 57.936Z" fill="#FF9B89"/>
<path fill-rule="evenodd" clip-rule="evenodd" d="M55.5917 57.9053L56.1359 58.353L54.3406 59.8001L53.7964 59.3523L55.5917 57.9053Z" fill="#FF9B89"/>
<path fill-rule="evenodd" clip-rule="evenodd" d="M63.6941 57.209L64.0067 58.8437L64.0388 58.8293C64.2408 58.7406 64.4123 58.689 64.5616 58.6733L64.6058 58.6696C65.0505 58.6435 65.2707 58.9189 65.2197 59.2499C65.1711 59.5655 64.8643 60.0572 64.5158 60.4484L64.4632 60.5063L63.8455 60.127C64.0423 59.9144 64.2329 59.6479 64.347 59.4357L64.3643 59.4023L64.3479 59.41C64.25 59.4561 64.1331 59.5169 63.9993 59.5931L63.9409 59.6266L63.334 59.4187L62.9297 57.306L63.6941 57.209Z" fill="#797979" fill-opacity="0.2" style="mix-blend-mode:multiply"/>
<path d="M56.1362 58.3525L55.5161 58.8516L56.1675 59.3682L55.6274 59.8203L54.9653 59.2949L54.3403 59.7998L53.7964 59.3525L54.4116 58.8555L53.8208 58.3877L54.3599 57.9355L54.9614 58.4121L55.5913 57.9053L56.1362 58.3525Z" fill="#797979" fill-opacity="0.2" style="mix-blend-mode:multiply"/>
<path fill-rule="evenodd" clip-rule="evenodd" d="M67.6684 60.0722C67.3505 60.3311 66.8855 60.3763 66.5619 60.0947C66.0836 59.6781 66.2827 58.8627 66.9188 58.6239C67.179 58.5271 67.4307 58.5563 67.6269 58.6688C67.6408 59.1262 67.6545 59.5968 67.6684 60.0722Z" fill="#FF9B89"/>
<path fill-rule="evenodd" clip-rule="evenodd" d="M59.4469 60.8207C60.4219 63.2841 63.0467 63.0191 64.2737 62.2944C64.6491 62.0724 64.6341 61.613 64.2512 61.3998C62.4544 60.3984 60.3059 60.5342 59.6101 60.6122C59.4889 60.6258 59.4093 60.7258 59.4469 60.8207Z" fill="white"/>
<mask id="mask0_257_43076" style="mask-type:luminance" maskUnits="userSpaceOnUse" x="59" y="60" width="6" height="3">
<path fill-rule="evenodd" clip-rule="evenodd" d="M59.6531 60.6054C59.5328 60.6198 59.454 60.7236 59.4912 60.822C60.4566 63.3804 63.0546 63.1052 64.2688 62.3526C64.6404 62.1223 64.6256 61.6451 64.2469 61.4235C63.0163 60.7042 61.6194 60.5498 60.6472 60.5498C60.2138 60.5498 59.8652 60.5803 59.6531 60.6054Z" fill="white"/>
</mask>
<g mask="url(#mask0_257_43076)">
<path fill-rule="evenodd" clip-rule="evenodd" d="M61.2956 60.1797L61.7791 60.3197L60.8428 62.6803L60.3594 62.5403L61.2956 60.1797Z" fill="#797979" fill-opacity="0.2" style="mix-blend-mode:multiply"/>
</g>
<mask id="mask1_257_43076" style="mask-type:luminance" maskUnits="userSpaceOnUse" x="59" y="60" width="6" height="3">
<path fill-rule="evenodd" clip-rule="evenodd" d="M59.6531 60.6054C59.5328 60.6198 59.454 60.7236 59.4912 60.822C60.4566 63.3804 63.0546 63.1052 64.2688 62.3526C64.6404 62.1223 64.6256 61.6451 64.2469 61.4235C63.0163 60.7042 61.6194 60.5498 60.6472 60.5498C60.2138 60.5498 59.8652 60.5803 59.6531 60.6054Z" fill="white"/>
</mask>
<g mask="url(#mask1_257_43076)">
<path fill-rule="evenodd" clip-rule="evenodd" d="M62.9257 60.7173L63.4251 60.8079L62.848 63.1301L62.3486 63.0395L62.9257 60.7173Z" fill="#797979" fill-opacity="0.2" style="mix-blend-mode:multiply"/>
</g>
<path fill-rule="evenodd" clip-rule="evenodd" d="M50.9382 70.7246L50.9578 85.5626L50.1113 100.687L40.1279 97.4201C40.1279 97.4201 41.4419 91.0862 43.6736 84.5055L43.7226 84.3649C45.7586 78.4027 47.6833 72.4879 50.9382 70.7246Z" fill="#FF4654"/>
<path fill-rule="evenodd" clip-rule="evenodd" d="M50.9578 85.5624L49.8027 106.206L38.0479 104.997C38.0479 104.997 41.4419 91.0863 43.6736 84.5054L43.7227 84.3647L50.9578 85.5624Z" fill="#FF4654"/>
<path fill-rule="evenodd" clip-rule="evenodd" d="M50.9578 85.5624L49.8027 106.206L38.0479 104.997C38.0479 104.997 41.4419 91.0863 43.6736 84.5054L43.7227 84.3647L50.9578 85.5624Z" fill="#797979" fill-opacity="0.2" style="mix-blend-mode:multiply"/>
<path fill-rule="evenodd" clip-rule="evenodd" d="M104.939 79.0532C94.6084 86.7538 84.0422 80.6564 78.6749 78.2388C77.3465 77.6392 76.336 77.2654 75.7266 77.3829C75.732 77.4675 73.1124 73.2665 71.5273 68.8742C73.5641 68.7309 74.9808 67.8077 76.1597 66.4566C80.0062 62.0383 81.2757 53.0409 93.1783 51.7766C108.716 50.1259 117.826 69.4499 104.939 79.0532Z" fill="#FF4654"/>
<path fill-rule="evenodd" clip-rule="evenodd" d="M104.939 79.0532C94.6084 86.7538 84.0422 80.6564 78.6749 78.2388C77.3465 77.6392 76.336 77.2654 75.7266 77.3829C75.732 77.4675 73.1124 73.2665 71.5273 68.8742C73.5641 68.7309 74.9808 67.8077 76.1597 66.4566C80.0062 62.0383 81.2757 53.0409 93.1783 51.7766C108.716 50.1259 117.826 69.4499 104.939 79.0532Z" fill="#797979" fill-opacity="0.2" style="mix-blend-mode:multiply"/>
<path fill-rule="evenodd" clip-rule="evenodd" d="M78.6748 78.2387C77.3464 77.6391 76.3359 77.2656 75.7265 77.3829C75.7319 77.4677 70.6309 73.5812 70.6309 68.5764C72.6676 68.433 74.9807 67.8076 76.1595 66.4565C74.89 72.8083 76.729 76.338 78.6748 78.2387Z" fill="#FF4654"/>
<path fill-rule="evenodd" clip-rule="evenodd" d="M81.6152 70.3564C90.4936 84.0444 105.244 78.735 105.244 78.735L98.6671 70.3564H81.6152Z" fill="#362B42"/>
<path fill-rule="evenodd" clip-rule="evenodd" d="M87.428 73.7374C101.38 81.2191 108.669 78.7347 108.669 78.7347L111.111 56.0653L92.9789 53.2944L83.2339 68.6789L87.428 73.7374Z" fill="#FF9B89"/>
<path fill-rule="evenodd" clip-rule="evenodd" d="M121.796 47.4248C121.796 47.4248 128.154 48.4978 129.059 49.9509C129.964 51.404 129.52 56.0655 129.52 56.0655C129.52 56.0655 131.431 58.7654 132.019 61.0227C132.608 63.2802 128.094 76.2112 126.329 77.6521C124.565 79.0928 116.063 81.2865 114.712 81.2179C113.362 81.149 111.483 78.5906 111.483 78.5906C111.483 78.5906 107.432 80.1276 105.206 79.6607C102.981 79.1937 100.204 76.8481 100.434 74.9629C100.664 73.0775 101.919 70.0254 101.919 70.0254L121.796 47.4248Z" fill="#FF9B89"/>
<path fill-rule="evenodd" clip-rule="evenodd" d="M111.669 62.9538C109.697 65.7531 105.207 68.9764 102.966 69.5479C100.726 70.1195 101.248 56.29 101.248 56.29L83.2334 51.1733C86.0549 48.4788 88.0876 46.0925 89.6517 44.0442C92.4477 40.3817 93.7567 37.8039 95.4332 36.5162C98.0482 34.5078 102.75 33.1034 104.317 33.1128C105.885 33.1221 117.775 46.4308 118.173 48.1126C118.57 49.7968 113.644 60.1544 111.669 62.9538Z" fill="#FF9B89"/>
<path d="M89.6523 44.0438C97.4657 42.4133 101.074 45.4106 102.966 47.0389C105.141 48.9121 106.703 49.4354 106.703 49.4354C105.211 51.4436 103.82 53.2052 102.538 54.7547L111.11 56.0652L110.679 60.0643L121.797 47.4246C121.854 47.4342 128.158 48.5044 129.059 49.951C129.963 51.4042 129.52 56.0652 129.52 56.0652C129.52 56.0652 131.431 58.765 132.02 61.0223C132.608 63.2798 128.094 76.2112 126.329 77.6522C124.563 79.0929 116.062 81.2862 114.712 81.2176C113.363 81.1485 111.486 78.5954 111.482 78.5906C111.431 78.6101 107.417 80.1239 105.206 79.66C104.694 79.5525 104.152 79.3453 103.625 79.0672C100.06 78.8041 94.6321 77.6003 87.4277 73.7371L83.2344 68.6785L91.2373 56.0418L83.2334 51.1727C86.0552 48.4782 88.0879 46.0918 89.6523 44.0438Z" fill="#797979" fill-opacity="0.2" style="mix-blend-mode:multiply"/>
<path fill-rule="evenodd" clip-rule="evenodd" d="M122.594 62.4659C122.017 65.578 116.856 69.9868 112.432 72.9635C109.772 74.7505 107.38 76.0195 106.41 76.178C105.796 76.2783 104.969 76.1687 104.062 75.8959C101.16 75.021 101.313 72.2676 101.055 69.5475C100.713 65.9807 108.503 39.229 108.503 39.229C108.503 39.229 119.468 37.7173 121.584 39.264C123.696 40.8107 123.518 57.4808 122.594 62.4659Z" fill="#FF9B89"/>
<path fill-rule="evenodd" clip-rule="evenodd" d="M97.3422 38.7188C97.5033 38.8331 97.5199 39.032 97.3792 39.1629L97.32 39.222L97.2541 39.2919L97.1824 39.3716C97.17 39.3857 97.1574 39.4002 97.1446 39.4151C96.9597 39.6306 96.7741 39.8817 96.6005 40.1653C95.4157 42.1015 95.4087 44.313 97.3746 46.6553C97.4952 46.799 97.4496 46.9948 97.2729 47.0928C97.0961 47.1907 96.8551 47.1537 96.7346 47.0101C94.5976 44.4638 94.6052 42.012 95.9068 39.885C96.0981 39.5725 96.3032 39.2949 96.5091 39.055L96.5813 38.9724L96.6467 38.9004L96.7046 38.839L96.7544 38.7885L96.7956 38.7489C96.9363 38.6179 97.181 38.6044 97.3422 38.7188Z" fill="#FF9B89"/>
<path fill-rule="evenodd" clip-rule="evenodd" d="M129.35 56.465C129.554 56.5176 129.667 56.6945 129.602 56.8603L129.182 57.9259L128.688 59.1661L128.362 59.9767L128.013 60.8384L127.663 61.6965L127.313 62.5488L126.963 63.3929C126.905 63.5327 126.847 63.6722 126.789 63.8111L126.442 64.6385C126.384 64.7753 126.326 64.9115 126.269 65.0471L125.875 65.9721L125.49 66.8646L125.093 67.7717L124.767 68.5059L124.505 69.0867L124.203 69.7455L123.962 70.2622L123.73 70.7489L123.552 71.1164L123.338 71.548L123.134 71.9482L122.978 72.2456L122.903 72.3865L122.757 72.6528L122.653 72.8388L122.551 73.0128L122.486 73.1222L122.392 73.2761L122.301 73.4179L122.243 73.5055L122.186 73.5877L122.132 73.6643L122.079 73.7353C122.07 73.7467 122.061 73.7579 122.053 73.7688L122.003 73.8314C121.698 74.2002 121.23 74.5838 120.612 74.9847C119.945 75.4177 119.109 75.8666 118.135 76.3263L117.806 76.4799C117.527 76.6083 117.237 76.7374 116.938 76.8672C115.775 77.3712 114.532 77.8566 113.288 78.3061L112.968 78.4211L112.66 78.53L112.366 78.6326L112.011 78.754L111.627 78.8825C111.429 78.9471 111.203 78.8687 111.124 78.7073C111.044 78.5459 111.141 78.3626 111.339 78.298L111.643 78.1967L112.062 78.0533L112.353 77.952L112.657 77.8445L112.973 77.7309C114.201 77.2871 115.429 76.8079 116.573 76.3117C116.69 76.2611 116.805 76.2107 116.918 76.1603L117.254 76.0097C118.411 75.4841 119.387 74.9742 120.129 74.4927C120.69 74.1286 121.106 73.7882 121.359 73.4809L121.405 73.4235L121.453 73.3605L121.503 73.2919L121.554 73.2176L121.608 73.1378L121.691 73.0078L121.779 72.8655L121.84 72.764L121.967 72.5448L122.067 72.3665L122.171 72.1766L122.279 71.9751L122.466 71.6138L122.665 71.2214L122.873 70.7984L123.091 70.3456L123.366 69.7635L123.605 69.247L123.853 68.7026L124.162 68.0134L124.539 67.1611L124.817 66.5214L125.034 66.0201L125.365 65.2461L125.536 64.8421L125.882 64.023L126.229 63.191L126.578 62.3483C126.636 62.2071 126.695 62.0656 126.753 61.9238L127.103 61.0697L127.451 60.2109C127.51 60.0675 127.568 59.924 127.625 59.7805L128.098 58.6029L128.761 56.931L128.864 56.6699C128.929 56.5042 129.146 56.4124 129.35 56.465Z" fill="#FF9B89"/>
<path fill-rule="evenodd" clip-rule="evenodd" d="M118.405 48.3275C118.576 48.4317 118.611 48.6289 118.483 48.7681C118.355 48.9073 118.112 48.9357 117.941 48.8316C115.364 47.2646 112.95 46.8698 111.029 47.1153L110.928 47.1291L110.843 47.1421L110.747 47.1593L110.705 47.1683C110.499 47.2168 110.285 47.1207 110.225 46.9537C110.165 46.7868 110.284 46.6121 110.489 46.5637L110.518 46.5571L110.59 46.5426L110.679 46.5268L110.786 46.5102L110.909 46.4933C113.026 46.2228 115.65 46.6521 118.405 48.3275Z" fill="#FF9B89"/>
<path fill-rule="evenodd" clip-rule="evenodd" d="M116.152 60.0419C116.19 59.8707 116.391 59.7567 116.601 59.7872L116.666 59.7974L116.748 59.8122L116.848 59.8319L116.965 59.8568C116.985 59.8613 117.007 59.8661 117.029 59.8712C117.355 59.9453 117.716 60.0461 118.104 60.1774C119.209 60.5511 120.312 61.0952 121.341 61.842C121.899 62.2464 122.42 62.701 122.898 63.2084C123.028 63.3464 122.996 63.544 122.826 63.6497C122.656 63.7553 122.413 63.7291 122.283 63.591C121.835 63.1155 121.347 62.69 120.826 62.3117C119.864 61.6142 118.835 61.1065 117.806 60.7586C117.448 60.6374 117.116 60.5449 116.82 60.4774L116.703 60.4517L116.598 60.4305L116.505 60.4134L116.466 60.407C116.255 60.3765 116.115 60.2131 116.152 60.0419Z" fill="#FF9B89"/>
<path fill-rule="evenodd" clip-rule="evenodd" d="M117.996 70.8007C118.134 70.6827 118.358 70.6712 118.513 70.7691L118.543 70.7901L121.948 73.4285C122.103 73.5485 122.109 73.7477 121.961 73.8736C121.823 73.9915 121.599 74.0031 121.444 73.9052L121.414 73.8842L118.009 71.2457C117.854 71.1258 117.848 70.9265 117.996 70.8007Z" fill="#FF9B89"/>
<path d="M128.864 56.6701C128.929 56.5044 129.146 56.4124 129.35 56.465C129.554 56.5176 129.667 56.6948 129.602 56.8605L129.182 57.9259L128.687 59.1662L128.361 59.9767L128.012 60.838L127.663 61.6964L127.312 62.549L126.962 63.3927C126.904 63.5326 126.847 63.6727 126.789 63.8117L126.441 64.6388C126.383 64.7754 126.326 64.9116 126.269 65.047L125.875 65.9718L125.49 66.8644L125.092 67.7716L124.766 68.506L124.504 69.0871L124.203 69.7453L123.962 70.2619L123.73 70.7492L123.551 71.1164L123.337 71.548L123.133 71.9484L122.978 72.2453L122.903 72.3869L122.757 72.6525L122.652 72.839L122.551 73.0128L122.486 73.1222L122.391 73.2765L122.3 73.4181L122.243 73.506L122.186 73.588L122.131 73.6642L122.079 73.7355C122.07 73.7469 122.061 73.7578 122.052 73.7687L122.01 73.8195C122.009 73.8217 122.007 73.8241 122.005 73.8263L122.003 73.8312C121.698 74.2 121.23 74.5836 120.612 74.9845C119.944 75.4174 119.109 75.8667 118.135 76.3263L117.805 76.4796C117.526 76.608 117.236 76.7375 116.937 76.8673C115.775 77.3713 114.531 77.8564 113.288 78.3058L112.967 78.421L112.66 78.5304L112.366 78.633L112.011 78.7541L111.627 78.883C111.428 78.9474 111.203 78.8685 111.124 78.7072C111.044 78.5459 111.14 78.3627 111.338 78.298L111.643 78.1964L112.062 78.0539L112.352 77.9523L112.657 77.8449L112.973 77.7306C114.201 77.2868 115.429 76.8078 116.573 76.3117C116.689 76.2612 116.804 76.2106 116.918 76.1603L117.253 76.0099C118.411 75.4843 119.386 74.9738 120.128 74.4923C120.565 74.2094 120.912 73.9404 121.165 73.6906L118.008 71.2462C117.854 71.1263 117.848 70.9268 117.996 70.8009C118.134 70.6831 118.358 70.6718 118.513 70.7697L118.543 70.7902L121.594 73.1554L121.607 73.1378L121.691 73.008L121.779 72.8654L121.839 72.7638L121.966 72.5451L122.067 72.3664L122.17 72.1769L122.278 71.9748L122.466 71.6144L122.665 71.2218L122.873 70.799L123.091 70.3459L123.366 69.7638L123.604 69.2472L123.852 68.7023L124.162 68.0138L124.539 67.1613L124.817 66.5216L125.034 66.0207L125.365 65.2462L125.536 64.8419L125.881 64.0236L126.229 63.1916L126.578 62.3488C126.636 62.2076 126.694 62.0658 126.753 61.924L127.102 61.0695L127.451 60.2111C127.509 60.0677 127.568 59.924 127.626 59.7804L128.098 58.6027L128.761 56.9308L128.864 56.6701Z" fill="#797979" fill-opacity="0.2" style="mix-blend-mode:multiply"/>
<path d="M128.864 56.6701C128.929 56.5044 129.146 56.4124 129.35 56.465C129.554 56.5176 129.667 56.6948 129.602 56.8605L129.182 57.9259L128.687 59.1662L128.361 59.9767L128.012 60.838L127.663 61.6964L127.312 62.549L126.962 63.3927C126.904 63.5326 126.847 63.6727 126.789 63.8117L126.441 64.6388C126.383 64.7754 126.326 64.9116 126.269 65.047L125.875 65.9718L125.49 66.8644L125.092 67.7716L124.766 68.506L124.504 69.0871L124.203 69.7453L123.962 70.2619L123.73 70.7492L123.551 71.1164L123.337 71.548L123.133 71.9484L122.978 72.2453L122.903 72.3869L122.757 72.6525L122.652 72.839L122.551 73.0128L122.486 73.1222L122.391 73.2765L122.3 73.4181L122.243 73.506L122.186 73.588L122.131 73.6642L122.079 73.7355C122.07 73.7469 122.061 73.7578 122.052 73.7687L122.01 73.8195C122.009 73.8217 122.007 73.8241 122.005 73.8263L122.003 73.8312C121.698 74.2 121.23 74.5836 120.612 74.9845C119.944 75.4174 119.109 75.8667 118.135 76.3263L117.805 76.4796C117.526 76.608 117.236 76.7375 116.937 76.8673C115.775 77.3713 114.531 77.8564 113.288 78.3058L112.967 78.421L112.66 78.5304L112.366 78.633L112.011 78.7541L111.627 78.883C111.428 78.9474 111.203 78.8685 111.124 78.7072C111.044 78.5459 111.14 78.3627 111.338 78.298L111.643 78.1964L112.062 78.0539L112.352 77.9523L112.657 77.8449L112.973 77.7306C114.201 77.2868 115.429 76.8078 116.573 76.3117C116.689 76.2612 116.804 76.2106 116.918 76.1603L117.253 76.0099C118.411 75.4843 119.386 74.9738 120.128 74.4923C120.565 74.2094 120.912 73.9404 121.165 73.6906L118.008 71.2462C117.854 71.1263 117.848 70.9268 117.996 70.8009C118.134 70.6831 118.358 70.6718 118.513 70.7697L118.543 70.7902L121.594 73.1554L121.607 73.1378L121.691 73.008L121.779 72.8654L121.839 72.7638L121.966 72.5451L122.067 72.3664L122.17 72.1769L122.278 71.9748L122.466 71.6144L122.665 71.2218L122.873 70.799L123.091 70.3459L123.366 69.7638L123.604 69.2472L123.852 68.7023L124.162 68.0138L124.539 67.1613L124.817 66.5216L125.034 66.0207L125.365 65.2462L125.536 64.8419L125.881 64.0236L126.229 63.1916L126.578 62.3488C126.636 62.2076 126.694 62.0658 126.753 61.924L127.102 61.0695L127.451 60.2111C127.509 60.0677 127.568 59.924 127.626 59.7804L128.098 58.6027L128.761 56.9308L128.864 56.6701Z" fill="#797979" fill-opacity="0.2" style="mix-blend-mode:multiply"/>
<path fill-rule="evenodd" clip-rule="evenodd" d="M112.432 72.9639C109.771 74.7508 107.38 76.0199 106.41 76.1783C105.796 76.2787 104.969 76.1691 104.062 75.8963L102.965 62.1678L108.006 50.8188C109.404 59.6016 112.757 61.7011 112.757 61.7011C109.92 68.6879 110.833 71.8931 112.432 72.9639Z" fill="#797979" fill-opacity="0.2" style="mix-blend-mode:multiply"/>
<path fill-rule="evenodd" clip-rule="evenodd" d="M108.935 37.3571C109.102 37.2492 109.346 37.2721 109.479 37.4084L109.872 37.8157L110.308 38.2724L110.781 38.7728L110.905 38.9043C111.974 40.0416 113.043 41.2111 114.041 42.3484L114.215 42.5471L114.555 42.9391L114.98 43.435L115.258 43.7625L115.612 44.1865L115.866 44.4948L116.029 44.6957L116.266 44.99L116.418 45.1815L116.638 45.4616L116.847 45.7332L116.98 45.9094L117.109 46.0818L117.292 46.333L117.409 46.4956L117.52 46.6542L117.627 46.8089L117.728 46.9596L117.825 47.1063L117.916 47.2489L118.003 47.3876L118.084 47.5221L118.16 47.6526L118.231 47.779C118.242 47.7997 118.253 47.8202 118.264 47.8406L118.327 47.9608C118.337 47.9805 118.347 48 118.357 48.0193L118.412 48.1332C118.421 48.1519 118.429 48.1703 118.437 48.1886L118.484 48.2963C118.529 48.4018 118.565 48.501 118.593 48.5938L118.618 48.6845C118.648 48.8025 118.663 48.909 118.663 49.0039C118.663 49.3544 118.493 49.9822 118.205 50.7881L118.11 51.0483C118.077 51.137 118.043 51.2275 118.007 51.3198L117.897 51.6016L117.781 51.8933L117.658 52.1939L117.529 52.503L117.394 52.8197C117.371 52.8731 117.348 52.9268 117.324 52.9807L117.182 53.3076L117.034 53.6405L116.804 54.1493L116.646 54.494L116.484 54.8421L116.319 55.1931L116.151 55.5461L115.981 55.9006L115.808 56.2558L115.634 56.611L115.458 56.9656L115.281 57.3188L115.014 57.8445L114.836 58.1913L114.658 58.5342L114.392 59.0401L114.216 59.3705L113.955 59.8543L113.783 60.1679L113.53 60.6232L113.364 60.9156L113.202 61.1982L113.044 61.4706L112.889 61.7318L112.739 61.9812C112.714 62.0218 112.689 62.0618 112.665 62.1013L112.522 62.3318C112.498 62.3691 112.475 62.4058 112.452 62.442L112.317 62.6519C112.206 62.8209 112.102 62.9747 112.004 63.1116C111.755 63.4606 111.382 63.8655 110.898 64.3204L110.722 64.4831L110.538 64.6499C110.475 64.7061 110.41 64.7631 110.344 64.8207L110.142 64.9955C110.107 65.0249 110.072 65.0546 110.037 65.0844L109.822 65.2651L109.598 65.4496C109.56 65.4807 109.522 65.5119 109.483 65.5433C109.144 65.8181 108.782 66.1022 108.399 66.3938C107.551 67.0408 106.643 67.6954 105.735 68.3247L105.468 68.5088L105.091 68.7663L104.701 69.0292L104.522 69.1482C104.356 69.2576 104.112 69.2368 103.977 69.1017C103.843 68.9666 103.868 68.7684 104.035 68.6589L104.363 68.4399L104.716 68.2006L104.968 68.028L105.232 67.8457C106.131 67.2224 107.031 66.5741 107.869 65.9347C108.246 65.6473 108.603 65.3677 108.936 65.0976L109.155 64.9182C109.227 64.859 109.297 64.8004 109.367 64.7425L109.569 64.5707L109.764 64.403C109.795 64.3754 109.827 64.3479 109.858 64.3207L110.039 64.1592C110.098 64.106 110.155 64.0536 110.211 64.0019L110.374 63.8491L110.528 63.7007C110.877 63.3598 111.148 63.0562 111.334 62.7958L111.422 62.6707L111.513 62.5365L111.608 62.3936L111.707 62.2422L111.808 62.0826L111.966 61.8286L112.131 61.5578L112.301 61.2715L112.477 60.9705L112.718 60.5482L112.904 60.2171L113.157 59.7584L113.416 59.2823L113.612 58.9152L113.876 58.4144L114.142 57.9028L114.408 57.383L114.608 56.9891L114.806 56.5929L114.979 56.2437L115.244 55.7016L115.555 55.0539L115.856 54.4135L116.146 53.7851L116.377 53.2736L116.553 52.8744L116.68 52.5817L116.803 52.2953L116.959 51.9244L117.069 51.655L117.14 51.4799L117.207 51.3087L117.335 50.9784L117.451 50.6654L117.53 50.4428L117.603 50.2312L117.646 50.0966L117.687 49.9673L117.724 49.8435L117.758 49.7253L117.788 49.613L117.814 49.5066C117.818 49.4894 117.822 49.4725 117.826 49.4558L117.846 49.3588L117.863 49.2681L117.875 49.1841C117.877 49.1706 117.879 49.1575 117.88 49.1446L117.886 49.0707C117.888 49.0473 117.889 49.025 117.889 49.0039C117.889 48.9213 117.87 48.8219 117.834 48.7063L117.807 48.6269C117.792 48.586 117.775 48.5434 117.756 48.499L117.716 48.4079L117.671 48.3122L117.621 48.212C117.612 48.1949 117.603 48.1776 117.594 48.1602L117.536 48.0533L117.474 47.942C117.463 47.9231 117.452 47.904 117.44 47.8847L117.37 47.7669L117.295 47.6449L117.216 47.5187L117.131 47.3883L116.995 47.185L116.849 46.9727L116.746 46.8263L116.639 46.6759L116.527 46.5217L116.35 46.2834L116.164 46.0368L115.968 45.7821L115.762 45.5194L115.62 45.3399L115.399 45.0644L115.09 44.6854L114.848 44.3928L114.597 44.093L114.249 43.6828L114.086 43.4927L113.753 43.1069L113.41 42.714C112.542 41.7243 111.618 40.7092 110.688 39.7124L110.166 39.1556L109.583 38.5394L108.872 37.7993C108.739 37.663 108.767 37.465 108.935 37.3571Z" fill="#FF9B89"/>
<path d="M108.935 37.3572C109.103 37.2494 109.346 37.2719 109.479 37.408L109.872 37.8152L110.308 38.2723L110.782 38.7723L110.906 38.9041C111.975 40.0413 113.044 41.2112 114.042 42.3484L114.215 42.5467L114.555 42.9393L114.981 43.4344L115.258 43.7625L115.612 44.1863L115.866 44.4949L116.03 44.6951L116.266 44.99L116.419 45.1814L116.638 45.4617L116.847 45.7332L116.98 45.909L117.109 46.0818L117.293 46.3328L117.409 46.4949L117.521 46.6541L117.627 46.8084L117.729 46.9598L117.826 47.1063L117.917 47.2488L118.003 47.3875L118.085 47.5223L118.161 47.6522L118.231 47.7791C118.242 47.7998 118.254 47.8203 118.265 47.8406L118.328 47.9607C118.338 47.9804 118.347 48 118.357 48.0193L118.413 48.1326C118.421 48.1513 118.43 48.17 118.438 48.1883L118.485 48.2957C118.529 48.4012 118.565 48.5008 118.593 48.5936L118.619 48.6844C118.649 48.8023 118.664 48.9089 118.664 49.0037C118.664 49.3543 118.493 49.9821 118.205 50.7879L118.11 51.0477C118.077 51.1362 118.043 51.227 118.007 51.3191L117.898 51.6014L117.781 51.8934L117.658 52.1941L117.529 52.5027L117.394 52.8191C117.371 52.8725 117.348 52.9264 117.325 52.9803L117.182 53.3074L117.035 53.6404L116.804 54.1492L116.646 54.4939L116.484 54.8416L116.319 55.1932L116.151 55.5457L115.981 55.9002L115.808 56.2557L115.634 56.6111L115.458 56.9656L115.281 57.3182L115.014 57.8445L114.836 58.1912L114.658 58.534L114.392 59.0398L114.216 59.3699L113.955 59.8543L113.783 60.1678L113.53 60.6229L113.365 60.9158L113.203 61.198L113.044 61.4705L112.889 61.7313L112.739 61.9813C112.714 62.0217 112.69 62.0619 112.666 62.1014L112.522 62.3318C112.499 62.3691 112.476 62.4061 112.453 62.4422L112.317 62.6522C112.207 62.8209 112.102 62.9744 112.004 63.1111C111.755 63.4602 111.382 63.8652 110.898 64.3201L110.722 64.4832L110.538 64.6492C110.475 64.7054 110.41 64.7626 110.344 64.8201L110.142 64.9949C110.108 65.0243 110.073 65.0541 110.038 65.0838L109.822 65.2645L109.598 65.449C109.56 65.4801 109.522 65.5114 109.483 65.5428C109.144 65.8175 108.782 66.1018 108.4 66.3934C107.552 67.0403 106.643 67.6947 105.735 68.324L105.468 68.5086L105.091 68.7664L104.702 69.0291L104.523 69.1482C104.357 69.2577 104.113 69.2364 103.978 69.1014C103.843 68.9664 103.869 68.7685 104.035 68.659L104.363 68.4393L104.716 68.2L104.968 68.0281L105.232 67.8455C106.131 67.2222 107.031 66.5738 107.87 65.9344C108.246 65.647 108.603 65.3674 108.936 65.0975L109.156 64.9178C109.228 64.8587 109.298 64.7998 109.367 64.742L109.57 64.5701L109.764 64.4031C109.796 64.3755 109.827 64.3474 109.858 64.3201L110.04 64.159C110.098 64.1059 110.156 64.0534 110.211 64.0018L110.375 63.8484L110.529 63.7C110.877 63.3592 111.149 63.0561 111.335 62.7957L111.421 62.6707L111.513 62.5359L111.609 62.3934L111.707 62.242L111.808 62.0828L111.966 61.8279L112.131 61.5574L112.301 61.2713L112.477 60.9705L112.718 60.5477L112.905 60.2166L113.158 59.7586L113.417 59.282L113.613 58.9148L113.877 58.4139L114.142 57.9022L114.409 57.3826L114.608 56.9891L114.806 56.5926L114.979 56.2439L115.244 55.701L115.555 55.0535L115.857 54.4129L116.146 53.785L116.377 53.2732L116.553 52.8738L116.681 52.5818L116.803 52.2947L116.959 51.9246L117.069 51.6551L117.14 51.4793L117.208 51.3084L117.336 50.9783L117.452 50.6648L117.531 50.4422L117.603 50.2313L117.647 50.0965L117.687 49.9666L117.724 49.8436L117.758 49.7254L117.788 49.6131L117.814 49.5066C117.818 49.4895 117.822 49.4725 117.826 49.4559L117.846 49.3582L117.863 49.2684L117.876 49.1834C117.877 49.1701 117.879 49.1571 117.88 49.1443L117.886 49.0701C117.888 49.0468 117.889 49.0247 117.889 49.0037C117.889 48.9389 117.875 48.8644 117.852 48.7791C115.309 47.2565 112.929 46.8724 111.03 47.115L110.928 47.1287L110.843 47.1414L110.748 47.159L110.706 47.1678C110.5 47.2162 110.285 47.1199 110.225 46.9529C110.166 46.7861 110.285 46.6117 110.49 46.5633L110.519 46.5564L110.59 46.5418L110.679 46.5262L110.786 46.5096L110.91 46.493C112.756 46.257 114.989 46.5539 117.358 47.7459L117.295 47.6443L117.216 47.5184L117.131 47.3885L116.996 47.1844L116.85 46.9725L116.747 46.826L116.639 46.6756L116.527 46.5213L116.35 46.283L116.164 46.0369L115.968 45.782L115.762 45.5193L115.62 45.3397L115.399 45.0643L115.09 44.6854L114.848 44.3924L114.597 44.0926L114.25 43.6824L114.086 43.493L113.753 43.1063L113.411 42.7137C112.542 41.724 111.619 40.7085 110.689 39.7117L110.167 39.1551L109.583 38.5389L108.872 37.7986C108.739 37.6624 108.768 37.4651 108.935 37.3572Z" fill="#797979" fill-opacity="0.2" style="mix-blend-mode:multiply"/>
<path fill-rule="evenodd" clip-rule="evenodd" d="M107.427 50.9629L107.519 85.8034C107.521 86.4156 106.911 86.9125 106.158 86.9125H102.965L102.76 50.9629H107.427Z" fill="#FFC520"/>
<path fill-rule="evenodd" clip-rule="evenodd" d="M102.965 86.9123L102.017 86.3962C101.619 86.18 101.381 85.817 101.381 85.4283V50.4453L102.76 50.9626L102.965 86.9123Z" fill="#FFC520"/>
<path fill-rule="evenodd" clip-rule="evenodd" d="M99.8955 50.7903V74.8222C99.8955 75.1549 100.115 75.4621 100.47 75.627L101.381 76.0497V50.4453L99.8955 50.7903Z" fill="#FFC520"/>
<path fill-rule="evenodd" clip-rule="evenodd" d="M102.309 43.1133L96.3947 47.4923C95.3338 49.8423 97.7739 51.6528 97.7739 51.6528L105.243 52.5542L102.309 43.1133Z" fill="#FFC520"/>
<path fill-rule="evenodd" clip-rule="evenodd" d="M102.04 42.755C97.7992 44.865 97.7992 50.119 102.04 52.229C106.305 54.3514 111.627 51.7035 111.627 47.492C111.627 43.2806 106.305 40.6326 102.04 42.755ZM110.594 47.4919C110.594 51.0652 106.137 53.2831 102.579 51.513C98.9965 49.7304 98.9965 45.2534 102.579 43.4709C106.137 41.7008 110.594 43.9186 110.594 47.4919Z" fill="#FFC520"/>
<path fill-rule="evenodd" clip-rule="evenodd" d="M88.2511 48.143C88.3207 47.9786 88.5412 47.8913 88.7435 47.9479C88.9457 48.0045 89.0532 48.1837 88.9835 48.3481C88.0829 50.4731 88.1415 52.3234 88.9235 53.9411C89.4506 55.0314 90.1147 55.7621 91.1164 56.6081C91.4415 56.883 91.3336 57.3334 90.9091 57.4935C86.9241 58.9917 83.4488 56.9628 83.2056 53.0406C83.1948 52.867 83.3593 52.7191 83.573 52.7104C83.7866 52.7016 83.9686 52.8353 83.9793 53.0089C84.1921 56.4397 87.0119 58.1521 90.3767 56.9966L90.4652 56.9652L90.449 56.9518C89.4787 56.1202 88.8044 55.3695 88.2622 54.2923L88.2025 54.1713C87.3535 52.4151 87.29 50.4106 88.2511 48.143Z" fill="#FF9B89"/>
<path fill-rule="evenodd" clip-rule="evenodd" d="M78.563 51.2319C78.644 51.0709 78.8701 50.9938 79.0682 51.0596C79.2662 51.1254 79.3611 51.3092 79.2801 51.4702C78.3253 53.3677 78.8049 55.4082 80.2013 57.3959C80.5124 57.8388 80.8459 58.2426 81.179 58.5985C81.2719 58.6978 81.3593 58.7875 81.4397 58.8669L81.5783 59.0004L81.6141 59.0331C81.7582 59.1616 81.7469 59.3607 81.5888 59.4779C81.4307 59.595 81.1857 59.5858 81.0416 59.4573L80.9556 59.3776L80.9055 59.3296C80.8016 59.229 80.6862 59.112 80.5623 58.9796C80.2096 58.6027 79.8574 58.1762 79.5285 57.708C78.0255 55.5686 77.5019 53.3407 78.563 51.2319Z" fill="#FF9B89"/>
<path fill-rule="evenodd" clip-rule="evenodd" d="M107.431 51.7632C107.703 51.7632 107.926 51.9344 107.946 52.1516L107.947 52.1829V85.5774C107.947 86.5285 107.016 87.3027 105.855 87.3311L105.789 87.3319H102.813C102.528 87.3319 102.297 87.144 102.297 86.9122C102.297 86.6909 102.508 86.5096 102.775 86.4936L102.813 86.4925H105.789C106.392 86.4925 106.885 86.1065 106.913 85.6218L106.914 85.5774V52.1829C106.914 51.9511 107.146 51.7632 107.431 51.7632Z" fill="#FFC520"/>
<path fill-rule="evenodd" clip-rule="evenodd" d="M102.04 42.755C97.7992 44.865 97.7992 50.119 102.04 52.229C106.305 54.3514 111.627 51.7035 111.627 47.492C111.627 43.2806 106.305 40.6326 102.04 42.755ZM110.594 47.4919C110.594 51.0652 106.137 53.2831 102.579 51.513C98.9965 49.7304 98.9965 45.2534 102.579 43.4709C106.137 41.7008 110.594 43.9186 110.594 47.4919Z" fill="#797979" fill-opacity="0.2" style="mix-blend-mode:multiply"/>
<path fill-rule="evenodd" clip-rule="evenodd" d="M107.431 51.7632C107.703 51.7632 107.926 51.9344 107.946 52.1516L107.947 52.1829V85.5774C107.947 86.5285 107.016 87.3027 105.855 87.3311L105.789 87.3319H102.813C102.528 87.3319 102.297 87.144 102.297 86.9122C102.297 86.6909 102.508 86.5096 102.775 86.4936L102.813 86.4925H105.789C106.392 86.4925 106.885 86.1065 106.913 85.6218L106.914 85.5774V52.1829C106.914 51.9511 107.146 51.7632 107.431 51.7632Z" fill="#797979" fill-opacity="0.2" style="mix-blend-mode:multiply"/>
<path fill-rule="evenodd" clip-rule="evenodd" d="M97.3422 38.7188C97.5033 38.8331 97.5199 39.032 97.3792 39.1629L97.32 39.222L97.2541 39.2919L97.1824 39.3716C97.17 39.3857 97.1574 39.4002 97.1446 39.4151C96.9597 39.6306 96.7741 39.8817 96.6005 40.1653C95.4157 42.1015 95.4087 44.313 97.3746 46.6553C97.4952 46.799 97.4496 46.9948 97.2729 47.0928C97.0961 47.1907 96.8551 47.1537 96.7346 47.0101C94.5976 44.4638 94.6052 42.012 95.9068 39.885C96.0981 39.5725 96.3032 39.2949 96.5091 39.055L96.5813 38.9724L96.6467 38.9004L96.7046 38.839L96.7544 38.7885L96.7956 38.7489C96.9363 38.6179 97.181 38.6044 97.3422 38.7188Z" fill="#797979" fill-opacity="0.2" style="mix-blend-mode:multiply"/>
<path d="M105.243 52.5547L102.767 52.2559L102.965 86.9121L102.017 86.3965C101.619 86.1804 101.381 85.8173 101.381 85.4287V76.0498L100.471 75.627C100.116 75.462 99.8966 75.1548 99.8966 74.8223V51.9082L97.7745 51.6533C97.7745 51.6533 95.3338 49.8422 96.3946 47.4922L102.31 43.1133L105.243 52.5547Z" fill="#797979" fill-opacity="0.2" style="mix-blend-mode:multiply"/>
<path fill-rule="evenodd" clip-rule="evenodd" d="M116.152 60.0419C116.19 59.8707 116.391 59.7567 116.601 59.7872L116.666 59.7974L116.748 59.8122L116.848 59.8319L116.965 59.8568C116.985 59.8613 117.007 59.8661 117.029 59.8712C117.355 59.9453 117.716 60.0461 118.104 60.1774C119.209 60.5511 120.312 61.0952 121.341 61.842C121.899 62.2464 122.42 62.701 122.898 63.2084C123.028 63.3464 122.996 63.544 122.826 63.6497C122.656 63.7553 122.413 63.7291 122.283 63.591C121.835 63.1155 121.347 62.69 120.826 62.3117C119.864 61.6142 118.835 61.1065 117.806 60.7586C117.448 60.6374 117.116 60.5449 116.82 60.4774L116.703 60.4517L116.598 60.4305L116.505 60.4134L116.466 60.407C116.255 60.3765 116.115 60.2131 116.152 60.0419Z" fill="#797979" fill-opacity="0.2" style="mix-blend-mode:multiply"/>
<path fill-rule="evenodd" clip-rule="evenodd" d="M75.7595 96.3735L75.4581 99.278C63.674 100.352 51.0089 98.686 51.0089 98.686L50.3994 95.9907C50.3994 95.9907 62.7761 97.1765 75.7595 96.3735Z" fill="#362B42"/>
<path fill-rule="evenodd" clip-rule="evenodd" d="M79.8375 172.928C76.1648 172.843 73.0189 172.363 73.0189 172.363C71.5968 155.848 67.7477 136.952 65.1738 114.358V114.33C70.3859 147.426 82.4062 140.195 79.8375 172.928Z" fill="#797979" fill-opacity="0.2" style="mix-blend-mode:multiply"/>
<path fill-rule="evenodd" clip-rule="evenodd" d="M61.0651 112.364C60.977 148.912 59.6858 172.943 59.6858 172.943C57.4084 173.475 55.4145 173.719 53.7036 173.784C51.4239 160.538 57.4752 148.495 61.0651 112.364Z" fill="#797979" fill-opacity="0.2" style="mix-blend-mode:multiply"/>
<path fill-rule="evenodd" clip-rule="evenodd" d="M86.8199 171.956L87.0701 172.77C86.4754 172.891 85.8617 172.992 85.2305 173.076C82.1171 173.487 78.8037 173.445 75.6586 173.127C75.5412 173.115 75.4262 173.103 75.3138 173.091L74.9845 173.054L74.6711 173.016C74.6202 173.01 74.5701 173.004 74.5206 172.997L74.2322 172.959L74.0636 172.936L73.9124 172.914L73.7031 172.881L73.9098 172.059L74.0333 172.078L74.3208 172.12L74.5408 172.15L74.8281 172.187L75.1317 172.223C75.3395 172.247 75.5579 172.271 75.7861 172.294C78.8418 172.603 82.0624 172.644 85.0646 172.247C85.5675 172.181 86.0581 172.102 86.5352 172.012L86.8199 171.956Z" fill="#362B42"/>
<path fill-rule="evenodd" clip-rule="evenodd" d="M59.5061 172.549L59.8655 173.336C56.1157 174.467 52.3574 174.507 48.9803 173.896C48.5677 173.821 48.1938 173.742 47.8624 173.661L47.6761 173.615L47.5076 173.571L47.3752 173.534L47.2798 173.506L47.6489 172.722L47.7433 172.749L47.8526 172.779L48.0447 172.829C48.3798 172.913 48.7682 172.997 49.2047 173.076C52.3462 173.645 55.8397 173.619 59.3197 172.605L59.5061 172.549Z" fill="#362B42"/>
<path fill-rule="evenodd" clip-rule="evenodd" d="M78.0306 92.5861C78.0869 93.7678 77.528 94.9168 76.4724 95.7859L75.7586 96.3746C75.7586 96.3746 62.1131 97.3888 53.3779 96.4115C53.2015 89.7622 78.6209 92.9072 75.7506 84.5395C72.8802 76.172 72.7932 73.6656 76.7556 77.4915V77.4936C76.82 78.4342 76.8946 79.4638 76.9855 80.5758C77.3597 85.1636 77.9051 90.0186 78.0306 92.5861Z" fill="#797979" fill-opacity="0.2" style="mix-blend-mode:multiply"/>
<path fill-rule="evenodd" clip-rule="evenodd" d="M70.8396 68.1191C71.1355 68.8388 71.5996 69.2122 72.1987 69.3473C72.6258 69.4437 73.1046 69.4149 73.5693 69.3045C73.6043 69.2962 73.6372 69.288 73.6677 69.2799L73.7521 69.2566C73.7649 69.2529 73.7771 69.2493 73.7886 69.2458L73.8499 69.2262L73.8944 69.2104L74.3349 69.9697L74.2993 69.9829L74.2146 70.0119C74.121 70.0423 74.0011 70.0766 73.8589 70.1103C73.2256 70.2607 72.5625 70.3006 71.9223 70.1562C71.0111 69.9506 70.3036 69.3965 69.8951 68.4681L69.8599 68.3852L70.8396 68.1191Z" fill="#FF4654"/>
<path fill-rule="evenodd" clip-rule="evenodd" d="M70.8396 68.1191C71.1355 68.8388 71.5996 69.2122 72.1987 69.3473C72.6258 69.4437 73.1046 69.4149 73.5693 69.3045C73.6043 69.2962 73.6372 69.288 73.6677 69.2799L73.7521 69.2566C73.7649 69.2529 73.7771 69.2493 73.7886 69.2458L73.8499 69.2262L73.8944 69.2104L74.3349 69.9697L74.2993 69.9829L74.2146 70.0119C74.121 70.0423 74.0011 70.0766 73.8589 70.1103C73.2256 70.2607 72.5625 70.3006 71.9223 70.1562C71.0111 69.9506 70.3036 69.3965 69.8951 68.4681L69.8599 68.3852L70.8396 68.1191Z" fill="#797979" fill-opacity="0.2" style="mix-blend-mode:multiply"/>
<path fill-rule="evenodd" clip-rule="evenodd" d="M117.256 180.423C117.256 186.368 111.363 191.186 104.095 191.186H66.6066C59.3357 191.186 53.4428 186.366 53.4428 180.423V109.125C53.4428 107.757 52.5981 106.482 51.1944 105.739C33.9779 96.6153 22.5649 80.7934 22.4679 62.784C22.3122 34.3609 50.5972 11.1227 85.3493 11.1227C113.277 11.1227 136.953 26.0116 145.153 46.6177C147.151 51.6335 148.231 56.9896 148.231 62.5502C148.231 80.6515 136.8 96.5652 119.517 105.731C118.111 106.478 117.256 107.751 117.256 109.125V180.423ZM166.837 8.61473L158.612 1.88682C157.136 0.677587 155.129 0 153.043 0H17.3984C15.3075 0 13.3034 0.677587 11.827 1.88682L3.59863 8.61473C2.11972 9.82188 1.29102 11.4606 1.29102 13.1681V141.657V165.969V186.622C1.29102 188.329 2.11972 189.968 3.59863 191.175L11.827 197.903C13.3034 199.113 15.3075 199.79 17.3984 199.79H153.043C155.129 199.79 157.136 199.113 158.612 197.903L166.837 191.175C168.316 189.968 169.148 188.329 169.148 186.622V13.1681C169.148 11.4606 168.316 9.82188 166.837 8.61473Z" fill="#FFC520"/>
<path fill-rule="evenodd" clip-rule="evenodd" d="M117.417 106.138C116.382 106.671 115.766 107.607 115.766 108.605V177.214C115.766 182.894 110.099 187.497 103.112 187.497H67.0716C60.0841 187.497 54.4176 182.894 54.4176 177.214V108.582C54.4176 107.584 53.7805 106.663 52.7455 106.128C35.9205 97.4506 24.7279 82.2048 24.6421 64.8292C24.5042 37.6833 51.6898 15.4978 85.0904 15.4978C118.478 15.4978 145.541 37.4911 145.541 64.6241C145.541 82.0909 134.32 97.4273 117.417 106.138ZM85.0901 10.9775C49.9342 10.9775 21.3208 34.3297 21.4639 62.902C21.5551 81.1907 33.3353 97.2371 51.0444 106.371C52.1367 106.933 52.8051 107.903 52.8051 108.953V181.195C52.8051 187.172 58.7681 192.018 66.1246 192.018H104.058C111.415 192.018 117.378 187.172 117.378 181.195V108.979C117.378 107.928 118.025 106.944 119.117 106.382C136.908 97.214 148.719 81.0724 148.719 62.6841C148.719 34.127 120.233 10.9775 85.0901 10.9775Z" fill="#FFC520"/>
<path fill-rule="evenodd" clip-rule="evenodd" d="M158.234 191.446C156.439 192.905 153.373 192.237 152.716 190.244C152.058 188.25 154.303 186.426 156.756 186.96C159.208 187.495 160.03 189.986 158.234 191.446Z" fill="#FFC520"/>
<path fill-rule="evenodd" clip-rule="evenodd" d="M16.4317 191.446C14.6362 192.905 11.5701 192.237 10.9129 190.244C10.2554 188.25 12.5 186.426 14.953 186.96C17.4058 187.495 18.2275 189.986 16.4317 191.446Z" fill="#FFC520"/>
<path fill-rule="evenodd" clip-rule="evenodd" d="M158.234 12.8733C156.439 14.3325 153.373 13.6649 152.716 11.6714C152.058 9.67816 154.303 7.85403 156.756 8.38813C159.208 8.92244 160.03 11.4142 158.234 12.8733Z" fill="#FFC520"/>
<path fill-rule="evenodd" clip-rule="evenodd" d="M16.4317 12.8733C14.6362 14.3325 11.5701 13.6649 10.9129 11.6714C10.2554 9.67816 12.5 7.85403 14.953 8.38813C17.4058 8.92244 18.2275 11.4142 16.4317 12.8733Z" fill="#FFC520"/>
<path fill-rule="evenodd" clip-rule="evenodd" d="M117.417 106.138C116.382 106.671 115.766 107.607 115.766 108.605V177.214C115.766 182.894 110.099 187.497 103.112 187.497H67.0716C60.0841 187.497 54.4176 182.894 54.4176 177.214V108.582C54.4176 107.584 53.7805 106.663 52.7455 106.128C35.9205 97.4506 24.7279 82.2048 24.6421 64.8292C24.5042 37.6833 51.6898 15.4978 85.0904 15.4978C118.478 15.4978 145.541 37.4911 145.541 64.6241C145.541 82.0909 134.32 97.4273 117.417 106.138ZM85.0901 10.9775C49.9342 10.9775 21.3208 34.3297 21.4639 62.902C21.5551 81.1907 33.3353 97.2371 51.0444 106.371C52.1367 106.933 52.8051 107.903 52.8051 108.953V181.195C52.8051 187.172 58.7681 192.018 66.1246 192.018H104.058C111.415 192.018 117.378 187.172 117.378 181.195V108.979C117.378 107.928 118.025 106.944 119.117 106.382C136.908 97.214 148.719 81.0724 148.719 62.6841C148.719 34.127 120.233 10.9775 85.0901 10.9775Z" fill="#797979" fill-opacity="0.2" style="mix-blend-mode:multiply"/>
<path fill-rule="evenodd" clip-rule="evenodd" d="M158.234 191.446C156.439 192.905 153.373 192.237 152.716 190.244C152.058 188.25 154.303 186.426 156.756 186.96C159.208 187.495 160.03 189.986 158.234 191.446Z" fill="#797979" fill-opacity="0.2" style="mix-blend-mode:multiply"/>
<path fill-rule="evenodd" clip-rule="evenodd" d="M16.4317 191.446C14.6362 192.905 11.5701 192.237 10.9129 190.244C10.2554 188.25 12.5 186.426 14.953 186.96C17.4058 187.495 18.2275 189.986 16.4317 191.446Z" fill="#797979" fill-opacity="0.2" style="mix-blend-mode:multiply"/>
<path fill-rule="evenodd" clip-rule="evenodd" d="M158.234 12.8733C156.439 14.3325 153.373 13.6649 152.716 11.6714C152.058 9.67816 154.303 7.85403 156.756 8.38813C159.208 8.92244 160.03 11.4142 158.234 12.8733Z" fill="#797979" fill-opacity="0.2" style="mix-blend-mode:multiply"/>
<path fill-rule="evenodd" clip-rule="evenodd" d="M16.4317 12.8733C14.6362 14.3325 11.5701 13.6649 10.9129 11.6714C10.2554 9.67816 12.5 7.85403 14.953 8.38813C17.4058 8.92244 18.2275 11.4142 16.4317 12.8733Z" fill="#797979" fill-opacity="0.2" style="mix-blend-mode:multiply"/>
<path fill-rule="evenodd" clip-rule="evenodd" d="M0 142.172C20.6309 138.734 37.9588 133.54 52.7147 127.228V158.38C39.2604 162.231 22.3094 165.204 0 166.644V142.172Z" fill="white" fill-opacity="0.3" style="mix-blend-mode:lighten"/>
<path fill-rule="evenodd" clip-rule="evenodd" d="M170 29.5718V112.203C144.496 112.203 129.415 116.789 117.285 123.32V109.511C117.285 108.13 118.15 106.85 119.573 106.099C137.061 96.8834 148.628 80.8834 148.628 62.684C148.628 57.0933 147.536 51.7082 145.513 46.6652C153.075 38.5728 160.698 32.4091 170 29.5718Z" fill="white" fill-opacity="0.3" style="mix-blend-mode:lighten"/>
<path fill-rule="evenodd" clip-rule="evenodd" d="M169.15 12.3818C169.421 12.3818 169.643 12.5521 169.663 12.768L169.664 12.7992V186.494C169.664 188.257 168.835 189.953 167.35 191.235L167.258 191.313L159.385 197.9C157.811 199.217 155.658 199.971 153.401 199.999L153.27 200H17.2996C17.0157 200 16.7856 199.813 16.7856 199.583C16.7856 199.363 16.9953 199.182 17.2612 199.166L17.2996 199.165H153.27C155.254 199.165 157.156 198.526 158.559 197.391L158.648 197.318L166.52 190.732C167.848 189.621 168.603 188.142 168.635 186.597L168.636 186.494V12.7992C168.636 12.5687 168.867 12.3818 169.15 12.3818Z" fill="#FFC520"/>
<path fill-rule="evenodd" clip-rule="evenodd" d="M169.15 12.3818C169.421 12.3818 169.643 12.5521 169.663 12.768L169.664 12.7992V186.494C169.664 188.257 168.835 189.953 167.35 191.235L167.258 191.313L159.385 197.9C157.811 199.217 155.658 199.971 153.401 199.999L153.27 200H17.2996C17.0157 200 16.7856 199.813 16.7856 199.583C16.7856 199.363 16.9953 199.182 17.2612 199.166L17.2996 199.165H153.27C155.254 199.165 157.156 198.526 158.559 197.391L158.648 197.318L166.52 190.732C167.848 189.621 168.603 188.142 168.635 186.597L168.636 186.494V12.7992C168.636 12.5687 168.867 12.3818 169.15 12.3818Z" fill="#797979" fill-opacity="0.2" style="mix-blend-mode:multiply"/>
<path fill-rule="evenodd" clip-rule="evenodd" d="M111.111 47.4922C111.111 51.3846 106.221 53.8175 102.31 51.8712C98.3981 49.925 98.3981 45.0595 102.31 43.1132C106.221 41.1669 111.111 43.5999 111.111 47.4922Z" fill="#FFC520"/>
<path fill-rule="evenodd" clip-rule="evenodd" d="M98.4603 47.8806C103.425 53.7337 96.3056 60.9471 91.4537 62.3633C91.2107 62.4344 91.2386 62.7148 91.492 62.7563C100.436 64.2288 100.468 73.0533 94.8271 75.4716C88.9251 78.0017 78.7165 74.7576 75.8451 67.3673C73.1889 60.531 78.6509 58.3624 78.1461 51.8344C78.08 50.9788 78.8906 50.2325 79.9445 50.1929C89.6047 49.8304 93.3867 41.8988 98.4603 47.8806Z" fill="#FF9B89"/>
<path fill-rule="evenodd" clip-rule="evenodd" d="M88.2511 48.143C88.3207 47.9786 88.5412 47.8913 88.7435 47.9479C88.9457 48.0045 89.0532 48.1837 88.9835 48.3481C88.0829 50.4731 88.1415 52.3234 88.9235 53.9411C89.4506 55.0314 90.1147 55.7621 91.1164 56.6081C91.4415 56.883 91.3336 57.3334 90.9091 57.4935C86.9241 58.9917 83.4488 56.9628 83.2056 53.0406C83.1948 52.867 83.3593 52.7191 83.573 52.7104C83.7866 52.7016 83.9686 52.8353 83.9793 53.0089C84.1921 56.4397 87.0119 58.1521 90.3767 56.9966L90.4652 56.9652L90.449 56.9518C89.4787 56.1202 88.8044 55.3695 88.2622 54.2923L88.2025 54.1713C87.3535 52.4151 87.29 50.4106 88.2511 48.143Z" fill="#797979" fill-opacity="0.2" style="mix-blend-mode:multiply"/>
<path fill-rule="evenodd" clip-rule="evenodd" d="M78.563 51.2319C78.644 51.0709 78.8701 50.9938 79.0682 51.0596C79.2662 51.1254 79.3611 51.3092 79.2801 51.4702C78.3253 53.3677 78.8049 55.4082 80.2013 57.3959C80.5124 57.8388 80.8459 58.2426 81.179 58.5985C81.2719 58.6978 81.3593 58.7875 81.4397 58.8669L81.5783 59.0004L81.6141 59.0331C81.7582 59.1616 81.7469 59.3607 81.5888 59.4779C81.4307 59.595 81.1857 59.5858 81.0416 59.4573L80.9556 59.3776L80.9055 59.3296C80.8016 59.229 80.6862 59.112 80.5623 58.9796C80.2096 58.6027 79.8574 58.1762 79.5285 57.708C78.0255 55.5686 77.5019 53.3407 78.563 51.2319Z" fill="#797979" fill-opacity="0.2" style="mix-blend-mode:multiply"/>
<path d="M93.3706 62.293C93.3847 62.2933 93.3985 62.2952 93.4126 62.2969C93.4228 62.2981 93.4329 62.299 93.4429 62.3008C93.4557 62.3031 93.4683 62.3061 93.481 62.3096C93.4939 62.3131 93.5067 62.3167 93.519 62.3213C93.5231 62.3228 93.5278 62.3236 93.5317 62.3252C96.8217 63.6658 98.7198 65.8967 99.1177 68.5557C99.4754 70.9464 98.5615 73.4961 96.7192 75.3945C96.5868 75.531 96.3433 75.5547 96.1753 75.4473C96.0073 75.3396 95.9784 75.1414 96.1108 75.0049C97.8271 73.2364 98.6806 70.8538 98.3481 68.6318C97.9845 66.2014 96.2692 64.1699 93.2622 62.9219H87.6294C87.4155 62.9219 87.2417 62.7803 87.2417 62.6064C87.2419 62.4431 87.3952 62.3084 87.5913 62.293L87.6294 62.292H93.3569C93.3614 62.292 93.3662 62.2928 93.3706 62.293Z" fill="#FF9B89"/>
<path d="M93.3706 62.293C93.3847 62.2933 93.3985 62.2952 93.4126 62.2969C93.4228 62.2981 93.4329 62.299 93.4429 62.3008C93.4557 62.3031 93.4683 62.3061 93.481 62.3096C93.4939 62.3131 93.5067 62.3167 93.519 62.3213C93.5231 62.3228 93.5278 62.3236 93.5317 62.3252C96.8217 63.6658 98.7198 65.8967 99.1177 68.5557C99.4754 70.9464 98.5615 73.4961 96.7192 75.3945C96.5868 75.531 96.3433 75.5547 96.1753 75.4473C96.0073 75.3396 95.9784 75.1414 96.1108 75.0049C97.8271 73.2364 98.6806 70.8538 98.3481 68.6318C97.9845 66.2014 96.2692 64.1699 93.2622 62.9219H87.6294C87.4155 62.9219 87.2417 62.7803 87.2417 62.6064C87.2419 62.4431 87.3952 62.3084 87.5913 62.293L87.6294 62.292H93.3569C93.3614 62.292 93.3662 62.2928 93.3706 62.293Z" fill="#797979" fill-opacity="0.2" style="mix-blend-mode:multiply"/>
</svg>
