<svg width="170" height="200" viewBox="0 0 170 200" fill="none" xmlns="http://www.w3.org/2000/svg">
<path fill-rule="evenodd" clip-rule="evenodd" d="M165.297 0.0300293V198.717H167.426C168.068 198.717 168.59 198.204 168.595 197.568L170 1.89456C170.004 1.33685 169.606 0.855246 169.053 0.749312L165.297 0.0300293Z" fill="#FFC520"/>
<path fill-rule="evenodd" clip-rule="evenodd" d="M165.297 0.0300293V198.717H167.426C168.068 198.717 168.59 198.204 168.595 197.568L170 1.89456C170.004 1.33685 169.606 0.855246 169.053 0.749312L165.297 0.0300293Z" fill="#797979" fill-opacity="0.2" style="mix-blend-mode:multiply"/>
<mask id="mask0_257_26050" style="mask-type:luminance" maskUnits="userSpaceOnUse" x="114" y="0" width="52" height="199">
<path fill-rule="evenodd" clip-rule="evenodd" d="M114.129 0H165.358V198.687H114.129V0Z" fill="white"/>
</mask>
<g mask="url(#mask0_257_26050)">
<path fill-rule="evenodd" clip-rule="evenodd" d="M165.358 -0.000244141L115.436 23.4261C114.628 23.8049 114.118 24.6158 114.13 25.5009L116.389 194.562C116.405 195.765 117.367 196.744 118.579 196.793L165.358 198.687V-0.000244141Z" fill="#FFC520"/>
<path fill-rule="evenodd" clip-rule="evenodd" d="M156.474 133.56L123.503 135.277C122.195 135.345 121.174 136.421 121.187 137.718L121.577 178.975C121.589 180.304 122.68 181.375 124.021 181.375H156.602C157.952 181.375 159.046 180.29 159.046 178.953V135.979C159.046 134.591 157.872 133.487 156.474 133.56ZM158.148 135.979V178.953C158.148 179.799 157.456 180.485 156.602 180.485H124.021C123.173 180.485 122.483 179.807 122.475 178.967L122.085 137.71C122.077 136.889 122.723 136.209 123.55 136.166L156.521 134.449C157.405 134.403 158.148 135.101 158.148 135.979Z" fill="#797979" fill-opacity="0.2" style="mix-blend-mode:multiply"/>
<path fill-rule="evenodd" clip-rule="evenodd" d="M156.24 14.6151L120.436 29.8353C119.466 30.2476 118.843 31.1993 118.858 32.2449L119.259 59.1618C119.284 60.8509 120.913 62.0609 122.556 61.6112L157.96 51.9232C159.089 51.6142 159.871 50.5964 159.871 49.4355V16.9866C159.871 15.1336 157.959 13.8846 156.24 14.6151ZM158.973 16.9867V49.4357C158.973 50.1962 158.461 50.8629 157.721 51.0652L122.317 60.7533C121.241 61.0479 120.174 60.2553 120.157 59.1488L119.757 32.232C119.747 31.5471 120.155 30.9236 120.79 30.6536L156.594 15.4333C157.72 14.9549 158.973 15.773 158.973 16.9867Z" fill="#797979" fill-opacity="0.2" style="mix-blend-mode:multiply"/>
<path fill-rule="evenodd" clip-rule="evenodd" d="M157.277 101.639C157.431 105.811 155.834 108.479 154.402 106.442C152.97 104.406 152.778 99.1919 154.056 97.0572C155.333 94.9223 157.123 97.4681 157.277 101.639Z" fill="#FFC520"/>
<path fill-rule="evenodd" clip-rule="evenodd" d="M157.277 101.639C157.431 105.811 155.834 108.479 154.402 106.442C152.97 104.406 152.778 99.1919 154.056 97.0572C155.333 94.9223 157.123 97.4681 157.277 101.639Z" fill="#797979" fill-opacity="0.2" style="mix-blend-mode:multiply"/>
<path fill-rule="evenodd" clip-rule="evenodd" d="M144.63 97.6516L144.937 105.969C148.199 103.51 151.33 103.717 153.863 103.931C154.588 103.992 155.199 103.387 155.172 102.643L155.121 101.262C155.092 100.484 154.384 99.9187 153.642 100.087C151.417 100.594 149.227 100.921 144.63 97.6516Z" fill="#362B42"/>
<path fill-rule="evenodd" clip-rule="evenodd" d="M151.433 103.618C149.997 108.388 144.544 109.923 141.616 106.381C138.688 102.839 140.482 96.8767 144.845 95.6487C149.208 94.4209 152.868 98.8483 151.433 103.618Z" fill="#6343F0"/>
<path fill-rule="evenodd" clip-rule="evenodd" d="M145.492 67.6407V62.0409C145.492 61.7271 145.704 61.4525 146.01 61.371L161.698 57.1906C162.142 57.0722 162.58 57.4043 162.58 57.8607V63.7083C162.58 64.0258 162.362 64.3029 162.051 64.3808L146.364 68.3133C145.921 68.4243 145.492 68.0929 145.492 67.6407Z" fill="white"/>
<path fill-rule="evenodd" clip-rule="evenodd" d="M161.581 56.7603L145.894 60.9407C145.391 61.0744 145.042 61.5252 145.042 62.0405V67.6403C145.042 68.3826 145.748 68.9266 146.474 68.7443L162.161 64.8119C162.671 64.684 163.029 64.2292 163.029 63.7078V57.8603C163.029 57.111 162.311 56.566 161.581 56.7603ZM162.13 57.8602V63.7077C162.13 63.8214 162.052 63.9208 161.941 63.9487L146.253 67.8812C146.095 67.921 145.941 67.8022 145.941 67.6402V62.0403C145.941 61.9279 146.017 61.8296 146.127 61.8003L161.814 57.6199C161.974 57.5775 162.13 57.6966 162.13 57.8602Z" fill="#FFC520"/>
<path fill-rule="evenodd" clip-rule="evenodd" d="M161.581 56.7603L145.894 60.9407C145.391 61.0744 145.042 61.5252 145.042 62.0405V67.6403C145.042 68.3826 145.748 68.9266 146.474 68.7443L162.161 64.8119C162.671 64.684 163.029 64.2292 163.029 63.7078V57.8603C163.029 57.111 162.311 56.566 161.581 56.7603ZM162.13 57.8602V63.7077C162.13 63.8214 162.052 63.9208 161.941 63.9487L146.253 67.8812C146.095 67.921 145.941 67.8022 145.941 67.6402V62.0403C145.941 61.9279 146.017 61.8296 146.127 61.8003L161.814 57.6199C161.974 57.5775 162.13 57.6966 162.13 57.8602Z" fill="#797979" fill-opacity="0.2" style="mix-blend-mode:multiply"/>
<path fill-rule="evenodd" clip-rule="evenodd" d="M147.919 62.5828L150.311 65.329L149.631 65.9107L147.239 63.1644L147.919 62.5828Z" fill="#6343F0"/>
<path fill-rule="evenodd" clip-rule="evenodd" d="M149.447 62.0955L150.229 62.5328L147.971 66.4998L147.188 66.0624L149.447 62.0955Z" fill="#6343F0"/>
<path fill-rule="evenodd" clip-rule="evenodd" d="M152.766 61.2183L155.289 64.1154L154.609 64.697L152.086 61.7999L152.766 61.2183Z" fill="#6343F0"/>
<path fill-rule="evenodd" clip-rule="evenodd" d="M154.416 60.7L155.199 61.1373L152.817 65.3219L152.034 64.8846L154.416 60.7Z" fill="#6343F0"/>
<path fill-rule="evenodd" clip-rule="evenodd" d="M157.612 59.998L160.165 62.9293L159.485 63.5109L156.932 60.5797L157.612 59.998Z" fill="#6343F0"/>
<path fill-rule="evenodd" clip-rule="evenodd" d="M159.291 59.4729L160.074 59.9103L157.663 64.1443L156.881 63.7069L159.291 59.4729Z" fill="#6343F0"/>
<path d="M150.229 62.533L149.299 64.1658L150.311 65.3289L149.632 65.9109L148.829 64.99L147.97 66.4998L147.188 66.0623L148.206 64.2742L147.239 63.1648L147.92 62.5828L148.675 63.45L149.446 62.0955L150.229 62.533Z" fill="#797979" fill-opacity="0.2" style="mix-blend-mode:multiply"/>
<path d="M155.198 61.1375L154.209 62.8748L155.289 64.115L154.609 64.697L153.74 63.699L152.817 65.322L152.034 64.8845L153.116 62.9832L152.086 61.7996L152.766 61.2175L153.585 62.1589L154.416 60.7L155.198 61.1375Z" fill="#797979" fill-opacity="0.2" style="mix-blend-mode:multiply"/>
<path d="M160.073 59.9104L159.07 61.6711L160.165 62.929L159.485 63.511L158.601 62.4954L157.663 64.1448L156.881 63.7073L157.978 61.7795L156.933 60.5793L157.612 59.9973L158.446 60.9553L159.291 59.4729L160.073 59.9104Z" fill="#797979" fill-opacity="0.2" style="mix-blend-mode:multiply"/>
<path fill-rule="evenodd" clip-rule="evenodd" d="M159.453 91.8059L145.803 93.6742V71.1986L159.203 67.8958L159.453 91.8059Z" fill="white"/>
<path fill-rule="evenodd" clip-rule="evenodd" d="M159.202 67.8958L160.836 68.4032V91.8526L159.452 91.8059L159.202 67.8958Z" fill="#FFC520"/>
<path fill-rule="evenodd" clip-rule="evenodd" d="M144.997 77.9103L159.227 75.0605L160.971 75.6022L160.702 76.4516L159.178 75.9784L145.175 78.7828L144.997 77.9103Z" fill="#FFC520"/>
<path fill-rule="evenodd" clip-rule="evenodd" d="M145.247 85.7575L159.359 83.2939L161.022 83.629L160.843 84.5014L159.347 84.2L145.403 86.6342L145.247 85.7575Z" fill="#FFC520"/>
<path fill-rule="evenodd" clip-rule="evenodd" d="M155.482 68.4597V92.387H154.583V68.4597H155.482Z" fill="#FFC520"/>
<path fill-rule="evenodd" clip-rule="evenodd" d="M150.592 69.7139V93.0363H149.694V69.7139H150.592Z" fill="#FFC520"/>
<path d="M155.482 75.8103L159.227 75.0603L160.387 75.4207V68.4597H161.285V91.9089H161.158L161.203 92.2478L145.115 94.3621L144.996 93.4792L149.694 92.8611V85.8845L145.404 86.6345L145.247 85.7576L149.694 84.9812V77.8777L145.175 78.783L144.997 77.9109L149.694 76.9695V69.7136H150.592V76.7888L154.583 75.99V68.4597H155.482V75.8103ZM150.592 85.7273V92.7439L154.583 92.2185V85.031L150.592 85.7273ZM155.482 84.8748V92.1013L160.387 91.4558V84.4089L159.347 84.2L155.482 84.8748ZM150.592 77.697V84.824L154.583 84.1277V76.8982L150.592 77.697ZM155.482 76.7185V83.9705L159.359 83.2947L160.387 83.5017V76.3533L159.178 75.9783L155.482 76.7185Z" fill="#797979" fill-opacity="0.2" style="mix-blend-mode:multiply"/>
<path fill-rule="evenodd" clip-rule="evenodd" d="M153.445 80.7848C153.445 82.0176 152.764 82.788 152.22 82.1716C151.675 81.5553 151.675 80.0144 152.22 79.3981C152.764 78.7817 153.445 79.5521 153.445 80.7848Z" fill="#FFC520"/>
<path fill-rule="evenodd" clip-rule="evenodd" d="M158.298 79.8742C158.298 81.2038 157.564 82.0348 156.977 81.37C156.39 80.705 156.39 79.0432 156.977 78.3785C157.564 77.7137 158.298 78.5447 158.298 79.8742Z" fill="#FFC520"/>
<path fill-rule="evenodd" clip-rule="evenodd" d="M148.488 81.6041C148.488 82.7247 147.869 83.425 147.374 82.8646C146.88 82.3043 146.88 80.9037 147.374 80.3434C147.869 79.7832 148.488 80.4836 148.488 81.6041Z" fill="#FFC520"/>
<path fill-rule="evenodd" clip-rule="evenodd" d="M153.445 73.2594C153.445 74.4921 152.764 75.2932 152.22 74.7013C151.675 74.1095 151.675 72.5686 152.22 71.9276C152.764 71.2867 153.445 72.0264 153.445 73.2594Z" fill="#FFC520"/>
<path fill-rule="evenodd" clip-rule="evenodd" d="M158.298 72.1303C158.298 73.4598 157.564 74.3237 156.977 73.6855C156.39 73.0472 156.39 71.3854 156.977 70.6942C157.564 70.0029 158.298 70.8008 158.298 72.1303Z" fill="#FFC520"/>
<path fill-rule="evenodd" clip-rule="evenodd" d="M148.488 74.3017C148.488 75.4222 147.869 76.1506 147.374 75.6125C146.88 75.0746 146.88 73.6739 147.374 73.0912C147.869 72.5086 148.488 73.1811 148.488 74.3017Z" fill="#6343F0"/>
<path fill-rule="evenodd" clip-rule="evenodd" d="M153.445 89.0372C153.445 90.2699 152.764 91.0244 152.22 90.3952C151.675 89.7661 151.675 88.2251 152.22 87.6216C152.764 87.018 153.445 87.8043 153.445 89.0372Z" fill="#FFC520"/>
<path fill-rule="evenodd" clip-rule="evenodd" d="M158.298 88.2407C158.298 89.5702 157.564 90.3839 156.977 89.7053C156.39 89.0268 156.39 87.365 156.977 86.714C157.564 86.063 158.298 86.9112 158.298 88.2407Z" fill="#FFC520"/>
<path fill-rule="evenodd" clip-rule="evenodd" d="M148.488 89.7395C148.488 90.8601 147.869 91.546 147.374 90.974C146.88 90.4021 146.88 89.0015 147.374 88.4527C147.869 87.9041 148.488 88.619 148.488 89.7395Z" fill="#FFC520"/>
<path fill-rule="evenodd" clip-rule="evenodd" d="M126.867 196.88L118.58 196.793C117.366 196.745 116.405 195.765 116.39 194.562L114.129 25.501C114.118 24.6163 114.628 23.8058 115.436 23.4268L128.871 17.1233C102.664 101.68 154.58 105.943 126.867 196.88Z" fill="#797979" fill-opacity="0.2" style="mix-blend-mode:multiply"/>
<path fill-rule="evenodd" clip-rule="evenodd" d="M110.607 195.769L182.476 198.709L182.439 199.598L110.57 196.659L110.607 195.769Z" fill="#362B42"/>
<path fill-rule="evenodd" clip-rule="evenodd" d="M140.02 66.606L136.194 61.0253L137.505 60.2014L140.969 66.0095L140.02 66.606Z" fill="#6343F0"/>
<path fill-rule="evenodd" clip-rule="evenodd" d="M141.754 69.9296C141.171 70.5125 140.17 70.2512 139.952 69.4598C139.734 68.6682 140.463 67.9396 141.264 68.1486C142.065 68.3573 142.337 69.3468 141.754 69.9296Z" fill="#6343F0"/>
<path fill-rule="evenodd" clip-rule="evenodd" d="M137.2 69.4086C136.81 69.1976 136.432 68.9695 136.048 68.7505C135.668 68.5251 135.29 68.2983 134.915 68.0662C134.615 67.8825 134.02 67.5085 134.02 67.5085L134.003 67.5669L134.014 67.7889C134.014 67.7889 134.041 68.3929 134.05 68.6953C134.049 68.9982 134.061 69.3004 134.051 69.6038L133.005 70.2418L127.677 67.4459L128.653 65.8013L132.445 68.2416L132.509 68.2824C132.509 68.2824 132.486 68.1901 132.463 67.8886C132.414 67.2861 132.383 66.6823 132.358 66.0781L133.558 65.4087C134.266 65.9317 134.972 66.458 135.667 66.9999C136.016 67.269 136.361 67.5436 136.705 67.8194C137.044 68.1016 137.39 68.3748 137.724 68.6653L137.2 69.4086Z" fill="#6343F0"/>
<path fill-rule="evenodd" clip-rule="evenodd" d="M150.588 98.7988C152.323 105.685 146.875 110.072 141.132 106.3L140.958 106.184L141.469 105.451C146.508 108.903 151.183 105.284 149.762 99.1995L149.717 99.0144L150.588 98.7988Z" fill="#797979" fill-opacity="0.2" style="mix-blend-mode:multiply"/>
</g>
<path fill-rule="evenodd" clip-rule="evenodd" d="M88.0248 67.5934C88.0026 67.6484 87.9781 67.7036 87.9514 67.7563C87.0312 69.7806 85.1774 71.2452 82.9701 71.6859L81.8498 71.9104L79.3735 72.406L66.9365 74.8928V65.4656L74.7989 63.6485L78.1952 62.8622C78.1952 62.8622 80.1427 52.0378 81.4076 48.0842C82.6701 44.1281 91.491 43.9122 94.0274 48.0842C95.8879 51.1478 90.4255 61.9348 88.0248 67.5934Z" fill="#6343F0"/>
<path fill-rule="evenodd" clip-rule="evenodd" d="M88.0248 67.5934C88.0026 67.6484 87.9781 67.7036 87.9514 67.7563C87.0312 69.7806 85.1774 71.2452 82.9701 71.6859L81.8498 71.9104L79.3735 72.406L66.9365 74.8928V65.4656L74.7989 63.6485L78.1952 62.8622C78.1952 62.8622 80.1427 52.0378 81.4076 48.0842C82.6701 44.1281 91.491 43.9122 94.0274 48.0842C95.8879 51.1478 90.4255 61.9348 88.0248 67.5934Z" fill="#797979" fill-opacity="0.2" style="mix-blend-mode:multiply"/>
<path fill-rule="evenodd" clip-rule="evenodd" d="M87.9513 67.7562C87.0311 69.7803 85.1771 71.2451 82.9698 71.6856L81.8497 71.9104C81.843 71.8356 81.8405 71.7539 81.843 71.6702C81.8985 69.6261 84.5437 67.0579 86.6064 67.0447C87.2845 67.0403 87.7314 67.3133 87.9513 67.7562Z" fill="#797979" fill-opacity="0.2" style="mix-blend-mode:multiply"/>
<path fill-rule="evenodd" clip-rule="evenodd" d="M79.3735 72.406L66.9365 74.8928V65.4653L74.7989 63.6482L79.3735 72.406Z" fill="white" fill-opacity="0.3" style="mix-blend-mode:lighten"/>
<path fill-rule="evenodd" clip-rule="evenodd" d="M90.3267 44.2498C94.6481 41.5728 93.7149 39.475 95.9662 35.8572C97.29 33.7303 96.1872 31.6021 95.5543 29.5112C94.9214 27.4206 95.2583 23.5909 93.1444 25.402C91.0305 27.2131 91.8083 33.7016 91.8083 33.7016L90.3267 44.2498Z" fill="#FF9B89"/>
<path fill-rule="evenodd" clip-rule="evenodd" d="M90.3267 44.2498C94.6481 41.5728 93.7149 39.475 95.9662 35.8572C97.29 33.7303 96.1872 31.6021 95.5543 29.5112C94.9214 27.4206 95.2583 23.5909 93.1444 25.402C91.0305 27.2131 91.8083 33.7016 91.8083 33.7016L90.3267 44.2498Z" fill="#797979" fill-opacity="0.2" style="mix-blend-mode:multiply"/>
<path fill-rule="evenodd" clip-rule="evenodd" d="M84.4497 34.4937V43.361C84.4497 43.361 85.8161 44.2953 86.0796 46.6165C86.1328 47.0847 86.4895 47.4637 86.9593 47.5361L89.4865 47.9249C89.9963 48.0034 90.4875 47.7023 90.6447 47.2156L94.7492 34.4937C88.0545 32.8802 84.4497 34.4937 84.4497 34.4937Z" fill="#FF9B89"/>
<path fill-rule="evenodd" clip-rule="evenodd" d="M94.7491 34.4939L91.3757 23.7924L87.7817 18.8495L84.1035 18.975L81.6136 17.3513L81.2626 17.8821C80.841 18.5195 80.9506 19.3661 81.5209 19.8775L86.4804 24.3258L89.2678 33.778L94.7491 34.4939Z" fill="#FF9B89"/>
<path fill-rule="evenodd" clip-rule="evenodd" d="M86.4802 24.3256L81.4506 22.1807C81.1822 22.0661 80.8721 22.2036 80.7795 22.4784L80.5031 23.2977C80.353 23.7425 80.5058 24.2328 80.8831 24.5161L81.7296 25.1526L81.5737 25.6665C81.3617 26.3648 81.553 27.122 82.0718 27.6392L83.6445 29.207L84.4494 34.4937C84.4494 34.4937 88.9361 33.7346 89.2676 33.778C89.5994 33.8212 86.4802 24.3256 86.4802 24.3256Z" fill="#FF9B89"/>
<path fill-rule="evenodd" clip-rule="evenodd" d="M83.8404 18.7665C83.9493 18.6315 84.1425 18.6025 84.2859 18.6943L84.3139 18.7142L88.9308 22.3729C89.354 22.7079 89.6665 23.1598 89.8297 23.6708L89.8542 23.752L92.3696 32.5926C92.4201 32.77 92.3159 32.9544 92.1368 33.0045C91.9683 33.0516 91.7935 32.9628 91.7314 32.8043L91.7211 32.7738L89.2057 23.9333C89.0957 23.5474 88.8739 23.203 88.5684 22.9423L88.5101 22.8944L83.8931 19.2357C83.7478 19.1205 83.7242 18.9104 83.8404 18.7665Z" fill="#FF9B89"/>
<path fill-rule="evenodd" clip-rule="evenodd" d="M94.6915 33.5525C94.8597 33.6312 94.9317 33.8302 94.8522 33.9969C94.7727 34.1636 94.5719 34.2349 94.4037 34.1562C93.7792 33.8639 93.1968 33.8121 92.4826 33.9438L92.304 33.9795L92.1373 34.0172L91.9538 34.0645L91.6187 34.1593L91.2513 34.2669C89.4442 34.7986 88.3624 34.8726 86.8084 34.2915C86.6343 34.2264 86.5464 34.0338 86.6121 33.8613C86.6778 33.6888 86.8722 33.6018 87.0463 33.6669C88.3706 34.162 89.2935 34.1255 90.835 33.6916L91.0595 33.6269L91.5871 33.4732L91.7515 33.4272L91.9516 33.3748L92.1007 33.3401L92.2579 33.307C93.147 33.1271 93.8979 33.181 94.6915 33.5525Z" fill="#FF9B89"/>
<path fill-rule="evenodd" clip-rule="evenodd" d="M86.3605 24.0136C86.5242 23.9519 86.7062 24.0249 86.7822 24.1774L86.7952 24.2069L89.6073 31.5322C89.6735 31.7045 89.5861 31.8973 89.4122 31.9629C89.2486 32.0246 89.0665 31.9515 88.9905 31.7991L88.9776 31.7696L86.1654 24.4443C86.0993 24.272 86.1866 24.0792 86.3605 24.0136Z" fill="#FF9B89"/>
<path fill-rule="evenodd" clip-rule="evenodd" d="M83.8404 18.7665C83.9493 18.6315 84.1425 18.6025 84.2859 18.6943L84.3139 18.7142L88.9308 22.3729C89.354 22.7079 89.6665 23.1598 89.8297 23.6708L89.8542 23.752L92.3696 32.5926C92.4201 32.77 92.3159 32.9544 92.1368 33.0045C91.9683 33.0516 91.7935 32.9628 91.7314 32.8043L91.7211 32.7738L89.2057 23.9333C89.0957 23.5474 88.8739 23.203 88.5684 22.9423L88.5101 22.8944L83.8931 19.2357C83.7478 19.1205 83.7242 18.9104 83.8404 18.7665Z" fill="#797979" fill-opacity="0.2" style="mix-blend-mode:multiply"/>
<path fill-rule="evenodd" clip-rule="evenodd" d="M94.6915 33.5525C94.8597 33.6312 94.9317 33.8302 94.8522 33.9969C94.7727 34.1636 94.5719 34.2349 94.4037 34.1562C93.7792 33.8639 93.1968 33.8121 92.4826 33.9438L92.304 33.9795L92.1373 34.0172L91.9538 34.0645L91.6187 34.1593L91.2513 34.2669C89.4442 34.7986 88.3624 34.8726 86.8084 34.2915C86.6343 34.2264 86.5464 34.0338 86.6121 33.8613C86.6778 33.6888 86.8722 33.6018 87.0463 33.6669C88.3706 34.162 89.2935 34.1255 90.835 33.6916L91.0595 33.6269L91.5871 33.4732L91.7515 33.4272L91.9516 33.3748L92.1007 33.3401L92.2579 33.307C93.147 33.1271 93.8979 33.181 94.6915 33.5525Z" fill="#797979" fill-opacity="0.2" style="mix-blend-mode:multiply"/>
<path fill-rule="evenodd" clip-rule="evenodd" d="M86.3605 24.0136C86.5242 23.9519 86.7062 24.0249 86.7822 24.1774L86.7952 24.2069L89.6073 31.5322C89.6735 31.7045 89.5861 31.8973 89.4122 31.9629C89.2486 32.0246 89.0665 31.9515 88.9905 31.7991L88.9776 31.7696L86.1654 24.4443C86.0993 24.272 86.1866 24.0792 86.3605 24.0136Z" fill="#797979" fill-opacity="0.2" style="mix-blend-mode:multiply"/>
<path fill-rule="evenodd" clip-rule="evenodd" d="M84.6121 47.0267L85.1806 46.3374L85.2125 46.3623L85.285 46.4149L85.3494 46.4594L85.4264 46.5105C85.6398 46.6497 85.8879 46.7897 86.1668 46.9206C87.7273 47.6532 89.4644 47.788 91.2703 46.9556L91.3707 46.9084L91.7624 47.7095C89.6499 48.7238 87.5991 48.5781 85.7821 47.7251C85.4639 47.5757 85.1796 47.4153 84.9325 47.2541L84.838 47.1912L84.7566 47.1348L84.6596 47.0639L84.6121 47.0267Z" fill="#797979" fill-opacity="0.2" style="mix-blend-mode:multiply"/>
<path fill-rule="evenodd" clip-rule="evenodd" d="M75.341 40.3292C75.341 40.3292 75.341 40.5562 75.3344 40.8909C75.3165 41.7168 75.2543 43.186 75.0431 43.4173C74.7453 43.7433 73.4182 43.9349 73.4559 44.8667C73.4937 45.7983 74.2117 47.4481 73.8272 47.8952C73.4404 48.3423 72.1045 48.2586 72.1045 48.2586C72.1045 48.2586 71.0842 53.7588 69.4638 54.2566C67.8833 54.7411 64.9802 53.8073 64.838 53.761L64.8313 53.7588L64.1 55.9019L61.1302 54.8314L57.5315 53.534L59.1897 46.9614L58.8784 46.2279C58.7807 45.9944 58.7807 45.7322 58.8806 45.501L63.0352 35.8247C63.0352 35.8247 68.2166 35.7653 75.341 40.3292Z" fill="#FF9B89"/>
<path fill-rule="evenodd" clip-rule="evenodd" d="M76.6071 38.0152C77.7507 26.8029 73.8354 25.495 69.1018 33.6911C68.4777 26.9091 65.1498 30.668 63.2781 34.5742C70.0195 36.4078 76.6071 38.0152 76.6071 38.0152Z" fill="#FFC520"/>
<path fill-rule="evenodd" clip-rule="evenodd" d="M55.3087 31.7811C56.0173 32.0504 56.7382 32.2948 57.465 32.5251C58.9195 32.9836 60.3893 33.4073 61.8707 33.7923C64.8302 34.5744 67.8126 35.2836 70.8006 35.9682L75.2884 36.9873C76.7907 37.3347 78.2861 37.7172 79.77 38.1525C81.2528 38.5894 82.7259 39.077 84.1597 39.6961C84.8761 40.0077 85.5836 40.3467 86.2697 40.7631C86.6118 40.976 86.95 41.1979 87.2717 41.4997C87.4314 41.6499 87.5919 41.8173 87.726 42.0699C87.7595 42.1302 87.7867 42.2127 87.8125 42.2844C87.8293 42.3752 87.854 42.4553 87.8462 42.5606C87.8433 42.6116 87.8399 42.6625 87.8305 42.7126C87.817 42.7629 87.8006 42.8134 87.7815 42.8626C87.7431 42.9565 87.6827 43.0413 87.6236 43.1081C87.3709 43.3647 87.1234 43.4334 86.9024 43.5004C86.6774 43.563 86.4683 43.5845 86.2583 43.6077C85.8428 43.6417 85.4417 43.6344 85.0446 43.613C84.2522 43.5645 83.4787 43.4535 82.7119 43.321C81.1795 43.0504 79.6795 42.6723 78.1933 42.2573C76.7092 41.8382 75.2386 41.3662 73.7892 40.8608L71.6122 40.1088L69.4436 39.3318L67.2836 38.5295C66.5636 38.2625 65.8512 37.9743 65.1331 37.7014C64.4165 37.4244 63.707 37.1286 62.9934 36.8428C62.2862 36.541 61.5747 36.2502 60.873 35.9346C59.4635 35.3188 58.0746 34.65 56.7133 33.9227C56.0326 33.5591 55.3637 33.1705 54.7075 32.759L54.219 32.4448L53.7383 32.1174L53.2653 31.7809L53.0329 31.6096L52.9168 31.5239L52.8586 31.4809C52.8453 31.476 52.7467 31.3854 52.7303 31.296C52.7041 31.2014 52.7223 31.1086 52.7616 31.0389C52.8011 30.9688 52.8647 30.9101 52.9536 30.8796C53.0423 30.848 53.1445 30.8616 53.2087 30.8925C53.9115 31.2107 54.5972 31.5147 55.3087 31.7811ZM55.7788 32.6586C55.7964 32.669 55.814 32.6794 55.8317 32.6898C56.2236 32.9206 56.6208 33.1436 57.0232 33.3582C58.364 34.0737 59.7387 34.7351 61.1384 35.3456C63.9301 36.5821 66.7935 37.6692 69.6766 38.6965L71.8442 39.4545L74.0207 40.1881C75.4707 40.6812 76.9254 41.1361 78.3965 41.5396C79.8658 41.9438 81.3524 42.2894 82.8468 42.528C83.5934 42.6468 84.3442 42.7352 85.0852 42.7634C85.4546 42.7757 85.8227 42.7721 86.1717 42.7356C86.342 42.7129 86.5158 42.6898 86.6596 42.6444C86.8031 42.6061 86.9289 42.5324 86.9421 42.5099C86.941 42.4979 86.9349 42.5315 86.9291 42.5413C86.9349 42.5516 86.9219 42.5389 86.9275 42.536C86.9158 42.5206 86.9181 42.5097 86.9037 42.4879C86.8574 42.4038 86.7552 42.2849 86.6326 42.1799C86.3918 41.9625 86.0837 41.7651 85.7717 41.5826C85.1397 41.2183 84.454 40.9102 83.7614 40.6214C82.3678 40.0536 80.9288 39.5643 79.4755 39.1169C78.0208 38.6725 76.547 38.2777 75.064 37.9172C73.5778 37.5589 72.0795 37.2023 70.5912 36.8307C67.6103 36.0925 64.6338 35.3331 61.6741 34.4992C60.1944 34.0831 58.7171 33.6522 57.2516 33.1733C56.7914 33.0228 56.3326 32.8665 55.8762 32.7012" fill="#FFC520"/>
<path fill-rule="evenodd" clip-rule="evenodd" d="M55.3087 31.7811C56.0173 32.0504 56.7382 32.2948 57.465 32.5251C58.9195 32.9836 60.3893 33.4073 61.8707 33.7923C64.8302 34.5744 67.8126 35.2836 70.8006 35.9682L75.2884 36.9873C76.7907 37.3347 78.2861 37.7172 79.77 38.1525C81.2528 38.5894 82.7259 39.077 84.1597 39.6961C84.8761 40.0077 85.5836 40.3467 86.2697 40.7631C86.6118 40.976 86.95 41.1979 87.2717 41.4997C87.4314 41.6499 87.5919 41.8173 87.726 42.0699C87.7595 42.1302 87.7867 42.2127 87.8125 42.2844C87.8293 42.3752 87.854 42.4553 87.8462 42.5606C87.8433 42.6116 87.8399 42.6625 87.8305 42.7126C87.817 42.7629 87.8006 42.8134 87.7815 42.8626C87.7431 42.9565 87.6827 43.0413 87.6236 43.1081C87.3709 43.3647 87.1234 43.4334 86.9024 43.5004C86.6774 43.563 86.4683 43.5845 86.2583 43.6077C85.8428 43.6417 85.4417 43.6344 85.0446 43.613C84.2522 43.5645 83.4787 43.4535 82.7119 43.321C81.1795 43.0504 79.6795 42.6723 78.1933 42.2573C76.7092 41.8382 75.2386 41.3662 73.7892 40.8608L71.6122 40.1088L69.4436 39.3318L67.2836 38.5295C66.5636 38.2625 65.8512 37.9743 65.1331 37.7014C64.4165 37.4244 63.707 37.1286 62.9934 36.8428C62.2862 36.541 61.5747 36.2502 60.873 35.9346C59.4635 35.3188 58.0746 34.65 56.7133 33.9227C56.0326 33.5591 55.3637 33.1705 54.7075 32.759L54.219 32.4448L53.7383 32.1174L53.2653 31.7809L53.0329 31.6096L52.9168 31.5239L52.8586 31.4809C52.8453 31.476 52.7467 31.3854 52.7303 31.296C52.7041 31.2014 52.7223 31.1086 52.7616 31.0389C52.8011 30.9688 52.8647 30.9101 52.9536 30.8796C53.0423 30.848 53.1445 30.8616 53.2087 30.8925C53.9115 31.2107 54.5972 31.5147 55.3087 31.7811ZM55.8756 32.7157C56.2532 32.9373 56.6358 33.1516 57.0231 33.3582C58.3639 34.0737 59.7387 34.7352 61.1384 35.3456C63.9301 36.5821 66.7934 37.6693 69.6766 38.6966L71.8441 39.4546L74.0207 40.1881C75.4706 40.6813 76.9253 41.1362 78.3964 41.5396C79.8657 41.9438 81.3523 42.2894 82.8468 42.528C83.5933 42.6468 84.3442 42.7352 85.0851 42.7634C85.4546 42.7757 85.8227 42.7721 86.1717 42.7356C86.3419 42.7129 86.5158 42.6898 86.6595 42.6444C86.803 42.6061 86.9288 42.5324 86.942 42.51C86.9409 42.4979 86.9349 42.5316 86.929 42.5413C86.9349 42.5516 86.9218 42.5389 86.9274 42.536C86.9158 42.5206 86.918 42.5097 86.9036 42.4879C86.8574 42.4038 86.7552 42.285 86.6326 42.1799C86.3918 41.9625 86.0836 41.7651 85.7717 41.5826C85.1397 41.2183 84.454 40.9103 83.7613 40.6214C82.3677 40.0537 80.9287 39.5643 79.4754 39.117C78.0207 38.6725 76.5469 38.2777 75.0639 37.9172C73.5778 37.5589 72.0795 37.2024 70.5911 36.8307C67.6103 36.0925 64.6337 35.3332 61.674 34.4993C60.1944 34.0831 58.717 33.6522 57.2515 33.1733C56.7565 33.0114 56.2631 32.8428 55.7725 32.6635C55.5366 32.5773 55.3014 32.4886 55.0669 32.397" fill="#797979" fill-opacity="0.2" style="mix-blend-mode:multiply"/>
<path fill-rule="evenodd" clip-rule="evenodd" d="M62.8765 42.6465C60.217 47.1716 64.2321 46.7269 64.2321 50.8368C67.2619 48.782 67.0735 44.3445 67.0735 44.3445L62.8765 42.6465Z" fill="#797979" fill-opacity="0.2" style="mix-blend-mode:multiply"/>
<path fill-rule="evenodd" clip-rule="evenodd" d="M75.341 40.3292C75.341 40.3292 75.341 40.5562 75.3345 40.8909C75.3345 40.8909 73.367 42.1705 71.1509 39.5209L68.4035 44.4107L66.4363 45.371L63.0175 44.0847C62.6662 43.9525 62.2705 44.0317 61.9994 44.2894L59.1897 46.9614L58.8784 46.2279C58.7807 45.9944 58.7807 45.7322 58.8807 45.501L63.0352 35.8247C63.0352 35.8247 68.2166 35.7653 75.341 40.3292Z" fill="#7D3F50"/>
<path fill-rule="evenodd" clip-rule="evenodd" d="M72.6404 44.5034C72.4798 45.0366 71.9334 45.2383 71.6569 44.8659C71.3802 44.4938 71.581 43.8271 72.0181 43.6659C72.4553 43.5048 72.801 43.9699 72.6404 44.5034Z" fill="#362B42"/>
<path fill-rule="evenodd" clip-rule="evenodd" d="M70.7874 42.0569C72.1183 41.3918 72.9759 41.5206 74.1282 42.2634L74.2823 42.3648L74.5067 42.5142L74.648 42.606C74.9627 42.8074 75.18 42.9216 75.4233 43.0068L75.4759 43.0246L75.1933 43.8696C74.8225 43.7479 74.5307 43.5944 74.0986 43.314L73.7002 43.0499C72.7794 42.4432 72.2466 42.3418 71.2629 42.8168L71.1919 42.8518L70.7874 42.0569Z" fill="#7D3F50"/>
<path fill-rule="evenodd" clip-rule="evenodd" d="M64.8312 53.7585L64.0999 55.9017L61.1301 54.8312L61.4547 52.0567C61.4886 51.7667 61.8243 51.6196 62.0635 51.7898L64.8312 53.7585Z" fill="#797979" fill-opacity="0.2" style="mix-blend-mode:multiply"/>
<path fill-rule="evenodd" clip-rule="evenodd" d="M72.1046 48.2586C72.1046 48.2586 71.0843 53.7585 69.4638 54.2563C67.8833 54.7408 64.9802 53.807 64.8381 53.7607L64.8313 53.7585C61.8972 52.0582 63.2531 48.2452 67.1698 44.6682C67.6677 44.2124 68.4412 44.2431 68.9082 44.73C70.4287 46.3246 70.2663 48.5603 72.1046 48.2586Z" fill="#7D3F50"/>
<path fill-rule="evenodd" clip-rule="evenodd" d="M68.6398 46.7851C68.6647 46.9425 68.6652 47.094 68.6802 47.2416L68.7124 47.4577C68.7182 47.4935 68.7204 47.5291 68.7245 47.5645C68.7315 47.5992 68.7418 47.6328 68.7499 47.6667C68.7681 47.7341 68.7829 47.8013 68.7952 47.869L68.8637 48.0584C68.8801 48.1238 68.9098 48.1823 68.9392 48.2411C68.9684 48.2994 68.9913 48.3615 69.0302 48.4142C69.1553 48.643 69.332 48.8429 69.5407 49.0258C69.7455 49.2054 70.0087 49.3705 70.2457 49.5067L70.1215 50.0707C69.9095 50.0558 69.739 50.0157 69.5566 49.9547C69.4663 49.9264 69.3817 49.8846 69.2932 49.849C69.2074 49.8081 69.1249 49.7593 69.0414 49.7119C68.7124 49.5125 68.4235 49.2234 68.2236 48.8793C68.0316 48.5351 67.9016 48.1485 67.8966 47.7688C67.8726 47.5785 67.9112 47.3949 67.9236 47.2118C67.9588 47.0326 68.0076 46.8584 68.0653 46.6895L68.6398 46.7851Z" fill="white"/>
<path fill-rule="evenodd" clip-rule="evenodd" d="M62.1358 42.8072C61.2226 45.0558 62.6717 47.1923 64.744 46.6526C66.8166 46.1129 67.9582 43.3023 66.7991 41.5932C65.6397 39.884 63.049 40.5585 62.1358 42.8072Z" fill="#FF9B89"/>
<path fill-rule="evenodd" clip-rule="evenodd" d="M64.1404 40.1365C66.7108 41.9437 66.1051 44.333 63.1972 45.0294L63.1083 45.05L62.9597 44.3988C65.3744 43.8578 65.8409 42.191 63.8127 40.7253L63.7505 40.681L64.1404 40.1365Z" fill="#FF9B89"/>
<path fill-rule="evenodd" clip-rule="evenodd" d="M64.1404 40.1365C66.7108 41.9437 66.1051 44.333 63.1972 45.0294L63.1083 45.05L62.9597 44.3988C65.3744 43.8578 65.8409 42.191 63.8127 40.7253L63.7505 40.681L64.1404 40.1365Z" fill="#797979" fill-opacity="0.2" style="mix-blend-mode:multiply"/>
<path fill-rule="evenodd" clip-rule="evenodd" d="M25.446 175.945L21.7099 180.883L18.8135 184.713L13.0381 181.479L17.033 175.883L19.8768 171.899L25.446 175.945Z" fill="#FFC520"/>
<path fill-rule="evenodd" clip-rule="evenodd" d="M25.4461 175.945L21.7099 180.883C20.2125 179.594 18.5804 177.944 17.033 175.883L19.8768 171.899L25.4461 175.945Z" fill="#362B42"/>
<path fill-rule="evenodd" clip-rule="evenodd" d="M73.8402 187.306L66.5153 188.436L65.881 183.062L65.2827 178.013L73.0306 177.553L73.4485 182.579L73.8402 187.306Z" fill="#FFC520"/>
<path fill-rule="evenodd" clip-rule="evenodd" d="M73.4485 182.579C71.183 182.89 68.5908 183.106 65.881 183.062L65.2827 178.013L73.0306 177.553L73.4485 182.579Z" fill="#362B42"/>
<path fill-rule="evenodd" clip-rule="evenodd" d="M59.0296 115.049C59.0296 115.049 57.4758 127.362 51.4895 143.36C48.2131 152.117 42.7649 164.846 37.1855 174.401C35.8606 176.668 34.4668 178.916 33.002 181.13C21.7943 179.657 17.8086 172.256 17.8086 172.256C19.0003 170.441 20.1125 168.634 21.1764 166.851C42.6712 130.813 38.5726 105.6 45.9478 85.2583L47.1238 90.9434H47.1261L59.0296 115.049Z" fill="#15AD8B"/>
<path fill-rule="evenodd" clip-rule="evenodd" d="M49.304 112.341L50.1953 112.452C50.0726 113.42 49.9344 114.396 49.7811 115.382C48.1283 126.002 44.7818 137.336 40.2417 148.869C37.9102 154.791 35.4124 160.387 32.9143 165.483L32.4638 166.397L32.243 166.84L31.9176 167.489L31.5993 168.118L31.3913 168.525L31.1867 168.924L30.9856 169.313L30.594 170.063L30.296 170.628L29.9876 171.204L29.7805 171.587L29.5792 171.953L28.7932 171.522L29.0296 171.091L29.3131 170.565L29.6337 169.962L29.9901 169.284L30.1867 168.906L30.3868 168.519L30.6935 167.92L30.9021 167.51L31.1141 167.091L31.438 166.445L31.6578 166.003L31.993 165.325C32.0306 165.248 32.0684 165.171 32.1062 165.094C34.5943 160.018 37.0825 154.444 39.4048 148.545C43.9228 137.069 47.2517 125.795 48.8932 115.246C49.0149 114.464 49.1269 113.688 49.2291 112.918L49.304 112.341Z" fill="#797979" fill-opacity="0.2" style="mix-blend-mode:multiply"/>
<path fill-rule="evenodd" clip-rule="evenodd" d="M37.1855 174.401C35.8606 176.668 34.467 178.916 33.0022 181.13C21.7945 179.656 17.8088 172.256 17.8088 172.256C19.0003 170.441 20.1206 168.639 21.1764 166.85L21.1876 166.848C26.9359 172.13 37.1855 174.401 37.1855 174.401Z" fill="#797979" fill-opacity="0.2" style="mix-blend-mode:multiply"/>
<path fill-rule="evenodd" clip-rule="evenodd" d="M59.0298 115.049C59.0298 115.049 57.4761 127.362 51.4897 143.36C51.4897 126.062 43.1297 120.52 47.1241 90.9434H47.1263L59.0298 115.049Z" fill="#797979" fill-opacity="0.2" style="mix-blend-mode:multiply"/>
<path fill-rule="evenodd" clip-rule="evenodd" d="M98.0012 199.781C97.9727 199.902 97.8613 199.984 97.7367 199.984L64.2689 200C64.1108 200 63.9837 199.864 63.9965 199.705L64.1436 198.045L65.0092 188.367C65.0294 188.142 65.1979 187.958 65.4218 187.916L73.9164 186.145C75.1402 185.913 76.3982 186.373 77.1636 187.349C80.6511 191.779 95.0957 192.762 97 194.357C97.8822 195.091 98.1937 196.186 98.2591 197.214V197.216C98.3271 198.324 98.1097 199.357 98.0012 199.781Z" fill="#FF4654"/>
<path fill-rule="evenodd" clip-rule="evenodd" d="M86.4988 190.702L86.8155 191.535C85.2549 192.118 84.1702 193.22 83.4761 194.706C83.1107 195.488 82.876 196.331 82.7476 197.178C82.7015 197.482 82.6724 197.767 82.6569 198.027L82.6492 198.178L82.6449 198.336L82.6449 198.399L81.7467 198.415L81.7466 198.331L81.7481 198.245L81.7538 198.092L81.7601 197.974C81.7771 197.689 81.809 197.377 81.8592 197.046C81.9994 196.12 82.2564 195.198 82.6608 194.332C83.4321 192.681 84.6502 191.426 86.3894 190.744L86.4988 190.702Z" fill="#FF4654"/>
<path fill-rule="evenodd" clip-rule="evenodd" d="M86.4988 190.702L86.8155 191.535C85.2549 192.118 84.1702 193.22 83.4761 194.706C83.1107 195.488 82.876 196.331 82.7476 197.178C82.7015 197.482 82.6724 197.767 82.6569 198.027L82.6492 198.178L82.6449 198.336L82.6449 198.399L81.7467 198.415L81.7466 198.331L81.7481 198.245L81.7538 198.092L81.7601 197.974C81.7771 197.689 81.809 197.377 81.8592 197.046C81.9994 196.12 82.2564 195.198 82.6608 194.332C83.4321 192.681 84.6502 191.426 86.3894 190.744L86.4988 190.702Z" fill="#797979" fill-opacity="0.2" style="mix-blend-mode:multiply"/>
<path fill-rule="evenodd" clip-rule="evenodd" d="M98.0012 199.781C97.9727 199.902 97.8613 199.984 97.7367 199.984L64.2689 200C64.1108 200 63.9837 199.864 63.9965 199.705L64.1748 197.694C91.6686 197.913 96.2559 193.649 98.2566 197.211L98.2591 197.214V197.216C98.3271 198.324 98.1097 199.357 98.0012 199.781Z" fill="#362B42"/>
<path fill-rule="evenodd" clip-rule="evenodd" d="M71.3043 195.757C69.5872 196.453 67.9843 195.604 68.4187 194.229C68.853 192.853 70.9993 191.984 72.2817 192.663C73.5641 193.342 73.0213 195.062 71.3043 195.757Z" fill="white"/>
<path fill-rule="evenodd" clip-rule="evenodd" d="M81.7848 174.712C81.7783 174.718 81.7717 174.723 81.7652 174.729C77.2585 178.799 70.7037 180.073 67.0484 180.471C65.3889 180.655 64.33 180.655 64.33 180.655L63.5724 173.039L63.5504 172.823L59.6725 133.754C59.4084 131.091 58.6136 128.503 57.3341 126.145L47.1437 107.375C44.5649 102.626 43.698 97.148 44.6829 91.8473L45.4319 87.8162L46.052 84.4822L65.0572 90.6248C65.3846 93.6472 66.1487 96.9446 67.1248 100.214C70.2604 110.723 75.575 120.956 75.575 120.956C76.4134 123.378 76.9636 125.887 77.2147 128.434L77.8894 135.26V135.262C77.9047 135.414 77.9179 135.567 77.9332 135.717L81.0861 167.626L81.7848 174.712Z" fill="#15AD8B"/>
<path fill-rule="evenodd" clip-rule="evenodd" d="M70.1551 71.7671C70.0794 73.0953 69.926 74.5138 69.7216 75.9499L69.7194 75.9566C69.0081 80.9742 67.7122 86.1832 67.1475 88.3286C66.9742 88.9874 66.6007 89.5731 66.074 90.0049L65.2693 90.6678L65.0557 90.8441L46.0525 84.703C47.8196 78.6811 48.5176 74.3177 49.4178 70.3773C50.4359 65.9236 51.7098 62.0094 55.0641 56.8486C55.0641 56.8486 68.0634 60.4259 69.8148 66.5115C70.1996 67.8464 70.2728 69.6945 70.1551 71.7671Z" fill="#6343F0"/>
<path fill-rule="evenodd" clip-rule="evenodd" d="M64.8899 61.0953C64.7427 58.7414 65.3687 55.1185 65.3687 55.1185L56.7881 52.0388L55.0652 56.8501L64.8899 61.0953Z" fill="#6343F0"/>
<path fill-rule="evenodd" clip-rule="evenodd" d="M56.0339 97.5337L56.3117 90.8857L57.0151 91.1029L57.3245 91.2016L57.6948 91.3225L58.094 91.4555C59.0106 91.7642 59.9274 92.0943 60.7845 92.4329L60.944 92.4963L61.2553 92.6223L61.5562 92.7473C62.098 92.9757 62.5855 93.1987 63.0095 93.4147L63.093 93.4575L63.2546 93.5423L63.4093 93.626C63.4344 93.6398 63.4593 93.6536 63.4839 93.6674L63.6278 93.7496C64.4933 94.2538 64.9493 94.7099 64.9493 95.2269C64.9493 95.8681 64.4227 96.1401 63.6496 96.1594C63.1309 96.1724 62.453 96.0782 61.6445 95.8997C61.2976 95.8231 60.9337 95.7323 60.5589 95.6303C60.209 95.5351 59.8646 95.4344 59.5356 95.3327L59.2603 95.2462L59.0401 95.175L58.8371 95.1073L59.1315 94.2662L59.2584 94.3088L59.5357 94.3989L59.613 94.4234C59.9891 94.5422 60.3895 94.6611 60.7967 94.7719C61.1583 94.8703 61.5082 94.9575 61.8399 95.0308L62.0588 95.0776C62.7039 95.2109 63.2405 95.2791 63.6269 95.2695C63.8151 95.2648 63.9541 95.2413 64.0334 95.2084L64.0457 95.2026L64.0411 95.1912C64.0111 95.1284 63.9128 95.0294 63.7524 94.9058L63.674 94.8471L63.5869 94.7852L63.4913 94.7202L63.3872 94.6526L63.2749 94.5825L63.1545 94.5102L63.026 94.436C63.004 94.4234 62.9816 94.4108 62.9588 94.3982L62.8187 94.3215C62.7947 94.3086 62.7703 94.2956 62.7457 94.2826L62.5987 94.2064C62.1946 94.0005 61.725 93.7858 61.2004 93.5648L60.9088 93.4436L60.6068 93.3213C60.5555 93.3009 60.5039 93.2804 60.4519 93.2598C59.7042 92.9645 58.9077 92.6748 58.1058 92.4005L57.6707 92.2533L57.4114 92.1672L57.1605 92.0851L56.9315 97.5705C56.7724 101.386 57.5544 105.181 59.2085 108.628L59.298 108.812L67.0301 124.568C68.3923 127.345 69.2098 130.351 69.4397 133.428L69.4548 133.643L71.9454 171.508L71.0489 171.566L68.5583 133.701C68.3633 130.735 67.6018 127.833 66.315 125.149L66.2221 124.958L58.49 109.201C56.7404 105.636 55.8952 101.702 56.0261 97.7421L56.0339 97.5337Z" fill="#797979" fill-opacity="0.2" style="mix-blend-mode:multiply"/>
<path fill-rule="evenodd" clip-rule="evenodd" d="M81.7649 174.729C77.2581 178.799 70.7034 180.073 67.0481 180.472C65.3885 180.655 64.3298 180.655 64.3298 180.655L63.572 173.039C64.0372 173 71.8517 172.282 81.0859 167.847L81.7649 174.729Z" fill="#797979" fill-opacity="0.2" style="mix-blend-mode:multiply"/>
<path fill-rule="evenodd" clip-rule="evenodd" d="M76.607 124.517C77.1882 126.821 76.5789 128.501 75.5105 127.542C74.4417 126.583 73.7153 123.704 74.2025 122.359C74.6898 121.014 76.0257 122.213 76.607 124.517Z" fill="#797979" fill-opacity="0.2" style="mix-blend-mode:multiply"/>
<path fill-rule="evenodd" clip-rule="evenodd" d="M69.7218 75.9499L69.7196 75.9566C69.7196 75.9566 58.1296 73.375 49.4182 70.3772C50.4361 65.9236 51.71 62.0094 55.0643 56.8486C55.0643 56.8486 68.0636 60.4259 69.8152 66.5115C70.4466 68.7032 70.242 72.276 69.7218 75.9499Z" fill="white" fill-opacity="0.3" style="mix-blend-mode:lighten"/>
<path fill-rule="evenodd" clip-rule="evenodd" d="M70.1551 71.7674C70.0794 73.0956 69.926 74.5141 69.7216 75.9502L69.7194 75.9569C69.0081 80.9745 67.7122 86.1835 67.1476 88.3289C66.9742 88.9877 66.6007 89.5734 66.074 90.0052L65.2693 90.6681C65.6248 82.9479 61.6481 85.9766 62.0549 71.3577L70.1551 71.7674Z" fill="#797979" fill-opacity="0.2" style="mix-blend-mode:multiply"/>
<path fill-rule="evenodd" clip-rule="evenodd" d="M105.201 90.5338C101.982 94.097 89.6119 92.8772 81.3784 93.1637C80.3871 93.1988 79.4757 93.2253 78.6687 93.2474C76.4347 93.309 74.3453 92.1593 73.216 90.2474L72.4558 88.961L68.5635 82.3706L68.559 82.3662L62.055 71.3575C62.055 71.3575 60.2167 65.796 66.4364 62.1704C71.4511 65.7717 76.1236 71.6241 78.6153 75.0271L78.6177 75.0294C79.3755 76.0645 79.9323 76.8723 80.2357 77.3212C80.3909 77.5506 80.6822 77.6435 80.9432 77.5466C83.398 76.6364 95.3934 72.379 101.471 73.7415C108.262 75.2642 108.419 86.9705 105.201 90.5338Z" fill="#6343F0"/>
<path d="M66.4362 62.1704C66.7494 62.3953 67.0617 62.6293 67.3718 62.8706C67.6823 63.1123 67.991 63.3618 68.2976 63.6177C68.4505 63.7453 68.6028 63.8746 68.7546 64.0054C69.4586 64.612 70.148 65.2518 70.82 65.9077C74.065 69.0747 76.8742 72.6491 78.6159 75.0278L78.6179 75.0298L78.1091 75.1714C72.911 76.7633 68.6142 82.3037 68.5632 82.3696L68.5593 82.3667L62.0554 71.3579C62.0554 71.3579 60.2167 65.796 66.4362 62.1704Z" fill="white" fill-opacity="0.3" style="mix-blend-mode:lighten"/>
<path fill-rule="evenodd" clip-rule="evenodd" d="M81.3785 93.1637C80.3871 93.1989 79.4757 93.2254 78.669 93.2474C76.435 93.3091 74.3456 92.1594 73.2163 90.2474L72.4558 88.9611C74.3098 86.3334 78.8179 85.4281 81.3608 87.4368C83.3168 88.9809 83.0946 91.4412 81.3785 93.1637Z" fill="#797979" fill-opacity="0.2" style="mix-blend-mode:multiply"/>
<path fill-rule="evenodd" clip-rule="evenodd" d="M147.973 73.3003C148.005 76.2607 145.017 77.3311 140.525 77.2056C138.322 77.144 134.589 76.9588 131.198 76.7761C127.196 76.5624 123.666 76.351 123.666 76.351L123.179 70.9105L123.1 70.0161C132.505 73.2297 144.544 72.8376 147.329 72.6945C147.68 72.6769 147.969 72.9544 147.973 73.3003Z" fill="#FF9B89"/>
<path fill-rule="evenodd" clip-rule="evenodd" d="M131.197 76.7762C127.196 76.5625 123.666 76.3511 123.666 76.3511L123.179 70.9106C126.309 77.0272 128.856 74.5189 131.197 76.7762Z" fill="#797979" fill-opacity="0.2" style="mix-blend-mode:multiply"/>
<path fill-rule="evenodd" clip-rule="evenodd" d="M139.936 74.71C140.111 74.7112 140.254 74.8446 140.269 75.014L140.27 75.0462L140.257 76.947C140.255 77.1313 140.104 77.2797 139.917 77.2784C139.742 77.2772 139.599 77.1438 139.584 76.9744L139.583 76.9422L139.597 75.0414C139.598 74.857 139.75 74.7087 139.936 74.71Z" fill="#FF9B89"/>
<path fill-rule="evenodd" clip-rule="evenodd" d="M132.83 73.9668C133.004 73.9867 133.132 74.1346 133.129 74.3046L133.127 74.3367L132.858 76.641C132.837 76.8242 132.67 76.9555 132.485 76.9344C132.311 76.9145 132.183 76.7666 132.187 76.5966L132.189 76.5645L132.457 74.2602C132.477 74.0878 132.626 73.9613 132.798 73.9647L132.83 73.9668Z" fill="#FF9B89"/>
<path fill-rule="evenodd" clip-rule="evenodd" d="M125.26 86.4457C125.211 87.6526 124.355 88.6792 123.17 88.9567L115.359 90.787C114.406 91.0095 113.414 90.6263 112.865 89.8222L110.511 86.3729L108.366 86.3905L105.036 86.4192C104.276 86.4259 103.545 86.1261 103.007 85.5931C102.578 85.1638 102.291 84.613 102.189 84.0161L101.573 80.3994C101.315 78.8883 102.189 77.4126 103.645 76.8971L104.332 76.6548L123.1 70.0161C125.282 76.9875 125.389 83.318 125.26 86.4457Z" fill="#FF9B89"/>
<path fill-rule="evenodd" clip-rule="evenodd" d="M122.428 70.2095C122.56 70.0789 122.773 70.0786 122.905 70.2087C123.028 70.3307 123.036 70.5241 122.929 70.6554L122.905 70.6808L119.509 74.058C118.381 75.1789 117.936 76.8046 118.333 78.3329L118.356 78.4193L120.418 85.757C120.468 85.9346 120.363 86.1187 120.184 86.1681C120.015 86.2147 119.84 86.1254 119.779 85.9666L119.769 85.9361L117.707 78.5984C117.214 76.8443 117.694 74.9651 118.964 73.6551L119.031 73.5867L122.428 70.2095Z" fill="#FF9B89"/>
<path fill-rule="evenodd" clip-rule="evenodd" d="M113.583 83.8886C114.174 83.4881 114.979 83.6579 115.357 84.2527L115.383 84.296L116.992 87.0678C117.084 87.2276 117.029 87.4317 116.868 87.5236C116.716 87.6101 116.524 87.5664 116.425 87.4277L116.408 87.4006L114.799 84.6289C114.636 84.3478 114.274 84.2564 113.996 84.419L113.963 84.4397L110.702 86.6494C110.549 86.7535 110.339 86.7145 110.234 86.5623C110.135 86.419 110.164 86.2266 110.296 86.1177L110.322 86.0983L113.583 83.8886Z" fill="#FF9B89"/>
<path fill-rule="evenodd" clip-rule="evenodd" d="M120.237 72.4649C120.409 72.4288 120.577 72.5286 120.629 72.6908L120.637 72.7219L123.343 85.3211C123.533 86.2049 123.264 87.1228 122.63 87.7681L122.575 87.8227L120.938 89.3979C120.805 89.5264 120.592 89.5233 120.462 89.391C120.34 89.267 120.336 89.0735 120.445 88.944L120.469 88.919L122.106 87.3437C122.596 86.8724 122.816 86.1918 122.697 85.5287L122.684 85.4601L119.978 72.8609C119.939 72.6806 120.055 72.5033 120.237 72.4649Z" fill="#FF9B89"/>
<path fill-rule="evenodd" clip-rule="evenodd" d="M139.936 74.71C140.111 74.7112 140.254 74.8446 140.269 75.014L140.27 75.0462L140.257 76.947C140.255 77.1313 140.104 77.2797 139.917 77.2784C139.742 77.2772 139.599 77.1438 139.584 76.9744L139.583 76.9422L139.597 75.0414C139.598 74.857 139.75 74.7087 139.936 74.71Z" fill="#797979" fill-opacity="0.2" style="mix-blend-mode:multiply"/>
<path fill-rule="evenodd" clip-rule="evenodd" d="M132.83 73.9668C133.004 73.9867 133.132 74.1346 133.129 74.3046L133.127 74.3367L132.858 76.641C132.837 76.8242 132.67 76.9555 132.485 76.9344C132.311 76.9145 132.183 76.7666 132.187 76.5966L132.189 76.5645L132.457 74.2602C132.477 74.0878 132.626 73.9613 132.798 73.9647L132.83 73.9668Z" fill="#797979" fill-opacity="0.2" style="mix-blend-mode:multiply"/>
<path d="M122.429 70.2092C122.56 70.079 122.773 70.0791 122.904 70.2092C123.028 70.3312 123.036 70.5242 122.929 70.6554L122.905 70.6808L120.674 72.8976L123.343 85.3205C123.533 86.2043 123.263 87.1224 122.63 87.7677L122.575 87.8224L120.938 89.3976C120.805 89.5261 120.591 89.5231 120.462 89.3908C120.34 89.2668 120.335 89.0731 120.445 88.9435L120.469 88.9191L122.105 87.3439C122.595 86.8727 122.816 86.1916 122.697 85.5285L122.683 85.4601L120.106 73.4631L119.509 74.0578C118.381 75.1787 117.936 76.8049 118.333 78.3332L118.356 78.4191L120.418 85.757C120.468 85.9346 120.363 86.1187 120.183 86.1681C120.015 86.2146 119.841 86.1254 119.779 85.967L119.768 85.9357L117.707 78.5988C117.214 76.8448 117.694 74.9654 118.964 73.6554L119.031 73.5871L122.429 70.2092Z" fill="#797979" fill-opacity="0.2" style="mix-blend-mode:multiply"/>
<path fill-rule="evenodd" clip-rule="evenodd" d="M113.583 83.8886C114.174 83.4881 114.979 83.6579 115.357 84.2527L115.383 84.296L116.992 87.0678C117.084 87.2276 117.029 87.4317 116.868 87.5236C116.716 87.6101 116.524 87.5664 116.425 87.4277L116.408 87.4006L114.799 84.6289C114.636 84.3478 114.274 84.2564 113.996 84.419L113.963 84.4397L110.702 86.6494C110.549 86.7535 110.339 86.7145 110.234 86.5623C110.135 86.419 110.164 86.2266 110.296 86.1177L110.322 86.0983L113.583 83.8886Z" fill="#797979" fill-opacity="0.2" style="mix-blend-mode:multiply"/>
<path fill-rule="evenodd" clip-rule="evenodd" d="M108.366 86.3907L105.036 86.4192C104.276 86.4259 103.545 86.1263 103.007 85.5933C102.578 85.1638 102.291 84.6132 102.189 84.0163L101.573 80.3997C101.315 78.8885 102.189 77.4128 103.645 76.8974L104.332 76.655C101.042 83.285 106.219 82.5669 108.366 86.3907Z" fill="#797979" fill-opacity="0.2" style="mix-blend-mode:multiply"/>
<path fill-rule="evenodd" clip-rule="evenodd" d="M102.059 75.7781L102.855 76.1915C101.073 79.5589 101.452 82.7699 103.169 85.6416C103.491 86.1802 103.836 86.6598 104.18 87.0735C104.28 87.1934 104.373 87.3002 104.459 87.3934L104.554 87.4951L104.604 87.5465L104.625 87.5673L103.997 88.2045L103.951 88.1586L103.868 88.0725L103.769 87.9661L103.657 87.8394L103.574 87.744L103.487 87.6398C103.114 87.1921 102.743 86.6754 102.396 86.0954C100.552 83.012 100.125 79.5241 101.999 75.894L102.059 75.7781Z" fill="#797979" fill-opacity="0.2" style="mix-blend-mode:multiply"/>
<path fill-rule="evenodd" clip-rule="evenodd" d="M56.3649 51.8896L57.2114 52.1875L55.6309 56.5975L63.4191 59.7539L63.079 60.5779L55.0524 57.3249C54.7541 57.2041 54.5983 56.8807 54.6859 56.5782L54.6981 56.5405L56.3649 51.8896Z" fill="#6343F0"/>
<path fill-rule="evenodd" clip-rule="evenodd" d="M56.3649 51.8896L57.2114 52.1875L55.6309 56.5975L63.4191 59.7539L63.079 60.5779L55.0524 57.3249C54.7541 57.2041 54.5983 56.8807 54.6859 56.5782L54.6981 56.5405L56.3649 51.8896Z" fill="#797979" fill-opacity="0.2" style="mix-blend-mode:multiply"/>
<path fill-rule="evenodd" clip-rule="evenodd" d="M35.3144 194.003C35.2919 194.114 35.2585 194.227 35.2138 194.337L34.4908 196.131C34.2927 196.623 33.8246 196.957 33.2899 196.988L21.1115 197.69C16.3337 197.966 11.6994 196.025 8.56964 192.439L4.33199 187.583C4.03844 187.247 4.07752 186.737 4.41891 186.448L5.55805 185.52L13.1031 179.388C13.2891 179.237 13.5565 179.238 13.7414 179.39L18.7272 183.489C19.621 184.148 20.0855 185.233 19.9427 186.327C19.9797 187.599 19.765 188.284 20.5596 188.874C23.6801 191.192 28.2437 191.541 33.5073 191.746C34.708 191.792 35.543 192.891 35.3144 194.003Z" fill="#FF4654"/>
<path fill-rule="evenodd" clip-rule="evenodd" d="M14.038 191.448C12.3847 190.882 11.7765 189.309 12.9433 188.617C14.1099 187.924 16.1763 188.632 16.663 189.89C17.1495 191.148 15.691 192.014 14.038 191.448Z" fill="white"/>
<mask id="mask1_257_26050" style="mask-type:luminance" maskUnits="userSpaceOnUse" x="4" y="179" width="32" height="19">
<path fill-rule="evenodd" clip-rule="evenodd" d="M13.1034 179.388L5.55816 185.52L4.41924 186.448C4.07786 186.737 4.03856 187.247 4.33233 187.583L8.56975 192.439C11.6997 196.025 16.3338 197.966 21.1116 197.691L33.29 196.988C33.8248 196.957 34.2928 196.623 34.4911 196.131L35.2141 194.337C35.2586 194.227 35.292 194.114 35.3145 194.003C35.5431 192.891 34.7081 191.792 33.5074 191.746C28.2438 191.541 23.6803 191.192 20.56 188.874C19.7653 188.284 19.9798 187.599 19.943 186.327C20.0856 185.233 19.6212 184.148 18.7273 183.489L13.7417 179.39C13.6487 179.314 13.5351 179.276 13.4214 179.276C13.3087 179.276 13.1957 179.313 13.1034 179.388Z" fill="white"/>
</mask>
<g mask="url(#mask1_257_26050)">
<path fill-rule="evenodd" clip-rule="evenodd" d="M10.3132 181.509C10.332 181.555 10.3499 181.601 10.3669 181.647C10.9643 183.276 10.4885 184.982 9.35609 186.624C9.08454 187.018 8.79414 187.378 8.50334 187.697L8.3786 187.832L8.30403 187.91L8.20635 188.009L8.15142 188.063L8.10525 188.106L7.49316 187.454L7.56138 187.389L7.58242 187.368C7.61287 187.337 7.64481 187.305 7.67809 187.27L7.78176 187.16C7.79966 187.141 7.81785 187.121 7.83632 187.101C8.10147 186.81 8.36701 186.481 8.61434 186.122C9.6001 184.693 10.0009 183.256 9.52253 181.952L9.50188 181.897L9.48017 181.842L10.3132 181.509Z" fill="#FF4654"/>
<path fill-rule="evenodd" clip-rule="evenodd" d="M10.3132 181.509C10.332 181.555 10.3499 181.601 10.3669 181.647C10.9643 183.276 10.4885 184.982 9.35609 186.624C9.08454 187.018 8.79414 187.378 8.50334 187.697L8.3786 187.832L8.30403 187.91L8.20635 188.009L8.15142 188.063L8.10525 188.106L7.49316 187.454L7.56138 187.389L7.58242 187.368C7.61287 187.337 7.64481 187.305 7.67809 187.27L7.78176 187.16C7.79966 187.141 7.81785 187.121 7.83632 187.101C8.10147 186.81 8.36701 186.481 8.61434 186.122C9.6001 184.693 10.0009 183.256 9.52253 181.952L9.50188 181.897L9.48017 181.842L10.3132 181.509Z" fill="#797979" fill-opacity="0.2" style="mix-blend-mode:multiply"/>
</g>
<mask id="mask2_257_26050" style="mask-type:luminance" maskUnits="userSpaceOnUse" x="4" y="179" width="32" height="19">
<path fill-rule="evenodd" clip-rule="evenodd" d="M13.1034 179.388L5.55816 185.52L4.41924 186.448C4.07786 186.737 4.03856 187.247 4.33233 187.583L8.56975 192.439C11.6997 196.025 16.3338 197.966 21.1116 197.691L33.29 196.988C33.8248 196.957 34.2928 196.623 34.4911 196.131L35.2141 194.337C35.2586 194.227 35.292 194.114 35.3145 194.003C35.5431 192.891 34.7081 191.792 33.5074 191.746C28.2438 191.541 23.6803 191.192 20.56 188.874C19.7653 188.284 19.9798 187.599 19.943 186.327C20.0856 185.233 19.6212 184.148 18.7273 183.489L13.7417 179.39C13.6487 179.314 13.5351 179.276 13.4214 179.276C13.3087 179.276 13.1957 179.313 13.1034 179.388Z" fill="white"/>
</mask>
<g mask="url(#mask2_257_26050)">
<path fill-rule="evenodd" clip-rule="evenodd" d="M29.2175 190.271L29.3239 191.155C27.7206 191.344 26.6507 192.02 25.9872 193.032C25.7108 193.454 25.5238 193.909 25.4106 194.363C25.379 194.49 25.3552 194.609 25.3381 194.718L25.3226 194.828L25.3119 194.932L25.3113 194.943L24.4138 194.902C24.4154 194.868 24.4183 194.829 24.4226 194.785L24.4332 194.693C24.4353 194.677 24.4376 194.66 24.44 194.643L24.4571 194.534C24.4765 194.42 24.5031 194.291 24.5384 194.15C24.6742 193.604 24.8987 193.059 25.2337 192.548C26.0244 191.341 27.2939 190.525 29.1059 190.285L29.2175 190.271Z" fill="#FF4654"/>
<path fill-rule="evenodd" clip-rule="evenodd" d="M29.2175 190.271L29.3239 191.155C27.7206 191.344 26.6507 192.02 25.9872 193.032C25.7108 193.454 25.5238 193.909 25.4106 194.363C25.379 194.49 25.3552 194.609 25.3381 194.718L25.3226 194.828L25.3119 194.932L25.3113 194.943L24.4138 194.902C24.4154 194.868 24.4183 194.829 24.4226 194.785L24.4332 194.693C24.4353 194.677 24.4376 194.66 24.44 194.643L24.4571 194.534C24.4765 194.42 24.5031 194.291 24.5384 194.15C24.6742 193.604 24.8987 193.059 25.2337 192.548C26.0244 191.341 27.2939 190.525 29.1059 190.285L29.2175 190.271Z" fill="#797979" fill-opacity="0.2" style="mix-blend-mode:multiply"/>
</g>
<path fill-rule="evenodd" clip-rule="evenodd" d="M35.214 194.337L34.491 196.131C34.2927 196.623 33.8249 196.957 33.2901 196.988L21.1115 197.69C16.3339 197.966 11.6996 196.025 8.56989 192.439L4.33223 187.582C4.03869 187.246 4.07777 186.737 4.41915 186.448L6.1546 185.033L9.05164 188.996C12.1971 193.037 14.8987 195.287 21.8517 194.912C28.8045 194.536 35.2587 194.227 35.214 194.337Z" fill="#362B42"/>
<path fill-rule="evenodd" clip-rule="evenodd" d="M81.7854 174.712C77.2773 178.796 70.7088 180.073 67.0477 180.472C64.6602 162.76 80.6296 164.683 77.9331 135.716L81.0851 167.626L81.7854 174.712Z" fill="#797979" fill-opacity="0.2" style="mix-blend-mode:multiply"/>
<path fill-rule="evenodd" clip-rule="evenodd" d="M22.0388 42.1166C23.8803 39.3136 26.0582 36.722 28.5615 34.4829C31.0545 32.2344 33.8255 30.2998 36.7749 28.7015C39.7268 27.106 42.8513 25.8359 46.0729 24.9027C49.2959 23.9801 52.6149 23.3569 55.982 23.2183L56.0146 23.9861C52.7333 24.1528 49.4751 24.7961 46.3224 25.7331C43.1694 26.6798 40.1176 27.9564 37.2457 29.5454C34.3758 31.1375 31.6914 33.0523 29.2874 35.2642C26.8728 37.4666 24.7856 40.0039 23.0268 42.7388L22.0388 42.1166Z" fill="#FF4654"/>
<path fill-rule="evenodd" clip-rule="evenodd" d="M27.9395 47.8539C28.3794 46.5275 28.9688 45.2463 29.7032 44.051C30.4471 42.8619 31.3342 41.7583 32.3552 40.7942C33.3719 39.8259 34.5124 38.9902 35.7356 38.3052C36.3476 37.9629 36.978 37.6538 37.6285 37.3894C38.2847 37.125 38.9311 36.8955 39.6536 36.7297L39.8308 37.5563C39.2229 37.707 38.579 37.9422 37.9743 38.2003C37.3634 38.4605 36.771 38.7641 36.1978 39.0981C35.051 39.7662 33.9891 40.5736 33.0494 41.5001C32.1055 42.4228 31.2933 43.471 30.6157 44.5964C29.9476 45.7286 29.4157 46.9386 29.0231 48.194L27.9395 47.8539Z" fill="#FF4654"/>
<path fill-rule="evenodd" clip-rule="evenodd" d="M63.5206 19.9644L62.4219 19.8475L61.8729 19.789L61.3204 19.7623L60.2159 19.7102L59.1086 19.7142C58.7398 19.7089 58.3708 19.728 58.0021 19.7487C57.6335 19.771 57.2643 19.7776 56.8961 19.8126L55.7925 19.9154C55.4244 19.9474 55.059 20.0075 54.6922 20.0523C53.2274 20.2521 51.7713 20.5254 50.3346 20.8757C48.9028 21.2275 47.4679 21.6479 46.1084 22.1558L45.7776 21.3272C47.2186 20.7998 48.6589 20.3914 50.1298 20.0393C51.5977 19.6922 53.0843 19.4238 54.5813 19.2297C54.9563 19.1865 55.3294 19.1282 55.706 19.0977L56.8348 19.0005C57.211 18.9675 57.5897 18.9629 57.9668 18.9426C58.3443 18.9241 58.7219 18.9072 59.1003 18.9155L60.235 18.9193L61.3689 18.98L61.9358 19.0116L62.5007 19.0753L63.6302 19.2037L63.5206 19.9644Z" fill="#FF4654"/>
<path fill-rule="evenodd" clip-rule="evenodd" d="M20.3593 55.1026C18.6607 53.1235 16.7974 51.2861 14.7294 49.7572C13.6976 48.992 12.6155 48.3046 11.4898 47.7351C10.365 47.1678 9.19354 46.71 8.01285 46.4538C6.84114 46.2006 5.63484 46.1449 4.64483 46.4289C4.40159 46.5028 4.17161 46.5912 3.96565 46.7C3.76262 46.8119 3.58249 46.9399 3.42865 47.0828C3.11893 47.3681 2.9305 47.7206 2.82381 48.1312C2.77665 48.34 2.75374 48.5638 2.75082 48.7977C2.75396 49.0341 2.77957 49.2805 2.82628 49.5322C2.92308 50.0367 3.11174 50.5592 3.35565 51.0729C3.84796 52.1035 4.57116 53.0921 5.38195 54.0172L5.38936 54.0257C5.93557 54.6488 5.86864 55.5929 5.23978 56.1341C4.61091 56.6754 3.65818 56.6093 3.11197 55.9859C3.10029 55.9725 3.08479 55.9543 3.07379 55.9405C2.17451 54.8286 1.34508 53.6229 0.741146 52.2279C0.442884 51.53 0.198975 50.7853 0.076795 49.9797C0.0179512 49.5762 -0.0105723 49.1594 0.00357717 48.7321C0.0240153 48.3035 0.0857788 47.8662 0.207285 47.4322C0.456585 46.5662 0.97158 45.7261 1.67434 45.1366C2.02156 44.8395 2.40225 44.5976 2.79417 44.4053C3.18766 44.217 3.59058 44.0817 3.9926 43.9793C4.79733 43.7875 5.59419 43.7381 6.35893 43.7841C7.12503 43.8278 7.86439 43.9557 8.57681 44.1384C10.0019 44.5065 11.3184 45.0878 12.5537 45.7695C13.7881 46.4545 14.9382 47.251 16.0179 48.1167C18.1809 49.8482 20.0603 51.856 21.7495 53.9823C22.0556 54.3677 21.9885 54.9259 21.5997 55.2292C21.2201 55.5252 20.6746 55.4689 20.364 55.1082L20.3593 55.1026Z" fill="#362B42"/>
<path fill-rule="evenodd" clip-rule="evenodd" d="M21.6396 51.1594C11.6233 54.5502 6.80396 63.2159 6.80396 63.2159C14.53 74.9986 28.6186 74.7538 29.2082 65.9888C29.798 57.2239 21.6396 51.1594 21.6396 51.1594Z" fill="#FF4654"/>
<path fill-rule="evenodd" clip-rule="evenodd" d="M9.91086 59.051C10.2778 59.7659 10.655 60.4436 11.042 61.0843L11.2213 61.3773C13.7706 65.4922 16.7296 68.0268 19.9186 69.0279C23.2009 70.0583 26.6535 69.4172 29.8028 67.3386L29.9193 67.2609L30.424 67.9974C27.0271 70.2832 23.2483 71.0069 19.6473 69.8765C15.6826 68.6319 12.1061 65.2198 9.19803 59.6248L9.11011 59.4546L9.91086 59.051Z" fill="#362B42"/>
<path fill-rule="evenodd" clip-rule="evenodd" d="M20.5426 57.8943C21.7873 59.2134 21.4619 61.0599 19.9571 61.2181C18.4521 61.3761 16.8963 59.727 17.1566 58.2499C17.4169 56.7727 19.2979 56.575 20.5426 57.8943Z" fill="#362B42"/>
<path fill-rule="evenodd" clip-rule="evenodd" d="M20.1571 59.2375L24.0127 63.6289C24.2959 63.9516 24.2416 64.4448 23.8946 64.6992C23.5783 64.9308 23.1345 64.8768 22.8846 64.5761L19.0249 59.9386L20.1571 59.2375Z" fill="#362B42"/>
<path fill-rule="evenodd" clip-rule="evenodd" d="M32.9324 66.4314C32.299 66.8549 31.5767 66.6404 31.6324 66.0453C31.6879 65.4502 32.4796 64.9208 33.0575 65.0923C33.6351 65.2639 33.5657 66.0079 32.9324 66.4314Z" fill="#362B42"/>
<path fill-rule="evenodd" clip-rule="evenodd" d="M43.5314 35.988C43.9415 36.939 45.2367 37.0936 45.8628 36.2662C46.4786 35.4527 45.993 34.2892 44.9908 34.1335L44.9403 34.1265C43.9042 34.0031 43.1216 35.0371 43.5314 35.988ZM44.8332 35.0104C45.1826 35.0521 45.3554 35.4527 45.1442 35.7314C44.933 36.0102 44.4961 35.9581 44.3577 35.6376C44.2195 35.3173 44.4836 34.9687 44.8332 35.0104Z" fill="#FF4654"/>
<path fill-rule="evenodd" clip-rule="evenodd" d="M43.5314 35.988C43.9415 36.939 45.2367 37.0936 45.8628 36.2662C46.4786 35.4527 45.993 34.2892 44.9908 34.1335L44.9403 34.1265C43.9042 34.0031 43.1216 35.0371 43.5314 35.988ZM44.8332 35.0104C45.1826 35.0521 45.3554 35.4527 45.1442 35.7314C44.933 36.0102 44.4961 35.9581 44.3577 35.6376C44.2195 35.3173 44.4836 34.9687 44.8332 35.0104Z" fill="#797979" fill-opacity="0.2" style="mix-blend-mode:multiply"/>
<path fill-rule="evenodd" clip-rule="evenodd" d="M66.8878 61.5502C66.4629 61.1189 66.5895 60.4699 67.1158 60.3824C67.6418 60.295 68.1729 60.8342 68.0716 61.3532C67.9701 61.8722 67.3125 61.9817 66.8878 61.5502Z" fill="white" fill-opacity="0.3" style="mix-blend-mode:lighten"/>
<path fill-rule="evenodd" clip-rule="evenodd" d="M6.68086 196.444C5.53902 196.189 4.9681 195.402 5.65312 195.027C6.33813 194.652 7.76543 194.971 8.22203 195.6C8.67886 196.23 7.8227 196.698 6.68086 196.444Z" fill="#362B42"/>
<path fill-rule="evenodd" clip-rule="evenodd" d="M5.75646 192.937C5.28594 193.251 4.64809 192.943 4.60833 192.382C4.56881 191.821 5.15702 191.428 5.6673 191.674C6.17735 191.921 6.22699 192.622 5.75646 192.937Z" fill="#FF4654"/>
<path fill-rule="evenodd" clip-rule="evenodd" d="M67.1246 100.214C56.0498 100.714 55.4189 89.7139 45.4316 87.8162L46.0517 84.4822L65.0567 90.6248C65.3842 93.6472 66.1485 96.9448 67.1246 100.214Z" fill="#797979" fill-opacity="0.2" style="mix-blend-mode:multiply"/>
<path fill-rule="evenodd" clip-rule="evenodd" d="M46.1916 84.28L65.8883 90.6447L65.6098 91.4911L45.9131 85.1264L46.1916 84.28Z" fill="#362B42"/>
<path fill-rule="evenodd" clip-rule="evenodd" d="M45.2451 87.1426L44.4602 97.2846C44.199 100.658 44.8988 104.037 46.48 107.035L51.1652 115.922" fill="#797979" fill-opacity="0.2" style="mix-blend-mode:multiply"/>
</svg>
