<svg width="170" height="200" viewBox="0 0 170 200" fill="none" xmlns="http://www.w3.org/2000/svg">
<path fill-rule="evenodd" clip-rule="evenodd" d="M86.4688 56.3103L85.9684 52.0112L81.094 52.277L81.2704 56.9398L86.4688 56.3103Z" fill="#FF9B89"/>
<mask id="mask0_258_44950" style="mask-type:luminance" maskUnits="userSpaceOnUse" x="54" y="195" width="63" height="5">
<path fill-rule="evenodd" clip-rule="evenodd" d="M54.3303 195.438H116.634V200H54.3303V195.438Z" fill="white"/>
</mask>
<g mask="url(#mask0_258_44950)">
<path fill-rule="evenodd" clip-rule="evenodd" d="M116.634 197.719C116.634 198.979 102.687 200 85.4823 200C68.2777 200 54.3303 198.979 54.3303 197.719C54.3303 196.459 68.2777 195.438 85.4823 195.438C102.687 195.438 116.634 196.459 116.634 197.719Z" fill="#362B42"/>
</g>
<path fill-rule="evenodd" clip-rule="evenodd" d="M87.7216 27.865C88.1571 21.1837 85.634 16.3291 80.8892 28.4596L90.8236 31.844C91.8607 27.5061 90.9574 24.5647 88.2894 28.1578C88.0818 28.4374 87.6973 28.2386 87.7216 27.865Z" fill="#FFC520"/>
<path fill-rule="evenodd" clip-rule="evenodd" d="M86.0325 34.0204C87.1923 34.4321 88.356 34.8271 89.5226 35.207C90.6885 35.5903 91.8583 35.9554 93.0329 36.2929C94.2072 36.6303 95.3869 36.9402 96.5712 37.1881C97.163 37.3126 97.7576 37.4155 98.3484 37.4797C98.6434 37.5114 98.9381 37.5322 99.2248 37.5306C99.3671 37.5281 99.5084 37.5206 99.6388 37.5002C99.7658 37.4843 99.8958 37.4345 99.9272 37.4071C99.9287 37.4037 99.9266 37.4053 99.9144 37.4256C99.904 37.4448 99.895 37.4785 99.8964 37.4986C99.8986 37.5361 99.8933 37.4989 99.8705 37.4589C99.8171 37.3671 99.7211 37.253 99.6181 37.1495C99.4063 36.9402 99.162 36.7449 98.9124 36.5602C98.6626 36.3739 98.4018 36.2006 98.1366 36.0394C97.8707 35.878 97.6135 35.702 97.3415 35.5522C96.7961 35.2554 96.2568 34.9451 95.6941 34.6873C95.4147 34.5542 95.1388 34.4131 94.8571 34.2866L94.01 33.911C91.7477 32.919 89.4335 32.0883 87.1107 31.3091L85.3633 30.7467L83.6091 30.2198L81.8513 29.7159L80.088 29.2526L79.2046 29.0384C78.9104 28.964 78.6153 28.8964 78.3199 28.8382L77.4344 28.6503C77.139 28.5918 76.8436 28.5487 76.548 28.4971L76.1045 28.4222C75.957 28.4007 75.8099 28.3884 75.6624 28.3722C75.3675 28.3448 75.0725 28.3021 74.7779 28.2868C74.4836 28.2704 74.1907 28.2626 73.907 28.2742C73.7667 28.2813 73.6259 28.2907 73.4983 28.3124C73.3731 28.3311 73.2455 28.3683 73.1936 28.3971C73.1697 28.406 73.1957 28.4178 73.244 28.2987C73.2531 28.2681 73.2575 28.2377 73.2615 28.208C73.2626 28.1934 73.2611 28.1765 73.2599 28.164C73.2603 28.1544 73.2599 28.1448 73.2584 28.1354C73.2571 28.1265 73.2537 28.1158 73.2516 28.1094C73.2516 28.1062 73.2512 28.1032 73.2503 28.1003C73.248 28.0939 73.2434 28.0888 73.248 28.0945C73.2575 28.1233 73.3508 28.2409 73.4495 28.3286C73.655 28.5174 73.9055 28.6953 74.1599 28.8615C74.6724 29.1946 75.2176 29.4914 75.7665 29.7754C76.8678 30.3412 77.9975 30.8504 79.1335 31.3381C81.4078 32.3094 83.7146 33.1877 86.0325 34.0204ZM85.8239 34.875C83.4899 34.0669 81.166 33.213 78.8639 32.2614C77.7133 31.7826 76.5677 31.2826 75.435 30.717C74.8687 30.4316 74.3058 30.1343 73.749 29.7816C73.4701 29.6026 73.1939 29.4158 72.915 29.166C72.7759 29.0313 72.6324 28.9089 72.4835 28.6254C72.466 28.5936 72.4474 28.5464 72.4311 28.4977L72.4079 28.4256C72.4008 28.3973 72.3948 28.3639 72.3898 28.3329C72.3847 28.3011 72.3807 28.2692 72.3776 28.2372C72.3761 28.202 72.3773 28.1625 72.3795 28.1251C72.3824 28.0491 72.3976 27.9753 72.4225 27.9029C72.4457 27.826 72.4763 27.7733 72.51 27.7187C72.5455 27.6593 72.5769 27.6274 72.6109 27.5911L72.6624 27.5399L72.7077 27.5045C72.7369 27.4831 72.7719 27.4557 72.7978 27.4422C73.0209 27.3155 73.1947 27.2821 73.3679 27.2461C73.5401 27.213 73.702 27.1988 73.8642 27.1862C74.1862 27.1655 74.4997 27.1668 74.8111 27.1762C75.1222 27.1851 75.4302 27.2212 75.7401 27.2426C75.8944 27.2566 76.0501 27.2648 76.2039 27.2815L76.6624 27.3424C77.8897 27.4869 79.0933 27.7422 80.2963 28.0055C80.8968 28.1402 81.4924 28.2984 82.0894 28.4514L83.8695 28.9569L85.6363 29.5208L87.3931 30.1247C87.9754 30.3405 88.5609 30.5419 89.1399 30.7695C89.7178 31.0019 90.298 31.2236 90.8736 31.4648C92.0244 31.9456 93.1707 32.444 94.3027 32.9931L95.1509 33.4069C95.4332 33.5461 95.7113 33.7012 95.9917 33.8475C96.5535 34.1347 97.1049 34.4608 97.6575 34.7802C97.9337 34.9405 98.2012 35.1311 98.473 35.3051C98.7458 35.4795 99.0123 35.6654 99.2743 35.8695C99.5368 36.0732 99.7959 36.2871 100.048 36.5467C100.173 36.6812 100.299 36.8209 100.416 37.0308C100.471 37.1449 100.538 37.2755 100.544 37.497C100.544 37.6082 100.516 37.7322 100.465 37.8287C100.414 37.9278 100.354 37.9897 100.295 38.0415C100.069 38.2107 99.8931 38.2324 99.7218 38.2648C99.5516 38.2902 99.3897 38.2968 99.2291 38.2989C98.9095 38.2989 98.5987 38.2742 98.2902 38.2397C97.6741 38.1685 97.069 38.0578 96.4653 37.9418C95.2597 37.7011 94.0674 37.4036 92.8799 37.084C90.5059 36.4424 88.1565 35.6917 85.8239 34.875Z" fill="#FFC520"/>
<path fill-rule="evenodd" clip-rule="evenodd" d="M86.0325 34.0204C87.1923 34.4321 88.356 34.8271 89.5226 35.207C90.6885 35.5903 91.8583 35.9554 93.0329 36.2929C94.2072 36.6303 95.3869 36.9402 96.5712 37.1881C97.163 37.3126 97.7576 37.4155 98.3484 37.4797C98.6434 37.5114 98.9381 37.5322 99.2248 37.5306C99.3671 37.5281 99.5084 37.5206 99.6388 37.5002C99.7658 37.4843 99.8958 37.4345 99.9272 37.4071C99.9287 37.4037 99.9266 37.4053 99.9144 37.4256C99.904 37.4448 99.895 37.4785 99.8964 37.4986C99.8986 37.5361 99.8933 37.4989 99.8705 37.4589C99.8171 37.3671 99.7211 37.253 99.6181 37.1495C99.4063 36.9402 99.162 36.7449 98.9124 36.5602C98.6626 36.3739 98.4018 36.2006 98.1366 36.0394C97.8707 35.878 97.6135 35.702 97.3415 35.5522C96.7961 35.2554 96.2568 34.9451 95.6941 34.6873C95.4147 34.5542 95.1388 34.4131 94.8571 34.2866L94.01 33.911C91.7477 32.919 89.4335 32.0883 87.1107 31.3091L85.3633 30.7467L83.6091 30.2198L81.8513 29.7159L80.088 29.2526L79.2046 29.0384C78.9104 28.964 78.6153 28.8964 78.3199 28.8382L77.4344 28.6503C77.139 28.5918 76.8436 28.5487 76.548 28.4971L76.1045 28.4222C75.957 28.4007 75.8099 28.3884 75.6624 28.3722C75.3675 28.3448 75.0725 28.3021 74.7779 28.2868C74.4836 28.2704 74.1907 28.2626 73.907 28.2742C73.7667 28.2813 73.6259 28.2907 73.4983 28.3124C73.3731 28.3311 73.2455 28.3683 73.1936 28.3971C73.1697 28.406 73.1957 28.4178 73.244 28.2987C73.2531 28.2681 73.2575 28.2377 73.2615 28.208C73.2626 28.1934 73.2611 28.1765 73.2599 28.164C73.2603 28.1544 73.2599 28.1448 73.2584 28.1354C73.2571 28.1265 73.2537 28.1158 73.2516 28.1094C73.2516 28.1062 73.2512 28.1032 73.2503 28.1003C73.248 28.0939 73.2434 28.0888 73.248 28.0945C73.2575 28.1233 73.3508 28.2409 73.4495 28.3286C73.655 28.5174 73.9055 28.6953 74.1599 28.8615C74.6724 29.1946 75.2176 29.4914 75.7665 29.7754C76.8678 30.3412 77.9975 30.8504 79.1335 31.3381C81.4078 32.3094 83.7146 33.1877 86.0325 34.0204ZM85.8239 34.875C83.4899 34.0669 81.166 33.213 78.8639 32.2614C77.7133 31.7826 76.5677 31.2826 75.435 30.717C74.8687 30.4316 74.3058 30.1343 73.749 29.7816C73.4701 29.6026 73.1939 29.4158 72.915 29.166C72.7759 29.0313 72.6324 28.9089 72.4835 28.6254C72.466 28.5936 72.4474 28.5464 72.4311 28.4977L72.4079 28.4256C72.4008 28.3973 72.3948 28.3639 72.3898 28.3329C72.3847 28.3011 72.3807 28.2692 72.3776 28.2372C72.3761 28.202 72.3773 28.1625 72.3795 28.1251C72.3824 28.0491 72.3976 27.9753 72.4225 27.9029C72.4457 27.826 72.4763 27.7733 72.51 27.7187C72.5455 27.6593 72.5769 27.6274 72.6109 27.5911L72.6624 27.5399L72.7077 27.5045C72.7369 27.4831 72.7719 27.4557 72.7978 27.4422C73.0209 27.3155 73.1947 27.2821 73.3679 27.2461C73.5401 27.213 73.702 27.1988 73.8642 27.1862C74.1862 27.1655 74.4997 27.1668 74.8111 27.1762C75.1222 27.1851 75.4302 27.2212 75.7401 27.2426C75.8944 27.2566 76.0501 27.2648 76.2039 27.2815L76.6624 27.3424C77.8897 27.4869 79.0933 27.7422 80.2963 28.0055C80.8968 28.1402 81.4924 28.2984 82.0894 28.4514L83.8695 28.9569L85.6363 29.5208L87.3931 30.1247C87.9754 30.3405 88.5609 30.5419 89.1399 30.7695C89.7178 31.0019 90.298 31.2236 90.8736 31.4648C92.0244 31.9456 93.1707 32.444 94.3027 32.9931L95.1509 33.4069C95.4332 33.5461 95.7113 33.7012 95.9917 33.8475C96.5535 34.1347 97.1049 34.4608 97.6575 34.7802C97.9337 34.9405 98.2012 35.1311 98.473 35.3051C98.7458 35.4795 99.0123 35.6654 99.2743 35.8695C99.5368 36.0732 99.7959 36.2871 100.048 36.5467C100.173 36.6812 100.299 36.8209 100.416 37.0308C100.471 37.1449 100.538 37.2755 100.544 37.497C100.544 37.6082 100.516 37.7322 100.465 37.8287C100.414 37.9278 100.354 37.9897 100.295 38.0415C100.069 38.2107 99.8931 38.2324 99.7218 38.2648C99.5516 38.2902 99.3897 38.2968 99.2291 38.2989C98.9095 38.2989 98.5987 38.2742 98.2902 38.2397C97.6741 38.1685 97.069 38.0578 96.4653 37.9418C95.2597 37.7011 94.0674 37.4036 92.8799 37.084C90.5059 36.4424 88.1565 35.6917 85.8239 34.875Z" fill="#797979" fill-opacity="0.2" style="mix-blend-mode:multiply"/>
<path fill-rule="evenodd" clip-rule="evenodd" d="M86.5906 49.55L86.0903 45.251L81.2161 45.5167L81.3923 50.1797L86.5906 49.55Z" fill="#797979" fill-opacity="0.2" style="mix-blend-mode:multiply"/>
<path fill-rule="evenodd" clip-rule="evenodd" d="M87.1291 44.5189C87.2757 45.7916 88.2956 46.4325 88.9645 45.6728C89.6337 44.9132 89.4502 43.3223 88.6345 42.8095C87.8188 42.2967 86.9826 43.2462 87.1291 44.5189Z" fill="#FF9B89"/>
<path fill-rule="evenodd" clip-rule="evenodd" d="M87.1291 44.5189C87.2757 45.7916 88.2956 46.4325 88.9645 45.6728C89.6337 44.9132 89.4502 43.3223 88.6345 42.8095C87.8188 42.2967 86.9826 43.2462 87.1291 44.5189Z" fill="#797979" fill-opacity="0.2" style="mix-blend-mode:multiply"/>
<path fill-rule="evenodd" clip-rule="evenodd" d="M78.5543 44.5405C78.6512 46.9041 78.8621 49.2649 79.2934 50.6266C80.3874 54.0834 86.3899 53.3382 87.5021 50.8924C87.9946 49.8108 87.9365 47.9925 87.7192 46.3018C87.4439 44.1688 87.0898 42.2262 87.0898 42.2262L87.5378 41.6036C87.642 41.4589 87.689 41.2675 87.6671 41.0782L87.3384 38.2418L87.2717 37.6178C87.2559 37.4701 87.1518 37.3591 87.0276 37.358L79.3278 37.2881C78.8788 37.284 78.5098 37.7128 78.4997 38.2521C78.4777 39.4368 78.457 41.5577 78.5267 43.7738C78.5349 44.0288 78.5431 44.2839 78.5543 44.5405Z" fill="#FF9B89"/>
<path fill-rule="evenodd" clip-rule="evenodd" d="M78.5823 45.2952C78.6792 47.6588 78.8623 49.265 79.2936 50.6267C80.3876 54.0835 86.3899 53.3383 87.5023 50.8925C87.9949 49.8107 87.9367 47.9926 87.7192 46.3019L87.7177 46.3C86.2692 44.5134 84.3534 47.6204 83.0541 46.8807C82.066 46.3179 82.0133 43.0026 78.5823 45.2952Z" fill="#7D3F50"/>
<path fill-rule="evenodd" clip-rule="evenodd" d="M83.6964 43.6468C83.8446 43.65 83.9643 43.7884 83.9756 43.9624L83.9764 43.9954L83.9486 45.8457C83.9458 46.0348 83.8158 46.1854 83.6584 46.182C83.5102 46.1787 83.3904 46.0403 83.3792 45.8664L83.3784 45.8334L83.4062 43.983C83.409 43.7939 83.539 43.6434 83.6964 43.6468Z" fill="#FF9B89"/>
<path fill-rule="evenodd" clip-rule="evenodd" d="M79.5757 42.4812C81.6225 38.9681 86.1666 38.1209 88.6937 41.3388L88.7696 41.4375L88.2058 42.0502C86.0672 39.2111 82.0835 39.894 80.2535 42.9126L80.1987 43.0048L79.5757 42.4812Z" fill="#7D3F50"/>
<path fill-rule="evenodd" clip-rule="evenodd" d="M81.1974 43.0165C81.3265 43.6165 81.8641 43.8496 82.1652 43.4361C82.4661 43.0226 82.3047 42.2726 81.8745 42.0861C81.4445 41.8995 81.0683 42.4164 81.1974 43.0165Z" fill="#362B42"/>
<path fill-rule="evenodd" clip-rule="evenodd" d="M84.7076 42.9194C84.8173 43.4284 85.2736 43.6263 85.5287 43.2754C85.7842 42.9245 85.6471 42.2883 85.2821 42.1299C84.9173 41.9719 84.5981 42.4105 84.7076 42.9194Z" fill="#362B42"/>
<path fill-rule="evenodd" clip-rule="evenodd" d="M75.5119 45.5976C76.1929 47.3659 78.0106 47.6979 78.7839 46.1951C79.557 44.6923 78.7059 42.4817 77.2517 42.2161C75.7975 41.9506 74.831 43.8292 75.5119 45.5976Z" fill="#FF9B89"/>
<path fill-rule="evenodd" clip-rule="evenodd" d="M75.3335 42.9878C77.2521 42.6681 78.0876 44.3239 77.159 46.2096L77.1303 46.2668L76.644 45.9089C77.3654 44.4949 76.8692 43.4512 75.4643 43.658L75.4119 43.6662L75.3335 42.9878Z" fill="#FF9B89"/>
<path fill-rule="evenodd" clip-rule="evenodd" d="M78.7032 42.6887C80.1048 35.5309 84.5619 40.3162 87.3387 38.2419L87.2687 37.5873C87.2548 37.4572 87.163 37.3595 87.0539 37.3583L79.1552 37.2866C78.8026 37.2837 78.5129 37.6188 78.5042 38.0424C78.4846 38.994 78.4616 40.7343 78.499 42.6638C78.5017 42.8102 78.6754 42.8312 78.7032 42.6887Z" fill="#7D3F50"/>
<path fill-rule="evenodd" clip-rule="evenodd" d="M80.0639 46.7251C80.3397 45.8424 81.0676 45.9161 81.4522 46.3394C81.8368 46.7625 81.9917 47.5174 82.4624 47.9628C82.9328 48.4083 83.9314 48.0722 83.9027 48.5108C83.874 48.9494 82.7688 49.6312 81.6143 49.314C80.4601 48.9971 79.7881 47.6078 80.0639 46.7251Z" fill="white"/>
<path fill-rule="evenodd" clip-rule="evenodd" d="M114.59 71.8238C114.269 72.3594 113.879 72.8104 113.442 73.1698C112.305 74.1022 110.852 74.4027 109.479 73.9102L95.1096 68.7399L94.8225 82.2072C94.8225 82.2072 84.4897 85.1566 75.8318 83.415L74.3834 71.1859C74.204 71.4578 60.4076 92.5168 54.2852 92.7517C53.767 92.7716 53.2703 92.749 52.7956 92.6889C47.6252 92.0211 45.1324 86.7745 47.1952 82.3524C49.4465 77.5266 59.0881 78.1613 68.7716 66.1827C74.0629 59.6349 75.9728 60.3066 83.751 59.3257C91.5276 58.3446 95.824 59.7568 101.225 60.7413C106.624 61.7279 106.465 51.6147 109.132 46.4114C111.798 41.2059 125.247 40.3413 127.864 48.2056C130.481 56.0697 120.799 61.4662 114.59 71.8238Z" fill="#6343F0"/>
<path fill-rule="evenodd" clip-rule="evenodd" d="M99.3934 70.2805L95.1095 68.7398L95.0364 72.1614C78.3262 70.1931 100.857 76.057 74.6716 73.5556L74.6646 73.5578L74.383 71.1858C74.383 71.1858 73.4375 72.6309 71.9321 74.775H71.9304C71.9304 74.775 71.3945 68.9866 66.9016 68.3455C67.5225 67.6731 68.1467 66.9537 68.7708 66.1815C74.0625 59.6353 75.9717 60.3052 83.7506 59.3248C91.0651 58.4033 95.3008 59.5976 100.271 60.5618C95.6 64.3926 99.3934 70.2805 99.3934 70.2805Z" fill="white" fill-opacity="0.3" style="mix-blend-mode:lighten"/>
<path fill-rule="evenodd" clip-rule="evenodd" d="M77.8229 68.1909L80.5124 70.7739L79.9533 71.5771L77.3599 68.8562L77.8229 68.1909Z" fill="#6343F0"/>
<path fill-rule="evenodd" clip-rule="evenodd" d="M80.5702 68.9661L78.1665 71.7928L77.6658 71.1685L80.1077 68.3894L80.5702 68.9661Z" fill="#6343F0"/>
<path fill-rule="evenodd" clip-rule="evenodd" d="M87.7655 59.0078L87.3705 55.3156C83.6245 55.2021 80.268 56.1734 80.268 56.1734L80.053 59.7578C83.3958 60.7816 87.7655 59.0078 87.7655 59.0078Z" fill="#6343F0"/>
<path fill-rule="evenodd" clip-rule="evenodd" d="M114.693 71.6516C114.658 71.7085 114.626 71.7653 114.591 71.8222C113.431 73.757 111.378 74.5922 109.479 73.9093L106.157 72.7135C106.897 69.5963 110.778 66.9144 113.339 67.832C114.869 68.3791 115.264 69.9689 114.693 71.6516Z" fill="#797979" fill-opacity="0.2" style="mix-blend-mode:multiply"/>
<path fill-rule="evenodd" clip-rule="evenodd" d="M51.6173 88.69C51.6173 88.69 51.112 89.3508 49.9435 90.3006C49.7243 90.4783 49.4805 90.6666 49.2139 90.8616L49.3613 92.8791C47.5814 95.2324 45.3002 97.1847 42.1405 98.5261C42.1405 98.5261 38.6285 95.1666 38.8092 87.9523C38.8092 87.9523 42.8022 83.4969 46.9052 85.4054L49.289 83.9346C49.289 83.9346 51.9766 85.0447 51.6173 88.69Z" fill="#FF9B89"/>
<path fill-rule="evenodd" clip-rule="evenodd" d="M46.9057 85.4059C43.0538 81.3792 41.7758 84.3197 38.6285 83.1204C35.6723 81.9938 34.8968 83.5558 32.2037 82.4146C31.8991 82.2854 31.568 82.5201 31.5277 82.9051C31.1374 86.6351 35.5708 84.9024 39.7913 88.9855C45.0716 89.8004 46.9057 85.4059 46.9057 85.4059Z" fill="#FF9B89"/>
<path fill-rule="evenodd" clip-rule="evenodd" d="M38.8163 87.9543C35.571 90.0241 28.1076 93.6679 25.9854 94.6937C25.46 94.9476 25.1636 95.6353 25.3199 96.289C25.3446 96.3926 25.3758 96.4901 25.4104 96.5801C25.5836 97.0319 26.0288 97.2308 26.4105 97.0379L39.0011 90.6737L38.8163 87.9543Z" fill="#FF9B89"/>
<path fill-rule="evenodd" clip-rule="evenodd" d="M39.0454 91.3389L25.4218 100.939C25.1794 101.109 25.1136 101.495 25.2811 101.766L25.7043 102.451C26.1147 103.115 26.869 103.316 27.475 102.924L28.4053 102.32C28.7232 103.722 29.2665 104.34 30.0983 103.912C30.9302 103.483 40.6118 96.0229 40.6118 96.0229L39.0454 91.3389Z" fill="#FF9B89"/>
<path fill-rule="evenodd" clip-rule="evenodd" d="M40.7392 96.6001C40.7392 96.6001 32.6073 103.997 32.3745 104.462C32.2872 104.637 32.4136 104.897 32.6056 105.155C33.0063 105.694 33.689 105.762 34.1593 105.313C36.9885 102.607 38.8508 100.904 42.1404 98.5267L40.7392 96.6001Z" fill="#FF9B89"/>
<path fill-rule="evenodd" clip-rule="evenodd" d="M39.6019 93.7476C39.7365 93.6494 39.9119 93.7008 39.9937 93.8624C40.0707 94.0146 40.0373 94.2101 39.9209 94.3145L39.8981 94.333L28.5534 102.613C28.4188 102.711 28.2434 102.66 28.1616 102.498C28.0847 102.346 28.118 102.151 28.2344 102.046L28.2572 102.028L39.6019 93.7476Z" fill="#FF9B89"/>
<path fill-rule="evenodd" clip-rule="evenodd" d="M38.8178 87.611C38.9753 87.6164 39.0992 87.7741 39.0946 87.9632C39.0273 90.771 39.5902 93.2142 40.5698 95.2789C40.893 95.9603 41.239 96.5492 41.5841 97.0436C41.6184 97.0928 41.652 97.1399 41.6847 97.185L41.7805 97.3145C41.8116 97.3556 41.8418 97.3947 41.8711 97.4318L41.9545 97.5352L42.032 97.626C42.1484 97.7535 42.1568 97.9701 42.0507 98.1099C41.9446 98.2496 41.7642 98.2597 41.6478 98.1322L41.5907 98.0668L41.5288 97.9923L41.5047 97.9626C41.3963 97.8282 41.2761 97.6685 41.1471 97.4837C40.7807 96.9589 40.4151 96.3365 40.0743 95.6181C39.0452 93.4489 38.454 90.8834 38.5246 87.9435C38.5291 87.7544 38.6604 87.6055 38.8178 87.611Z" fill="#FF9B89"/>
<path fill-rule="evenodd" clip-rule="evenodd" d="M46.3924 87.9138C46.5002 87.776 46.6807 87.7693 46.7954 87.8989C46.9102 88.0284 46.9157 88.2452 46.8079 88.383C46.6822 88.5435 46.5551 88.6951 46.4267 88.8379C44.512 90.9664 42.4495 91.0617 40.5496 89.9446C40.2951 89.795 40.0665 89.6346 39.8666 89.4737L39.7906 89.4114L39.7254 89.3558L39.6709 89.3074L39.6276 89.2671C39.6213 89.2611 39.6155 89.2554 39.6101 89.2502C39.4885 89.13 39.471 88.9142 39.571 88.7681C39.6711 88.622 39.8507 88.601 39.9724 88.7211L40.0225 88.7676C40.068 88.8086 40.122 88.8547 40.1841 88.9047C40.3635 89.0491 40.57 89.1941 40.8003 89.3294C42.5063 90.3325 44.318 90.2488 46.0393 88.3353C46.158 88.2033 46.2757 88.0628 46.3924 87.9138Z" fill="#FF9B89"/>
<path fill-rule="evenodd" clip-rule="evenodd" d="M51.6174 88.69C51.6174 88.69 51.1121 89.3508 49.9436 90.3006C48.8047 88.1601 49.2955 86.3673 46.9053 85.4054L49.2891 83.9346C49.2891 83.9346 51.9766 85.0447 51.6174 88.69Z" fill="#797979" fill-opacity="0.2" style="mix-blend-mode:multiply"/>
<path fill-rule="evenodd" clip-rule="evenodd" d="M42.518 90.1697C42.6457 90.0591 42.824 90.0937 42.9161 90.2471C43.5998 91.3856 44.1804 92.5454 44.6601 93.6661C44.7348 93.8407 44.8047 94.0088 44.8697 94.1699L44.9637 94.406C44.9938 94.4828 45.0228 94.5579 45.0505 94.6309L45.1156 94.805L45.1603 94.9274L45.2318 95.1317C45.2335 95.137 45.2351 95.1416 45.2364 95.1455C45.2944 95.3214 45.2227 95.5204 45.0763 95.5901C44.9299 95.6598 44.7642 95.5737 44.7062 95.3978L44.6558 95.2523L44.5941 95.0821L44.5707 95.0191C44.5067 94.8474 44.4352 94.6633 44.3564 94.4682L44.2582 94.2288L44.1529 93.9793C43.6856 92.8875 43.1195 91.7567 42.4536 90.6478C42.3614 90.4944 42.3903 90.2804 42.518 90.1697Z" fill="#FF9B89"/>
<path fill-rule="evenodd" clip-rule="evenodd" d="M36.222 84.0653C36.3755 84.0227 36.5286 84.1375 36.5641 84.3218L36.5703 84.3596L36.5764 84.4105C36.6308 84.9491 36.4859 85.6547 35.9953 86.4359C35.9005 86.5869 35.7217 86.617 35.596 86.503C35.4703 86.3891 35.4452 86.1744 35.5401 86.0234C35.7692 85.6586 35.9068 85.313 35.9724 84.9934C36.0112 84.8043 36.0207 84.6483 36.0133 84.5308L36.0085 84.4761C35.973 84.2918 36.0686 84.1079 36.222 84.0653Z" fill="#FF9B89"/>
<path fill-rule="evenodd" clip-rule="evenodd" d="M32.5357 91.2819C32.6717 91.2109 32.8285 91.2771 32.8988 91.4298L32.911 91.4594L33.3594 92.6978C33.4222 92.8713 33.356 93.073 33.2116 93.1485C33.0757 93.2195 32.9189 93.1533 32.8486 93.0006L32.8364 92.971L32.388 91.7326C32.3252 91.5591 32.3913 91.3574 32.5357 91.2819Z" fill="#FF9B89"/>
<path fill-rule="evenodd" clip-rule="evenodd" d="M32.5015 95.9117C32.6289 95.8207 32.7914 95.8627 32.8772 96.0034L32.8923 96.031L33.5415 97.342C33.622 97.5046 33.5775 97.7148 33.4422 97.8114C33.3148 97.9024 33.1523 97.8605 33.0665 97.7197L33.0513 97.6921L32.4022 96.3811C32.3217 96.2186 32.3661 96.0084 32.5015 95.9117Z" fill="#FF9B89"/>
<path fill-rule="evenodd" clip-rule="evenodd" d="M36.4628 100.492C36.581 100.384 36.7464 100.404 36.8447 100.533L36.8623 100.558L37.3546 101.34C37.4496 101.49 37.4249 101.705 37.2993 101.819C37.1811 101.927 37.0157 101.907 36.9175 101.778L36.8999 101.753L36.4075 100.971C36.3125 100.82 36.3373 100.606 36.4628 100.492Z" fill="#FF9B89"/>
<path fill-rule="evenodd" clip-rule="evenodd" d="M48.6806 83.0439C49.3797 83.0051 50.092 83.2452 50.6906 83.6905C51.2938 84.1309 51.7926 84.7611 52.1439 85.4935C52.4931 86.2262 52.6962 87.0692 52.6943 87.9213C52.699 88.7729 52.4852 89.6186 52.1118 90.3159L51.5658 89.9526C51.8037 89.3085 51.9105 88.6234 51.8778 87.9473C51.8436 87.2717 51.6725 86.6066 51.3872 86.0171C50.8212 84.8341 49.8154 83.9501 48.6631 83.7932L48.6806 83.0439Z" fill="#797979" fill-opacity="0.2" style="mix-blend-mode:multiply"/>
<path fill-rule="evenodd" clip-rule="evenodd" d="M80.0772 58.2853C79.6314 58.551 79.2045 58.8684 78.8629 59.2773C78.6926 59.4805 78.5445 59.7061 78.4359 59.9499C78.3308 60.1949 78.2652 60.4577 78.2588 60.7208C78.2428 61.25 78.476 61.7564 78.8226 62.1286C79.1686 62.5069 79.6084 62.774 80.0681 62.9638C80.9965 63.3357 82.008 63.4181 83.0018 63.3474C83.9993 63.2748 84.991 63.0419 85.9563 62.703C87.8873 62.0192 89.7259 60.9418 91.4301 59.6438C93.1452 58.3611 94.6777 56.7619 96.031 54.9607C97.3885 53.1601 98.5633 51.1543 99.7782 49.1654C100.385 48.1702 101.008 47.1825 101.654 46.2139C102.303 45.2472 102.979 44.3045 103.685 43.3925C104.391 42.4822 105.135 41.6128 105.906 40.7803C106.301 40.3787 106.683 39.957 107.091 39.5736L107.695 38.9875L108.314 38.4243C108.722 38.0425 109.15 37.6927 109.571 37.3322C109.994 36.9754 110.433 36.6491 110.864 36.3061C111.301 35.976 111.744 35.6584 112.184 35.3344L113.531 34.4209L113.809 35.007C110.304 37.5096 107.02 40.4602 104.269 44.0465C103.58 44.941 102.919 45.8666 102.283 46.8194C101.647 47.7727 101.039 48.7563 100.429 49.7422C99.2058 51.7105 98.0032 53.7334 96.5939 55.5749C95.1896 57.4156 93.5854 59.0631 91.8084 60.3685C90.9229 61.0262 90.0072 61.6197 89.0587 62.1331C88.1118 62.6498 87.132 63.0871 86.1257 63.422C85.1195 63.7549 84.0831 63.9796 83.0319 64.0369C81.9837 64.0953 80.9098 63.9805 79.897 63.5421C79.3946 63.3174 78.9037 63.0078 78.4979 62.543C78.2964 62.3115 78.1177 62.0386 77.9951 61.7219C77.8687 61.4089 77.8073 61.0507 77.8223 60.6982C77.8381 60.3452 77.9327 60.007 78.0687 59.71C78.208 59.4143 78.3874 59.1574 78.5848 58.9328C78.9811 58.4821 79.4463 58.159 79.9223 57.8919L80.0772 58.2853Z" fill="#6343F0"/>
<path fill-rule="evenodd" clip-rule="evenodd" d="M88.3067 56.7142L89.3402 56.8752L89.8563 56.9558C90.0289 56.9784 90.2029 56.9793 90.3759 56.9921L91.4145 57.0528C91.7607 57.0503 92.1067 57.0259 92.4527 57.0179L92.9714 56.999L93.487 56.9293C93.8299 56.877 94.1761 56.8505 94.5162 56.7775L95.5335 56.5373C95.7042 56.5037 95.8704 56.4476 96.0363 56.3889L96.535 56.2197C97.8584 55.7509 99.1476 55.1206 100.342 54.2801C101.541 53.4543 102.668 52.4798 103.725 51.4033C105.818 49.215 107.606 46.6158 109.118 43.8093C109.876 42.4053 110.56 40.9448 111.188 39.4504C111.814 37.9588 112.395 36.4208 112.858 34.8623L113.391 35.0749C112.923 36.7001 112.352 38.2465 111.727 39.7744C111.099 41.2973 110.399 42.7775 109.632 44.2073C108.096 47.0629 106.275 49.718 104.129 51.9661C101.968 54.1794 99.4467 55.9558 96.6878 56.8617C93.9413 57.8323 91.0134 57.8369 88.2295 57.2289L88.3067 56.7142Z" fill="#6343F0"/>
<path fill-rule="evenodd" clip-rule="evenodd" d="M124.9 45.5488L122.899 50.6812C119.056 52.366 115.268 49.5755 114.691 47.4062C115.293 45.1415 115.779 42.8596 115.779 42.8596L124.9 45.5488Z" fill="#FF9B89"/>
<path fill-rule="evenodd" clip-rule="evenodd" d="M124.9 45.5488L122.899 50.6812C119.056 52.366 115.268 49.5755 114.691 47.4062C115.293 45.1415 115.779 42.8596 115.779 42.8596L124.9 45.5488Z" fill="#797979" fill-opacity="0.2" style="mix-blend-mode:multiply"/>
<path fill-rule="evenodd" clip-rule="evenodd" d="M132.166 34.242C131.271 38.4566 129.292 42.2981 127.307 44.8955C126.958 45.353 126.491 45.6558 125.979 45.7419C123.911 46.0866 118.166 46.5958 114.334 42.5335L113.002 28.2564C113.002 28.2564 123.382 23.7221 132.596 28.0947C132.611 28.2616 132.623 28.4306 132.631 28.5979C132.742 30.5005 132.556 32.4066 132.166 34.242Z" fill="#FF9B89"/>
<path fill-rule="evenodd" clip-rule="evenodd" d="M132.166 34.2421C127.391 40.3449 122.413 36.4356 122.413 36.4356L121.252 32.1055C121.252 32.1055 127.949 26.7532 132.631 28.598C132.742 30.5006 132.556 32.4067 132.166 34.2421Z" fill="#797979" fill-opacity="0.2" style="mix-blend-mode:multiply"/>
<path fill-rule="evenodd" clip-rule="evenodd" d="M116.683 2.40394C118.059 1.88497 121.335 5.03466 121.335 5.03466L117.794 6.96602C117.794 6.96602 115.306 2.92314 116.683 2.40394Z" fill="#FF9B89"/>
<path fill-rule="evenodd" clip-rule="evenodd" d="M116.683 2.40394C118.059 1.88497 121.335 5.03466 121.335 5.03466L117.794 6.96602C117.794 6.96602 115.306 2.92314 116.683 2.40394Z" fill="#797979" fill-opacity="0.2" style="mix-blend-mode:multiply"/>
<path fill-rule="evenodd" clip-rule="evenodd" d="M136.74 20.498C136.515 27.6011 132.197 34.2932 125.455 35.5344C115.364 37.3959 107.407 25.6613 111.134 14.4126C111.496 13.3185 111.943 12.3086 112.461 11.3857C117.256 2.82165 128.095 1.75036 133.84 10.2261C135.953 13.3402 136.851 16.9709 136.74 20.498Z" fill="#FFC520"/>
<path fill-rule="evenodd" clip-rule="evenodd" d="M112.622 15.6348C109.464 25.1643 116.203 35.1031 124.744 33.5279C133.285 31.9528 137.231 20.0435 131.838 12.0907C126.45 4.14363 115.777 6.11214 112.622 15.6348ZM131.249 12.6672C136.267 20.068 132.593 31.1561 124.629 32.625C116.664 34.0938 110.39 24.8403 113.328 15.9722C116.239 7.18592 126.028 5.29799 131.097 12.4477L131.249 12.6672Z" fill="#797979" fill-opacity="0.2" style="mix-blend-mode:multiply"/>
<path fill-rule="evenodd" clip-rule="evenodd" d="M117.207 24.0806C122.047 24.861 126.439 24.671 127.504 24.6083C127.642 24.5998 127.75 24.4649 127.752 24.2984C127.766 23.0294 127.797 18.0589 127.43 17.6257C127.117 17.2572 125.851 18.8244 125.217 19.6599C125.069 19.8546 124.8 19.7573 124.766 19.4973C124.486 17.4013 123.588 11.0063 123.026 10.9588C122.354 10.9021 120.776 19.9208 120.266 19.99C119.756 20.0592 118.739 16.3599 118.178 16.4611C117.685 16.5501 117.113 22.3276 116.981 23.7331C116.965 23.9034 117.066 24.0578 117.207 24.0806Z" fill="white"/>
<path fill-rule="evenodd" clip-rule="evenodd" d="M118.158 25.3801C119.019 25.5523 119.881 25.7167 120.747 25.8534C121.611 25.998 122.479 26.1101 123.346 26.2158C124.214 26.3151 125.082 26.3957 125.951 26.4537C126.815 26.5099 127.697 26.5498 128.54 26.5411L128.544 28.0823C127.629 28.057 126.755 27.9823 125.866 27.8917C124.982 27.799 124.1 27.6834 123.221 27.5492C122.343 27.4085 121.465 27.2613 120.593 27.0818C119.719 26.9099 118.85 26.7103 117.982 26.503L118.158 25.3801Z" fill="white"/>
<path fill-rule="evenodd" clip-rule="evenodd" d="M122.498 37.2135C122.459 37.8518 122.679 47.3986 116.502 44.2384C110.322 41.076 108.958 32.3331 108.64 28.1076C108.612 27.7413 108.556 27.3488 108.473 26.9408C108.269 25.9202 107.912 24.7919 107.486 23.6651C106.526 21.1209 105.216 18.5806 104.523 17.2966C104.279 16.8413 104.48 16.2369 104.917 16.1015C111.518 14.0432 111.65 25.5552 113.744 26.2556C115.923 26.9879 121.75 28.753 122.498 37.2135Z" fill="#FF9B89"/>
<path fill-rule="evenodd" clip-rule="evenodd" d="M105.28 0L111.143 7.28344L110.597 7.91825L104.734 0.63481L105.28 0Z" fill="#FFC520"/>
<path fill-rule="evenodd" clip-rule="evenodd" d="M104.089 8.7063L108.227 9.87211L108.054 10.7613L103.915 9.59546L104.089 8.7063Z" fill="#FFC520"/>
<path fill-rule="evenodd" clip-rule="evenodd" d="M103.087 7.10801C102.367 7.76603 101.324 7.24066 101.209 6.16207C101.095 5.08394 101.996 4.2613 102.83 4.68187C103.665 5.10198 103.808 6.44999 103.087 7.10801Z" fill="#FFC520"/>
<path fill-rule="evenodd" clip-rule="evenodd" d="M105.28 0L111.143 7.28344L110.597 7.91825L104.734 0.63481L105.28 0Z" fill="#797979" fill-opacity="0.2" style="mix-blend-mode:multiply"/>
<path fill-rule="evenodd" clip-rule="evenodd" d="M104.089 8.7063L108.227 9.87211L108.054 10.7613L103.915 9.59546L104.089 8.7063Z" fill="#797979" fill-opacity="0.2" style="mix-blend-mode:multiply"/>
<path fill-rule="evenodd" clip-rule="evenodd" d="M103.087 7.10801C102.367 7.76603 101.324 7.24066 101.209 6.16207C101.095 5.08394 101.996 4.2613 102.83 4.68187C103.665 5.10198 103.808 6.44999 103.087 7.10801Z" fill="#797979" fill-opacity="0.2" style="mix-blend-mode:multiply"/>
<path fill-rule="evenodd" clip-rule="evenodd" d="M110.85 19.8867C110.985 19.8134 111.142 19.8769 111.214 20.0283L111.227 20.0577L113.205 25.3127L113.236 25.3239C118.344 27.1659 121.246 30.2229 122.35 34.0747L122.383 34.1929C123.109 36.8248 122.915 39.5241 122.315 41.4347C122.26 41.6117 122.095 41.7011 121.948 41.6344C121.8 41.5677 121.726 41.3701 121.782 41.1931C122.338 39.4178 122.522 36.8737 121.842 34.4083C120.826 30.7243 118.061 27.7785 113.07 25.9793L112.793 25.8808L110.707 20.3398C110.642 20.1675 110.706 19.9646 110.85 19.8867Z" fill="#FF9B89"/>
<path fill-rule="evenodd" clip-rule="evenodd" d="M113.906 46.4526C114.328 47.6159 114.997 48.6075 115.807 49.3825C116.214 49.7663 116.651 50.1062 117.118 50.3754C117.58 50.6551 118.069 50.8663 118.569 51.0184C119.569 51.3248 120.622 51.3593 121.628 51.0971C122.636 50.8353 123.583 50.2572 124.418 49.4541L124.831 49.9695C124.059 51.0143 123.015 51.8132 121.861 52.2013C120.709 52.6004 119.47 52.5906 118.313 52.2467C117.734 52.0746 117.175 51.8127 116.646 51.4851C116.122 51.1462 115.625 50.7439 115.184 50.2622C114.3 49.3119 113.612 48.0586 113.341 46.6741L113.906 46.4526Z" fill="#797979" fill-opacity="0.2" style="mix-blend-mode:multiply"/>
<path fill-rule="evenodd" clip-rule="evenodd" d="M136.739 20.498C134.76 20.1238 131.718 20.0074 132.098 15.203C120.3 2.16568 117.063 17.0922 112.461 11.3857C117.256 2.82164 128.095 1.75036 133.84 10.2261C135.953 13.3402 136.851 16.9709 136.739 20.498Z" fill="#797979" fill-opacity="0.2" style="mix-blend-mode:multiply"/>
<path fill-rule="evenodd" clip-rule="evenodd" d="M118.525 7.52723C119.139 6.76487 118.167 2.94551 117.123 2.44161C116.079 1.93747 112.509 5.10452 112.269 5.66527C112.029 6.22626 112.43 10.5529 113.4 10.8301C114.371 11.1075 117.911 8.2896 118.525 7.52723Z" fill="#FF9B89"/>
<path fill-rule="evenodd" clip-rule="evenodd" d="M121.483 6.15508C121.898 6.98982 125.018 9.0253 126.757 8.27892C128.495 7.53231 127.804 3.32435 127.178 2.33595C126.552 1.34755 122.934 0.449331 122.159 1.42654C121.383 2.40353 121.069 5.32033 121.483 6.15508Z" fill="#FF9B89"/>
<path fill-rule="evenodd" clip-rule="evenodd" d="M128.584 7.23709C128.198 5.93589 129.934 3.52071 131.716 4.12827C132.703 4.46505 133.8 6.08453 133.964 7.55903C134.097 8.74493 133.424 9.79703 133.153 10.3158C132.546 11.4798 128.97 8.5383 128.584 7.23709Z" fill="#FF9B89"/>
<path fill-rule="evenodd" clip-rule="evenodd" d="M134.559 12.7753C134.559 12.7753 137.121 12.3443 137.775 12.8448C138.429 13.345 140.513 17.0349 136.582 18.3831C133.586 17.3692 134.559 12.7753 134.559 12.7753Z" fill="#FF9B89"/>
<path fill-rule="evenodd" clip-rule="evenodd" d="M74.3833 71.186C74.2038 71.4579 60.4074 92.5169 54.285 92.7518C53.7668 92.7717 53.2703 92.7491 52.7954 92.689C66.2251 86.3549 69.4415 61.6129 74.2424 69.7816L74.3833 71.186Z" fill="#797979" fill-opacity="0.2" style="mix-blend-mode:multiply"/>
<path fill-rule="evenodd" clip-rule="evenodd" d="M74.4381 67.9006L75.2524 76.0563L74.4975 76.165L73.6831 68.0094L74.4381 67.9006Z" fill="#6343F0"/>
<path fill-rule="evenodd" clip-rule="evenodd" d="M74.4381 67.9006L75.2524 76.0563L74.4975 76.165L73.6831 68.0094L74.4381 67.9006Z" fill="#797979" fill-opacity="0.2" style="mix-blend-mode:multiply"/>
<path fill-rule="evenodd" clip-rule="evenodd" d="M74.0066 59.5051C74.156 59.8953 73.8121 60.3807 73.3876 60.3787C72.9631 60.3766 72.7763 59.8889 73.0515 59.5005C73.3266 59.1124 73.8572 59.1149 74.0066 59.5051Z" fill="white" fill-opacity="0.3" style="mix-blend-mode:lighten"/>
<path fill-rule="evenodd" clip-rule="evenodd" d="M79.8886 56.1406L80.647 56.2063L80.4546 59.4145L80.5592 59.4447C80.876 59.5316 81.2076 59.595 81.5526 59.6357L81.7012 59.6518C82.9832 59.778 84.3675 59.6011 85.7317 59.2278C86.0566 59.1388 86.3584 59.0444 86.6316 58.9495L86.8086 58.8864L86.9753 58.8239L87.1172 58.7673L87.3707 59.6283L87.2614 59.6726L87.1521 59.7147L87.0301 59.7601C87.0087 59.7679 86.9869 59.7758 86.9645 59.7838C86.6462 59.898 86.289 60.0119 85.9006 60.1182C84.4668 60.5106 83.0091 60.6969 81.6391 60.5621C81.0913 60.5081 80.5698 60.4027 80.0787 60.2413L79.9455 60.1959L79.6516 60.0921L79.8886 56.1406Z" fill="#6343F0"/>
<path fill-rule="evenodd" clip-rule="evenodd" d="M79.8886 56.1406L80.647 56.2063L80.4546 59.4145L80.5592 59.4447C80.876 59.5316 81.2076 59.595 81.5526 59.6357L81.7012 59.6518C82.9832 59.778 84.3675 59.6011 85.7317 59.2278C86.0566 59.1388 86.3584 59.0444 86.6316 58.9495L86.8086 58.8864L86.9753 58.8239L87.1172 58.7673L87.3707 59.6283L87.2614 59.6726L87.1521 59.7147L87.0301 59.7601C87.0087 59.7679 86.9869 59.7758 86.9645 59.7838C86.6462 59.898 86.289 60.0119 85.9006 60.1182C84.4668 60.5106 83.0091 60.6969 81.6391 60.5621C81.0913 60.5081 80.5698 60.4027 80.0787 60.2413L79.9455 60.1959L79.6516 60.0921L79.8886 56.1406Z" fill="#797979" fill-opacity="0.2" style="mix-blend-mode:multiply"/>
<path fill-rule="evenodd" clip-rule="evenodd" d="M118.187 3.08664C118.338 3.03442 118.496 3.13946 118.54 3.32126L118.567 3.43567L118.618 3.65963C119.269 6.56652 118.91 7.83302 116.411 9.51957L116.218 9.6485C116.085 9.73504 115.948 9.82279 115.805 9.91202L115.585 10.047C115.548 10.0697 115.51 10.0925 115.472 10.1154L115.24 10.2541L114.999 10.3955C114.958 10.4193 114.917 10.4432 114.875 10.4673L114.62 10.6131L114.357 10.7622C114.214 10.8423 114.044 10.7684 113.978 10.5971C113.911 10.4258 113.972 10.2219 114.115 10.1418L114.487 9.93123L114.724 9.79532L114.952 9.66273L115.171 9.53327L115.382 9.40671L115.585 9.28286L115.779 9.16151C115.81 9.14148 115.842 9.12155 115.873 9.10171L116.054 8.98374C116.232 8.86679 116.398 8.75283 116.552 8.64093L116.703 8.52969C118.219 7.38661 118.529 6.43124 118.229 4.64694L118.199 4.47164L118.164 4.29097L118.126 4.10471C118.119 4.07319 118.112 4.04143 118.106 4.00942L118.062 3.8144C118.055 3.78139 118.047 3.74813 118.04 3.71461L117.991 3.51037C117.948 3.32857 118.035 3.13886 118.187 3.08664Z" fill="#FF9B89"/>
<path fill-rule="evenodd" clip-rule="evenodd" d="M127.536 3.82131C127.693 3.8089 127.829 3.95184 127.839 4.14058C128.104 8.97754 126.602 9.70103 121.835 6.87297C121.694 6.7892 121.636 6.58382 121.706 6.41423C121.775 6.24464 121.946 6.17507 122.088 6.25884L122.291 6.37843L122.489 6.49319L122.682 6.60315L122.871 6.70832L123.055 6.80872L123.234 6.90438L123.409 6.99532L123.578 7.08156L123.744 7.16312L123.904 7.24002L124.061 7.31229C124.086 7.32394 124.112 7.33541 124.137 7.34669L124.287 7.41203C124.311 7.42254 124.335 7.43286 124.36 7.44299L124.503 7.50147L124.641 7.5554C124.664 7.56401 124.687 7.57243 124.709 7.58066L124.841 7.62781C124.928 7.65773 125.012 7.68466 125.093 7.70861L125.213 7.74233C125.782 7.89453 126.209 7.89133 126.516 7.74356C126.942 7.53831 127.188 6.99695 127.27 6.01113L127.281 5.85991C127.284 5.80839 127.287 5.75574 127.289 5.70195L127.295 5.53715C127.299 5.42499 127.3 5.30822 127.3 5.18674L127.299 5.00097L127.295 4.80804L127.289 4.60788L127.281 4.4004L127.27 4.18552C127.26 3.99678 127.379 3.83372 127.536 3.82131Z" fill="#FF9B89"/>
<path fill-rule="evenodd" clip-rule="evenodd" d="M128.844 7.32121C128.958 7.19152 129.139 7.198 129.247 7.33569L129.389 7.51604L129.526 7.68858L129.659 7.85343L129.788 8.01077L129.912 8.16073L130.033 8.30348C130.052 8.32668 130.072 8.34959 130.091 8.3722L130.206 8.50441L130.318 8.62979C130.336 8.65013 130.354 8.67018 130.372 8.68996L130.479 8.80538L130.583 8.91434L130.684 9.017C131.034 9.36548 131.338 9.60103 131.635 9.75313C132.385 10.1371 132.901 9.81061 133.297 8.44446C133.349 8.26583 133.511 8.17145 133.66 8.23365C133.809 8.29586 133.887 8.49109 133.835 8.66972C133.336 10.3916 132.482 10.9318 131.411 10.3832C131.091 10.2192 130.777 9.98563 130.431 9.65441L130.326 9.55208C130.309 9.53453 130.291 9.51672 130.273 9.49867L130.165 9.38723C130.147 9.36814 130.128 9.34878 130.11 9.32916L129.998 9.20824L129.883 9.08077L129.765 8.9466L129.644 8.80555C129.623 8.78146 129.602 8.75707 129.582 8.73239L129.455 8.5807L129.324 8.42172L129.189 8.25526L128.978 7.9912L128.832 7.80533C128.724 7.66765 128.729 7.4509 128.844 7.32121Z" fill="#FF9B89"/>
<path fill-rule="evenodd" clip-rule="evenodd" d="M134.297 12.882C134.346 12.7025 134.507 12.6052 134.657 12.6647C134.806 12.7242 134.887 12.918 134.838 13.0976C134.199 15.4102 134.891 16.9406 136.547 18.0969C136.683 18.192 136.729 18.4016 136.65 18.5651C136.571 18.7286 136.397 18.7842 136.26 18.6891C134.393 17.3853 133.561 15.5448 134.297 12.882Z" fill="#FF9B89"/>
<path fill-rule="evenodd" clip-rule="evenodd" d="M83.6964 43.6468C83.8446 43.65 83.9643 43.7884 83.9756 43.9624L83.9764 43.9954L83.9486 45.8457C83.9458 46.0348 83.8158 46.1854 83.6584 46.182C83.5102 46.1787 83.3904 46.0403 83.3792 45.8664L83.3784 45.8334L83.4062 43.983C83.409 43.7939 83.539 43.6434 83.6964 43.6468Z" fill="#797979" fill-opacity="0.2" style="mix-blend-mode:multiply"/>
<path fill-rule="evenodd" clip-rule="evenodd" d="M75.3335 42.9878C77.2521 42.6681 78.0876 44.3239 77.159 46.2096L77.1303 46.2668L76.644 45.9089C77.3654 44.4949 76.8692 43.4512 75.4643 43.658L75.4119 43.6662L75.3335 42.9878Z" fill="#797979" fill-opacity="0.2" style="mix-blend-mode:multiply"/>
<path d="M38.8181 87.611C38.9754 87.6166 39.099 87.7746 39.0945 87.9635C39.0421 90.1458 39.3724 92.1072 39.9812 93.8424C39.9852 93.8491 39.9903 93.8558 39.9939 93.8629C40.0131 93.901 40.0252 93.9417 40.031 93.9831C40.1929 94.4302 40.3725 94.8625 40.5701 95.279C40.8932 95.9601 41.2387 96.5493 41.5837 97.0436C41.618 97.0927 41.6516 97.1401 41.6843 97.1852L41.78 97.3151C41.8111 97.3562 41.8416 97.3952 41.8708 97.4323L41.9548 97.5358L42.032 97.6266C42.1482 97.7541 42.1566 97.9703 42.0505 98.11C41.9445 98.2497 41.7646 98.2597 41.6482 98.1325L41.5906 98.067L41.529 97.9928L41.5046 97.9625C41.3963 97.8282 41.2761 97.6687 41.1472 97.484C40.7808 96.9592 40.4148 96.3362 40.074 95.6178C39.9084 95.2689 39.7559 94.909 39.614 94.5397L28.5535 102.613C28.4189 102.711 28.2437 102.66 28.1619 102.499C28.0849 102.347 28.1179 102.151 28.2341 102.047L28.2576 102.028L39.3845 93.9059C38.7899 92.1344 38.4714 90.1441 38.5242 87.944C38.5287 87.7549 38.6607 87.6055 38.8181 87.611Z" fill="#797979" fill-opacity="0.2" style="mix-blend-mode:multiply"/>
<path d="M46.3929 87.9133C46.5008 87.7761 46.6806 87.7695 46.7952 87.8986C46.91 88.0282 46.9158 88.2452 46.8079 88.383C46.6823 88.5435 46.5555 88.6953 46.4271 88.8381C45.3621 90.022 44.2509 90.5757 43.1478 90.6428C43.7315 91.6535 44.2361 92.6748 44.6605 93.6662C44.7352 93.8407 44.8044 94.0091 44.8695 94.1701L44.9642 94.4064C44.9942 94.4831 45.0225 94.5582 45.0501 94.6311L45.1156 94.8049L45.1605 94.9279L45.2318 95.132C45.2335 95.1372 45.2354 95.1418 45.2367 95.1457C45.2946 95.3215 45.2228 95.5203 45.0765 95.59C44.9301 95.6597 44.7644 95.5735 44.7064 95.3977L44.6556 95.2522L44.5941 95.0822L44.5706 95.0188C44.5066 94.8472 44.4356 94.6629 44.3568 94.468L44.2581 94.2287L44.1527 93.9797C43.6853 92.8879 43.1194 91.7566 42.4535 90.6477C42.448 90.6386 42.4444 90.6288 42.4398 90.6193C41.7999 90.5402 41.1664 90.3068 40.5501 89.9445C40.2957 89.7949 40.0664 89.6348 39.8665 89.4738L39.7904 89.4113L39.7259 89.3557L39.6712 89.3078L39.6273 89.2668C39.6212 89.261 39.6159 89.2553 39.6107 89.2502C39.4891 89.1301 39.4706 88.9139 39.5706 88.7678C39.6706 88.6218 39.8504 88.6011 39.972 88.7209L40.0228 88.7678C40.0682 88.8087 40.122 88.8547 40.1839 88.9045C40.3632 89.0488 40.57 89.194 40.8001 89.3293C42.5062 90.3324 44.3181 90.2487 46.0394 88.3352C46.1581 88.2032 46.2763 88.0623 46.3929 87.9133Z" fill="#797979" fill-opacity="0.2" style="mix-blend-mode:multiply"/>
<path fill-rule="evenodd" clip-rule="evenodd" d="M36.222 84.0653C36.3755 84.0227 36.5286 84.1375 36.5641 84.3218L36.5703 84.3596L36.5764 84.4105C36.6308 84.9491 36.4859 85.6547 35.9953 86.4359C35.9005 86.5869 35.7217 86.617 35.596 86.503C35.4703 86.3891 35.4452 86.1744 35.5401 86.0234C35.7692 85.6586 35.9068 85.313 35.9724 84.9934C36.0112 84.8043 36.0207 84.6483 36.0133 84.5308L36.0085 84.4761C35.973 84.2918 36.0686 84.1079 36.222 84.0653Z" fill="#797979" fill-opacity="0.2" style="mix-blend-mode:multiply"/>
<path fill-rule="evenodd" clip-rule="evenodd" d="M32.5357 91.2819C32.6717 91.2109 32.8285 91.2771 32.8988 91.4298L32.911 91.4594L33.3594 92.6978C33.4222 92.8713 33.356 93.073 33.2116 93.1485C33.0757 93.2195 32.9189 93.1533 32.8486 93.0006L32.8364 92.971L32.388 91.7326C32.3252 91.5591 32.3913 91.3574 32.5357 91.2819Z" fill="#797979" fill-opacity="0.2" style="mix-blend-mode:multiply"/>
<path fill-rule="evenodd" clip-rule="evenodd" d="M32.5015 95.9117C32.6289 95.8207 32.7914 95.8627 32.8772 96.0034L32.8923 96.031L33.5415 97.342C33.622 97.5046 33.5775 97.7148 33.4422 97.8114C33.3148 97.9024 33.1523 97.8605 33.0665 97.7197L33.0513 97.6921L32.4022 96.3811C32.3217 96.2186 32.3661 96.0084 32.5015 95.9117Z" fill="#797979" fill-opacity="0.2" style="mix-blend-mode:multiply"/>
<path fill-rule="evenodd" clip-rule="evenodd" d="M36.4628 100.492C36.581 100.384 36.7464 100.404 36.8447 100.533L36.8623 100.558L37.3546 101.34C37.4496 101.49 37.4249 101.705 37.2993 101.819C37.1811 101.927 37.0157 101.907 36.9175 101.778L36.8999 101.753L36.4075 100.971C36.3125 100.82 36.3373 100.606 36.4628 100.492Z" fill="#797979" fill-opacity="0.2" style="mix-blend-mode:multiply"/>
<path fill-rule="evenodd" clip-rule="evenodd" d="M110.85 19.8867C110.985 19.8134 111.142 19.8769 111.214 20.0283L111.227 20.0577L113.205 25.3127L113.236 25.3239C118.344 27.1659 121.246 30.2229 122.35 34.0747L122.383 34.1929C123.109 36.8248 122.915 39.5241 122.315 41.4347C122.26 41.6117 122.095 41.7011 121.948 41.6344C121.8 41.5677 121.726 41.3701 121.782 41.1931C122.338 39.4178 122.522 36.8737 121.842 34.4083C120.826 30.7243 118.061 27.7785 113.07 25.9793L112.793 25.8808L110.707 20.3398C110.642 20.1675 110.706 19.9646 110.85 19.8867Z" fill="#797979" fill-opacity="0.2" style="mix-blend-mode:multiply"/>
<path fill-rule="evenodd" clip-rule="evenodd" d="M118.187 3.08664C118.338 3.03442 118.496 3.13946 118.54 3.32126L118.567 3.43567L118.618 3.65963C119.269 6.56652 118.91 7.83302 116.411 9.51957L116.218 9.6485C116.085 9.73504 115.948 9.82279 115.805 9.91202L115.585 10.047C115.548 10.0697 115.51 10.0925 115.472 10.1154L115.24 10.2541L114.999 10.3955C114.958 10.4193 114.917 10.4432 114.875 10.4673L114.62 10.6131L114.357 10.7622C114.214 10.8423 114.044 10.7684 113.978 10.5971C113.911 10.4258 113.972 10.2219 114.115 10.1418L114.487 9.93123L114.724 9.79532L114.952 9.66273L115.171 9.53327L115.382 9.40671L115.585 9.28286L115.779 9.16151C115.81 9.14148 115.842 9.12155 115.873 9.10171L116.054 8.98374C116.232 8.86679 116.398 8.75283 116.552 8.64093L116.703 8.52969C118.219 7.38661 118.529 6.43124 118.229 4.64694L118.199 4.47164L118.164 4.29097L118.126 4.10471C118.119 4.07319 118.112 4.04143 118.106 4.00942L118.062 3.8144C118.055 3.78139 118.047 3.74813 118.04 3.71461L117.991 3.51037C117.948 3.32857 118.035 3.13886 118.187 3.08664Z" fill="#797979" fill-opacity="0.2" style="mix-blend-mode:multiply"/>
<path fill-rule="evenodd" clip-rule="evenodd" d="M127.536 3.82131C127.693 3.8089 127.829 3.95184 127.839 4.14058C128.104 8.97754 126.602 9.70103 121.835 6.87297C121.694 6.7892 121.636 6.58382 121.706 6.41423C121.775 6.24464 121.946 6.17507 122.088 6.25884L122.291 6.37843L122.489 6.49319L122.682 6.60315L122.871 6.70832L123.055 6.80872L123.234 6.90438L123.409 6.99532L123.578 7.08156L123.744 7.16312L123.904 7.24002L124.061 7.31229C124.086 7.32394 124.112 7.33541 124.137 7.34669L124.287 7.41203C124.311 7.42254 124.335 7.43286 124.36 7.44299L124.503 7.50147L124.641 7.5554C124.664 7.56401 124.687 7.57243 124.709 7.58066L124.841 7.62781C124.928 7.65773 125.012 7.68466 125.093 7.70861L125.213 7.74233C125.782 7.89453 126.209 7.89133 126.516 7.74356C126.942 7.53831 127.188 6.99695 127.27 6.01113L127.281 5.85991C127.284 5.80839 127.287 5.75574 127.289 5.70195L127.295 5.53715C127.299 5.42499 127.3 5.30822 127.3 5.18674L127.299 5.00097L127.295 4.80804L127.289 4.60788L127.281 4.4004L127.27 4.18552C127.26 3.99678 127.379 3.83372 127.536 3.82131Z" fill="#797979" fill-opacity="0.2" style="mix-blend-mode:multiply"/>
<path fill-rule="evenodd" clip-rule="evenodd" d="M128.844 7.32121C128.958 7.19152 129.139 7.198 129.247 7.33569L129.389 7.51604L129.526 7.68858L129.659 7.85343L129.788 8.01077L129.912 8.16073L130.033 8.30348C130.052 8.32668 130.072 8.34959 130.091 8.3722L130.206 8.50441L130.318 8.62979C130.336 8.65013 130.354 8.67018 130.372 8.68996L130.479 8.80538L130.583 8.91434L130.684 9.017C131.034 9.36548 131.338 9.60103 131.635 9.75313C132.385 10.1371 132.901 9.81061 133.297 8.44446C133.349 8.26583 133.511 8.17145 133.66 8.23365C133.809 8.29586 133.887 8.49109 133.835 8.66972C133.336 10.3916 132.482 10.9318 131.411 10.3832C131.091 10.2192 130.777 9.98563 130.431 9.65441L130.326 9.55208C130.309 9.53453 130.291 9.51672 130.273 9.49867L130.165 9.38723C130.147 9.36814 130.128 9.34878 130.11 9.32916L129.998 9.20824L129.883 9.08077L129.765 8.9466L129.644 8.80555C129.623 8.78146 129.602 8.75707 129.582 8.73239L129.455 8.5807L129.324 8.42172L129.189 8.25526L128.978 7.9912L128.832 7.80533C128.724 7.66765 128.729 7.4509 128.844 7.32121Z" fill="#797979" fill-opacity="0.2" style="mix-blend-mode:multiply"/>
<path fill-rule="evenodd" clip-rule="evenodd" d="M134.297 12.882C134.346 12.7025 134.507 12.6052 134.657 12.6647C134.806 12.7242 134.887 12.918 134.838 13.0976C134.199 15.4102 134.891 16.9406 136.547 18.0969C136.683 18.192 136.729 18.4016 136.65 18.5651C136.571 18.7286 136.397 18.7842 136.26 18.6891C134.393 17.3853 133.561 15.5448 134.297 12.882Z" fill="#797979" fill-opacity="0.2" style="mix-blend-mode:multiply"/>
<path fill-rule="evenodd" clip-rule="evenodd" d="M113.442 73.1698C112.305 74.1022 110.852 74.4029 109.479 73.9104L95.1094 68.7401C94.6441 56.4338 104.617 73.0729 113.442 73.1698Z" fill="#797979" fill-opacity="0.2" style="mix-blend-mode:multiply"/>
<path fill-rule="evenodd" clip-rule="evenodd" d="M143.449 138.346C142.631 144.73 141.177 149.039 139.792 145.462C137.865 144.215 135.959 142.892 134.078 141.515V141.512C109.171 123.244 88.8161 94.806 88.8161 94.806C88.8161 94.806 86.0284 94.562 83.1593 95.2693C80.4867 97.7594 77.8784 100.648 75.253 103.854C66.1139 115.005 56.7474 129.97 43.6283 145.155C41.8155 147.258 39.9311 149.361 37.9625 151.46C38.0237 157.373 29.9037 145.039 27.7463 128.758C28.5196 127.947 29.281 127.156 30.0305 126.385C31.2641 125.117 32.4689 123.903 33.641 122.736C54.0885 102.39 65.3823 97.0144 74.6871 85.1449C75.0713 84.6585 75.4497 84.1608 75.8259 83.6487L94.8224 82.2073C95.6425 83.1381 96.5048 84.0469 97.4111 84.938C106.564 93.9681 120.095 101.506 137.855 115.193C139.695 116.61 141.579 118.093 143.508 119.651C144.435 124.501 144.223 132.341 143.449 138.346Z" fill="#15AD8B"/>
<path fill-rule="evenodd" clip-rule="evenodd" d="M85.0137 82.8171L85.752 83.0358C85.6507 83.529 85.5773 84.0612 85.5299 84.6266C85.411 86.0463 85.4593 87.5752 85.6127 89.0534C85.6266 89.1873 85.6409 89.3161 85.6554 89.4392L85.6848 89.6778C85.6897 89.7162 85.6947 89.754 85.6996 89.7912L85.7233 89.9638L85.7399 90.0782L85.7595 90.2048L85.0138 90.3835L84.9915 90.2394L84.9643 90.0502L84.9333 89.8172C84.9076 89.6163 84.8822 89.3986 84.8581 89.1663C84.6983 87.6258 84.6479 86.0323 84.7734 84.5352C84.8185 83.9961 84.8862 83.4825 84.9781 82.9976L85.0137 82.8171Z" fill="#797979" fill-opacity="0.2" style="mix-blend-mode:multiply"/>
<path fill-rule="evenodd" clip-rule="evenodd" d="M111.589 100.215C110.065 99.0518 109.495 97.4204 110.563 97.2782C111.632 97.1362 113.537 98.5901 113.993 99.8952C114.448 101.2 113.113 101.378 111.589 100.215Z" fill="#797979" fill-opacity="0.2" style="mix-blend-mode:multiply"/>
<path fill-rule="evenodd" clip-rule="evenodd" d="M60.2384 101.039C61.6306 99.4679 63.0071 99.304 62.7161 100.744C62.4251 102.184 60.6849 104.148 59.5837 104.279C58.4825 104.41 58.8463 102.61 60.2384 101.039Z" fill="#797979" fill-opacity="0.2" style="mix-blend-mode:multiply"/>
<path fill-rule="evenodd" clip-rule="evenodd" d="M139.792 145.461C137.865 144.215 135.959 142.892 134.078 141.516V141.513C131.936 136.656 133.361 117.643 137.855 115.192C139.694 116.61 141.578 118.094 143.507 119.65C145.423 129.66 142.479 152.401 139.792 145.461Z" fill="#797979" fill-opacity="0.2" style="mix-blend-mode:multiply"/>
<path fill-rule="evenodd" clip-rule="evenodd" d="M43.6291 145.155C41.8148 147.257 39.9302 149.361 37.9627 151.459C38.0241 157.374 29.9042 145.038 27.7469 128.757C29.7922 126.611 31.7557 124.609 33.6405 122.735C37.7739 124.617 42.9533 137.481 43.6291 145.155Z" fill="#797979" fill-opacity="0.2" style="mix-blend-mode:multiply"/>
<path fill-rule="evenodd" clip-rule="evenodd" d="M95.3252 97.6978C103.94 106.754 112.617 114.996 120.925 122.263L121.688 122.929L122.44 123.581L123.179 124.218L123.906 124.841L124.383 125.248L125.089 125.847L125.781 126.431L126.235 126.813L126.905 127.372L127.561 127.917L127.99 128.272L128.623 128.792L129.256 129.308L129.794 129.744L130.421 130.248L131.074 130.768L131.748 131.297L131.338 132.066L131.081 131.866L130.464 131.379L129.878 130.911L129.238 130.396L128.69 129.95L128.195 129.546L127.773 129.2L127.346 128.848L126.692 128.307L126.025 127.751L125.345 127.18L124.884 126.791L124.181 126.196L123.705 125.791L122.981 125.171L122.244 124.537L121.495 123.888L120.734 123.225C120.648 123.151 120.563 123.076 120.477 123.001C112.301 115.849 103.768 107.755 95.287 98.8704L94.8245 98.385L95.3252 97.6978Z" fill="#797979" fill-opacity="0.2" style="mix-blend-mode:multiply"/>
<path fill-rule="evenodd" clip-rule="evenodd" d="M143.45 138.345C142.631 144.729 141.177 149.039 139.792 145.462C137.865 144.216 135.959 142.892 134.078 141.516V141.513C109.172 123.243 88.8158 94.8064 88.8158 94.8064C88.8158 94.8064 86.029 94.5621 83.1589 95.2683C112.413 86.8086 115.005 140.43 143.45 138.345Z" fill="#797979" fill-opacity="0.2" style="mix-blend-mode:multiply"/>
<path fill-rule="evenodd" clip-rule="evenodd" d="M89.1538 93.4133L89.1794 94.3261L79.9451 94.6998L79.7036 94.9486C76.0629 98.7026 72.8886 102.284 69.7937 106.069L69.5038 106.425L68.9828 107.068L68.6357 107.499L68.2879 107.934L67.9385 108.373L67.5868 108.818L67.2319 109.269L66.6918 109.959L66.3254 110.429L65.953 110.91L65.5738 111.401L64.453 112.863L61.3354 116.959L60.4214 118.153L59.7913 118.97L59.3859 119.493L58.9287 120.078L58.475 120.655L58.0244 121.224C57.8746 121.413 57.7254 121.6 57.5765 121.786L57.131 122.339C53.0566 127.382 49.2299 131.535 44.3332 136.098L44.0651 136.347L43.6003 135.624L44.1314 135.129C48.2581 131.266 51.6238 127.685 55.05 123.575L55.4878 123.047L55.9266 122.513C56.5857 121.708 57.2497 120.881 57.9242 120.026L58.3755 119.452L58.8303 118.869L59.2345 118.348L59.863 117.533L60.7751 116.342L63.9743 112.139L64.6722 111.228L65.2069 110.533L65.7698 109.806L66.1374 109.334L66.6794 108.641L67.0355 108.189L67.3885 107.743L67.7392 107.302L68.0884 106.865L68.4368 106.432L68.7854 106.001C68.8435 105.93 68.9017 105.858 68.9599 105.786C72.1619 101.85 75.4365 98.1449 79.2082 94.2558L79.6536 93.798L89.1538 93.4133Z" fill="#797979" fill-opacity="0.2" style="mix-blend-mode:multiply"/>
<path fill-rule="evenodd" clip-rule="evenodd" d="M75.2526 103.853C66.1134 115.005 56.747 129.971 43.6291 145.155C41.8148 147.257 39.9304 149.361 37.9627 151.459C38.0241 157.374 29.9042 145.038 27.7469 128.757C28.5197 127.946 29.2808 127.156 30.03 126.384C50.3138 139.324 65.3108 102.089 75.2526 103.853Z" fill="#797979" fill-opacity="0.2" style="mix-blend-mode:multiply"/>
<path fill-rule="evenodd" clip-rule="evenodd" d="M97.4111 84.938C87.3086 90.0012 82.3116 81.6344 74.687 85.1449C75.0712 84.6585 75.4497 84.1608 75.8257 83.6487L94.8223 82.2073C95.6422 83.1381 96.5045 84.0469 97.4111 84.938Z" fill="#797979" fill-opacity="0.2" style="mix-blend-mode:multiply"/>
<path fill-rule="evenodd" clip-rule="evenodd" d="M95.1264 81.5198L95.2163 82.4267L94.4219 82.5393L93.3967 82.6814L92.8978 82.749L92.1654 82.8463L91.6873 82.9085L91.2168 82.9684L90.5246 83.0544L89.8474 83.1356L89.1839 83.2121L88.5328 83.2841L88.105 83.3296L87.6817 83.3732L87.2626 83.4148L86.8473 83.4545L86.4353 83.4923L85.8229 83.5455C85.7551 83.5512 85.6875 83.5568 85.62 83.5623L85.2159 83.5946L84.8135 83.6251L84.4127 83.6538L84.0129 83.6808L83.4143 83.7181L83.0155 83.7409L82.4165 83.772L82.0162 83.7907L81.6146 83.8078L81.2114 83.8233L80.6026 83.8438L80.1936 83.8556L79.7815 83.8659L79.366 83.8747L78.9468 83.8822L78.31 83.8907L77.6625 83.8962L77.2243 83.8982L76.7803 83.8989L76.1028 83.8976L75.6428 83.8952L75.6469 82.9819L76.3309 82.9851L76.7788 82.9856L77.2205 82.9849L77.8725 82.9815L78.5129 82.975L79.1432 82.9655L79.5583 82.9574L79.9698 82.9479L80.5812 82.9309L80.9855 82.9177L81.3876 82.903L81.7878 82.8867L82.1865 82.8689L82.5842 82.8495L82.9813 82.8285L83.378 82.8059L83.7748 82.7815L84.1722 82.7555L84.5703 82.7278L84.9698 82.6983L85.3709 82.6671L85.774 82.634L86.3834 82.5811L86.9995 82.5239L87.4146 82.4835L87.8337 82.4411L88.2572 82.3968L88.6854 82.3505L89.1188 82.3022L89.7792 82.226L90.2271 82.1726L90.9112 82.0886L91.6112 81.9998L92.3284 81.9061L93.0641 81.8075L93.8196 81.7039L94.5962 81.5952L95.1264 81.5198Z" fill="#362B42"/>
<path fill-rule="evenodd" clip-rule="evenodd" d="M29.5441 154.638C29.2628 155.322 28.4809 155.39 28.137 154.761C27.793 154.131 28.1446 153.276 28.7701 153.222C29.3953 153.168 29.8255 153.954 29.5441 154.638Z" fill="#FF4654"/>
<path fill-rule="evenodd" clip-rule="evenodd" d="M25.9375 160.612C25.004 161.374 23.7459 160.656 23.6729 159.321C23.6001 157.986 24.7671 157.034 25.7737 157.608C26.78 158.182 26.8711 159.851 25.9375 160.612Z" fill="#362B42"/>
<path fill-rule="evenodd" clip-rule="evenodd" d="M25.9375 160.612C25.004 161.374 23.7459 160.656 23.6729 159.321C23.6001 157.986 24.7671 157.034 25.7737 157.608C26.78 158.182 26.8711 159.851 25.9375 160.612Z" fill="white" fill-opacity="0.3" style="mix-blend-mode:lighten"/>
<path fill-rule="evenodd" clip-rule="evenodd" d="M36.0501 152.501C34.1238 150.777 31.6978 146.274 29.8457 141.698C28.5941 138.603 27.6022 135.476 27.2072 133.152C27.1311 132.712 27.0764 132.3 27.0473 131.925C26.6966 127.552 27.9902 127.629 29.9721 130.253C31.1521 131.815 32.574 134.278 34.0392 137.245C34.3791 137.934 34.7217 138.65 35.0646 139.387C38.9654 147.804 39.5244 155.611 36.0501 152.501Z" fill="#362B42"/>
<path fill-rule="evenodd" clip-rule="evenodd" d="M34.0392 137.245L29.8457 141.698L26.9646 144.755L23.2539 137.295L27.2073 133.151L29.9721 130.252C31.152 131.815 32.5739 134.279 34.0392 137.245Z" fill="#FFC520"/>
<path fill-rule="evenodd" clip-rule="evenodd" d="M28.6145 145.081C27.7674 146.313 25.1618 150.113 23.3762 152.714L23.3764 152.717C22.3584 154.202 21.6068 155.296 21.6068 155.296L1.2063 116.385C1.75035 115.863 2.26266 115.418 2.75159 115.054H2.75349C6.01705 112.627 8.23452 113.89 11.8868 120.604C16.0889 128.323 19.1139 131.664 23.1135 132.7C27.1112 133.739 29.9448 143.143 28.6145 145.081Z" fill="#FF4654"/>
<path fill-rule="evenodd" clip-rule="evenodd" d="M23.6879 142.145C24.3108 140.457 23.5282 137.001 22.2793 135.925C21.0301 134.848 20.2513 136.958 20.8775 139.723C21.5035 142.487 23.0649 143.833 23.6879 142.145Z" fill="white"/>
<mask id="mask1_258_44950" style="mask-type:luminance" maskUnits="userSpaceOnUse" x="1" y="113" width="28" height="43">
<path fill-rule="evenodd" clip-rule="evenodd" d="M2.75368 115.054H2.75159C2.26266 115.418 1.75035 115.863 1.2063 116.386L21.6068 155.296C21.6068 155.296 22.3584 154.202 23.3762 152.717V152.715C25.1618 150.113 27.7674 146.313 28.6145 145.082C29.9446 143.143 27.111 133.74 23.1135 132.701C19.1139 131.664 16.0889 128.323 11.8866 120.604C9.35342 115.947 7.51083 113.913 5.53041 113.913C4.65559 113.914 3.75358 114.311 2.75368 115.054Z" fill="white"/>
</mask>
<g mask="url(#mask1_258_44950)">
<path fill-rule="evenodd" clip-rule="evenodd" d="M14.7503 123.467C15.2132 124.865 14.9911 126.275 14.3522 127.578C14.1291 128.033 13.9049 128.378 13.7409 128.589L13.7108 128.627L13.1641 127.992L13.2015 127.943L13.2357 127.896L13.2766 127.838L13.3235 127.768C13.4505 127.576 13.578 127.357 13.6969 127.114C14.2145 126.059 14.3971 124.956 14.0699 123.887L14.0437 123.804L14.7503 123.467Z" fill="#FF4654"/>
<path fill-rule="evenodd" clip-rule="evenodd" d="M14.7503 123.467C15.2132 124.865 14.9911 126.275 14.3522 127.578C14.1291 128.033 13.9049 128.378 13.7409 128.589L13.7108 128.627L13.1641 127.992L13.2015 127.943L13.2357 127.896L13.2766 127.838L13.3235 127.768C13.4505 127.576 13.578 127.357 13.6969 127.114C14.2145 126.059 14.3971 124.956 14.0699 123.887L14.0437 123.804L14.7503 123.467Z" fill="#797979" fill-opacity="0.2" style="mix-blend-mode:multiply"/>
</g>
<path fill-rule="evenodd" clip-rule="evenodd" d="M23.3762 152.715L23.3764 152.717C22.3584 154.202 21.6068 155.296 21.6068 155.296L1.2063 116.386C1.75035 115.863 2.26285 115.418 2.75159 115.054H2.75368C6.82363 113.129 22.7348 142.669 23.3762 152.715Z" fill="#362B42"/>
<path fill-rule="evenodd" clip-rule="evenodd" d="M21.9712 153.404C21.5257 147.719 12.2389 129.171 4.97554 119.802C-2.28764 110.432 -1.58296 122.134 6.98523 137.424C15.5536 152.714 22.4168 159.088 21.9712 153.404Z" fill="#362B42"/>
<path fill-rule="evenodd" clip-rule="evenodd" d="M21.9712 153.404C21.5257 147.719 12.2389 129.171 4.97554 119.802C-2.28764 110.432 -1.58296 122.134 6.98523 137.424C15.5536 152.714 22.4168 159.088 21.9712 153.404Z" fill="#797979" fill-opacity="0.2" style="mix-blend-mode:multiply"/>
<path fill-rule="evenodd" clip-rule="evenodd" d="M18.7934 150.08C18.8254 148.146 17.0786 144.617 15.6489 143.728C14.2193 142.838 14.1792 145.255 15.5768 148.078C16.9744 150.901 18.7615 152.013 18.7934 150.08Z" fill="#362B42"/>
<mask id="mask2_258_44950" style="mask-type:luminance" maskUnits="userSpaceOnUse" x="0" y="116" width="22" height="40">
<path fill-rule="evenodd" clip-rule="evenodd" d="M0 118.404V118.583C0.0406805 122.009 2.37487 129.197 6.98526 137.424C15.5536 152.714 22.4169 159.088 21.9713 153.403C21.5255 147.718 12.2389 129.171 4.97557 119.801C3.17612 117.48 1.86522 116.452 1.0423 116.452C0.362703 116.451 0.0155879 117.153 0 118.404Z" fill="white"/>
</mask>
<g mask="url(#mask2_258_44950)">
<path fill-rule="evenodd" clip-rule="evenodd" d="M6.51247 121.825L6.96463 122.559L1.90847 127.051L1.4563 126.317L6.51247 121.825Z" fill="#362B42"/>
</g>
<mask id="mask3_258_44950" style="mask-type:luminance" maskUnits="userSpaceOnUse" x="0" y="116" width="22" height="40">
<path fill-rule="evenodd" clip-rule="evenodd" d="M0 118.404V118.583C0.0406805 122.009 2.37487 129.197 6.98526 137.424C15.5536 152.714 22.4169 159.088 21.9713 153.403C21.5255 147.718 12.2389 129.171 4.97557 119.801C3.17612 117.48 1.86522 116.452 1.0423 116.452C0.362703 116.451 0.0155879 117.153 0 118.404Z" fill="white"/>
</mask>
<g mask="url(#mask3_258_44950)">
<path fill-rule="evenodd" clip-rule="evenodd" d="M11.2911 129.253L11.7168 130.009L5.47199 135.078L5.04626 134.321L11.2911 129.253Z" fill="#362B42"/>
</g>
<mask id="mask4_258_44950" style="mask-type:luminance" maskUnits="userSpaceOnUse" x="0" y="116" width="22" height="40">
<path fill-rule="evenodd" clip-rule="evenodd" d="M0 118.404V118.583C0.0406805 122.009 2.37487 129.197 6.98526 137.424C15.5536 152.714 22.4169 159.088 21.9713 153.403C21.5255 147.718 12.2389 129.171 4.97557 119.801C3.17612 117.48 1.86522 116.452 1.0423 116.452C0.362703 116.451 0.0155879 117.153 0 118.404Z" fill="white"/>
</mask>
<g mask="url(#mask4_258_44950)">
<path fill-rule="evenodd" clip-rule="evenodd" d="M15.8054 136.767L16.2656 137.494L9.94032 143.27L9.4801 142.543L15.8054 136.767Z" fill="#362B42"/>
</g>
<path fill-rule="evenodd" clip-rule="evenodd" d="M28.2875 128.636C31.4691 129.781 37.2468 142.603 37.9751 149.459L37.9956 149.665L37.24 149.766C36.6442 143.354 31.0324 130.791 28.1557 129.546L28.0693 129.511L28.2875 128.636Z" fill="#362B42"/>
<path fill-rule="evenodd" clip-rule="evenodd" d="M144.885 135.025C144.877 135.109 144.867 135.193 144.859 135.277C143.818 144.913 140.873 150.481 139.514 145.303C138.748 142.382 138.836 136.455 139.478 130.995C139.877 127.601 140.491 124.39 141.249 122.195C141.453 121.602 141.667 121.084 141.891 120.657C143.403 117.765 144.609 120.373 145.03 125.163C145.276 127.934 145.258 131.436 144.885 135.025Z" fill="#362B42"/>
<path fill-rule="evenodd" clip-rule="evenodd" d="M156.271 151.963C155.933 152.96 155.129 153.295 154.824 152.564C154.519 151.833 154.941 150.586 155.584 150.319C156.228 150.052 156.609 150.965 156.271 151.963Z" fill="#362B42"/>
<path fill-rule="evenodd" clip-rule="evenodd" d="M164.432 152.518C163.648 153.426 162.437 153.097 162.251 151.924C162.066 150.752 163.046 149.615 164.015 149.879C164.984 150.143 165.216 151.609 164.432 152.518Z" fill="#362B42"/>
<path fill-rule="evenodd" clip-rule="evenodd" d="M156.271 151.963C155.933 152.96 155.129 153.295 154.824 152.564C154.519 151.833 154.941 150.586 155.584 150.319C156.228 150.052 156.609 150.965 156.271 151.963Z" fill="white" fill-opacity="0.3" style="mix-blend-mode:lighten"/>
<path fill-rule="evenodd" clip-rule="evenodd" d="M164.432 152.518C163.648 153.426 162.437 153.097 162.251 151.924C162.066 150.752 163.046 149.615 164.015 149.879C164.984 150.143 165.216 151.609 164.432 152.518Z" fill="white" fill-opacity="0.3" style="mix-blend-mode:lighten"/>
<path fill-rule="evenodd" clip-rule="evenodd" d="M160.662 146.951C160.846 146.12 161.62 145.812 162.055 146.395C162.491 146.978 162.261 148.016 161.642 148.263C161.023 148.51 160.479 147.781 160.662 146.951Z" fill="#FF4654"/>
<path fill-rule="evenodd" clip-rule="evenodd" d="M149.813 128.317L147.051 136.478L144.88 134.75L139.469 130.444C139.87 127.031 140.488 123.803 141.25 121.596L145.052 124.581L149.813 128.317Z" fill="#FFC520"/>
<path fill-rule="evenodd" clip-rule="evenodd" d="M169.074 103.264L155.266 146.983C155.266 146.983 154.335 146.074 153.068 144.84L153.068 144.837C150.854 142.677 147.618 139.523 146.567 138.499C144.916 136.888 145.563 126.937 149.983 124.953C154.405 122.968 156.457 115.833 159.205 109.324C161.505 103.874 163.48 101.207 166.903 102.24C167.567 102.439 168.286 102.779 169.074 103.264Z" fill="#FF4654"/>
<path fill-rule="evenodd" clip-rule="evenodd" d="M153.495 131.228C153.263 134.001 151.944 135.593 151.121 134.093C150.298 132.593 150.588 129.127 151.643 127.853C152.698 126.58 153.727 128.455 153.495 131.228Z" fill="white"/>
<mask id="mask5_258_44950" style="mask-type:luminance" maskUnits="userSpaceOnUse" x="145" y="102" width="25" height="45">
<path fill-rule="evenodd" clip-rule="evenodd" d="M159.205 109.324C156.457 115.833 154.405 122.968 149.983 124.952C145.563 126.937 144.916 136.888 146.568 138.498C147.618 139.523 150.854 142.677 153.068 144.837L153.068 144.84C154.335 146.074 155.266 146.982 155.266 146.982L169.074 103.264C168.286 102.779 167.567 102.439 166.903 102.24C166.417 102.093 165.96 102.021 165.527 102.021C162.912 102.021 161.178 104.648 159.205 109.324Z" fill="white"/>
</mask>
<g mask="url(#mask5_258_44950)">
<path fill-rule="evenodd" clip-rule="evenodd" d="M157.003 111.38L157.733 111.636C157.385 113.066 157.745 114.197 158.579 115.099C158.799 115.337 159.037 115.54 159.274 115.706C159.34 115.752 159.402 115.792 159.458 115.827L159.521 115.865L159.575 115.895L159.278 116.735L159.254 116.723L159.199 116.693L159.135 116.655L159.061 116.609L158.98 116.556C158.951 116.537 158.922 116.516 158.891 116.495C158.611 116.299 158.332 116.061 158.07 115.778C157.054 114.678 156.581 113.232 156.981 111.473L157.003 111.38Z" fill="#FF4654"/>
<path fill-rule="evenodd" clip-rule="evenodd" d="M157.003 111.38L157.733 111.636C157.385 113.066 157.745 114.197 158.579 115.099C158.799 115.337 159.037 115.54 159.274 115.706C159.34 115.752 159.402 115.792 159.458 115.827L159.521 115.865L159.575 115.895L159.278 116.735L159.254 116.723L159.199 116.693L159.135 116.655L159.061 116.609L158.98 116.556C158.951 116.537 158.922 116.516 158.891 116.495C158.611 116.299 158.332 116.061 158.07 115.778C157.054 114.678 156.581 113.232 156.981 111.473L157.003 111.38Z" fill="#797979" fill-opacity="0.2" style="mix-blend-mode:multiply"/>
</g>
<path fill-rule="evenodd" clip-rule="evenodd" d="M169.074 103.264L155.266 146.983C155.266 146.983 154.335 146.074 153.068 144.84L153.068 144.838C151.898 139.346 154.032 132.366 156.571 124.328C160.159 112.97 163.715 102.349 166.903 102.24C167.567 102.439 168.286 102.779 169.074 103.264Z" fill="#362B42"/>
<path fill-rule="evenodd" clip-rule="evenodd" d="M154.382 145.188C153.873 139.414 160.221 118.678 165.889 107.581C171.557 96.4851 171.327 108.223 165.427 125.463C159.527 142.702 154.892 150.962 154.382 145.188Z" fill="#362B42"/>
<path fill-rule="evenodd" clip-rule="evenodd" d="M154.382 145.188C153.873 139.414 160.221 118.678 165.889 107.581C171.557 96.4851 171.327 108.223 165.427 125.463C159.527 142.702 154.892 150.962 154.382 145.188Z" fill="#797979" fill-opacity="0.2" style="mix-blend-mode:multiply"/>
<path fill-rule="evenodd" clip-rule="evenodd" d="M159.027 138.714C158.075 141.794 156.64 143.344 156.445 141.505C156.249 139.665 157.44 135.815 158.588 134.575C159.735 133.334 159.98 135.634 159.027 138.714Z" fill="#362B42"/>
<mask id="mask6_258_44950" style="mask-type:luminance" maskUnits="userSpaceOnUse" x="154" y="103" width="16" height="45">
<path fill-rule="evenodd" clip-rule="evenodd" d="M165.889 107.581C160.221 118.677 153.873 139.414 154.382 145.188C154.892 150.962 159.527 142.702 165.427 125.462C168.441 116.657 169.975 109.286 170 105.662V105.488C169.99 104.046 169.724 103.246 169.201 103.246C168.526 103.247 167.424 104.577 165.889 107.581Z" fill="white"/>
</mask>
<g mask="url(#mask6_258_44950)">
<path fill-rule="evenodd" clip-rule="evenodd" d="M164.178 110.797L168.997 114.145L168.616 114.936L163.797 111.588L164.178 110.797Z" fill="#362B42"/>
</g>
<mask id="mask7_258_44950" style="mask-type:luminance" maskUnits="userSpaceOnUse" x="154" y="103" width="16" height="45">
<path fill-rule="evenodd" clip-rule="evenodd" d="M165.889 107.581C160.221 118.677 153.873 139.414 154.382 145.188C154.892 150.962 159.527 142.702 165.427 125.462C168.441 116.657 169.975 109.286 170 105.662V105.488C169.99 104.046 169.724 103.246 169.201 103.246C168.526 103.247 167.424 104.577 165.889 107.581Z" fill="white"/>
</mask>
<g mask="url(#mask7_258_44950)">
<path fill-rule="evenodd" clip-rule="evenodd" d="M160.633 119.782L166.363 123.333L166.014 124.144L160.284 120.593L160.633 119.782Z" fill="#362B42"/>
</g>
<mask id="mask8_258_44950" style="mask-type:luminance" maskUnits="userSpaceOnUse" x="154" y="103" width="16" height="45">
<path fill-rule="evenodd" clip-rule="evenodd" d="M165.889 107.581C160.221 118.677 153.873 139.414 154.382 145.188C154.892 150.962 159.527 142.702 165.427 125.462C168.441 116.657 169.975 109.286 170 105.662V105.488C169.99 104.046 169.724 103.246 169.201 103.246C168.526 103.247 167.424 104.577 165.889 107.581Z" fill="white"/>
</mask>
<g mask="url(#mask8_258_44950)">
<path fill-rule="evenodd" clip-rule="evenodd" d="M157.659 128.74L163.324 132L162.995 132.823L157.331 129.564L157.659 128.74Z" fill="#362B42"/>
</g>
<path fill-rule="evenodd" clip-rule="evenodd" d="M142.329 119.878L142.896 120.488C139.952 124.436 138.784 134.76 139.841 143.294L139.874 143.552L139.123 143.692C137.989 134.954 139.143 124.335 142.235 120.008L142.329 119.878Z" fill="#362B42"/>
</svg>
