<svg width="170" height="200" viewBox="0 0 170 200" fill="none" xmlns="http://www.w3.org/2000/svg">
<path fill-rule="evenodd" clip-rule="evenodd" d="M114.948 78.4482L104.221 77.6239C102.977 77.5282 101.762 77.1592 100.656 76.5265C99.8732 76.0781 98.9266 75.499 98.0032 74.8359C96.3165 73.6238 94.7105 72.1294 94.334 70.6535C93.4192 63.424 96.1102 58.5412 96.1102 58.5412L107.791 54.7397L114.948 58.5412C114.948 58.5412 115.882 62.0438 116.023 67.2325C116.112 70.4643 115.893 74.3477 114.948 78.4482Z" fill="#FF9B89"/>
<path fill-rule="evenodd" clip-rule="evenodd" d="M114.949 78.4485L104.221 77.6241C102.977 77.5284 101.762 77.1595 100.656 76.5267C99.8734 76.0783 98.9269 75.4992 98.0034 74.8361C98.029 72.4214 98.7439 69.017 100.977 64.3047C106.591 63.3541 112.198 65.3298 116.023 67.2328C116.112 70.4646 115.893 74.348 114.949 78.4485Z" fill="#FF9B89"/>
<path fill-rule="evenodd" clip-rule="evenodd" d="M114.949 78.4485L104.221 77.6241C102.977 77.5284 101.762 77.1595 100.656 76.5267C99.8734 76.0783 98.9269 75.4992 98.0034 74.8361C98.029 72.4214 98.7439 69.017 100.977 64.3047C106.591 63.3541 112.198 65.3298 116.023 67.2328C116.112 70.4646 115.893 74.348 114.949 78.4485Z" fill="#797979" fill-opacity="0.2" style="mix-blend-mode:multiply"/>
<path fill-rule="evenodd" clip-rule="evenodd" d="M108.654 58.1148L109.183 58.0054L109.237 58.0743L109.328 58.1853C109.363 58.2273 109.4 58.2708 109.439 58.3156L109.559 58.4537C109.621 58.5246 109.687 58.5983 109.757 58.6743C110.223 59.182 110.749 59.6899 111.325 60.1635C113.591 62.0287 115.903 62.8207 118.063 61.9712L118.151 61.9354L118.37 62.5702C115.945 63.5766 113.403 62.7222 110.954 60.7065C110.354 60.2128 109.806 59.6845 109.321 59.1559C109.273 59.1029 109.226 59.051 109.181 59.0003L109.063 58.8672L109.034 58.9504C107.895 62.1542 106.029 63.9835 103.72 64.4995L103.633 64.5183C101.65 64.9314 99.4613 64.3086 97.9287 63.0747L97.8486 63.0092L98.222 62.4682C99.6234 63.6338 101.679 64.2346 103.518 63.8515C105.756 63.3853 107.552 61.5665 108.614 58.2402L108.654 58.1148Z" fill="#FF9B89"/>
<path fill-rule="evenodd" clip-rule="evenodd" d="M81.5072 166.299C81.5072 166.299 81.5072 172.211 64.9045 174.901C64.9045 174.901 72.7602 165.855 81.5072 166.299Z" fill="#362B42"/>
<path fill-rule="evenodd" clip-rule="evenodd" d="M17.7011 169.809L15.269 176.55L10.857 188.775L5.92188 186.55L9.81057 173.533L12.1842 165.582L17.7011 169.809Z" fill="#FF9B89"/>
<path fill-rule="evenodd" clip-rule="evenodd" d="M15.269 176.55L10.857 188.775L5.92188 186.55L9.81057 173.533L15.269 176.55Z" fill="#15AD8B"/>
<path fill-rule="evenodd" clip-rule="evenodd" d="M15.269 176.55L10.857 188.775L5.92188 186.55L9.81057 173.533L15.269 176.55Z" fill="#797979" fill-opacity="0.2" style="mix-blend-mode:multiply"/>
<path fill-rule="evenodd" clip-rule="evenodd" d="M27.4768 198.457C24.5095 199.045 17.7021 200.163 14.1355 199.243C10.0681 198.191 8.07824 197.76 1.65705 192.96C1.21583 192.63 1.03943 192.009 1.23232 191.462L1.71825 189.702L6.43435 181.154C6.43435 181.154 14.5066 182.944 14.8283 184.914C15.1502 186.885 12.8693 187.515 12.8693 187.515C15.0074 192.067 14.5186 192.284 26.7141 193.218C27.0211 193.241 27.4358 194.376 27.6711 195.173C26.4783 196.493 28.1257 197.351 28.1257 197.351C28.2422 197.856 27.9427 198.363 27.4768 198.457Z" fill="#6343F0"/>
<path fill-rule="evenodd" clip-rule="evenodd" d="M16.5731 191.242L16.6637 192.369L16.6159 192.375L16.5403 192.386L16.4753 192.396C16.3132 192.423 16.1315 192.461 15.9351 192.512C15.374 192.658 14.8134 192.877 14.2945 193.181C13.1273 193.865 12.3465 194.869 12.0908 196.276L12.0746 196.37L11.0603 196.171C11.3586 194.342 12.3569 193.035 13.8092 192.184C14.4131 191.83 15.0556 191.579 15.6976 191.412L15.7692 191.393L15.9063 191.36L16.0351 191.331L16.155 191.307L16.2656 191.286L16.3665 191.269C16.3825 191.267 16.398 191.264 16.4132 191.262L16.4986 191.251L16.5731 191.242Z" fill="#6343F0"/>
<path fill-rule="evenodd" clip-rule="evenodd" d="M16.5731 191.242L16.6637 192.369L16.6159 192.375L16.5403 192.386L16.4753 192.396C16.3132 192.423 16.1315 192.461 15.9351 192.512C15.374 192.658 14.8134 192.877 14.2945 193.181C13.1273 193.865 12.3465 194.869 12.0908 196.276L12.0746 196.37L11.0603 196.171C11.3586 194.342 12.3569 193.035 13.8092 192.184C14.4131 191.83 15.0556 191.579 15.6976 191.412L15.7692 191.393L15.9063 191.36L16.0351 191.331L16.155 191.307L16.2656 191.286L16.3665 191.269C16.3825 191.267 16.398 191.264 16.4132 191.262L16.4986 191.251L16.5731 191.242Z" fill="#797979" fill-opacity="0.2" style="mix-blend-mode:multiply"/>
<mask id="mask0_254_25063" style="mask-type:luminance" maskUnits="userSpaceOnUse" x="0" y="189" width="29" height="11">
<path fill-rule="evenodd" clip-rule="evenodd" d="M0.5 189.702H28.1509V200H0.5V189.702Z" fill="white"/>
</mask>
<g mask="url(#mask0_254_25063)">
<path fill-rule="evenodd" clip-rule="evenodd" d="M27.4768 198.457C24.5095 199.045 18.4147 200.6 14.1264 199.753C9.80991 198.9 6.36428 197.856 0.856843 192.908C0.517226 192.603 0.385749 192.101 0.614083 191.69L1.71825 189.702C12.0652 200.823 17.788 193.509 27.6711 195.173L28.1257 197.351C28.2422 197.856 27.9427 198.363 27.4768 198.457Z" fill="#362B42"/>
</g>
<path fill-rule="evenodd" clip-rule="evenodd" d="M6.09963 185.941L6.81946 190.098L5.90962 190.267L5.34497 186.081L6.09963 185.941Z" fill="white"/>
<path fill-rule="evenodd" clip-rule="evenodd" d="M8.09937 187.815L4.13587 189.059L3.91187 188.255L7.83065 186.851L8.09937 187.815Z" fill="white"/>
<path fill-rule="evenodd" clip-rule="evenodd" d="M9.99495 173.128L15.8814 176.36L15.5126 177.169L9.62622 173.937L9.99495 173.128Z" fill="#15AD8B"/>
<path fill-rule="evenodd" clip-rule="evenodd" d="M6.02613 198.718C5.30671 198.648 4.89744 198.105 5.2894 197.74C5.68157 197.376 6.5811 197.464 6.90835 197.898C7.23581 198.333 6.74576 198.789 6.02613 198.718Z" fill="#362B42"/>
<path fill-rule="evenodd" clip-rule="evenodd" d="M1.97586 198.018C1.55793 198.144 1.18472 197.775 1.30404 197.353C1.42336 196.932 1.94577 196.774 2.24438 197.07C2.54299 197.365 2.39378 197.892 1.97586 198.018Z" fill="#6343F0"/>
<path fill-rule="evenodd" clip-rule="evenodd" d="M0.72529 195.973C0.133228 195.932 -0.198146 195.239 0.128488 194.724C0.455122 194.21 1.19515 194.262 1.46037 194.817C1.72559 195.372 1.31735 196.015 0.72529 195.973Z" fill="white" fill-opacity="0.3" style="mix-blend-mode:lighten"/>
<path fill-rule="evenodd" clip-rule="evenodd" d="M15.8513 184.999L16.4074 185.951L13.5465 187.964L15.9599 189.291L15.4985 190.302L12.2754 188.531L12.228 187.549L15.8513 184.999Z" fill="#6343F0"/>
<path fill-rule="evenodd" clip-rule="evenodd" d="M72.9026 50.7234C72.7835 57.9295 67.9483 65.8806 67.9483 65.8806C67.9483 65.8806 66.1064 55.3166 72.9026 50.7234Z" fill="#362B42"/>
<path fill-rule="evenodd" clip-rule="evenodd" d="M76.5272 189.099L71.5857 189.456L68.8269 177.839L66.9038 169.741L73.745 167.751L74.8638 176.337L76.5272 189.099Z" fill="#FF9B89"/>
<path fill-rule="evenodd" clip-rule="evenodd" d="M76.5275 189.099L71.5859 189.456L68.8271 177.839L74.864 176.337L76.5275 189.099Z" fill="#15AD8B"/>
<path fill-rule="evenodd" clip-rule="evenodd" d="M76.5275 189.099L71.5859 189.456L68.8271 177.839L74.864 176.337L76.5275 189.099Z" fill="#797979" fill-opacity="0.2" style="mix-blend-mode:multiply"/>
<path fill-rule="evenodd" clip-rule="evenodd" d="M74.9885 175.895L75.1647 176.779L68.915 178.281L68.7388 177.397L74.9885 175.895Z" fill="#15AD8B"/>
<path fill-rule="evenodd" clip-rule="evenodd" d="M9.99495 173.128L15.8814 176.36L15.5126 177.169L9.62622 173.937L9.99495 173.128Z" fill="#797979" fill-opacity="0.2" style="mix-blend-mode:multiply"/>
<path fill-rule="evenodd" clip-rule="evenodd" d="M74.9885 175.895L75.1647 176.779L68.915 178.281L68.7388 177.397L74.9885 175.895Z" fill="#797979" fill-opacity="0.2" style="mix-blend-mode:multiply"/>
<path fill-rule="evenodd" clip-rule="evenodd" d="M98.495 197.858C81.7456 199.536 69.2119 198.203 69.2119 198.203L69.4353 195.238L70.1075 186.268C70.1075 186.268 78.3274 184.917 79.264 186.167C80.2004 187.418 77.4066 189.792 77.4066 189.792C82.5431 190.873 93.7367 193.125 97.3898 193.8C97.9322 193.9 98.3491 194.368 98.4472 194.946C98.4608 195.026 98.4676 195.106 98.4676 195.188L98.495 197.858Z" fill="#6343F0"/>
<path fill-rule="evenodd" clip-rule="evenodd" d="M87.3411 191.781L88.3546 191.986L87.7112 195.831L86.6978 195.626L87.3411 191.781Z" fill="#6343F0"/>
<path fill-rule="evenodd" clip-rule="evenodd" d="M98.495 197.857C81.7456 199.536 69.2119 198.202 69.2119 198.202L69.4353 195.238C71.8532 195.361 83.4911 195.859 98.4472 194.945C98.4608 195.025 98.4676 195.105 98.4676 195.188L98.495 197.857Z" fill="#362B42"/>
<path fill-rule="evenodd" clip-rule="evenodd" d="M74.1837 191.199L76.7374 193.707L76.2037 194.327L73.7798 191.668L74.1837 191.199Z" fill="white"/>
<path fill-rule="evenodd" clip-rule="evenodd" d="M76.7766 191.655L73.947 194.259L73.5581 193.775L76.2654 191.019L76.7766 191.655Z" fill="white"/>
<path fill-rule="evenodd" clip-rule="evenodd" d="M79.8321 184.748L80.6911 185.373L78.5225 188.967L81.7813 188.242L81.9859 189.351L77.5089 190.347L76.9771 189.48L79.8321 184.748Z" fill="#6343F0"/>
<path fill-rule="evenodd" clip-rule="evenodd" d="M15.8513 184.999L16.4074 185.951L13.5465 187.964L15.9599 189.291L15.4985 190.302L12.2754 188.531L12.228 187.549L15.8513 184.999Z" fill="#797979" fill-opacity="0.2" style="mix-blend-mode:multiply"/>
<path fill-rule="evenodd" clip-rule="evenodd" d="M87.3411 191.781L88.3546 191.986L87.7112 195.831L86.6978 195.626L87.3411 191.781Z" fill="#797979" fill-opacity="0.2" style="mix-blend-mode:multiply"/>
<path fill-rule="evenodd" clip-rule="evenodd" d="M79.8321 184.748L80.6911 185.373L78.5225 188.967L81.7813 188.242L81.9859 189.351L77.5089 190.347L76.9771 189.48L79.8321 184.748Z" fill="#797979" fill-opacity="0.2" style="mix-blend-mode:multiply"/>
<path fill-rule="evenodd" clip-rule="evenodd" d="M96.1104 58.5412C94.4489 63.0993 94.3342 70.6536 94.3342 70.6536C94.3342 70.6536 75.7255 67.1322 74.0089 66.3172C73.8218 66.2285 73.5877 66.093 73.3198 65.9249C71.1244 64.5424 66.6212 60.8484 66.6212 60.8484C66.6212 60.8484 65.4193 54.8143 70.6863 51.043L74.0386 53.3618L77.0424 55.4426C81.6816 54.7397 85.2871 57.7566 96.1104 58.5412Z" fill="#FF9B89"/>
<path fill-rule="evenodd" clip-rule="evenodd" d="M73.3196 65.9251C71.1244 64.5427 66.6212 60.8487 66.6212 60.8487C66.6212 60.8487 65.4193 54.8146 70.6861 51.0432L74.0386 53.362C69.0055 60.8602 72.7708 62.3338 73.3196 65.9251Z" fill="#797979" fill-opacity="0.2" style="mix-blend-mode:multiply"/>
<path fill-rule="evenodd" clip-rule="evenodd" d="M32.7014 64.868C31.1515 66.0693 29.841 70.4535 27.8256 78.2356C26.5087 83.3324 25.9544 89.8884 23.77 97.9623C23.77 97.9623 21.0415 99.4395 18.8426 97.6456C18.7581 88.0062 20.3223 76.9665 21.6288 69.7431C22.2697 66.2072 22.8467 63.5853 23.1394 62.4904C23.2074 62.2302 23.2607 62.056 23.296 61.9769C23.3764 61.7914 23.5206 61.5063 23.7061 61.1602C24.6293 59.4251 26.5788 56.1267 26.5788 56.1267L32.7014 64.868Z" fill="#FF9B89"/>
<path fill-rule="evenodd" clip-rule="evenodd" d="M32.701 64.8671C31.1523 66.0697 29.84 70.4528 27.8254 78.2358C26.4692 71.8303 30.0735 65.1478 23.7051 61.1588C24.6283 59.4239 26.5788 56.1267 26.5788 56.1267L32.701 64.8671Z" fill="#797979" fill-opacity="0.2" style="mix-blend-mode:multiply"/>
<path fill-rule="evenodd" clip-rule="evenodd" d="M67.9485 65.8808C67.038 65.3343 66.1319 64.7483 65.247 64.1459L65.2447 64.1434C60.3906 60.8324 56.249 57.0352 56.249 57.0352L57.0296 39.6409C59.8758 43.2206 66.3722 47.1461 70.1119 49.2314C71.7817 50.1607 72.9028 50.7236 72.9028 50.7236C66.1064 55.3166 67.9485 65.8808 67.9485 65.8808Z" fill="#FFC520"/>
<path fill-rule="evenodd" clip-rule="evenodd" d="M67.9485 65.8808C67.038 65.3343 66.1319 64.7483 65.247 64.1459L65.2447 64.1434C60.3906 60.8324 56.249 57.0352 56.249 57.0352L57.0296 39.6409C59.8758 43.2206 66.3722 47.1461 70.1119 49.2314C71.7817 50.1607 72.9028 50.7236 72.9028 50.7236C66.1064 55.3166 67.9485 65.8808 67.9485 65.8808Z" fill="#797979" fill-opacity="0.2" style="mix-blend-mode:multiply"/>
<path fill-rule="evenodd" clip-rule="evenodd" d="M67.9486 65.8808C67.0381 65.3343 66.132 64.7484 65.2471 64.1459L65.2449 64.1434C64.8451 61.7057 64.0282 53.3668 70.112 49.2314C71.7819 50.1608 72.9029 50.7236 72.9029 50.7236C66.1065 55.3166 67.9486 65.8808 67.9486 65.8808Z" fill="#797979" fill-opacity="0.2" style="mix-blend-mode:multiply"/>
<path fill-rule="evenodd" clip-rule="evenodd" d="M81.5072 166.298C72.7602 165.855 64.9045 174.901 64.9045 174.901C64.9045 174.901 52.5328 126.891 51.5777 123.339C48.991 113.716 46.3725 104.27 44.0793 96.5457L44.007 90.0797L43.8306 74.4927L57.1467 74.7893C57.1467 74.7893 69.5609 120.882 81.5072 166.298Z" fill="#FF4654"/>
<path fill-rule="evenodd" clip-rule="evenodd" d="M81.5072 166.298C72.7602 165.855 64.9045 174.901 64.9045 174.901C64.9045 174.901 52.5328 126.891 51.5777 123.339C48.991 113.716 46.3725 104.27 44.0793 96.5457L44.007 90.0797L43.8306 74.4927L57.1467 74.7893C57.1467 74.7893 69.5609 120.882 81.5072 166.298Z" fill="#797979" fill-opacity="0.2" style="mix-blend-mode:multiply"/>
<path fill-rule="evenodd" clip-rule="evenodd" d="M51.5778 123.339C48.9911 113.716 46.3727 104.27 44.0794 96.5456L44.0071 90.0797L50.2164 88.2278C46.6896 105.926 52.6286 110.062 51.5778 123.339Z" fill="#362B42"/>
<path fill-rule="evenodd" clip-rule="evenodd" d="M53.5516 75.0249L53.4473 77.2643L52.9921 86.9436C52.9517 87.8238 52.4497 88.5968 51.7054 88.9282L50.363 89.5261L24.8237 175.665C19.484 176.733 17.3987 174.063 11.8074 165.905C10.1472 163.483 9.92385 161.765 10.9907 161.346C23.3604 122.998 23.5372 97.4842 31.114 82.3222C32.6712 79.2096 34.5644 76.4728 36.9788 74.0698L53.5516 75.0249Z" fill="#FF4654"/>
<path fill-rule="evenodd" clip-rule="evenodd" d="M44.767 97.6387L45.5548 97.9053L44.9785 99.9532L44.4012 101.997L43.8228 104.038L43.2436 106.074L42.6635 108.107L42.0826 110.134L41.5011 112.157L40.919 114.176L40.3364 116.189L39.7533 118.197L39.17 120.2L38.5863 122.196L38.0026 124.187C37.9053 124.519 37.808 124.85 37.7106 125.181L37.1268 127.162C37.0295 127.492 36.9321 127.821 36.8348 128.151L36.2511 130.123L35.6675 132.088L35.0841 134.046L34.5011 135.998L33.9185 137.941L33.3364 139.878L32.7549 141.806L32.1741 143.727L31.3043 146.592L30.7255 148.492L30.1477 150.383L29.5709 152.265L28.7959 154.785L28.0787 157.109L27.3781 159.37L26.5822 161.928L25.5943 165.086L24.6478 168.095L23.4754 171.795L22.2211 175.709L21.4446 175.406L22.2181 172.999L23.2922 169.623L24.1796 166.813L24.9227 164.448L25.5795 162.349L26.5979 159.078L27.5354 156.05L28.5019 152.913L29.0779 151.037L29.6549 149.151L30.233 147.256L30.812 145.353L31.6821 142.483L32.263 140.559L32.8446 138.627L33.4267 136.688L34.0093 134.741L34.5922 132.787L35.1755 130.826L35.7589 128.858L36.3425 126.884L36.9262 124.903L37.5098 122.915C37.607 122.584 37.7043 122.252 37.8015 121.92L38.3849 119.924L38.968 117.922L39.5508 115.915L40.1332 113.902L40.7151 111.885L41.2963 109.863L41.877 107.836L42.4568 105.804L43.0358 103.769L43.6139 101.729L44.191 99.6857L44.767 97.6387Z" fill="#FF4654"/>
<path fill-rule="evenodd" clip-rule="evenodd" d="M58.2615 57.939C57.6383 62.3126 58.4721 67.6182 58.8591 69.694C58.9657 70.2616 58.8167 70.8523 58.4614 71.2819L57.4681 72.4845L54.2815 72.3888L35.9367 71.8307L34.905 70.1915C34.905 69.7922 35.4134 67.0553 36.2153 63.3426C38.1681 54.3101 41.8651 39.4986 44.2327 38.4781C47.5766 37.035 55.7919 38.207 57.668 40.108C58.5294 40.9812 58.3658 44.5703 59.1145 47.4309C59.6824 49.6004 60.4865 51.835 60.9801 53.1358C61.2459 53.8314 61.1097 54.6347 60.6376 55.1813L58.2615 57.939Z" fill="#FFC520"/>
<path fill-rule="evenodd" clip-rule="evenodd" d="M54.2815 72.3889L35.9367 71.8308L34.905 70.1916C34.905 69.7921 35.4134 67.0554 36.2153 63.3426C39.5189 61.101 41.9438 59.4382 42.0992 59.2842C38.2866 69.4581 50.1229 65.3042 54.2815 72.3889Z" fill="#797979" fill-opacity="0.2" style="mix-blend-mode:multiply"/>
<path fill-rule="evenodd" clip-rule="evenodd" d="M45.1279 55.2068C45.1279 55.2068 39.3802 62.1094 34.9048 66.5766C34.1326 67.3471 33.4008 68.043 32.7414 68.6199C32.7414 68.6199 27.5191 62.4598 24.7729 56.1033C24.7729 56.1033 25.7854 55.1437 27.4169 53.6142C31.2778 50.0041 38.6103 43.2206 44.2323 38.4778L45.1279 55.2068Z" fill="#FFC520"/>
<path fill-rule="evenodd" clip-rule="evenodd" d="M18.5957 134.748C22.8182 116.632 24.5073 102.715 27.5065 92.0271C27.8305 103.534 34.359 111.715 36.5128 117.557C38.9919 124.281 37.2835 130.57 18.5957 134.748Z" fill="#797979" fill-opacity="0.2" style="mix-blend-mode:multiply"/>
<path fill-rule="evenodd" clip-rule="evenodd" d="M34.9048 66.5764C34.1326 67.3469 33.4008 68.0428 32.7414 68.6197C32.7414 68.6197 27.5191 62.4596 24.7729 56.1034C24.7729 56.1034 25.7856 55.1435 27.4171 53.614H27.4213C31.2438 59.8698 34.9048 66.5764 34.9048 66.5764Z" fill="#797979" fill-opacity="0.2" style="mix-blend-mode:multiply"/>
<path fill-rule="evenodd" clip-rule="evenodd" d="M49.515 48.5272L50.078 47.8662L50.2294 48.0246L50.3523 48.1557L50.4834 48.2974L50.6219 48.4491C51.0277 48.8964 51.4336 49.3684 51.8133 49.8445C52.0791 50.1778 52.3227 50.5017 52.5395 50.8127C53.2316 51.8058 53.6211 52.612 53.622 53.2508C53.6228 53.8714 53.2152 54.5623 52.4882 55.371C52.1782 55.7159 51.8134 56.076 51.4048 56.4463C50.9442 56.8637 50.4521 57.2728 49.9601 57.6571L49.7921 57.7872L49.5574 57.9657L49.3499 58.1197L49.3008 58.1554L48.8494 57.3982L49.0212 57.2718L49.1653 57.1635L49.3193 57.046L49.4822 56.9198C49.9592 56.5472 50.4362 56.1508 50.88 55.7485C51.2685 55.3964 51.613 55.0563 51.9015 54.7354C52.4825 54.0892 52.7981 53.5542 52.7977 53.2521C52.7972 52.9378 52.564 52.4061 52.1398 51.7436L52.0424 51.5942C51.9922 51.5185 51.9396 51.4412 51.8848 51.3626C51.6798 51.0685 51.4476 50.7597 51.1931 50.4406C50.8261 49.9805 50.432 49.5222 50.0378 49.0877L49.9033 48.9403L49.7155 48.738L49.515 48.5272Z" fill="#797979" fill-opacity="0.2" style="mix-blend-mode:multiply"/>
<path fill-rule="evenodd" clip-rule="evenodd" d="M55.2669 38.8853C53.0225 37.8992 51.4112 37.6241 49.0254 37.9525C52.2563 44.9121 57.1945 43.8285 55.2669 38.8853Z" fill="#FF9B89"/>
<path fill-rule="evenodd" clip-rule="evenodd" d="M42.8031 83.4097C39.5025 83.2339 37.9596 81.775 39.6509 80.933C41.3424 80.0912 44.9995 80.4977 46.6087 81.5155C48.2178 82.5333 46.1036 83.5857 42.8031 83.4097Z" fill="#797979" fill-opacity="0.2" style="mix-blend-mode:multiply"/>
<path fill-rule="evenodd" clip-rule="evenodd" d="M58.554 79.6191L58.6962 80.5105C57.9657 80.6509 57.3922 80.8655 57.0352 81.1117C56.8915 81.2108 56.7958 81.3068 56.7495 81.3859L56.7357 81.4105L56.7266 81.4291C56.7468 81.5082 56.8422 81.5868 57.0064 81.656L57.0711 81.6815C57.1051 81.694 57.1414 81.7062 57.1801 81.7179L57.2607 81.7407L57.3473 81.7623L57.4401 81.7826C57.4561 81.7859 57.4723 81.7891 57.4887 81.7922L57.5905 81.8103C57.608 81.8131 57.6257 81.8159 57.6436 81.8187L57.7542 81.8343L57.8705 81.8481L57.9926 81.8601L58.1203 81.8702C58.1421 81.8717 58.164 81.8731 58.1862 81.8744L58.3222 81.8813C58.3685 81.8832 58.4156 81.8848 58.4637 81.886L58.6104 81.8883L58.7625 81.8882L58.9198 81.8856L59.0822 81.8803L59.2496 81.8723L59.422 81.8615L59.5993 81.8477L59.663 82.7499L59.5658 82.7578L59.3746 82.7713L59.1877 82.7818C59.1569 82.7833 59.1262 82.7846 59.0958 82.7858L58.9154 82.7917L58.7394 82.7944C57.147 82.8054 56.1253 82.4281 55.9328 81.6729C55.7127 80.8095 56.6067 80.0992 58.0853 79.7233L58.2377 79.6862C58.3149 79.6683 58.3935 79.6512 58.4735 79.635L58.554 79.6191Z" fill="#797979" fill-opacity="0.2" style="mix-blend-mode:multiply"/>
<path fill-rule="evenodd" clip-rule="evenodd" d="M23.7694 97.9636C24.8777 100.562 26.5542 102.455 27.1872 103.659C27.8205 104.864 27.4473 109.18 28.2492 112.377C29.0512 115.574 25.8881 117.141 24.0703 108.458C22.2525 99.7745 23.7694 97.9636 23.7694 97.9636Z" fill="#FF9B89"/>
<path fill-rule="evenodd" clip-rule="evenodd" d="M10.1195 108.436C17.7015 108.169 31.7008 105.827 35.6816 105.139C36.2127 105.047 36.6807 105.529 36.6275 106.117C35.9032 114.125 38.968 124.253 38.968 124.253C28.2461 126.949 11.8662 125.926 11.8662 125.926C8.20359 117.222 10.1195 108.436 10.1195 108.436Z" fill="white"/>
<path fill-rule="evenodd" clip-rule="evenodd" d="M10.1195 108.436C17.7015 108.169 31.7008 105.827 35.6816 105.139C36.2127 105.047 36.6807 105.529 36.6275 106.117C35.9032 114.125 38.968 124.253 38.968 124.253C28.2461 126.949 11.8662 125.926 11.8662 125.926C8.20359 117.222 10.1195 108.436 10.1195 108.436Z" fill="#797979" fill-opacity="0.2" style="mix-blend-mode:multiply"/>
<path fill-rule="evenodd" clip-rule="evenodd" d="M35.4301 104.78L35.9329 105.497L21.927 117.332L9.896 108.817L10.3427 108.056L21.8849 116.226L35.4301 104.78Z" fill="white"/>
<path fill-rule="evenodd" clip-rule="evenodd" d="M18.8429 97.646L16.4932 108.683C19.1299 108.522 21.5062 110.084 24.5652 109.139C24.8828 109.041 24.9834 108.326 24.9834 108.326L25.3053 101.995L23.7694 97.9636L18.8429 97.646Z" fill="#FF9B89"/>
<path fill-rule="evenodd" clip-rule="evenodd" d="M43.973 56.2937L44.5405 56.95L33.0252 68.948L32.4578 68.2917L43.973 56.2937Z" fill="#797979" fill-opacity="0.2" style="mix-blend-mode:multiply"/>
<path fill-rule="evenodd" clip-rule="evenodd" d="M73.0821 50.1272L73.5745 50.8529C69.1272 54.4893 67.6622 58.8796 68.3369 65.6237L68.358 65.8288L67.5392 65.9331C66.7898 58.8425 68.3054 54.1032 72.9406 50.2439L73.0821 50.1272Z" fill="#362B42"/>
<path fill-rule="evenodd" clip-rule="evenodd" d="M10.8746 163.333L10.9701 163.515L11.1607 163.874L11.351 164.227L11.5408 164.574L11.7301 164.916C11.7617 164.972 11.7932 165.028 11.8247 165.084L12.0134 165.417C12.0448 165.472 12.0762 165.527 12.1075 165.581L12.2956 165.905C12.3582 166.012 12.4207 166.118 12.4832 166.223L12.6703 166.536L12.8571 166.843L13.0433 167.144C13.0743 167.194 13.1053 167.243 13.1363 167.293L13.3219 167.585L13.5071 167.872C13.5379 167.92 13.5687 167.967 13.5995 168.014L13.784 168.292L13.968 168.565L14.1516 168.833C14.2738 169.009 14.3957 169.182 14.5174 169.351L14.6996 169.601C14.7603 169.684 14.8208 169.766 14.8814 169.847L15.0627 170.087C15.4248 170.561 15.7842 171.002 16.1409 171.412L16.3189 171.614L16.4966 171.81C16.9991 172.36 17.4961 172.846 17.9874 173.271L18.1605 173.418L18.3332 173.56C18.7067 173.863 19.077 174.13 19.4438 174.362C21.4476 175.628 23.22 175.792 24.8461 175.176L24.9301 175.144L25.21 175.995C23.3366 176.737 21.2847 176.57 19.0324 175.146C17.9732 174.476 16.8956 173.541 15.7992 172.323L15.6163 172.117C15.5552 172.048 15.4942 171.978 15.433 171.906L15.2494 171.69C15.2188 171.654 15.1881 171.617 15.1575 171.58L14.9734 171.356C14.7891 171.129 14.6043 170.894 14.4189 170.651L14.2334 170.406C13.9549 170.033 13.6752 169.642 13.3943 169.233L13.2068 168.957C13.1443 168.864 13.0817 168.771 13.019 168.676L12.8309 168.389C12.7995 168.341 12.7681 168.293 12.7367 168.244L12.548 167.949C12.5166 167.899 12.4851 167.849 12.4536 167.799L12.2644 167.496L12.0748 167.187L11.8849 166.872L11.6947 166.552L11.5041 166.226L11.3131 165.894C11.2812 165.838 11.2494 165.782 11.2175 165.726L11.026 165.386L10.8342 165.04C10.8022 164.982 10.7701 164.923 10.7381 164.865L10.5457 164.51C10.4815 164.391 10.4173 164.271 10.353 164.15L10.1599 163.784L10.8746 163.333Z" fill="#FF4654"/>
<path fill-rule="evenodd" clip-rule="evenodd" d="M44.767 97.6387L45.5548 97.9053L44.9785 99.9532L44.4012 101.997L43.8228 104.038L43.2436 106.074L42.6635 108.107L42.0826 110.134L41.5011 112.157L40.919 114.176L40.3364 116.189L39.7533 118.197L39.17 120.2L38.5863 122.196L38.0026 124.187C37.9053 124.519 37.808 124.85 37.7106 125.181L37.1268 127.162C37.0295 127.492 36.9321 127.821 36.8348 128.151L36.2511 130.123L35.6675 132.088L35.0841 134.046L34.5011 135.998L33.9185 137.941L33.3364 139.878L32.7549 141.806L32.1741 143.727L31.3043 146.592L30.7255 148.492L30.1477 150.383L29.5709 152.265L28.7959 154.785L28.0787 157.109L27.3781 159.37L26.5822 161.928L25.5943 165.086L24.6478 168.095L23.4754 171.795L22.2211 175.709L21.4446 175.406L22.2181 172.999L23.2922 169.623L24.1796 166.813L24.9227 164.448L25.5795 162.349L26.5979 159.078L27.5354 156.05L28.5019 152.913L29.0779 151.037L29.6549 149.151L30.233 147.256L30.812 145.353L31.6821 142.483L32.263 140.559L32.8446 138.627L33.4267 136.688L34.0093 134.741L34.5922 132.787L35.1755 130.826L35.7589 128.858L36.3425 126.884L36.9262 124.903L37.5098 122.915C37.607 122.584 37.7043 122.252 37.8015 121.92L38.3849 119.924L38.968 117.922L39.5508 115.915L40.1332 113.902L40.7151 111.885L41.2963 109.863L41.877 107.836L42.4568 105.804L43.0358 103.769L43.6139 101.729L44.191 99.6857L44.767 97.6387Z" fill="#797979" fill-opacity="0.2" style="mix-blend-mode:multiply"/>
<path fill-rule="evenodd" clip-rule="evenodd" d="M10.8746 163.333L10.9701 163.515L11.1607 163.874L11.351 164.227L11.5408 164.574L11.7301 164.916C11.7617 164.972 11.7932 165.028 11.8247 165.084L12.0134 165.417C12.0448 165.472 12.0762 165.527 12.1075 165.581L12.2956 165.905C12.3582 166.012 12.4207 166.118 12.4832 166.223L12.6703 166.536L12.8571 166.843L13.0433 167.144C13.0743 167.194 13.1053 167.243 13.1363 167.293L13.3219 167.585L13.5071 167.872C13.5379 167.92 13.5687 167.967 13.5995 168.014L13.784 168.292L13.968 168.565L14.1516 168.833C14.2738 169.009 14.3957 169.182 14.5174 169.351L14.6996 169.601C14.7603 169.684 14.8208 169.766 14.8814 169.847L15.0627 170.087C15.4248 170.561 15.7842 171.002 16.1409 171.412L16.3189 171.614L16.4966 171.81C16.9991 172.36 17.4961 172.846 17.9874 173.271L18.1605 173.418L18.3332 173.56C18.7067 173.863 19.077 174.13 19.4438 174.362C21.4476 175.628 23.22 175.792 24.8461 175.176L24.9301 175.144L25.21 175.995C23.3366 176.737 21.2847 176.57 19.0324 175.146C17.9732 174.476 16.8956 173.541 15.7992 172.323L15.6163 172.117C15.5552 172.048 15.4942 171.978 15.433 171.906L15.2494 171.69C15.2188 171.654 15.1881 171.617 15.1575 171.58L14.9734 171.356C14.7891 171.129 14.6043 170.894 14.4189 170.651L14.2334 170.406C13.9549 170.033 13.6752 169.642 13.3943 169.233L13.2068 168.957C13.1443 168.864 13.0817 168.771 13.019 168.676L12.8309 168.389C12.7995 168.341 12.7681 168.293 12.7367 168.244L12.548 167.949C12.5166 167.899 12.4851 167.849 12.4536 167.799L12.2644 167.496L12.0748 167.187L11.8849 166.872L11.6947 166.552L11.5041 166.226L11.3131 165.894C11.2812 165.838 11.2494 165.782 11.2175 165.726L11.026 165.386L10.8342 165.04C10.8022 164.982 10.7701 164.923 10.7381 164.865L10.5457 164.51C10.4815 164.391 10.4173 164.271 10.353 164.15L10.1599 163.784L10.8746 163.333Z" fill="#797979" fill-opacity="0.2" style="mix-blend-mode:multiply"/>
<path fill-rule="evenodd" clip-rule="evenodd" d="M53.5518 75.0249L53.4476 77.2643C35.9388 77.7172 35.1538 81.8761 31.1143 82.3222C32.6714 79.2096 34.5646 76.4728 36.979 74.0698L53.5518 75.0249Z" fill="#797979" fill-opacity="0.2" style="mix-blend-mode:multiply"/>
<path fill-rule="evenodd" clip-rule="evenodd" d="M44.0459 37.8757C45.0223 38.6382 45.751 39.574 46.2574 40.6425C46.9918 42.1918 47.1927 43.8056 47.0939 45.202L47.0815 45.3585L47.0697 45.4783L47.0623 45.5406L47.0558 45.5884L46.2423 45.4421L46.252 45.3637L46.2613 45.2684L46.2646 45.23C46.369 43.9664 46.1963 42.4739 45.5262 41.0601C45.0961 40.1528 44.4852 39.3545 43.6673 38.6919L43.5681 38.6131L44.0459 37.8757Z" fill="#797979" fill-opacity="0.2" style="mix-blend-mode:multiply"/>
<path fill-rule="evenodd" clip-rule="evenodd" d="M95.868 58.3308L96.3529 58.7517C95.6879 59.675 95.2237 60.8734 94.9375 62.2829C94.5891 63.9989 94.5321 65.8268 94.6442 67.4739L94.6573 67.6538L94.6708 67.8161L94.6865 67.98L94.6924 68.0338L94.0792 68.1208L94.0695 68.0299L94.0556 67.8825L94.0414 67.7123L94.0277 67.5245C93.9115 65.8167 93.9704 63.9265 94.3341 62.1352C94.6285 60.6852 95.1046 59.4323 95.7934 58.4365L95.868 58.3308Z" fill="#FF9B89"/>
<path fill-rule="evenodd" clip-rule="evenodd" d="M25.0068 107.866L24.7201 113.128C24.688 113.658 24.751 114.189 24.906 114.692L25.8212 117.667L26.647 119.871C26.7896 120.655 26.6667 121.469 26.3016 122.161L26.2719 122.217C26.1161 122.512 25.7314 122.523 25.5622 122.237L23.7402 119.157L21.7505 114.798L21.3345 107.235L25.0068 107.866Z" fill="#FF9B89"/>
<path fill-rule="evenodd" clip-rule="evenodd" d="M21.5473 107.235L22.3364 115.379L24.1185 117.308L24.8843 120.104L22.7353 120.249C22.3493 120.275 21.9753 120.097 21.7295 119.769L19.8593 116.427C19.8593 116.427 19.2895 108.885 19.227 108.321C19.1644 107.757 21.5473 107.235 21.5473 107.235Z" fill="#FF9B89"/>
<path fill-rule="evenodd" clip-rule="evenodd" d="M19.6523 108.321L18.4587 108.263C17.7787 108.193 16.5476 107.935 16.4932 108.683L16.7703 114.341C16.7386 114.777 16.92 115.199 17.2464 115.45L17.8335 115.9L18.9954 117.944C19.2565 118.403 19.7261 118.668 20.2184 118.634L21.8856 118.517L19.6523 108.321Z" fill="#FF9B89"/>
<path fill-rule="evenodd" clip-rule="evenodd" d="M21.8587 109.815C22.0192 109.806 22.1577 109.932 22.1812 110.103L22.1842 110.136L22.395 114.384C22.4152 114.791 22.5127 115.188 22.6808 115.551L22.7209 115.634L25.8329 121.84C25.9152 122.004 25.8607 122.21 25.7111 122.301C25.5704 122.386 25.3956 122.338 25.3069 122.195L25.2913 122.167L22.1793 115.961C21.9576 115.519 21.8233 115.031 21.7845 114.529L21.7777 114.421L21.5669 110.173C21.5576 109.986 21.6882 109.826 21.8587 109.815Z" fill="#FF9B89"/>
<path fill-rule="evenodd" clip-rule="evenodd" d="M19.678 110.282C19.8387 110.282 19.971 110.416 19.9864 110.588L19.9879 110.62L19.9971 114.769C19.9984 115.34 20.1364 115.9 20.3969 116.394L20.4441 116.48L22.2047 119.59C22.2948 119.749 22.2503 119.958 22.1053 120.057C21.9688 120.15 21.7919 120.112 21.6965 119.975L21.6796 119.948L19.919 116.838C19.5842 116.247 19.3987 115.569 19.3804 114.875L19.3789 114.77L19.3696 110.622C19.3692 110.435 19.5073 110.282 19.678 110.282Z" fill="#FF9B89"/>
<path fill-rule="evenodd" clip-rule="evenodd" d="M19.4385 108.15C20.428 107.674 21.2318 107.468 22.4488 107.507C22.6194 107.513 22.7537 107.669 22.7488 107.856C22.7438 108.044 22.6014 108.191 22.4308 108.186C21.3526 108.151 20.6481 108.321 19.7805 108.727L19.0857 109.063L19.0678 109.071C18.1685 109.481 17.4411 109.547 16.3453 109.19C16.1816 109.136 16.0883 108.947 16.1369 108.768C16.1855 108.588 16.3575 108.486 16.5212 108.539C17.4436 108.839 18.0191 108.8 18.7563 108.478L18.9043 108.41L19.4385 108.15Z" fill="#FF9B89"/>
<path fill-rule="evenodd" clip-rule="evenodd" d="M17.8186 110.749C17.979 110.741 18.1169 110.868 18.1394 111.039L18.1423 111.072L18.355 115.883C18.3632 116.07 18.2317 116.23 18.0612 116.239C17.9007 116.247 17.7629 116.12 17.7403 115.949L17.7375 115.916L17.5248 111.105C17.5165 110.918 17.648 110.759 17.8186 110.749Z" fill="#FF9B89"/>
<path fill-rule="evenodd" clip-rule="evenodd" d="M95.868 58.3308L96.3529 58.7517C95.6879 59.675 95.2237 60.8734 94.9375 62.2829C94.5891 63.9989 94.5321 65.8268 94.6442 67.4739L94.6573 67.6538L94.6708 67.8161L94.6865 67.98L94.6924 68.0338L94.0792 68.1208L94.0695 68.0299L94.0556 67.8825L94.0414 67.7123L94.0277 67.5245C93.9115 65.8167 93.9704 63.9265 94.3341 62.1352C94.6285 60.6852 95.1046 59.4323 95.7934 58.4365L95.868 58.3308Z" fill="#797979" fill-opacity="0.2" style="mix-blend-mode:multiply"/>
<path fill-rule="evenodd" clip-rule="evenodd" d="M21.8587 109.815C22.0192 109.806 22.1577 109.932 22.1812 110.103L22.1842 110.136L22.395 114.384C22.4152 114.791 22.5127 115.188 22.6808 115.551L22.7209 115.634L25.8329 121.84C25.9152 122.004 25.8607 122.21 25.7111 122.301C25.5704 122.386 25.3956 122.338 25.3069 122.195L25.2913 122.167L22.1793 115.961C21.9576 115.519 21.8233 115.031 21.7845 114.529L21.7777 114.421L21.5669 110.173C21.5576 109.986 21.6882 109.826 21.8587 109.815Z" fill="#797979" fill-opacity="0.2" style="mix-blend-mode:multiply"/>
<path fill-rule="evenodd" clip-rule="evenodd" d="M19.678 110.282C19.8387 110.282 19.971 110.416 19.9864 110.588L19.9879 110.62L19.9971 114.769C19.9984 115.34 20.1364 115.9 20.3969 116.394L20.4441 116.48L22.2047 119.59C22.2948 119.749 22.2503 119.958 22.1053 120.057C21.9688 120.15 21.7919 120.112 21.6965 119.975L21.6796 119.948L19.919 116.838C19.5842 116.247 19.3987 115.569 19.3804 114.875L19.3789 114.77L19.3696 110.622C19.3692 110.435 19.5073 110.282 19.678 110.282Z" fill="#797979" fill-opacity="0.2" style="mix-blend-mode:multiply"/>
<path fill-rule="evenodd" clip-rule="evenodd" d="M19.4385 108.15C20.428 107.674 21.2318 107.468 22.4488 107.507C22.6194 107.513 22.7537 107.669 22.7488 107.856C22.7438 108.044 22.6014 108.191 22.4308 108.186C21.3526 108.151 20.6481 108.321 19.7805 108.727L19.0857 109.063L19.0678 109.071C18.1685 109.481 17.4411 109.547 16.3453 109.19C16.1816 109.136 16.0883 108.947 16.1369 108.768C16.1855 108.588 16.3575 108.486 16.5212 108.539C17.4436 108.839 18.0191 108.8 18.7563 108.478L18.9043 108.41L19.4385 108.15Z" fill="#797979" fill-opacity="0.2" style="mix-blend-mode:multiply"/>
<path fill-rule="evenodd" clip-rule="evenodd" d="M17.8186 110.749C17.979 110.741 18.1169 110.868 18.1394 111.039L18.1423 111.072L18.355 115.883C18.3632 116.07 18.2317 116.23 18.0612 116.239C17.9007 116.247 17.7629 116.12 17.7403 115.949L17.7375 115.916L17.5248 111.105C17.5165 110.918 17.648 110.759 17.8186 110.749Z" fill="#797979" fill-opacity="0.2" style="mix-blend-mode:multiply"/>
<path fill-rule="evenodd" clip-rule="evenodd" d="M57.4687 76.3019V72.4855C44.8899 71.8957 35.9362 71.8303 35.9362 71.8303L35.2397 75.2692C35.1756 75.5856 35.3889 75.8895 35.684 75.9039C50.5319 76.6337 57.4687 76.3019 57.4687 76.3019Z" fill="#362B42"/>
<path fill-rule="evenodd" clip-rule="evenodd" d="M61.7769 15.335C63.514 18.1518 63.813 20.8051 62.9228 23.2889C62.2739 25.0994 61.1026 26.6357 59.4004 28.2404L59.2808 28.3524L58.7476 27.6623C60.42 26.1051 61.5523 24.6413 62.1557 22.9576C62.9334 20.7876 62.6886 18.4833 61.1624 15.954L61.0943 15.8422L61.7769 15.335Z" fill="#7D3F50"/>
<path fill-rule="evenodd" clip-rule="evenodd" d="M61.7769 15.335C63.514 18.1518 63.813 20.8051 62.9228 23.2889C62.2739 25.0994 61.1026 26.6357 59.4004 28.2404L59.2808 28.3524L58.7476 27.6623C60.42 26.1051 61.5523 24.6413 62.1557 22.9576C62.9334 20.7876 62.6886 18.4833 61.1624 15.954L61.0943 15.8422L61.7769 15.335Z" fill="#797979" fill-opacity="0.2" style="mix-blend-mode:multiply"/>
<path fill-rule="evenodd" clip-rule="evenodd" d="M58.7863 30.491C58.3782 32.6291 57.8008 34.7567 56.9944 36.7321C56.9944 36.7321 54.0863 36.7701 50.7645 36.7934C49.4095 36.7997 47.9874 36.8061 46.667 36.8061L46.0337 34.8664C45.9703 34.6744 45.7277 34.6594 45.6469 34.8434L44.7655 36.7975C43.526 36.7891 42.3155 36.7681 41.7401 36.7321C38.3565 31.5769 40.5795 27.0852 42.8601 24.5266C43.8089 23.4641 44.4711 22.1309 44.7309 20.6688C46.3303 11.6959 53.3032 9.3866 59.381 13.4073C59.381 13.4073 60.4048 22.0294 58.7863 30.491Z" fill="#7D3F50"/>
<path fill-rule="evenodd" clip-rule="evenodd" d="M49.6462 28.6716L50.0595 29.1764L50.0204 29.2176L49.9882 29.2533C49.9252 29.3242 49.8543 29.41 49.7774 29.5107C49.555 29.8019 49.3318 30.1519 49.1228 30.5604C48.3171 32.136 47.9534 34.0801 48.2797 36.3984L48.3001 36.5379L47.6903 36.6494C47.3051 34.1111 47.6953 31.9654 48.5838 30.2282C48.8121 29.7817 49.0574 29.3972 49.3036 29.0747L49.376 28.9815L49.4429 28.8988C49.4536 28.8858 49.464 28.8733 49.4742 28.8613L49.5319 28.7941L49.583 28.7373L49.627 28.6909L49.6462 28.6716Z" fill="#7D3F50"/>
<path fill-rule="evenodd" clip-rule="evenodd" d="M49.6462 28.6716L50.0595 29.1764L50.0204 29.2176L49.9882 29.2533C49.9252 29.3242 49.8543 29.41 49.7774 29.5107C49.555 29.8019 49.3318 30.1519 49.1228 30.5604C48.3171 32.136 47.9534 34.0801 48.2797 36.3984L48.3001 36.5379L47.6903 36.6494C47.3051 34.1111 47.6953 31.9654 48.5838 30.2282C48.8121 29.7817 49.0574 29.3972 49.3036 29.0747L49.376 28.9815L49.4429 28.8988C49.4536 28.8858 49.464 28.8733 49.4742 28.8613L49.5319 28.7941L49.583 28.7373L49.627 28.6909L49.6462 28.6716Z" fill="#797979" fill-opacity="0.2" style="mix-blend-mode:multiply"/>
<path fill-rule="evenodd" clip-rule="evenodd" d="M58.6832 13.6128C62.4644 14.2675 64.2805 19.3175 60.7292 24.7109C57.888 21.9125 58.6832 13.6128 58.6832 13.6128Z" fill="#7D3F50"/>
<path fill-rule="evenodd" clip-rule="evenodd" d="M58.6832 13.6128C62.4644 14.2675 64.2805 19.3175 60.7292 24.7109C57.888 21.9125 58.6832 13.6128 58.6832 13.6128Z" fill="#797979" fill-opacity="0.2" style="mix-blend-mode:multiply"/>
<path fill-rule="evenodd" clip-rule="evenodd" d="M58.7862 30.4911C58.3782 32.6291 57.8007 34.7568 56.9944 36.7321C56.9944 36.7321 54.0862 36.7701 50.7644 36.7934L51.8133 28.9233L58.7862 30.4911Z" fill="#797979" fill-opacity="0.2" style="mix-blend-mode:multiply"/>
<path fill-rule="evenodd" clip-rule="evenodd" d="M61.1268 22.7288C61.8829 28.6297 60.0047 34.9596 55.7302 33.4046L55.2566 36.3878L54.8517 39.1072C54.1069 42.2257 52.8309 41.8624 49.205 38.2643C49.5656 35.5112 49.8403 34.1253 49.5681 31.8604C49.0022 27.152 47.1868 23.3258 48.2589 19.6653C49.8467 14.2441 55.0471 13.6735 57.9338 14.6707C60.8189 15.6659 62.3488 19.5429 61.1268 22.7288Z" fill="#FF9B89"/>
<path fill-rule="evenodd" clip-rule="evenodd" d="M55.7301 33.4045L55.2565 36.3877C52.2736 34.556 52.0271 30.7869 52.0271 30.7869C53.8767 32.8636 55.7301 33.4045 55.7301 33.4045Z" fill="#797979" fill-opacity="0.2" style="mix-blend-mode:multiply"/>
<path fill-rule="evenodd" clip-rule="evenodd" d="M54.7178 26.7244C54.7178 28.5862 55.8725 29.5927 57.8058 29.3183L57.8786 29.3074L57.9661 29.9793C55.6566 30.3417 54.1326 29.0687 54.1001 26.7987L54.0996 26.7244H54.7178Z" fill="#797979" fill-opacity="0.2" style="mix-blend-mode:multiply"/>
<path fill-rule="evenodd" clip-rule="evenodd" d="M58.1371 24.5584L58.746 24.4409L58.788 24.7131C58.8193 24.9214 58.8507 25.1397 58.88 25.3575L58.9118 25.6008C58.9168 25.6405 58.9217 25.6797 58.9265 25.7184L58.946 25.8824L58.9634 26.0369L58.985 26.2503C58.9871 26.2728 58.9891 26.2949 58.991 26.3166L59.0011 26.4418C59.0026 26.4619 59.0039 26.4815 59.0052 26.5007L59.0114 26.6111L59.015 26.7116C59.0176 26.823 59.0145 26.9141 59.0053 26.9843C58.9488 27.4145 58.6185 27.5495 58.1832 27.5313C58.0629 27.5263 57.9377 27.509 57.8121 27.4835L57.74 27.468L57.6781 27.4531L57.6275 27.4397L57.6069 27.4337L57.7685 26.7787L57.8307 26.7952L57.8903 26.8089C57.9013 26.8113 57.9128 26.8137 57.9247 26.8162C58.0231 26.8362 58.1198 26.8495 58.2068 26.8531C58.2785 26.8561 58.3385 26.8521 58.3811 26.8429L58.397 26.8386L58.3982 26.7915L58.397 26.7191L58.3934 26.6333C58.3926 26.6179 58.3917 26.602 58.3907 26.5856L58.3834 26.4812L58.368 26.3031L58.3549 26.1712L58.3396 26.0295L58.3137 25.8088L58.2843 25.5767L58.2684 25.4566C58.2492 25.3142 58.2291 25.1713 58.2088 25.0313L58.1371 24.5584Z" fill="#797979" fill-opacity="0.2" style="mix-blend-mode:multiply"/>
<path fill-rule="evenodd" clip-rule="evenodd" d="M60.4293 24.3381C60.4147 24.8493 60.0007 25.155 59.6839 24.8882C59.3674 24.6215 59.3855 23.9824 59.7167 23.7379C60.0478 23.4933 60.4437 23.8268 60.4293 24.3381Z" fill="#362B42"/>
<path fill-rule="evenodd" clip-rule="evenodd" d="M57.042 24.0563C57.023 24.721 56.4847 25.1185 56.073 24.7717C55.6615 24.4249 55.6852 23.5939 56.1157 23.2761C56.5464 22.9582 57.0609 23.3917 57.042 24.0563Z" fill="#362B42"/>
<path fill-rule="evenodd" clip-rule="evenodd" d="M54.2556 21.5344C53.8967 22.7429 58.1487 22.5063 58.1487 21.4292C58.1487 20.3522 54.6146 20.326 54.2556 21.5344Z" fill="#7D3F50"/>
<path fill-rule="evenodd" clip-rule="evenodd" d="M59.7352 21.9472C59.2369 22.8469 62.2881 23.2928 62.3208 22.3393C62.3538 21.3857 60.2335 21.0475 59.7352 21.9472Z" fill="#7D3F50"/>
<path fill-rule="evenodd" clip-rule="evenodd" d="M54.2556 21.5344C53.8967 22.7429 58.1487 22.5063 58.1487 21.4292C58.1487 20.3522 54.6146 20.326 54.2556 21.5344Z" fill="#7D3F50"/>
<path fill-rule="evenodd" clip-rule="evenodd" d="M59.7352 21.9472C59.2369 22.8469 62.2881 23.2928 62.3208 22.3393C62.3538 21.3857 60.2335 21.0475 59.7352 21.9472Z" fill="#7D3F50"/>
<path fill-rule="evenodd" clip-rule="evenodd" d="M48.1867 29.1972C47.6911 29.8774 46.8425 29.8295 46.6593 29.1108C46.4761 28.3921 47.0957 27.5419 47.7746 27.5804C48.4536 27.6186 48.6825 28.5169 48.1867 29.1972Z" fill="white"/>
<path fill-rule="evenodd" clip-rule="evenodd" d="M59.3803 13.4067C59.2041 16.7251 52.9692 20.9732 51.7697 24.2792C51.5574 24.8642 51.0453 25.2524 50.4716 25.266C49.0556 25.2997 47.2246 24.3907 47.2246 24.3907C47.2246 16.8803 50.1019 10.9634 59.3803 13.4067Z" fill="#7D3F50"/>
<path fill-rule="evenodd" clip-rule="evenodd" d="M40.1805 11.7734C36.3301 8.79536 36.6042 2.75767 40.6738 0.905346C44.7433 -0.946975 49.5564 2.77554 49.3372 7.60565C49.1179 12.436 44.0311 14.7514 40.1805 11.7734Z" fill="#7D3F50"/>
<path fill-rule="evenodd" clip-rule="evenodd" d="M38.384 2.91797L38.8802 3.32268C36.9365 6.19507 36.9611 9.15969 38.6254 11.104C40.2431 12.994 43.0156 13.4409 45.7045 12.0176L45.7941 11.9694L46.0691 12.5773C43.1162 14.1873 40.0041 13.7057 38.1748 11.5688C36.3152 9.39621 36.2695 6.11019 38.3211 3.0118L38.384 2.91797Z" fill="#7D3F50"/>
<path fill-rule="evenodd" clip-rule="evenodd" d="M41.8663 0.266718C41.5982 0.797213 41.3074 1.30825 41.1021 1.84508C40.8853 2.3697 40.7246 2.92032 40.7407 3.40105C40.7339 4.35345 41.6897 4.94684 42.5908 5.75016C43.0362 6.15668 43.4935 6.64669 43.7939 7.27581C44.0985 7.89906 44.2308 8.618 44.1978 9.28853C44.2015 9.45887 44.1768 9.62221 44.1585 9.7869L44.1296 10.0326C44.1175 10.114 44.0964 10.1918 44.0802 10.2712C44.0441 10.4289 44.0132 10.5882 43.9724 10.7427L43.8327 11.197C43.7877 11.3492 43.7302 11.494 43.6715 11.6381L43.4968 12.0697C43.3692 12.3502 43.2282 12.6222 43.0902 12.8934L42.7258 12.7081L42.9731 11.846C43.0351 11.5553 43.1287 11.2741 43.174 10.9848L43.2567 10.5558C43.2789 10.4131 43.2909 10.2701 43.3086 10.1283C43.3296 9.98598 43.3346 9.84527 43.3389 9.70546C43.3439 9.56565 43.356 9.42539 43.3412 9.28989C43.3185 8.74152 43.2017 8.22912 42.9587 7.78663C42.8435 7.56244 42.6902 7.3568 42.5272 7.15592C42.3539 6.96001 42.168 6.77111 41.9598 6.58968C41.5534 6.21799 41.0898 5.86825 40.6451 5.38707C40.4301 5.14139 40.2148 4.85839 40.0709 4.50593C39.9875 4.33965 39.9489 4.1442 39.9017 3.96073C39.8828 3.7707 39.851 3.57773 39.8712 3.39449C39.9065 2.64592 40.1869 2.0333 40.4862 1.48607C40.7932 0.936115 41.1609 0.456746 41.5464 0L41.8663 0.266718Z" fill="#797979" fill-opacity="0.2" style="mix-blend-mode:multiply"/>
<path fill-rule="evenodd" clip-rule="evenodd" d="M47.377 1.95098C47.1905 2.58757 47.0801 3.23751 47.0743 3.89107C47.07 4.21729 47.0846 4.54396 47.1281 4.86791C47.1683 5.19163 47.2235 5.51446 47.3063 5.83117C47.4613 6.46731 47.689 7.08603 47.961 7.6844C48.2355 8.27755 48.5508 8.87026 48.9022 9.408L48.6057 9.70525C48.1319 9.19625 47.7453 8.62956 47.4156 8.00925C47.249 7.70136 47.1056 7.37854 46.9733 7.04893C46.8476 6.71638 46.7382 6.37479 46.6518 6.02459C46.4833 5.32465 46.4012 4.58739 46.4602 3.85737C46.5061 3.12666 46.7062 2.41293 47.0085 1.77588L47.377 1.95098Z" fill="#797979" fill-opacity="0.2" style="mix-blend-mode:multiply"/>
<path fill-rule="evenodd" clip-rule="evenodd" d="M59.2678 13.7811C58.0103 13.9757 56.7941 14.4105 55.7146 15.1174C55.1764 15.4706 54.6618 15.8708 54.1977 16.3372C53.7278 16.7951 53.2872 17.2917 52.8874 17.8285C52.0903 18.9055 51.4354 20.1088 50.8825 21.3671C50.3323 22.6233 49.8556 23.9417 49.4913 25.276L49.4878 25.2882C49.4529 25.4163 49.3299 25.4889 49.2133 25.4507C49.1057 25.4154 49.0412 25.2977 49.0591 25.1794C49.2763 23.7352 49.6903 22.3584 50.2381 21.0339C50.7867 19.7116 51.4993 18.4669 52.3471 17.3378C52.7749 16.7763 53.2454 16.2517 53.753 15.7726C54.2605 15.293 54.8225 14.8822 55.4076 14.5247C56.5785 13.8008 57.9032 13.4081 59.2248 13.2993C59.3461 13.2893 59.4521 13.3893 59.4611 13.5226C59.4698 13.6504 59.3865 13.7623 59.2726 13.7804L59.2678 13.7811Z" fill="#797979" fill-opacity="0.2" style="mix-blend-mode:multiply"/>
<path fill-rule="evenodd" clip-rule="evenodd" d="M56.4194 12.3552L55.538 12.4615C55.2474 12.5135 54.956 12.5613 54.6677 12.6185C54.0956 12.7572 53.5258 12.9038 52.9861 13.1314C52.44 13.3411 51.9269 13.6315 51.4519 13.9729C50.9744 14.3118 50.5466 14.7247 50.174 15.1911C49.8014 15.6578 49.4782 16.1741 49.2058 16.7279C48.9348 17.2832 48.7118 17.8714 48.5056 18.4721C48.0994 19.6762 47.7723 20.9397 47.3579 22.1934C47.15 22.8196 46.9144 23.4438 46.6278 24.046C46.3438 24.6491 46.0048 25.2312 45.5918 25.7515L44.9919 26.4788L44.7242 26.8487L44.4796 27.2373C44.1682 27.7669 43.9189 28.3408 43.7332 28.9412C43.3627 30.1445 43.2524 31.4419 43.3188 32.7251C43.3915 34.0059 43.6262 35.3004 44.0238 36.4992L44.0279 36.5116C44.0654 36.6247 44.0122 36.7496 43.9094 36.7908C43.8078 36.8313 43.6955 36.7747 43.6565 36.6645C43.2131 35.4033 42.9548 34.0982 42.8526 32.7604C42.7599 31.4265 42.8483 30.0572 43.2223 28.7578C43.4097 28.1099 43.6679 27.4835 43.9953 26.9016L44.2533 26.474L44.5367 26.0662L45.1253 25.3169C45.8488 24.3482 46.3022 23.1572 46.6595 21.9281C47.0274 20.6988 47.3146 19.4179 47.7521 18.1617C47.9669 17.5332 48.2197 16.9127 48.5216 16.3141C48.826 15.7171 49.1922 15.1488 49.6229 14.6425C50.4746 13.6123 51.6103 12.8997 52.7862 12.4961C53.9654 12.076 55.193 11.9303 56.4014 11.9199C56.5111 11.919 56.6005 12.0158 56.6013 12.1362C56.6022 12.2489 56.5253 12.3421 56.4256 12.3545L56.4194 12.3552Z" fill="#797979" fill-opacity="0.2" style="mix-blend-mode:multiply"/>
<path fill-rule="evenodd" clip-rule="evenodd" d="M49.729 26.7492C46.3205 27.5331 44.902 23.5676 46.4726 21.4399C50.5855 22.3948 46.948 25.5217 49.729 26.7492Z" fill="#FF9B89"/>
<path fill-rule="evenodd" clip-rule="evenodd" d="M49.729 26.7492C46.3205 27.5331 44.902 23.5676 46.4726 21.4399C50.5855 22.3948 46.948 25.5217 49.729 26.7492Z" fill="#797979" fill-opacity="0.2" style="mix-blend-mode:multiply"/>
<path fill-rule="evenodd" clip-rule="evenodd" d="M50.4586 24.905L49.7291 26.7495C46.9481 25.522 50.5856 22.3951 46.4727 21.4402C47.2174 20.4324 48.2569 20.3754 49.1422 20.8464C50.5029 21.5712 51.061 23.3817 50.4586 24.905Z" fill="#FF9B89"/>
<path fill-rule="evenodd" clip-rule="evenodd" d="M54.2558 26.1263C53.5308 26.7217 52.548 26.3165 52.4866 25.3969C52.4252 24.4773 53.3313 23.733 54.1177 24.0572C54.9041 24.3812 54.9808 25.5308 54.2558 26.1263Z" fill="#797979" fill-opacity="0.2" style="mix-blend-mode:multiply"/>
<path fill-rule="evenodd" clip-rule="evenodd" d="M46.4466 15.8362L47.0642 15.8662C47.0048 17.3417 46.6483 18.5563 46.007 19.6507L45.9663 19.7197L45.884 19.8549C45.8289 19.9439 45.7728 20.0308 45.7152 20.1167L45.6274 20.2448C45.6125 20.266 45.5976 20.2872 45.5824 20.3084L45.49 20.4356C45.3958 20.5627 45.2959 20.6902 45.1878 20.8216L45.0769 20.9544C45.058 20.9767 45.0388 20.9993 45.0193 21.0219L44.8992 21.1599L44.7722 21.3024C44.7505 21.3265 44.7284 21.3509 44.706 21.3755L44.5678 21.526L44.4214 21.6827L44.1851 21.9314L44.0157 22.1073L43.5523 22.5855L43.3839 22.7618L43.2237 22.9317L43.0715 23.0959L42.9268 23.2548C42.9033 23.2809 42.8801 23.3067 42.8572 23.3324L42.7232 23.4844L42.5959 23.6325C42.4718 23.7789 42.3573 23.9202 42.2507 24.0588L42.1467 24.1967C41.9776 24.4254 41.8291 24.6492 41.6939 24.8793L41.6144 25.0182C41.5623 25.1114 41.5122 25.2061 41.4635 25.3028L41.3915 25.4496C41.356 25.5238 41.3212 25.5995 41.2868 25.6768C40.6424 27.1274 40.4239 28.8764 40.6927 31.1611L40.7109 31.3109L40.0985 31.4036C39.7861 28.9179 40.0161 26.989 40.7311 25.3794C40.7684 25.2955 40.8061 25.2136 40.8445 25.1332L40.9222 24.9746C41.2633 24.2953 41.6646 23.7193 42.2574 23.0369L42.3976 22.8774C42.4216 22.8505 42.4458 22.8234 42.4704 22.7961L42.6215 22.6299L42.7803 22.4585L42.9471 22.2813L43.1224 22.0977L43.6729 21.5293L43.9077 21.2837L44.053 21.1294L44.1899 20.9818L44.3189 20.8402L44.4406 20.7038L44.5556 20.5721C44.5928 20.5288 44.629 20.4862 44.6643 20.4441L44.7672 20.3193L44.865 20.1969C44.8809 20.1767 44.8966 20.1565 44.9122 20.1364L45.0032 20.0163L45.0903 19.8968L45.1742 19.7772L45.2553 19.6568L45.3341 19.5349C45.3471 19.5144 45.36 19.4938 45.3728 19.4731L45.4492 19.3476C45.4619 19.3264 45.4745 19.3051 45.4871 19.2836C46.0502 18.3225 46.3702 17.2641 46.4403 15.9708L46.4466 15.8362Z" fill="#7D3F50"/>
<path fill-rule="evenodd" clip-rule="evenodd" d="M38.384 2.91797L38.8802 3.32268C36.9365 6.19507 36.9611 9.15969 38.6254 11.104C40.2431 12.994 43.0156 13.4409 45.7045 12.0176L45.7941 11.9694L46.0691 12.5773C43.1162 14.1873 40.0041 13.7057 38.1748 11.5688C36.3152 9.39621 36.2695 6.11019 38.3211 3.0118L38.384 2.91797Z" fill="#797979" fill-opacity="0.2" style="mix-blend-mode:multiply"/>
<path fill-rule="evenodd" clip-rule="evenodd" d="M46.4466 15.8362L47.0642 15.8662C47.0048 17.3417 46.6483 18.5563 46.007 19.6507L45.9663 19.7197L45.884 19.8549C45.8289 19.9439 45.7728 20.0308 45.7152 20.1167L45.6274 20.2448C45.6125 20.266 45.5976 20.2872 45.5824 20.3084L45.49 20.4356C45.3958 20.5627 45.2959 20.6902 45.1878 20.8216L45.0769 20.9544C45.058 20.9767 45.0388 20.9993 45.0193 21.0219L44.8992 21.1599L44.7722 21.3024C44.7505 21.3265 44.7284 21.3509 44.706 21.3755L44.5678 21.526L44.4214 21.6827L44.1851 21.9314L44.0157 22.1073L43.5523 22.5855L43.3839 22.7618L43.2237 22.9317L43.0715 23.0959L42.9268 23.2548C42.9033 23.2809 42.8801 23.3067 42.8572 23.3324L42.7232 23.4844L42.5959 23.6325C42.4718 23.7789 42.3573 23.9202 42.2507 24.0588L42.1467 24.1967C41.9776 24.4254 41.8291 24.6492 41.6939 24.8793L41.6144 25.0182C41.5623 25.1114 41.5122 25.2061 41.4635 25.3028L41.3915 25.4496C41.356 25.5238 41.3212 25.5995 41.2868 25.6768C40.6424 27.1274 40.4239 28.8764 40.6927 31.1611L40.7109 31.3109L40.0985 31.4036C39.7861 28.9179 40.0161 26.989 40.7311 25.3794C40.7684 25.2955 40.8061 25.2136 40.8445 25.1332L40.9222 24.9746C41.2633 24.2953 41.6646 23.7193 42.2574 23.0369L42.3976 22.8774C42.4216 22.8505 42.4458 22.8234 42.4704 22.7961L42.6215 22.6299L42.7803 22.4585L42.9471 22.2813L43.1224 22.0977L43.6729 21.5293L43.9077 21.2837L44.053 21.1294L44.1899 20.9818L44.3189 20.8402L44.4406 20.7038L44.5556 20.5721C44.5928 20.5288 44.629 20.4862 44.6643 20.4441L44.7672 20.3193L44.865 20.1969C44.8809 20.1767 44.8966 20.1565 44.9122 20.1364L45.0032 20.0163L45.0903 19.8968L45.1742 19.7772L45.2553 19.6568L45.3341 19.5349C45.3471 19.5144 45.36 19.4938 45.3728 19.4731L45.4492 19.3476C45.4619 19.3264 45.4745 19.3051 45.4871 19.2836C46.0502 18.3225 46.3702 17.2641 46.4403 15.9708L46.4466 15.8362Z" fill="#797979" fill-opacity="0.2" style="mix-blend-mode:multiply"/>
<path fill-rule="evenodd" clip-rule="evenodd" d="M25.5768 56.6243C26.3489 58.5825 27.2606 60.4223 28.2832 62.1408C29.4606 64.1193 30.7217 65.8367 31.9819 67.285C32.422 67.7908 32.83 68.2264 33.1954 68.5909L33.3177 68.7117L33.4298 68.8204L33.6244 69.0026L33.6449 69.021L33.128 69.7259L32.9965 69.6052L32.8883 69.5026L32.7697 69.3877L32.6411 69.2606C32.2616 68.8821 31.8396 68.4316 31.3858 67.91C30.0921 66.4232 28.7994 64.6628 27.5931 62.6357C26.5979 60.9633 25.7052 59.1786 24.9401 57.2838L24.8203 56.9837L25.5768 56.6243Z" fill="#362B42"/>
<path fill-rule="evenodd" clip-rule="evenodd" d="M65.4023 174.362C75.8043 164.108 77.3336 173.943 81.5073 166.298C71.2533 163.24 65.4023 174.362 65.4023 174.362Z" fill="#FF4654"/>
<path fill-rule="evenodd" clip-rule="evenodd" d="M65.4023 174.362C75.8043 164.108 77.3336 173.943 81.5073 166.298C71.2533 163.24 65.4023 174.362 65.4023 174.362Z" fill="#797979" fill-opacity="0.2" style="mix-blend-mode:multiply"/>
<path fill-rule="evenodd" clip-rule="evenodd" d="M59.3032 93.4835L60.1054 93.2754L60.3844 94.5659C60.4313 94.7817 60.4783 94.9978 60.5254 95.2142L60.6859 95.9492L61.0105 97.4257L61.3399 98.9111L61.6738 100.405L62.0124 101.907L62.3555 103.418C62.4706 103.923 62.5864 104.429 62.703 104.937L63.055 106.464C63.114 106.719 63.1733 106.974 63.2326 107.23L63.5912 108.768L63.9539 110.314C64.0148 110.573 64.0757 110.831 64.1369 111.09L64.506 112.647C64.5679 112.907 64.6299 113.168 64.6921 113.428L65.0673 114.996C65.1302 115.258 65.1933 115.52 65.2565 115.782C68.0539 127.395 71.0449 139.022 74.042 150.141L74.5441 151.998L75.1399 154.19L75.7179 156.302L76.093 157.664L76.6393 159.639L77.2507 161.832L77.9509 164.321L78.3462 165.711L78.4708 166.146L77.6849 166.419L77.1638 164.589L76.4628 162.098L75.8508 159.903L75.3041 157.927L74.8336 156.216L74.2521 154.089L73.653 151.884L73.5515 151.509C70.452 140.047 67.3525 128.023 64.4596 116.014L64.0819 114.441L63.7084 112.876L63.3389 111.317C63.2777 111.058 63.2167 110.799 63.1558 110.541L62.7926 108.993L62.4338 107.453L62.0793 105.921C61.9618 105.412 61.8451 104.903 61.7291 104.397L61.3834 102.88C61.2689 102.376 61.1552 101.873 61.0422 101.372L60.7056 99.8724C60.6499 99.6231 60.5944 99.3742 60.539 99.1257L60.2094 97.6387C60.1548 97.3916 60.1005 97.1449 60.0463 96.8985L59.7237 95.4247L59.4424 94.1286L59.3032 93.4835Z" fill="#797979" fill-opacity="0.2" style="mix-blend-mode:multiply"/>
<path fill-rule="evenodd" clip-rule="evenodd" d="M81.1267 166.125L81.8877 166.473C81.2547 168.141 80.4737 169.11 79.4384 169.578L79.3898 169.6L79.2936 169.641C79.2776 169.648 79.2617 169.654 79.2458 169.66L79.1505 169.697C79.1346 169.703 79.1187 169.708 79.1029 169.714L79.0074 169.746C78.9276 169.772 78.8471 169.795 78.7645 169.815L78.6644 169.838C78.6475 169.842 78.6305 169.846 78.6134 169.849L78.5093 169.869L78.4021 169.886L78.2911 169.901C78.2723 169.903 78.2533 169.905 78.2341 169.907L78.1166 169.919L77.9942 169.929L77.8664 169.937C77.8446 169.938 77.8225 169.939 77.8003 169.94L77.6633 169.946L77.5196 169.949L77.3688 169.951L77.128 169.951L76.957 169.95L76.6836 169.945L76.0261 169.928L75.7777 169.923L75.5393 169.92C75.5003 169.919 75.4617 169.919 75.4235 169.919L75.1986 169.919L74.9819 169.921C74.9465 169.922 74.9113 169.922 74.8764 169.923L74.6708 169.929L74.4716 169.938C73.687 169.977 73.0421 170.083 72.342 170.292L72.1657 170.347C72.0769 170.376 71.9869 170.406 71.8955 170.438C70.0645 171.075 68.2361 172.369 66.2954 174.552L66.1833 174.679L65.5896 174.051C67.6634 171.687 69.6429 170.273 71.6461 169.575C72.6015 169.242 73.402 169.087 74.4043 169.035L74.6146 169.025L74.8314 169.019L75.0554 169.015L75.2872 169.013C75.3266 169.013 75.3663 169.014 75.4063 169.014L75.6512 169.016C75.6929 169.016 75.7349 169.017 75.7773 169.018L76.1707 169.026L76.5937 169.038L76.7724 169.042L77.0229 169.046L77.254 169.047L77.4672 169.045L77.6001 169.041L77.7263 169.037L77.8461 169.031L77.9601 169.023L78.0688 169.014L78.1725 169.002L78.2718 168.989L78.3671 168.974C78.3827 168.972 78.3982 168.969 78.4135 168.966L78.5037 168.948L78.5912 168.928C78.6056 168.924 78.6199 168.921 78.6341 168.917L78.7183 168.894C78.7322 168.89 78.746 168.886 78.7597 168.881L78.8417 168.854C78.8688 168.845 78.8958 168.835 78.9227 168.825L79.0033 168.794C79.0167 168.788 79.0302 168.783 79.0436 168.777L79.1244 168.742C79.919 168.382 80.5423 167.623 81.0879 166.226L81.1267 166.125Z" fill="#362B42"/>
<path fill-rule="evenodd" clip-rule="evenodd" d="M21.6289 69.743C22.2698 66.2071 22.8468 63.5852 23.1395 62.4902C23.9535 63.0354 24.5985 64.0037 24.8025 65.2683C25.2167 67.8155 23.5681 69.9149 21.6289 69.743Z" fill="#797979" fill-opacity="0.2" style="mix-blend-mode:multiply"/>
<path fill-rule="evenodd" clip-rule="evenodd" d="M49.1051 37.5315C49.6877 38.4346 50.2831 39.3146 50.9386 40.1157C51.2648 40.5177 51.6088 40.8954 51.9735 41.2336C52.3327 41.5782 52.7197 41.8795 53.121 42.1017C53.5199 42.3247 53.9442 42.4478 54.3172 42.4229C54.5042 42.4093 54.67 42.3446 54.8174 42.2455C54.9639 42.1456 55.095 42.0037 55.19 41.8155C55.3911 41.4477 55.4651 40.9448 55.4579 40.4392C55.4478 39.9272 55.3509 39.4021 55.2186 38.8805L55.6772 38.6805C55.9166 39.1999 56.0971 39.7641 56.1808 40.3686C56.2138 40.6726 56.2348 40.9837 56.202 41.304C56.1808 41.6232 56.1011 41.9501 55.9655 42.2621C55.8336 42.574 55.6244 42.8747 55.3476 43.0866C55.0748 43.3013 54.7498 43.4398 54.4285 43.4841C54.1097 43.5237 53.7891 43.5086 53.4999 43.4273C53.3487 43.3997 53.2151 43.3389 53.0727 43.293C52.9351 43.2396 52.8059 43.1731 52.6721 43.1122C52.1547 42.8439 51.7101 42.4795 51.2994 42.0922C50.8951 41.6963 50.5207 41.2739 50.1911 40.8188C49.521 39.9173 48.9675 38.9361 48.5203 37.9073L49.1051 37.5315Z" fill="#FFC520"/>
<path fill-rule="evenodd" clip-rule="evenodd" d="M49.1051 37.5315C49.6877 38.4346 50.2831 39.3146 50.9386 40.1157C51.2648 40.5177 51.6088 40.8954 51.9735 41.2336C52.3327 41.5782 52.7197 41.8795 53.121 42.1017C53.5199 42.3247 53.9442 42.4478 54.3172 42.4229C54.5042 42.4093 54.67 42.3446 54.8174 42.2455C54.9639 42.1456 55.095 42.0037 55.19 41.8155C55.3911 41.4477 55.4651 40.9448 55.4579 40.4392C55.4478 39.9272 55.3509 39.4021 55.2186 38.8805L55.6772 38.6805C55.9166 39.1999 56.0971 39.7641 56.1808 40.3686C56.2138 40.6726 56.2348 40.9837 56.202 41.304C56.1808 41.6232 56.1011 41.9501 55.9655 42.2621C55.8336 42.574 55.6244 42.8747 55.3476 43.0866C55.0748 43.3013 54.7498 43.4398 54.4285 43.4841C54.1097 43.5237 53.7891 43.5086 53.4999 43.4273C53.3487 43.3997 53.2151 43.3389 53.0727 43.293C52.9351 43.2396 52.8059 43.1731 52.6721 43.1122C52.1547 42.8439 51.7101 42.4795 51.2994 42.0922C50.8951 41.6963 50.5207 41.2739 50.1911 40.8188C49.521 39.9173 48.9675 38.9361 48.5203 37.9073L49.1051 37.5315Z" fill="#797979" fill-opacity="0.2" style="mix-blend-mode:multiply"/>
<path fill-rule="evenodd" clip-rule="evenodd" d="M136.439 47.6567L137.257 47.7742L136.707 52.3819L135.89 52.2645L136.439 47.6567Z" fill="#FF4654"/>
<path fill-rule="evenodd" clip-rule="evenodd" d="M134.361 47.533L134.97 52.1491L134.155 52.2789L133.545 47.6628L134.361 47.533Z" fill="#FF4654"/>
<path fill-rule="evenodd" clip-rule="evenodd" d="M136.439 47.6567L137.257 47.7742L136.707 52.3819L135.89 52.2645L136.439 47.6567Z" fill="#797979" fill-opacity="0.2" style="mix-blend-mode:multiply"/>
<path fill-rule="evenodd" clip-rule="evenodd" d="M134.361 47.533L134.97 52.1491L134.155 52.2789L133.545 47.6628L134.361 47.533Z" fill="#797979" fill-opacity="0.2" style="mix-blend-mode:multiply"/>
<path fill-rule="evenodd" clip-rule="evenodd" d="M128.329 42.2968C129.752 47.3735 138.563 52.932 146.208 44.4602C146.592 41.4478 144.195 42.5366 144.031 44.0308C140.574 43.6693 139.729 35.6236 135.642 33.7512C131.555 31.8787 126.905 37.2201 128.329 42.2968Z" fill="#FFC520"/>
<path fill-rule="evenodd" clip-rule="evenodd" d="M144.323 41.3349C144.261 42.3158 143.616 42.8832 143.161 42.3561C142.707 41.8292 142.783 40.6031 143.299 40.1491C143.815 39.6953 144.384 40.354 144.323 41.3349Z" fill="#FFC520"/>
<path fill-rule="evenodd" clip-rule="evenodd" d="M144.323 41.3349C144.261 42.3158 143.616 42.8832 143.161 42.3561C142.707 41.8292 142.783 40.6031 143.299 40.1491C143.815 39.6953 144.384 40.354 144.323 41.3349Z" fill="#797979" fill-opacity="0.2" style="mix-blend-mode:multiply"/>
<path fill-rule="evenodd" clip-rule="evenodd" d="M132.021 37.3406C131.779 38.084 131.146 38.3593 130.881 37.8362C130.616 37.3132 130.918 36.3841 131.425 36.164C131.932 35.9437 132.263 36.5972 132.021 37.3406Z" fill="#362B42"/>
<path fill-rule="evenodd" clip-rule="evenodd" d="M128.919 37.6338L126.122 38.5728C125.893 38.6495 125.825 38.9692 126 39.149L128.218 41.4384C130.554 39.9076 128.919 37.6338 128.919 37.6338Z" fill="#FF4654"/>
<path fill-rule="evenodd" clip-rule="evenodd" d="M134.733 40.0603C136.182 39.5402 137.77 40.1243 138.734 41.4206C140.403 43.664 143.072 43.8387 142.666 45.1499C142.196 46.6728 137.291 47.7949 134.652 46.0944C132.776 44.8854 132.402 42.582 133.307 41.1649C133.628 40.6627 134.114 40.2824 134.733 40.0603Z" fill="#797979" fill-opacity="0.2" style="mix-blend-mode:multiply"/>
<path fill-rule="evenodd" clip-rule="evenodd" d="M144.006 87.2847L143.981 98.2013L143.748 199.273H141.332L140.118 97.1693L140.002 87.2847H144.006Z" fill="#6343F0"/>
<path fill-rule="evenodd" clip-rule="evenodd" d="M144.006 87.2847L143.981 98.2013L140.118 97.1693L140.002 87.2847H144.006Z" fill="#362B42"/>
<path fill-rule="evenodd" clip-rule="evenodd" d="M127.814 83.1091H110.926C110.926 57.0958 118.152 43.9839 123.185 49.8381C126.259 53.4086 128.514 64.0405 127.814 83.1091Z" fill="#362B42"/>
<path fill-rule="evenodd" clip-rule="evenodd" d="M132.526 192.469C133.515 193.113 134.411 193.915 135.216 194.839C135.983 195.72 136.627 196.662 137.154 197.605L137.222 197.728L137.293 197.861L138.354 193.791L139.147 194.04L137.805 199.188L137.032 199.246L136.981 199.128L136.917 198.987C136.909 198.97 136.901 198.953 136.893 198.935C136.772 198.677 136.625 198.389 136.451 198.078C135.953 197.187 135.344 196.295 134.62 195.465C133.907 194.646 133.12 193.931 132.258 193.348L132.105 193.247L132.526 192.469Z" fill="#15AD8B"/>
<path fill-rule="evenodd" clip-rule="evenodd" d="M150.778 194.501L151.373 195.127L147.396 199.68L146.734 199.579L145.057 196.091L145.786 195.668L147.196 198.601L150.778 194.501Z" fill="#15AD8B"/>
<path fill-rule="evenodd" clip-rule="evenodd" d="M129.597 194.762L134.032 197.976L133.578 198.731L129.143 195.518L129.597 194.762Z" fill="#15AD8B"/>
<path fill-rule="evenodd" clip-rule="evenodd" d="M148.065 190.679L148.88 190.815L148.132 196.216L147.317 196.08L148.065 190.679Z" fill="#15AD8B"/>
<path fill-rule="evenodd" clip-rule="evenodd" d="M109.036 57.3887L136.582 65.5422V83.9539C115.105 81.7629 99.5349 71.6311 99.5349 71.6311L109.036 57.3887Z" fill="white"/>
<path fill-rule="evenodd" clip-rule="evenodd" d="M109.313 57.0852L120.325 69.2081L136.494 65.1235L136.669 65.9608L120.078 70.1523L108.758 57.6919L109.313 57.0852Z" fill="white"/>
<path fill-rule="evenodd" clip-rule="evenodd" d="M118.708 67.6831L118.836 68.5306L100.734 71.8465L101.188 72.1037L101.642 72.3576L102.119 72.6205L102.449 72.8006L102.79 72.9843L103.14 73.1716C105.845 74.6122 108.829 76.0529 112.003 77.3976C118.87 80.3071 125.643 82.3556 131.968 83.1632C133.186 83.3187 134.38 83.4265 135.547 83.4849L135.603 83.4873L122.668 69.2909L123.222 68.6833L136.858 83.6498L136.573 84.3831C135.051 84.3453 133.485 84.2218 131.878 84.0166C125.478 83.1996 118.645 81.1327 111.721 78.1991C108.526 76.8454 105.522 75.3951 102.798 73.9446L102.445 73.7559L102.102 73.5707L101.769 73.3891L101.288 73.124L100.83 72.8679L100.395 72.6214L100.068 72.4332L99.6534 72.1907L99.3445 72.0061L99.4703 71.207L118.708 67.6831Z" fill="white"/>
<path fill-rule="evenodd" clip-rule="evenodd" d="M168.779 85.1992L120.864 84.4214L120.886 83.1091H127.814C128.514 64.0405 126.259 53.4086 123.185 49.8381C180.815 57.0515 166.541 56.7339 168.779 85.1992Z" fill="#6343F0"/>
<path fill-rule="evenodd" clip-rule="evenodd" d="M110.926 83.1096L110.834 83.1438C110.087 83.4238 109.585 84.1946 109.585 85.061V89.3317H127.942L169.994 88.3727V86.1311C169.994 85.6445 169.646 85.2438 169.203 85.221L127.814 83.1096H110.926Z" fill="#6343F0"/>
<path fill-rule="evenodd" clip-rule="evenodd" d="M110.926 83.1096L110.834 83.1438C110.087 83.4238 109.585 84.1946 109.585 85.061V89.3317H127.942L169.994 88.3727V86.1311C169.994 85.6445 169.646 85.2438 169.203 85.221L127.814 83.1096H110.926Z" fill="white" fill-opacity="0.3" style="mix-blend-mode:lighten"/>
<path fill-rule="evenodd" clip-rule="evenodd" d="M149.769 71.3936C144.444 70.875 141.26 68.7599 144.038 67.5862C146.817 66.4128 153.474 67.0611 156.021 68.7533C158.567 70.4452 155.095 71.9121 149.769 71.3936Z" fill="white"/>
<path fill-rule="evenodd" clip-rule="evenodd" d="M124.118 51.6306C125.875 54.8666 127.062 59.0574 127.763 63.9775C128.548 69.4886 128.666 75.3254 128.39 80.6784L128.363 81.1924L128.326 81.7922L128.308 82.0728L128.289 82.3401L128.258 82.7461L128.224 83.1559L127.404 83.0626L127.426 82.8032L127.449 82.5184L127.477 82.1382L127.504 81.728L127.531 81.2886L127.549 80.9799C127.845 75.5898 127.741 69.6765 126.949 64.1173C126.275 59.3836 125.145 55.3552 123.496 52.2536L123.41 52.094L124.118 51.6306Z" fill="#362B42"/>
<path fill-rule="evenodd" clip-rule="evenodd" d="M169.988 87.9199L170 88.8247L109.591 89.7839L109.579 88.8791L169.988 87.9199Z" fill="#362B42"/>
<path fill-rule="evenodd" clip-rule="evenodd" d="M112.507 81.8885C111.98 81.5698 111.938 80.7995 112.431 80.502C112.924 80.2045 113.582 80.6029 113.616 81.2192C113.649 81.8356 113.033 82.2073 112.507 81.8885Z" fill="white"/>
<path fill-rule="evenodd" clip-rule="evenodd" d="M109.313 57.0852L120.325 69.2081L136.494 65.1235L136.669 65.9608L120.078 70.1523L108.758 57.6919L109.313 57.0852Z" fill="#797979" fill-opacity="0.2" style="mix-blend-mode:multiply"/>
<path fill-rule="evenodd" clip-rule="evenodd" d="M118.708 67.6831L118.836 68.5306L100.734 71.8465L101.188 72.1037L101.642 72.3576L102.119 72.6205L102.449 72.8006L102.79 72.9843L103.14 73.1716C105.845 74.6122 108.829 76.0529 112.003 77.3976C118.87 80.3071 125.643 82.3556 131.968 83.1632C133.186 83.3187 134.38 83.4265 135.547 83.4849L135.603 83.4873L122.668 69.2909L123.222 68.6833L136.858 83.6498L136.573 84.3831C135.051 84.3453 133.485 84.2218 131.878 84.0166C125.478 83.1996 118.645 81.1327 111.721 78.1991C108.526 76.8454 105.522 75.3951 102.798 73.9446L102.445 73.7559L102.102 73.5707L101.769 73.3891L101.288 73.124L100.83 72.8679L100.395 72.6214L100.068 72.4332L99.6534 72.1907L99.3445 72.0061L99.4703 71.207L118.708 67.6831Z" fill="#797979" fill-opacity="0.2" style="mix-blend-mode:multiply"/>
<path fill-rule="evenodd" clip-rule="evenodd" d="M112.507 81.8885C111.98 81.5698 111.938 80.7995 112.431 80.502C112.924 80.2045 113.582 80.6029 113.616 81.2192C113.649 81.8356 113.033 82.2073 112.507 81.8885Z" fill="#797979" fill-opacity="0.2" style="mix-blend-mode:multiply"/>
<path fill-rule="evenodd" clip-rule="evenodd" d="M122.726 58.3688C121.894 58.557 121.221 57.8578 121.514 57.1101C121.807 56.3624 122.848 56.1269 123.387 56.6864C123.925 57.2458 123.559 58.1804 122.726 58.3688Z" fill="#362B42"/>
<path fill-rule="evenodd" clip-rule="evenodd" d="M123.481 60.6479C123.064 60.6785 122.777 60.2511 122.963 59.8788C123.15 59.5064 123.67 59.4684 123.9 59.8102C124.13 60.1521 123.897 60.6174 123.481 60.6479Z" fill="#362B42"/>
<path fill-rule="evenodd" clip-rule="evenodd" d="M122.726 58.3688C121.894 58.557 121.221 57.8578 121.514 57.1101C121.807 56.3624 122.848 56.1269 123.387 56.6864C123.925 57.2458 123.559 58.1804 122.726 58.3688Z" fill="white" fill-opacity="0.3" style="mix-blend-mode:lighten"/>
<path fill-rule="evenodd" clip-rule="evenodd" d="M123.481 60.6479C123.064 60.6785 122.777 60.2511 122.963 59.8788C123.15 59.5064 123.67 59.4684 123.9 59.8102C124.13 60.1521 123.897 60.6174 123.481 60.6479Z" fill="white" fill-opacity="0.3" style="mix-blend-mode:lighten"/>
<path fill-rule="evenodd" clip-rule="evenodd" d="M96.1101 58.5418C98.3757 55.5029 105.978 52.8674 110.873 51.0484C111.362 50.8665 111.901 51.0936 112.147 51.5917C113.953 55.248 117.189 59.4048 118.525 61.0574C118.841 61.4479 118.705 62.0677 118.261 62.2528C114.054 64.0035 110.126 58.7535 108.947 58.2242C107.404 61.9793 104.527 64.8706 100.977 64.3049C97.4272 63.7393 96.1101 58.5418 96.1101 58.5418Z" fill="#FF9B89"/>
<path fill-rule="evenodd" clip-rule="evenodd" d="M108.654 58.1148L109.183 58.0054L109.237 58.0743L109.328 58.1853C109.363 58.2273 109.4 58.2708 109.439 58.3156L109.559 58.4537C109.621 58.5246 109.687 58.5983 109.757 58.6743C110.223 59.182 110.749 59.6899 111.325 60.1635C113.591 62.0287 115.903 62.8207 118.063 61.9712L118.151 61.9354L118.37 62.5702C115.945 63.5766 113.403 62.7222 110.954 60.7065C110.354 60.2128 109.806 59.6845 109.321 59.1559C109.273 59.1029 109.226 59.051 109.181 59.0003L109.063 58.8672L109.034 58.9504C107.895 62.1542 106.029 63.9835 103.72 64.4995L103.633 64.5183C101.65 64.9314 99.4613 64.3086 97.9287 63.0747L97.8486 63.0092L98.222 62.4682C99.6234 63.6338 101.679 64.2346 103.518 63.8515C105.756 63.3853 107.552 61.5665 108.614 58.2402L108.654 58.1148Z" fill="#FF9B89"/>
<path fill-rule="evenodd" clip-rule="evenodd" d="M108.654 58.1148L109.183 58.0054L109.237 58.0743L109.328 58.1853C109.363 58.2273 109.4 58.2708 109.439 58.3156L109.559 58.4537C109.621 58.5246 109.687 58.5983 109.757 58.6743C110.223 59.182 110.749 59.6899 111.325 60.1635C113.591 62.0287 115.903 62.8207 118.063 61.9712L118.151 61.9354L118.37 62.5702C115.945 63.5766 113.403 62.7222 110.954 60.7065C110.354 60.2128 109.806 59.6845 109.321 59.1559C109.273 59.1029 109.226 59.051 109.181 59.0003L109.063 58.8672L109.034 58.9504C107.895 62.1542 106.029 63.9835 103.72 64.4995L103.633 64.5183C101.65 64.9314 99.4613 64.3086 97.9287 63.0747L97.8486 63.0092L98.222 62.4682C99.6234 63.6338 101.679 64.2346 103.518 63.8515C105.756 63.3853 107.552 61.5665 108.614 58.2402L108.654 58.1148Z" fill="#797979" fill-opacity="0.2" style="mix-blend-mode:multiply"/>
</svg>
