<svg width="170" height="200" viewBox="0 0 170 200" fill="none" xmlns="http://www.w3.org/2000/svg">
<path fill-rule="evenodd" clip-rule="evenodd" d="M124.533 22.9188L115.535 15.6004C115.284 15.3959 114.931 15.5019 114.8 15.8213L114.526 16.4933C113.924 17.9673 114.282 19.7201 115.394 20.7381L121.249 26.0995L124.533 22.9188Z" fill="#FF9B89"/>
<path fill-rule="evenodd" clip-rule="evenodd" d="M124.533 22.9188L115.535 15.6004C115.284 15.3959 114.931 15.5019 114.8 15.8213L114.526 16.4933C113.924 17.9673 114.282 19.7201 115.394 20.7381L121.249 26.0995L124.533 22.9188Z" fill="#797979" fill-opacity="0.2" style="mix-blend-mode:multiply"/>
<path fill-rule="evenodd" clip-rule="evenodd" d="M124.533 22.9188L115.535 15.6004C115.284 15.3959 114.931 15.5019 114.8 15.8213L114.526 16.4933C113.924 17.9673 114.282 19.7201 115.394 20.7381L121.249 26.0995L124.533 22.9188Z" fill="#797979" fill-opacity="0.2" style="mix-blend-mode:multiply"/>
<path fill-rule="evenodd" clip-rule="evenodd" d="M103.459 63.3434C83.5253 57.1863 64.6214 63.3434 64.6214 63.3434C61.7512 72.8644 55.4702 97.2739 55.4702 97.2739L115.473 97.3284C109.144 72.0529 103.459 63.3434 103.459 63.3434Z" fill="#6343F0"/>
<mask id="mask0_257_44305" style="mask-type:luminance" maskUnits="userSpaceOnUse" x="0" y="97" width="170" height="103">
<path fill-rule="evenodd" clip-rule="evenodd" d="M0 97.1895H170V200H0V97.1895Z" fill="white"/>
</mask>
<g mask="url(#mask0_257_44305)">
<path fill-rule="evenodd" clip-rule="evenodd" d="M160.946 189.704C132.529 197.464 74.0872 208.029 10.5249 190.374C8.25825 189.744 6.31954 188.084 5.12961 185.794C3.86993 183.371 2.71852 180.639 1.82711 177.698C-0.314501 170.64 -0.954415 162.378 2.00926 154.276C5.7954 143.928 13.5453 134.062 29.2565 128.821C31.0895 108.656 45.0777 108.621 45.0777 108.621C45.8004 95.428 55.4868 97.2782 55.4868 97.2782H116.083C125.678 96.6094 128.59 108.47 128.59 108.47C141.284 111.539 142.634 127.708 142.634 127.708C148.746 129.088 154.203 132.88 158.571 137.486C159.996 138.987 161.305 140.575 162.483 142.193C164.439 144.88 166.035 147.654 167.199 150.256C167.845 151.7 168.359 153.089 168.73 154.387C171.081 162.625 170.136 174.853 166.164 184.822C165.183 187.282 163.249 189.075 160.946 189.704Z" fill="#6343F0"/>
</g>
<path fill-rule="evenodd" clip-rule="evenodd" d="M108.893 82.0664L108.895 82.9681L62.9982 83.1595L62.9954 82.2578L108.893 82.0664Z" fill="#797979" fill-opacity="0.2" style="mix-blend-mode:multiply"/>
<path fill-rule="evenodd" clip-rule="evenodd" d="M63.8944 62.9089C75.3347 59.2829 92.8281 59.4302 103.084 62.7488C103.483 62.8782 103.83 63.1551 104.063 63.539C104.653 64.5112 105.24 65.587 105.823 66.7592L106.018 67.1535C106.276 67.684 106.534 68.2333 106.792 68.8009L106.984 69.2301C107.017 69.3021 107.049 69.3745 107.081 69.4472L107.273 69.8864C107.497 70.4028 107.721 70.9329 107.944 71.4761L108.135 71.9451C108.294 72.3385 108.452 72.7386 108.61 73.1453L108.8 73.6364C108.863 73.8012 108.926 73.9669 108.989 74.1337L109.178 74.6372C109.21 74.7217 109.241 74.8063 109.273 74.8913L109.461 75.4039L109.649 75.9225L109.837 76.4471L110.024 76.9775L110.211 77.5138C111.716 81.8568 113.096 86.5076 114.322 91.1581L114.472 91.7276L114.617 92.2871L114.758 92.8362L114.895 93.3745L115.027 93.9017L115.155 94.4173L115.279 94.921L115.456 95.6535L115.523 95.9321L115.646 96.4501L115.817 97.1887L115.856 97.3628L115.09 97.5846L114.964 97.0338L114.823 96.4324L114.694 95.8917L114.518 95.163L114.395 94.6617L114.267 94.1486L114.068 93.3575L113.929 92.8163L113.787 92.2645L113.64 91.7026C113.616 91.6081 113.591 91.5132 113.565 91.4179C112.345 86.7898 110.972 82.1621 109.476 77.8451L109.291 77.3144C109.26 77.2264 109.23 77.1387 109.199 77.0512L109.013 76.5291C108.982 76.4426 108.951 76.3563 108.92 76.2703L108.734 75.7572C108.672 75.5871 108.61 75.4181 108.548 75.25L108.361 74.7489L108.174 74.254C108.143 74.172 108.111 74.0903 108.08 74.0088L107.893 73.5232L107.705 73.0438C107.674 72.9644 107.642 72.8853 107.611 72.8065L107.423 72.3366C107.391 72.2589 107.36 72.1814 107.328 72.1041L107.14 71.644L106.951 71.1903C106.793 70.8151 106.635 70.4466 106.477 70.0852L106.287 69.6549C106.255 69.5838 106.224 69.5129 106.192 69.4423L106.002 69.0223C105.97 68.9529 105.938 68.8837 105.907 68.8148L105.716 68.4052C104.953 66.7804 104.185 65.3235 103.413 64.0524C103.286 63.8431 103.094 63.6895 102.868 63.6163C92.852 60.3752 75.7514 60.1996 64.4467 63.6713L64.1059 63.7776L63.8944 62.9089Z" fill="#6343F0"/>
<path fill-rule="evenodd" clip-rule="evenodd" d="M63.8944 62.9089C75.3347 59.2829 92.8281 59.4302 103.084 62.7488C103.483 62.8782 103.83 63.1551 104.063 63.539C104.653 64.5112 105.24 65.587 105.823 66.7592L106.018 67.1535C106.276 67.684 106.534 68.2333 106.792 68.8009L106.984 69.2301C107.017 69.3021 107.049 69.3745 107.081 69.4472L107.273 69.8864C107.497 70.4028 107.721 70.9329 107.944 71.4761L108.135 71.9451C108.294 72.3385 108.452 72.7386 108.61 73.1453L108.8 73.6364C108.863 73.8012 108.926 73.9669 108.989 74.1337L109.178 74.6372C109.21 74.7217 109.241 74.8063 109.273 74.8913L109.461 75.4039L109.649 75.9225L109.837 76.4471L110.024 76.9775L110.211 77.5138C111.716 81.8568 113.096 86.5076 114.322 91.1581L114.472 91.7276L114.617 92.2871L114.758 92.8362L114.895 93.3745L115.027 93.9017L115.155 94.4173L115.279 94.921L115.456 95.6535L115.523 95.9321L115.646 96.4501L115.817 97.1887L115.856 97.3628L115.09 97.5846L114.964 97.0338L114.823 96.4324L114.694 95.8917L114.518 95.163L114.395 94.6617L114.267 94.1486L114.068 93.3575L113.929 92.8163L113.787 92.2645L113.64 91.7026C113.616 91.6081 113.591 91.5132 113.565 91.4179C112.345 86.7898 110.972 82.1621 109.476 77.8451L109.291 77.3144C109.26 77.2264 109.23 77.1387 109.199 77.0512L109.013 76.5291C108.982 76.4426 108.951 76.3563 108.92 76.2703L108.734 75.7572C108.672 75.5871 108.61 75.4181 108.548 75.25L108.361 74.7489L108.174 74.254C108.143 74.172 108.111 74.0903 108.08 74.0088L107.893 73.5232L107.705 73.0438C107.674 72.9644 107.642 72.8853 107.611 72.8065L107.423 72.3366C107.391 72.2589 107.36 72.1814 107.328 72.1041L107.14 71.644L106.951 71.1903C106.793 70.8151 106.635 70.4466 106.477 70.0852L106.287 69.6549C106.255 69.5838 106.224 69.5129 106.192 69.4423L106.002 69.0223C105.97 68.9529 105.938 68.8837 105.907 68.8148L105.716 68.4052C104.953 66.7804 104.185 65.3235 103.413 64.0524C103.286 63.8431 103.094 63.6895 102.868 63.6163C92.852 60.3752 75.7514 60.1996 64.4467 63.6713L64.1059 63.7776L63.8944 62.9089Z" fill="#797979" fill-opacity="0.2" style="mix-blend-mode:multiply"/>
<path fill-rule="evenodd" clip-rule="evenodd" d="M104.728 67.833L104.73 68.7347L65.9207 68.8965L65.9178 67.9949L104.728 67.833Z" fill="#797979" fill-opacity="0.2" style="mix-blend-mode:multiply"/>
<path fill-rule="evenodd" clip-rule="evenodd" d="M31.3264 127.791L142.632 127.114L142.677 127.114L142.715 127.121C143.123 127.203 143.49 127.297 143.87 127.404C144.246 127.511 144.618 127.628 144.988 127.752C145.727 128.004 146.456 128.286 147.176 128.596C148.615 129.219 150.013 129.957 151.365 130.792C154.065 132.468 156.587 134.532 158.808 136.962C159.376 137.555 159.898 138.201 160.432 138.831C160.94 139.49 161.462 140.135 161.934 140.828C162.429 141.501 162.874 142.217 163.33 142.923C163.559 143.276 163.761 143.65 163.977 144.012C164.188 144.379 164.41 144.738 164.601 145.118C166.21 148.107 167.509 151.306 168.502 154.618L167.406 155.041C166.447 151.811 165.193 148.699 163.64 145.794C163.457 145.423 163.242 145.075 163.038 144.719C162.83 144.367 162.635 144.003 162.415 143.66C161.974 142.975 161.545 142.279 161.067 141.626C160.612 140.952 160.108 140.326 159.618 139.686C159.102 139.073 158.598 138.445 158.05 137.869C155.905 135.508 153.467 133.499 150.854 131.864C149.546 131.05 148.192 130.329 146.801 129.721C146.105 129.418 145.4 129.143 144.689 128.898C144.333 128.777 143.976 128.663 143.617 128.56C143.263 128.458 142.891 128.363 142.553 128.294L142.636 128.301L31.329 128.569L31.3264 127.791Z" fill="#6343F0"/>
<path fill-rule="evenodd" clip-rule="evenodd" d="M31.3264 127.791L142.632 127.114L142.677 127.114L142.715 127.121C143.123 127.203 143.49 127.297 143.87 127.404C144.246 127.511 144.618 127.628 144.988 127.752C145.727 128.004 146.456 128.286 147.176 128.596C148.615 129.219 150.013 129.957 151.365 130.792C154.065 132.468 156.587 134.532 158.808 136.962C159.376 137.555 159.898 138.201 160.432 138.831C160.94 139.49 161.462 140.135 161.934 140.828C162.429 141.501 162.874 142.217 163.33 142.923C163.559 143.276 163.761 143.65 163.977 144.012C164.188 144.379 164.41 144.738 164.601 145.118C166.21 148.107 167.509 151.306 168.502 154.618L167.406 155.041C166.447 151.811 165.193 148.699 163.64 145.794C163.457 145.423 163.242 145.075 163.038 144.719C162.83 144.367 162.635 144.003 162.415 143.66C161.974 142.975 161.545 142.279 161.067 141.626C160.612 140.952 160.108 140.326 159.618 139.686C159.102 139.073 158.598 138.445 158.05 137.869C155.905 135.508 153.467 133.499 150.854 131.864C149.546 131.05 148.192 130.329 146.801 129.721C146.105 129.418 145.4 129.143 144.689 128.898C144.333 128.777 143.976 128.663 143.617 128.56C143.263 128.458 142.891 128.363 142.553 128.294L142.636 128.301L31.329 128.569L31.3264 127.791Z" fill="#797979" fill-opacity="0.2" style="mix-blend-mode:multiply"/>
<path fill-rule="evenodd" clip-rule="evenodd" d="M115.853 96.9332C116.772 96.7785 117.86 96.7843 119.051 97.0568C120.719 97.4386 122.353 98.2997 123.879 99.7431C125.821 101.579 127.493 104.268 128.821 107.921L128.851 108.007L128.984 108.002C135.671 107.866 140.805 114.615 142.957 127.233L143.023 127.625L142.246 127.791C140.176 115.181 135.201 108.647 128.806 108.91L128.612 108.92L128.329 108.938L128.223 108.637C126.921 104.924 125.277 102.236 123.375 100.437C121.952 99.0918 120.438 98.294 118.895 97.9409C117.8 97.6902 116.802 97.6848 115.968 97.8252C115.899 97.8368 115.835 97.8489 115.777 97.8611L115.667 97.8855L115.583 97.9073L115.525 97.9245L54.5553 98.1709L54.5525 97.2692L115.423 97.0232L115.523 96.9984L115.648 96.9711L115.797 96.9427L115.853 96.9332Z" fill="#6343F0"/>
<path fill-rule="evenodd" clip-rule="evenodd" d="M115.853 96.9332C116.772 96.7785 117.86 96.7843 119.051 97.0568C120.719 97.4386 122.353 98.2997 123.879 99.7431C125.821 101.579 127.493 104.268 128.821 107.921L128.851 108.007L128.984 108.002C135.671 107.866 140.805 114.615 142.957 127.233L143.023 127.625L142.246 127.791C140.176 115.181 135.201 108.647 128.806 108.91L128.612 108.92L128.329 108.938L128.223 108.637C126.921 104.924 125.277 102.236 123.375 100.437C121.952 99.0918 120.438 98.294 118.895 97.9409C117.8 97.6902 116.802 97.6848 115.968 97.8252C115.899 97.8368 115.835 97.8489 115.777 97.8611L115.667 97.8855L115.583 97.9073L115.525 97.9245L54.5553 98.1709L54.5525 97.2692L115.423 97.0232L115.523 96.9984L115.648 96.9711L115.797 96.9427L115.853 96.9332Z" fill="#797979" fill-opacity="0.2" style="mix-blend-mode:multiply"/>
<path d="M96.4425 70.7075C99.2985 82.5726 105.638 90.8171 110.002 97.2778C113.42 102.335 115.213 106.298 113.596 110.048C123.185 128.052 130.727 143.629 162.484 142.193L162.846 142.698C162.89 142.761 162.934 142.824 162.978 142.887C163.017 142.943 163.056 142.999 163.095 143.055C163.428 143.535 163.751 144.017 164.061 144.5C164.081 144.532 164.103 144.564 164.123 144.596C164.442 145.095 164.748 145.594 165.041 146.092C165.057 146.119 165.072 146.146 165.088 146.172C165.138 146.258 165.187 146.344 165.236 146.43C165.371 146.663 165.502 146.895 165.63 147.126C165.687 147.23 165.744 147.334 165.8 147.437C165.911 147.642 166.02 147.846 166.126 148.05C166.185 148.163 166.244 148.274 166.301 148.386C166.452 148.682 166.599 148.975 166.74 149.268C166.841 149.476 166.937 149.685 167.032 149.891C167.059 149.95 167.087 150.008 167.113 150.067C167.142 150.13 167.171 150.193 167.199 150.256L167.196 150.255C167.843 151.699 168.359 153.09 168.73 154.386C171.08 162.624 170.136 174.854 166.163 184.823C165.183 187.283 163.25 189.074 160.946 189.704C132.394 197.501 73.5312 208.129 9.61829 190.12C8.01749 189.668 6.63051 188.532 5.74719 186.943C4.24831 184.247 2.8623 181.114 1.82727 177.699C33.8804 146.675 151.737 203.932 161.803 149.377C144.301 147.219 134.888 153.099 124.225 154.822C116.321 156.099 110.644 154.316 109.292 149.96C105.936 139.153 90.5854 129.107 89.84 111.192C87.8142 110.204 83.2081 111.13 83.2081 111.13C80.9306 126.327 75.3872 129.371 71.2618 137.909C67.7895 145.096 72.7526 152.742 61.9991 155.41C51.2456 158.077 40.3026 148.415 28.0148 140.718C15.7268 133.021 47.0372 139.152 48.5304 139.152C54.8286 135.874 63.4999 113.514 69.0939 97.2778C72.4282 87.6036 74.671 80.103 74.671 80.103L96.4425 70.7075Z" fill="#797979" fill-opacity="0.2" style="mix-blend-mode:multiply"/>
<path fill-rule="evenodd" clip-rule="evenodd" d="M159.463 161.678C153.295 160.029 147.004 159.117 140.691 158.652C134.378 158.173 128.039 158.136 121.703 158.264C115.365 158.419 109.024 158.724 102.682 159.107L83.6329 160.225C77.2759 160.555 70.9093 160.813 64.5351 160.908L62.1445 160.933L59.7532 160.926L57.3617 160.919L54.9698 160.872L52.5778 160.823C51.7807 160.807 50.9831 160.764 50.1859 160.735C48.5916 160.664 46.9972 160.605 45.4042 160.483C43.8113 160.368 42.2171 160.291 40.6265 160.125L38.2399 159.903L37.0468 159.792L35.8561 159.644L33.4754 159.344C32.682 159.245 31.8882 159.151 31.0979 159.017L28.725 158.644C27.9349 158.513 27.1417 158.412 26.3556 158.247C20.0507 157.094 13.794 155.532 7.70996 153.338L7.89706 152.589C20.1979 156.17 32.846 157.715 45.4939 158.242C47.0751 158.327 48.6593 158.346 50.2422 158.384C51.0341 158.401 51.8249 158.432 52.6172 158.438L54.9933 158.453L57.3692 158.466L59.7461 158.44L62.123 158.414L64.5003 158.355C70.8402 158.226 77.1818 157.931 83.5265 157.593C96.2159 156.954 108.925 156.054 121.684 156.049C128.06 156.043 134.449 156.283 140.811 156.98C147.165 157.699 153.507 158.869 159.64 160.926L159.463 161.678Z" fill="white" fill-opacity="0.3" style="mix-blend-mode:lighten"/>
<path fill-rule="evenodd" clip-rule="evenodd" d="M162.327 163.542C161.456 163.148 161.151 162.135 161.778 161.719C162.404 161.303 163.493 161.796 163.737 162.606C163.981 163.416 163.198 163.936 162.327 163.542Z" fill="#6343F0"/>
<path fill-rule="evenodd" clip-rule="evenodd" d="M43.3584 176.064C40.1197 175.654 38.2952 173.348 40.0741 171.915C41.8532 170.482 45.9015 170.995 47.3611 172.839C48.8207 174.683 46.5971 176.475 43.3584 176.064Z" fill="#6343F0"/>
<path fill-rule="evenodd" clip-rule="evenodd" d="M3.9539 189.285C3.21797 190.264 1.82889 189.968 1.45332 188.751C1.07774 187.534 1.99741 186.309 3.10891 186.547C4.22022 186.784 4.68963 188.305 3.9539 189.285Z" fill="#797979" fill-opacity="0.2" style="mix-blend-mode:multiply"/>
<path fill-rule="evenodd" clip-rule="evenodd" d="M104.223 62.6968C103.772 62.2951 103.781 61.6195 104.238 61.4804C104.696 61.3416 105.26 61.8436 105.253 62.3844C105.246 62.9249 104.674 63.0985 104.223 62.6968Z" fill="#6343F0"/>
<path fill-rule="evenodd" clip-rule="evenodd" d="M81.4616 73.1934C59.6227 93.8433 51.2795 113.886 46.3977 116.519C39.1806 120.41 39.9551 114.371 37.7838 111.208C41.5356 108.629 45.0779 108.62 45.0779 108.62C45.7832 95.7578 55.0095 97.1937 55.4699 97.2726C55.5232 97.0652 58.8087 84.3042 61.6991 73.6915L81.4616 73.1934Z" fill="#797979" fill-opacity="0.2" style="mix-blend-mode:multiply"/>
<path fill-rule="evenodd" clip-rule="evenodd" d="M112.148 0L115.394 6.9598L114.696 7.38338L111.45 0.423581L112.148 0Z" fill="#15AD8B"/>
<path fill-rule="evenodd" clip-rule="evenodd" d="M131.88 30.2625C130.492 25.8046 126.691 23.8885 125.202 20.9178C124.891 20.2976 124.328 19.8982 123.702 19.8939L118.748 19.8599C118.243 22.8809 121.775 27.3607 121.775 27.3607L131.88 30.2625Z" fill="#FF9B89"/>
<path fill-rule="evenodd" clip-rule="evenodd" d="M131.88 30.2625C130.492 25.8046 126.691 23.8885 125.202 20.9178C124.891 20.2976 124.328 19.8982 123.702 19.8939L118.748 19.8599C118.243 22.8809 121.775 27.3607 121.775 27.3607L131.88 30.2625Z" fill="#797979" fill-opacity="0.2" style="mix-blend-mode:multiply"/>
<path fill-rule="evenodd" clip-rule="evenodd" d="M131.88 30.2625C130.492 25.8046 126.691 23.8885 125.202 20.9178C124.891 20.2976 124.328 19.8982 123.702 19.8939L118.748 19.8599C118.243 22.8809 121.775 27.3607 121.775 27.3607L131.88 30.2625Z" fill="#797979" fill-opacity="0.2" style="mix-blend-mode:multiply"/>
<path fill-rule="evenodd" clip-rule="evenodd" d="M125.728 8.3394C126.536 8.4542 127.32 8.59435 128.079 8.76101L128.362 8.82475L128.206 9.70861C127.379 9.51824 126.52 9.36059 125.63 9.23415C121.761 8.68385 117.618 8.74208 113.686 9.1715L113.36 9.20808L113.045 9.24536C112.994 9.25163 112.943 9.25792 112.892 9.26423L112.594 9.30231L112.308 9.34075L112.034 9.37939L111.678 9.43237L111.257 9.50106L111.134 8.61032L111.37 8.5708L111.721 8.51623L111.934 8.48486L112.213 8.44562C112.26 8.43909 112.308 8.43258 112.357 8.42607L112.653 8.38722L112.961 8.34882L113.281 8.31101L113.611 8.27393C117.595 7.83874 121.793 7.77975 125.728 8.3394Z" fill="#FFC520"/>
<path fill-rule="evenodd" clip-rule="evenodd" d="M126.08 78.0616C124.208 80.7319 116.719 80.4484 108.894 79.1085L108.89 79.106C104.969 78.4349 99.7191 76.7903 96.2957 75.8261C97.033 82.5632 101.341 91.7817 102.405 93.9771C102.557 94.2888 102.642 94.459 102.642 94.459C102.36 100.331 68.1164 96.6708 68.1164 96.6708C68.1164 96.6708 72.6501 80.0041 73.4929 75.6749C70.7839 78.246 67.1596 82.6766 64.7137 85.5383C64.7115 85.543 64.7096 85.5455 64.7096 85.5455C51.2973 101.239 42.2713 119.408 42.2713 119.408L31.6798 100.468C31.6798 100.468 47.0018 86.857 59.19 76.5326H59.1922C65.5006 71.1897 70.9682 66.726 73.0415 65.4878C79.118 61.8533 92.9778 63.1601 96.8011 65.3956C98.9135 66.6338 104.402 66.9906 108.89 67.0639C112.521 67.1252 115.495 66.9976 115.495 66.9976C116.114 58.271 118.868 53.5304 118.868 43.589C118.868 43.589 121.538 42.6274 127.02 43.589C129.267 56.7372 128.89 74.0539 126.08 78.0616Z" fill="#FF9B89"/>
<path fill-rule="evenodd" clip-rule="evenodd" d="M102.405 93.9771C96.186 95.4541 86.3502 95.5023 71.0282 91.2252C77.9092 75.8262 96.1757 85.3548 96.2956 75.8262C97.0329 82.5635 101.341 91.7818 102.405 93.9771Z" fill="#797979" fill-opacity="0.2" style="mix-blend-mode:multiply"/>
<path fill-rule="evenodd" clip-rule="evenodd" d="M126.08 78.0616C124.207 80.7313 116.719 80.4475 108.895 79.1091L108.891 79.1069C108.891 79.1069 111.661 73.3062 108.891 67.0671V67.0648C112.521 67.1248 115.496 66.9979 115.496 66.9979C116.027 59.5081 118.131 54.9535 118.717 47.5307C118.796 46.5224 118.848 45.4634 118.863 44.3349C118.867 44.0904 118.869 43.841 118.869 43.5897C118.869 43.5897 120.768 42.9044 124.65 43.2689C125.37 43.3359 126.161 43.4398 127.021 43.5897C127.113 44.1366 127.203 44.6902 127.286 45.251C129.231 58.1538 128.774 74.22 126.08 78.0616Z" fill="#797979" fill-opacity="0.2" style="mix-blend-mode:multiply"/>
<path fill-rule="evenodd" clip-rule="evenodd" d="M127.727 72.4585L127.742 73.1345C125.57 73.1996 124.239 74.4078 123.541 76.411C123.309 77.0762 123.163 77.7914 123.087 78.5165C123.041 78.963 123.026 79.3507 123.03 79.6478L123.033 79.7608L122.441 79.796L122.439 79.7332C122.431 79.3975 122.445 78.9523 122.499 78.4363C122.58 77.6567 122.738 76.8855 122.99 76.1611C123.761 73.9503 125.26 72.5683 127.63 72.4621L127.727 72.4585Z" fill="#FF9B89"/>
<path fill-rule="evenodd" clip-rule="evenodd" d="M64.7137 85.5384C64.7115 85.5432 64.7096 85.5454 64.7096 85.5454C51.2973 101.239 42.2715 119.408 42.2715 119.408L31.6798 100.468C31.6798 100.468 47.0018 86.8571 59.1902 76.5327H59.1922C67.8121 79.7134 64.836 85.3164 64.7137 85.5384Z" fill="#797979" fill-opacity="0.2" style="mix-blend-mode:multiply"/>
<path fill-rule="evenodd" clip-rule="evenodd" d="M91.1756 73.049C90.0993 73.049 89.4264 72.4523 89.9648 71.9746C90.5029 71.4974 91.8483 71.4974 92.3867 71.9746C92.9249 72.4523 92.2522 73.049 91.1756 73.049Z" fill="#797979" fill-opacity="0.2" style="mix-blend-mode:multiply"/>
<path fill-rule="evenodd" clip-rule="evenodd" d="M85.9171 84.1268C84.8408 84.1268 84.1678 83.5301 84.7062 83.0524C85.2444 82.575 86.59 82.575 87.1282 83.0524C87.6663 83.5301 86.9936 84.1268 85.9171 84.1268Z" fill="#FF9B89"/>
<path fill-rule="evenodd" clip-rule="evenodd" d="M79.3098 73.049C78.2335 73.049 77.5606 72.4523 78.0989 71.9746C78.6371 71.4974 79.9825 71.4974 80.5209 71.9746C81.059 72.4523 80.3863 73.049 79.3098 73.049Z" fill="#797979" fill-opacity="0.2" style="mix-blend-mode:multiply"/>
<path fill-rule="evenodd" clip-rule="evenodd" d="M95.3171 72.3755L96.6203 79.778L95.3171 72.3755Z" fill="#FF9B89"/>
<path fill-rule="evenodd" clip-rule="evenodd" d="M55.6499 93.6937C56.2934 93.0314 57.0868 92.9299 57.9722 93.477L58.0327 93.5153L57.7399 94.1033C56.6724 93.4113 55.8853 93.9528 55.3018 95.4634L55.2509 95.5992C55.2425 95.6222 55.2341 95.6455 55.2258 95.6689L55.1764 95.8122L55.128 95.9604C55.12 95.9855 55.1121 96.0108 55.1042 96.0363L55.0574 96.1919C55.0419 96.2445 55.0266 96.2979 55.0115 96.3522C54.8463 96.9451 54.7186 97.5834 54.6244 98.2221C54.6079 98.334 54.5931 98.4418 54.5798 98.545L54.5553 98.7448L54.5363 98.9164L54.5216 99.0684L53.9315 99.0055L53.9416 98.8967L53.9564 98.7553L53.9677 98.656L53.9933 98.447C54.0072 98.3392 54.0227 98.2266 54.04 98.1098C54.1385 97.442 54.2721 96.7738 54.4467 96.1473C54.7484 95.0646 55.1403 94.2182 55.6499 93.6937Z" fill="#FF9B89"/>
<path fill-rule="evenodd" clip-rule="evenodd" d="M90.2012 64.6194L87.5426 64.4341L90.2012 64.6194Z" fill="#FF9B89"/>
<path fill-rule="evenodd" clip-rule="evenodd" d="M78.9572 64.8558L82.8585 64.4341L78.9572 64.8558Z" fill="#FF9B89"/>
<path fill-rule="evenodd" clip-rule="evenodd" d="M24.2938 113.638L22.8747 116.611C22.5037 117.389 22.7114 118.36 23.3542 118.855L25.2959 120.35L25.6584 125.638C25.7139 126.451 26.263 127.106 26.9718 127.207L30.2319 127.672L31.3718 130.067C31.6474 130.646 32.1961 130.986 32.7718 130.935L37.6433 130.5L35.528 121.662L24.2938 113.638Z" fill="#FF9B89"/>
<path fill-rule="evenodd" clip-rule="evenodd" d="M24.2938 113.638L22.8747 116.611C22.5037 117.389 22.7114 118.36 23.3542 118.855L25.2959 120.35L25.6584 125.638C25.7139 126.451 26.263 127.106 26.9718 127.207L30.2319 127.672L31.3718 130.067C31.6474 130.646 32.1961 130.986 32.7718 130.935L37.6433 130.5L35.528 121.662L24.2938 113.638Z" fill="#797979" fill-opacity="0.2" style="mix-blend-mode:multiply"/>
<path fill-rule="evenodd" clip-rule="evenodd" d="M75.3912 37.6058L90.2227 33.8789C90.0474 28.3864 81.1985 25.0387 75.3912 37.6058Z" fill="#FF4654"/>
<path fill-rule="evenodd" clip-rule="evenodd" d="M75.3912 37.6058L90.2227 33.8789C90.0474 28.3864 81.1985 25.0387 75.3912 37.6058Z" fill="#797979" fill-opacity="0.2" style="mix-blend-mode:multiply"/>
<path fill-rule="evenodd" clip-rule="evenodd" d="M83.8233 43.5081C86.9943 42.7106 90.1357 41.7456 93.1824 40.5019C94.7025 39.8764 96.2016 39.178 97.6225 38.3426C98.33 37.9236 99.021 37.4671 99.6369 36.9401C99.9399 36.6759 100.231 36.3921 100.448 36.0903C100.558 35.9413 100.649 35.7859 100.699 35.6478C100.753 35.5064 100.756 35.403 100.741 35.331C100.726 35.2585 100.686 35.1726 100.588 35.0734C100.492 34.9756 100.353 34.8818 100.201 34.8002C99.8957 34.6345 99.5304 34.5173 99.1584 34.4262C98.7838 34.3394 98.4007 34.2594 98.0042 34.2324L96.8247 34.1172C96.0258 34.1122 95.2319 34.0622 94.4278 34.1201C94.0268 34.1393 93.6261 34.1505 93.2251 34.176L92.0207 34.2795C88.8083 34.5725 85.606 35.164 82.4394 35.9133C79.2716 36.6588 76.1292 37.5782 73.0801 38.7687L71.9374 39.2157C71.5607 39.3748 71.1892 39.5466 70.8146 39.7114C70.0566 40.0243 69.3459 40.4314 68.6148 40.7995L67.5726 41.4419C67.2184 41.6473 66.8948 41.895 66.5814 42.1452C66.2716 42.3981 65.9773 42.6723 65.7538 42.9642C65.643 43.1087 65.5477 43.2586 65.4936 43.3929C65.4379 43.5297 65.4292 43.6292 65.4413 43.7051C65.4523 43.7813 65.4932 43.8771 65.593 43.9831C65.6884 44.0881 65.8267 44.1895 65.98 44.2768C66.2864 44.4551 66.6525 44.5834 67.0236 44.688C67.7733 44.8913 68.5671 44.9956 69.3627 45.0579C70.9581 45.1771 72.5773 45.1374 74.1902 45.0168C75.8044 44.8967 77.4169 44.6954 79.0233 44.4404C80.6293 44.1814 82.2323 43.8807 83.8233 43.5081ZM83.9474 44.1898C80.7507 44.9668 77.5217 45.6043 74.2508 45.9282C72.6156 46.086 70.9709 46.1812 69.3115 46.102C68.4815 46.0594 67.648 45.9769 66.8068 45.7743C66.3862 45.6668 65.963 45.538 65.5364 45.3077C65.3243 45.1923 65.1087 45.0525 64.9032 44.8426C64.7005 44.6402 64.5 44.333 64.4279 43.952C64.3522 43.5719 64.4214 43.191 64.5334 42.9063C64.6462 42.6153 64.794 42.3858 64.9463 42.1768C65.2539 41.7625 65.5939 41.4424 65.9401 41.1462C66.2884 40.8559 66.64 40.5784 67.0085 40.3532L68.105 39.6467C68.8571 39.2466 69.5988 38.8046 70.3691 38.4671C70.7516 38.289 71.1325 38.1037 71.5167 37.932L72.679 37.4518C75.7897 36.2116 78.9681 35.2574 82.1774 34.4768C85.3921 33.7257 88.6417 33.1605 91.9276 32.8815L93.1612 32.7868C93.5737 32.7697 93.9878 32.7665 94.4011 32.7559C95.2254 32.7151 96.0605 32.7832 96.8903 32.808L98.1432 32.9574C98.5601 32.9967 98.9799 33.0913 99.4011 33.1991C99.8221 33.3136 100.246 33.4527 100.674 33.6932C100.888 33.8158 101.104 33.9594 101.31 34.176C101.513 34.387 101.711 34.7062 101.776 35.0921C101.844 35.4772 101.767 35.8532 101.651 36.1322C101.535 36.4196 101.386 36.6466 101.231 36.8495C100.919 37.2559 100.576 37.5666 100.227 37.8571C99.5256 38.4261 98.7896 38.8808 98.043 39.2973C96.5477 40.1244 95.0063 40.7867 93.4504 41.3831C90.3364 42.5697 87.1536 43.4642 83.9474 44.1898Z" fill="#FF4654"/>
<path fill-rule="evenodd" clip-rule="evenodd" d="M88.2542 67.5758C88.2542 67.5758 85.3178 70.0026 82.0795 67.0264L81.9908 60.4945L81.9711 58.9628L87.0052 58.7144L87.3846 61.4011L88.2542 67.5758Z" fill="#FF9B89"/>
<path fill-rule="evenodd" clip-rule="evenodd" d="M87.3788 61.6074L81.9867 60.6455L81.9701 58.9957L87.005 58.7144L87.3788 61.6074Z" fill="#797979" fill-opacity="0.2" style="mix-blend-mode:multiply"/>
<path fill-rule="evenodd" clip-rule="evenodd" d="M92.93 50.3661C92.7259 52.1767 91.1869 53.1011 90.1599 52.0301C89.1328 50.959 89.3882 48.6955 90.6195 47.9561C91.8505 47.2163 93.1343 48.5553 92.93 50.3661Z" fill="#FF9B89"/>
<path fill-rule="evenodd" clip-rule="evenodd" d="M92.93 50.3661C92.7259 52.1767 91.1869 53.1011 90.1599 52.0301C89.1328 50.959 89.3882 48.6955 90.6195 47.9561C91.8505 47.2163 93.1343 48.5553 92.93 50.3661Z" fill="#797979" fill-opacity="0.2" style="mix-blend-mode:multiply"/>
<path fill-rule="evenodd" clip-rule="evenodd" d="M78.8539 51.567C78.5021 53.9271 76.125 54.962 74.5751 53.4294C73.0254 51.897 73.4652 48.9467 75.3669 48.119C77.2685 47.291 79.2058 49.2067 78.8539 51.567Z" fill="#FF9B89"/>
<path fill-rule="evenodd" clip-rule="evenodd" d="M78.8539 51.567C78.5021 53.9271 76.125 54.962 74.5751 53.4294C73.0254 51.897 73.4652 48.9467 75.3669 48.119C77.2685 47.291 79.2058 49.2067 78.8539 51.567Z" fill="#797979" fill-opacity="0.2" style="mix-blend-mode:multiply"/>
<path fill-rule="evenodd" clip-rule="evenodd" d="M76.9324 49.9311C77.4129 51.0769 76.8127 52.2844 75.8519 52.105C74.8914 51.9251 74.2908 50.4928 74.7711 49.5267C75.2511 48.5605 76.4519 48.7853 76.9324 49.9311Z" fill="#797979" fill-opacity="0.2" style="mix-blend-mode:multiply"/>
<path fill-rule="evenodd" clip-rule="evenodd" d="M78.0621 49.2528C72.5816 42.9253 74.006 38.5699 76.5651 41.0516C81.1409 36.132 89.2494 34.2171 91.2367 36.4593C93.2238 38.7016 90.9214 41.5908 90.9214 41.5908C90.9214 41.5908 92.9516 40.9826 91.9754 42.8114C90.9988 44.6402 93.2738 42.1406 93.9811 44.273C94.6886 46.4055 89.8267 48.3484 89.8267 48.3484L78.0621 49.2528Z" fill="#7D3F50"/>
<path fill-rule="evenodd" clip-rule="evenodd" d="M77.1239 45.6094L80.3971 58.3201C80.5732 59.0043 81.1372 59.4616 81.7615 59.4267L87.7665 59.0904C87.7665 59.0904 91.2016 51.6912 90.1813 40.9383C83.3831 37.5491 79.4241 40.6831 77.7308 42.7218C77.0915 43.4918 76.8617 44.5919 77.1239 45.6094Z" fill="#FF9B89"/>
<path fill-rule="evenodd" clip-rule="evenodd" d="M77.4374 42.8669C83.0945 37.2279 84.7278 44.8558 90.4479 41.4741C90.4479 41.4741 91.1773 40.0596 90.7742 39.2711C89.0278 35.8539 84.0191 37.0376 84.0191 37.0376C84.0191 37.0376 77.4236 38.4095 77.4374 42.8669Z" fill="#7D3F50"/>
<path fill-rule="evenodd" clip-rule="evenodd" d="M81.0677 51.9483C78.5019 52.6863 76.2447 50.1898 77.0047 47.4543C77.7646 44.7191 80.9717 43.7962 82.7774 45.7937C84.5832 47.7909 83.6333 51.2103 81.0677 51.9483Z" fill="#15AD8B"/>
<path fill-rule="evenodd" clip-rule="evenodd" d="M91.6218 46.9685C90.5573 44.1534 87.0498 43.5529 85.308 45.8876C83.5665 48.2222 84.8971 51.741 87.7031 52.2214C90.5093 52.7018 92.6865 49.7835 91.6218 46.9685Z" fill="#15AD8B"/>
<path fill-rule="evenodd" clip-rule="evenodd" d="M76.6281 47.318C75.7714 50.4015 78.3078 53.2069 81.1643 52.3853C84.0206 51.5637 85.088 47.7212 83.0525 45.4698C81.036 43.2393 77.4767 44.2633 76.6281 47.318ZM82.5025 46.1172C84.0784 47.8603 83.2461 50.8566 80.9712 51.511C78.696 52.1654 76.7182 49.9778 77.3815 47.5904C78.0459 45.1986 80.8507 44.3696 82.4542 46.0651L82.5025 46.1172Z" fill="white"/>
<path fill-rule="evenodd" clip-rule="evenodd" d="M83.9215 47.8701L84.4985 48.0245L83.8139 51.3555C83.7989 51.4289 83.8441 51.4987 83.907 51.5067L83.9246 51.5073L85.0309 51.4453L85.06 52.1208L83.9537 52.1827C83.5006 52.2082 83.1494 51.7443 83.2294 51.2419L83.2369 51.2011L83.9215 47.8701Z" fill="#FF9B89"/>
<path fill-rule="evenodd" clip-rule="evenodd" d="M85.0072 45.5951C83.0574 48.2089 84.5424 52.1359 87.6446 52.667C90.7469 53.198 93.1767 49.9412 91.9847 46.7896C90.8042 43.6678 86.9387 43.006 85.0072 45.5951ZM91.2591 47.1469C92.1964 49.6253 90.2719 52.2051 87.7618 51.7754C85.277 51.35 84.0993 48.2971 85.5638 46.2416L85.609 46.1797C87.1609 44.0994 90.3106 44.6386 91.2591 47.1469Z" fill="white"/>
<path fill-rule="evenodd" clip-rule="evenodd" d="M87.1869 48.4783C87.3651 48.0223 87.0413 47.4793 86.6041 47.5011C86.1669 47.523 85.9442 48.0931 86.2032 48.5275C86.4622 48.9616 87.0089 48.9343 87.1869 48.4783Z" fill="#362B42"/>
<path fill-rule="evenodd" clip-rule="evenodd" d="M81.9494 48.7068C82.344 48.345 82.2622 47.591 81.8021 47.3498C81.3419 47.1086 80.8488 47.561 80.9142 48.1642C80.9798 48.7674 81.5549 49.0688 81.9494 48.7068Z" fill="#362B42"/>
<path fill-rule="evenodd" clip-rule="evenodd" d="M81.0904 43.8672C79.5357 43.764 78.6062 42.8763 79.4172 42.2692C80.228 41.6624 82.1712 41.7916 82.9149 42.5016C83.6587 43.2119 82.645 43.9704 81.0904 43.8672Z" fill="#7D3F50"/>
<path fill-rule="evenodd" clip-rule="evenodd" d="M89.0383 44.5605C88.4641 43.6687 86.6037 43.0162 85.6893 43.3856C84.7752 43.7549 85.4932 44.8693 86.9816 45.3916C88.4699 45.9139 89.6126 45.4523 89.0383 44.5605Z" fill="#7D3F50"/>
<path fill-rule="evenodd" clip-rule="evenodd" d="M81.0904 43.8672C79.5357 43.764 78.6062 42.8763 79.4172 42.2692C80.228 41.6624 82.1712 41.7916 82.9149 42.5016C83.6587 43.2119 82.645 43.9704 81.0904 43.8672Z" fill="#797979" fill-opacity="0.2" style="mix-blend-mode:multiply"/>
<path fill-rule="evenodd" clip-rule="evenodd" d="M89.0383 44.5605C88.4641 43.6687 86.6037 43.0162 85.6893 43.3856C84.7752 43.7549 85.4932 44.8693 86.9816 45.3916C88.4699 45.9139 89.6126 45.4523 89.0383 44.5605Z" fill="#797979" fill-opacity="0.2" style="mix-blend-mode:multiply"/>
<path fill-rule="evenodd" clip-rule="evenodd" d="M82.9152 54.5888C84.7567 55.829 86.258 55.5525 87.8431 52.6522C87.9385 52.4771 87.8154 52.2519 87.6358 52.2751C86.6658 52.4 84.2824 52.8177 82.8816 54.0198C82.7121 54.165 82.7327 54.4659 82.9152 54.5888Z" fill="white"/>
<path fill-rule="evenodd" clip-rule="evenodd" d="M85.5827 56.8647C85.1002 57.0573 84.7051 56.872 84.8714 56.5316C85.038 56.1912 85.6411 55.9507 85.9573 56.0988C86.2732 56.2469 86.0649 56.6725 85.5827 56.8647Z" fill="#797979" fill-opacity="0.2" style="mix-blend-mode:multiply"/>
<path fill-rule="evenodd" clip-rule="evenodd" d="M77.293 39.526C76.7426 40.0203 76.13 39.9403 76.1904 39.3817C76.2509 38.8231 76.939 38.205 77.429 38.2693C77.9191 38.3333 77.8436 39.0316 77.293 39.526Z" fill="#7D3F50"/>
<path fill-rule="evenodd" clip-rule="evenodd" d="M120.521 15.6172V42.3063H119.533V15.6172H120.521Z" fill="#6343F0"/>
<path fill-rule="evenodd" clip-rule="evenodd" d="M120.521 15.6172V42.3063H119.533V15.6172H120.521Z" fill="white" fill-opacity="0.3" style="mix-blend-mode:lighten"/>
<path fill-rule="evenodd" clip-rule="evenodd" d="M106.141 5.92824L119.755 16.1699L120.306 16.1648L133.452 5.92316L133.271 4.90526C124.577 2.91095 113.464 2.91095 106.295 4.91032L106.141 5.92824ZM131.912 5.7582L120.022 15.0207L107.654 5.71605L107.835 5.67384C114.484 4.14029 123.958 4.15797 131.775 5.73046L131.912 5.7582Z" fill="#6343F0"/>
<path fill-rule="evenodd" clip-rule="evenodd" d="M117.477 9.79642C116.575 11.3712 114.517 11.2407 113.773 9.56176C113.029 7.88262 114.156 5.91426 115.803 6.01863C117.449 6.123 118.379 8.22187 117.477 9.79642Z" fill="#FF4654"/>
<path fill-rule="evenodd" clip-rule="evenodd" d="M132.22 31.1646C131.971 32.039 131.597 33.3129 131.121 34.8241C130.183 37.803 128.847 41.7 127.285 45.2511C127.126 45.618 126.962 45.9825 126.796 46.3403C126.796 46.3403 125.556 46.5524 123.869 46.444C122.511 46.3563 120.863 46.0632 119.346 45.2813L118.863 44.3352L117.627 41.9124L117.481 39.6582L115.888 38.7191L115.202 36.3955C115.014 35.7587 115.146 35.0572 115.544 34.5635L116.442 33.4468L115.243 31.1854C114.846 30.4402 114.964 29.4803 115.522 28.885L116.179 28.186L115.348 25.8624C115.026 24.9625 115.372 23.9334 116.137 23.509L120.903 20.8716C120.903 20.8716 126.094 22.9619 131.384 28.5782C131.502 28.7029 131.621 28.8298 131.738 28.9589C132.258 29.5263 132.44 30.3849 132.22 31.1646Z" fill="#FF9B89"/>
<path fill-rule="evenodd" clip-rule="evenodd" d="M132.22 31.1646C131.971 32.039 131.597 33.3129 131.121 34.8241C130.183 37.803 128.847 41.7 127.285 45.2511C127.126 45.618 126.962 45.9825 126.796 46.3403C126.796 46.3403 125.556 46.5524 123.869 46.444C122.511 46.3563 120.863 46.0632 119.346 45.2813L118.863 44.3352L117.627 41.9124L117.481 39.6582L115.888 38.7191L115.202 36.3955C115.014 35.7587 115.146 35.0572 115.544 34.5635L116.442 33.4468L115.243 31.1854C114.846 30.4402 114.964 29.4803 115.522 28.885L116.179 28.186L115.348 25.8624C115.026 24.9625 115.372 23.9334 116.137 23.509L120.903 20.8716C120.903 20.8716 126.094 22.9619 131.384 28.5782C131.502 28.7029 131.621 28.8298 131.738 28.9589C132.258 29.5263 132.44 30.3849 132.22 31.1646Z" fill="#797979" fill-opacity="0.2" style="mix-blend-mode:multiply"/>
<path fill-rule="evenodd" clip-rule="evenodd" d="M119.598 25.1923C120.123 24.7946 120.801 24.7793 121.338 25.148L121.39 25.1849L126.078 28.6793C126.215 28.7815 126.254 28.991 126.164 29.1473C126.08 29.2945 125.912 29.3421 125.779 29.262L125.754 29.2455L121.066 25.751C120.733 25.503 120.306 25.4949 119.968 25.7257L119.926 25.7558L115.736 28.9292C115.599 29.0325 115.415 28.9901 115.325 28.8345C115.24 28.6881 115.268 28.4936 115.385 28.3851L115.408 28.3658L119.598 25.1923Z" fill="#FF9B89"/>
<path fill-rule="evenodd" clip-rule="evenodd" d="M119.158 30.678C119.625 30.2591 120.254 30.1643 120.798 30.4261L120.852 30.4534L124.643 32.4639C124.791 32.5427 124.855 32.7438 124.787 32.9131C124.722 33.0725 124.562 33.1469 124.419 33.0895L124.393 33.0772L120.602 31.0667C120.263 30.8868 119.866 30.93 119.564 31.1763L119.525 31.2096L116.22 34.1743C116.092 34.2897 115.905 34.2643 115.804 34.1175C115.709 33.9799 115.723 33.7844 115.831 33.6654L115.854 33.6427L119.158 30.678Z" fill="#FF9B89"/>
<path fill-rule="evenodd" clip-rule="evenodd" d="M120.479 37.3149V42.1301H119.492V37.3149H120.479Z" fill="#6343F0"/>
<path fill-rule="evenodd" clip-rule="evenodd" d="M106.141 5.92824L119.755 16.1699L120.306 16.1648L133.452 5.92316L133.271 4.90526C124.577 2.91095 113.464 2.91095 106.295 4.91032L106.141 5.92824ZM131.912 5.7582L120.022 15.0207L107.654 5.71605L107.835 5.67384C114.484 4.14029 123.958 4.15797 131.775 5.73046L131.912 5.7582Z" fill="white" fill-opacity="0.3" style="mix-blend-mode:lighten"/>
<path fill-rule="evenodd" clip-rule="evenodd" d="M123.87 46.4439C122.78 47.8929 120.715 47.9436 118.717 47.5307C118.796 46.5224 118.848 45.4634 118.863 44.3351L117.627 41.9121L124.549 42.0785C124.606 42.5052 124.638 42.8999 124.65 43.2691C124.695 44.7226 124.396 45.7472 123.87 46.4439Z" fill="#797979" fill-opacity="0.2" style="mix-blend-mode:multiply"/>
<path fill-rule="evenodd" clip-rule="evenodd" d="M113.029 41.6859C114.188 41.4887 115.348 41.3854 116.507 41.314C117.666 41.2367 118.826 41.2078 119.985 41.2042C121.144 41.2022 122.303 41.2301 123.463 41.3063C124.622 41.3764 125.781 41.4826 126.941 41.6859V42.6498C125.781 42.8531 124.622 42.9593 123.463 43.0292C122.303 43.1058 121.144 43.1336 119.985 43.1315C118.826 43.1279 117.666 43.0991 116.507 43.022C115.348 42.9503 114.188 42.8471 113.029 42.6498V41.6859Z" fill="#6343F0"/>
<path fill-rule="evenodd" clip-rule="evenodd" d="M120.479 37.3149V42.1301H119.492V37.3149H120.479Z" fill="white" fill-opacity="0.3" style="mix-blend-mode:lighten"/>
<path fill-rule="evenodd" clip-rule="evenodd" d="M118.765 37.3566C119.264 36.6678 120.119 36.4833 120.801 36.9093L120.849 36.9401L122.532 38.0741C122.673 38.1691 122.72 38.3764 122.636 38.5372C122.558 38.6886 122.393 38.7448 122.256 38.6717L122.231 38.6565L120.547 37.5223C120.122 37.2358 119.581 37.3323 119.253 37.7463L119.222 37.7874L117.711 39.8741C117.607 40.0181 117.42 40.0384 117.294 39.9194C117.175 39.8079 117.152 39.6136 117.236 39.4712L117.254 39.4434L118.765 37.3566Z" fill="#FF9B89"/>
<path fill-rule="evenodd" clip-rule="evenodd" d="M132.22 31.1646C131.971 32.039 131.597 33.3128 131.121 34.824C126.76 39.6257 126.349 37.8029 131.384 28.5781C131.502 28.7028 131.621 28.8297 131.738 28.9589C132.258 29.5262 132.44 30.3849 132.22 31.1646Z" fill="#797979" fill-opacity="0.2" style="mix-blend-mode:multiply"/>
<path fill-rule="evenodd" clip-rule="evenodd" d="M120.774 20.5672C120.921 20.4857 121.098 20.5558 121.17 20.7239C121.237 20.882 121.186 21.0705 121.057 21.16L121.032 21.1756L116.266 23.813C116.119 23.8945 115.941 23.8244 115.87 23.6563C115.803 23.4982 115.853 23.3097 115.982 23.2202L116.007 23.2046L120.774 20.5672Z" fill="#FF9B89"/>
<path fill-rule="evenodd" clip-rule="evenodd" d="M127.727 72.4585L127.742 73.1345C125.57 73.1996 124.239 74.4078 123.541 76.411C123.309 77.0762 123.163 77.7914 123.087 78.5165C123.041 78.963 123.026 79.3507 123.03 79.6478L123.033 79.7608L122.441 79.796L122.439 79.7332C122.431 79.3975 122.445 78.9523 122.499 78.4363C122.58 77.6567 122.738 76.8855 122.99 76.1611C123.761 73.9503 125.26 72.5683 127.63 72.4621L127.727 72.4585Z" fill="#797979" fill-opacity="0.2" style="mix-blend-mode:multiply"/>
<path fill-rule="evenodd" clip-rule="evenodd" d="M127.727 72.4585L127.742 73.1345C125.57 73.1996 124.239 74.4078 123.541 76.411C123.309 77.0762 123.163 77.7914 123.087 78.5165C123.041 78.963 123.026 79.3507 123.03 79.6478L123.033 79.7608L122.441 79.796L122.439 79.7332C122.431 79.3975 122.445 78.9523 122.499 78.4363C122.58 77.6567 122.738 76.8855 122.99 76.1611C123.761 73.9503 125.26 72.5683 127.63 72.4621L127.727 72.4585Z" fill="#797979" fill-opacity="0.2" style="mix-blend-mode:multiply"/>
<path fill-rule="evenodd" clip-rule="evenodd" d="M55.6499 93.6937C56.2934 93.0314 57.0868 92.9299 57.9722 93.477L58.0327 93.5153L57.7399 94.1033C56.6724 93.4113 55.8853 93.9528 55.3018 95.4634L55.2509 95.5992C55.2425 95.6222 55.2341 95.6455 55.2258 95.6689L55.1764 95.8122L55.128 95.9604C55.12 95.9855 55.1121 96.0108 55.1042 96.0363L55.0574 96.1919C55.0419 96.2445 55.0266 96.2979 55.0115 96.3522C54.8463 96.9451 54.7186 97.5834 54.6244 98.2221C54.6079 98.334 54.5931 98.4418 54.5798 98.545L54.5553 98.7448L54.5363 98.9164L54.5216 99.0684L53.9315 99.0055L53.9416 98.8967L53.9564 98.7553L53.9677 98.656L53.9933 98.447C54.0072 98.3392 54.0227 98.2266 54.04 98.1098C54.1385 97.442 54.2721 96.7738 54.4467 96.1473C54.7484 95.0646 55.1403 94.2182 55.6499 93.6937Z" fill="#797979" fill-opacity="0.2" style="mix-blend-mode:multiply"/>
<path fill-rule="evenodd" clip-rule="evenodd" d="M55.6499 93.6937C56.2934 93.0314 57.0868 92.9299 57.9722 93.477L58.0327 93.5153L57.7399 94.1033C56.6724 93.4113 55.8853 93.9528 55.3018 95.4634L55.2509 95.5992C55.2425 95.6222 55.2341 95.6455 55.2258 95.6689L55.1764 95.8122L55.128 95.9604C55.12 95.9855 55.1121 96.0108 55.1042 96.0363L55.0574 96.1919C55.0419 96.2445 55.0266 96.2979 55.0115 96.3522C54.8463 96.9451 54.7186 97.5834 54.6244 98.2221C54.6079 98.334 54.5931 98.4418 54.5798 98.545L54.5553 98.7448L54.5363 98.9164L54.5216 99.0684L53.9315 99.0055L53.9416 98.8967L53.9564 98.7553L53.9677 98.656L53.9933 98.447C54.0072 98.3392 54.0227 98.2266 54.04 98.1098C54.1385 97.442 54.2721 96.7738 54.4467 96.1473C54.7484 95.0646 55.1403 94.2182 55.6499 93.6937Z" fill="#797979" fill-opacity="0.2" style="mix-blend-mode:multiply"/>
<path fill-rule="evenodd" clip-rule="evenodd" d="M83.9215 47.8701L84.4985 48.0245L83.8139 51.3555C83.7989 51.4289 83.8441 51.4987 83.907 51.5067L83.9246 51.5073L85.0309 51.4453L85.06 52.1208L83.9537 52.1827C83.5006 52.2082 83.1494 51.7443 83.2294 51.2419L83.2369 51.2011L83.9215 47.8701Z" fill="#797979" fill-opacity="0.2" style="mix-blend-mode:multiply"/>
<path fill-rule="evenodd" clip-rule="evenodd" d="M119.598 25.1923C120.123 24.7946 120.801 24.7793 121.338 25.148L121.39 25.1849L126.078 28.6793C126.215 28.7815 126.254 28.991 126.164 29.1473C126.08 29.2945 125.912 29.3421 125.779 29.262L125.754 29.2455L121.066 25.751C120.733 25.503 120.306 25.4949 119.968 25.7257L119.926 25.7558L115.736 28.9292C115.599 29.0325 115.415 28.9901 115.325 28.8345C115.24 28.6881 115.268 28.4936 115.385 28.3851L115.408 28.3658L119.598 25.1923Z" fill="#797979" fill-opacity="0.2" style="mix-blend-mode:multiply"/>
<path fill-rule="evenodd" clip-rule="evenodd" d="M119.158 30.678C119.625 30.2591 120.254 30.1643 120.798 30.4261L120.852 30.4534L124.643 32.4639C124.791 32.5427 124.855 32.7438 124.787 32.9131C124.722 33.0725 124.562 33.1469 124.419 33.0895L124.393 33.0772L120.602 31.0667C120.263 30.8868 119.866 30.93 119.564 31.1763L119.525 31.2096L116.22 34.1743C116.092 34.2897 115.905 34.2643 115.804 34.1175C115.709 33.9799 115.723 33.7844 115.831 33.6654L115.854 33.6427L119.158 30.678Z" fill="#797979" fill-opacity="0.2" style="mix-blend-mode:multiply"/>
<path fill-rule="evenodd" clip-rule="evenodd" d="M118.765 37.3566C119.264 36.6678 120.119 36.4833 120.801 36.9093L120.849 36.9401L122.532 38.0741C122.673 38.1691 122.72 38.3764 122.636 38.5372C122.558 38.6886 122.393 38.7448 122.256 38.6717L122.231 38.6565L120.547 37.5223C120.122 37.2358 119.581 37.3323 119.253 37.7463L119.222 37.7874L117.711 39.8741C117.607 40.0181 117.42 40.0384 117.294 39.9194C117.175 39.8079 117.152 39.6136 117.236 39.4712L117.254 39.4434L118.765 37.3566Z" fill="#797979" fill-opacity="0.2" style="mix-blend-mode:multiply"/>
<path fill-rule="evenodd" clip-rule="evenodd" d="M120.774 20.5672C120.921 20.4857 121.098 20.5558 121.17 20.7239C121.237 20.882 121.186 21.0705 121.057 21.16L121.032 21.1756L116.266 23.813C116.119 23.8945 115.941 23.8244 115.87 23.6563C115.803 23.4982 115.853 23.3097 115.982 23.2202L116.007 23.2046L120.774 20.5672Z" fill="#797979" fill-opacity="0.2" style="mix-blend-mode:multiply"/>
<path fill-rule="evenodd" clip-rule="evenodd" d="M68.6441 94.0748C66.2184 91.2814 76.8917 86.5005 86.5291 86.5005C96.1669 86.5005 102.558 89.3049 101.533 91.8589C105.711 100.396 112.401 104.895 115.339 110.525L97.4643 123.437C96.7778 123.933 95.8656 123.592 95.5669 122.73C91.6729 111.493 90.3265 105.168 90.3265 105.168C87.9008 103.41 81.3661 105.789 81.3661 105.789C79.0501 109.975 74.8891 122.733 74.8891 122.733L57.0917 108.88C60.0761 103.389 65.2746 99.827 68.6441 94.0748Z" fill="#FFC520"/>
<path d="M68.4563 93.6784C78.0968 87.7361 91.604 86.4205 101.4 91.2986L101.696 91.448L101.37 92.2702C97.6574 90.359 93.3664 89.3775 88.9485 89.2341L89.3333 92.07C89.4487 92.9246 89.0154 93.7497 88.3069 94.0407L88.2581 94.0593L86.9856 94.529C87.0484 95.1878 87.0869 95.8279 87.1008 96.4489C87.14 98.1919 86.9924 99.6324 86.7405 100.758C86.733 100.792 86.7509 100.824 86.7786 100.832L86.7913 100.834H93.5168V101.735H86.7913C86.2403 101.735 85.8389 101.143 85.9749 100.534C86.209 99.4876 86.3481 98.1299 86.3108 96.4714C86.2625 94.3255 85.9158 91.9361 85.2112 89.3083C79.5378 89.7154 73.8634 91.4416 69.1194 94.2966L68.8323 94.4714L68.4563 93.6784ZM88.1458 89.2175C87.4413 89.2108 86.7343 89.2245 86.0266 89.2595C86.4274 90.7889 86.7101 92.2424 86.885 93.6189L88.0149 93.2019C88.3706 93.0703 88.5949 92.673 88.5569 92.2527L88.552 92.2077L88.1458 89.2175Z" fill="#797979" fill-opacity="0.2" style="mix-blend-mode:multiply"/>
<path fill-rule="evenodd" clip-rule="evenodd" d="M78.5361 106.453C82.8201 104.32 86.8527 103.915 90.2001 104.501C90.2715 104.513 90.3407 104.526 90.4078 104.539L90.6027 104.578C90.697 104.598 90.7863 104.618 90.8707 104.638L91.0356 104.68L91.1641 104.715L91.2286 104.734L91.0167 105.603L90.9434 105.581L90.8221 105.549L90.7843 105.54C90.5843 105.49 90.3489 105.439 90.0802 105.392C86.9128 104.837 83.0881 105.21 79.0133 107.2L78.8523 107.28L78.5361 106.453Z" fill="#FFC520"/>
<path fill-rule="evenodd" clip-rule="evenodd" d="M78.5361 106.453C82.8201 104.32 86.8527 103.915 90.2001 104.501C90.2715 104.513 90.3407 104.526 90.4078 104.539L90.6027 104.578C90.697 104.598 90.7863 104.618 90.8707 104.638L91.0356 104.68L91.1641 104.715L91.2286 104.734L91.0167 105.603L90.9434 105.581L90.8221 105.549L90.7843 105.54C90.5843 105.49 90.3489 105.439 90.0802 105.392C86.9128 104.837 83.0881 105.21 79.0133 107.2L78.8523 107.28L78.5361 106.453Z" fill="#797979" fill-opacity="0.2" style="mix-blend-mode:multiply"/>
<path fill-rule="evenodd" clip-rule="evenodd" d="M114.819 109.597C114.252 108.945 113.538 108.373 112.674 107.907C106.162 104.398 95.9913 109.559 94.3655 117.197C94.264 117.674 94.1997 118.139 94.1729 118.591C93.4998 116.54 92.9302 114.706 92.4539 113.102C94.1108 105.828 103.414 100.825 109.957 103.373C111.829 105.516 113.558 107.494 114.819 109.597Z" fill="#797979" fill-opacity="0.2" style="mix-blend-mode:multiply"/>
<path fill-rule="evenodd" clip-rule="evenodd" d="M78.5257 112.381C77.7821 114.349 77.0531 116.393 76.4442 118.14C76.4131 117.761 76.3572 117.374 76.2723 116.977C74.6692 109.444 64.6412 104.356 58.2186 107.818C57.9329 107.971 57.6658 108.137 57.4131 108.314C58.5625 106.343 59.9935 104.613 61.5035 102.921C67.8698 100.454 76.9061 105.313 78.5257 112.381Z" fill="#797979" fill-opacity="0.2" style="mix-blend-mode:multiply"/>
<path fill-rule="evenodd" clip-rule="evenodd" d="M72.4215 125.342C72.2212 125.443 72.0129 125.538 71.8005 125.621C69.0645 126.728 65.4447 126.599 61.8249 124.763C59.477 123.572 57.645 121.922 56.3891 120.1C53.5396 115.969 53.6488 110.944 57.4123 108.314C57.6651 108.136 57.9321 107.972 58.2191 107.818C59.752 106.991 61.4892 106.652 63.2687 106.719C67.6106 106.876 72.201 109.437 74.6682 113.198C75.4265 114.357 75.9848 115.628 76.2718 116.978C76.3568 117.374 76.4135 117.762 76.4437 118.141C76.7288 121.449 75.0726 124.022 72.4215 125.342Z" fill="#362B42"/>
<path fill-rule="evenodd" clip-rule="evenodd" d="M114.466 120.455C113.198 122.271 111.362 123.909 109.018 125.097C105.815 126.722 102.612 127.026 100.003 126.334C99.4471 126.186 98.9192 125.992 98.4217 125.759C95.7036 124.467 93.9686 121.906 94.1729 118.59C94.1992 118.14 94.264 117.674 94.3651 117.197C94.6603 115.81 95.2366 114.506 96.0213 113.32C98.5025 109.571 103.069 107.008 107.413 106.8C107.419 106.797 107.425 106.797 107.433 106.797H107.435C109.281 106.712 111.087 107.051 112.675 107.907C113.538 108.373 114.252 108.945 114.82 109.596C117.303 112.444 117.03 116.804 114.466 120.455Z" fill="#362B42"/>
<path fill-rule="evenodd" clip-rule="evenodd" d="M114.652 152.308C110.343 150.183 112.337 146.101 107.835 141.23C105.35 138.542 101.641 134.705 99.3639 128.501C99.0322 127.601 98.7169 126.685 98.4217 125.76C97.0828 121.567 96.1566 117.213 96.0211 113.321C98.5025 109.571 103.069 107.008 107.413 106.8C107.271 106.542 107.162 106.341 107.113 106.249C107.164 106.336 107.273 106.523 107.433 106.798H107.435C107.577 107.044 107.76 107.363 107.983 107.746C108.256 108.219 108.537 108.752 108.836 109.345C110.106 111.867 111.706 115.496 114.466 120.455C116.003 123.215 117.902 126.387 120.302 130.007C128.78 149.184 118.96 154.433 114.652 152.308Z" fill="#FF9B89"/>
<path fill-rule="evenodd" clip-rule="evenodd" d="M108.836 109.345C98.3225 108.286 101.51 118.964 100.003 126.334C99.8473 127.098 99.641 127.824 99.364 128.501C99.0323 127.6 98.7168 126.685 98.4217 125.759C97.083 121.567 96.1566 117.213 96.0212 113.32C98.5025 109.571 103.186 106.992 107.53 106.784C107.924 107.499 108.836 109.345 108.836 109.345Z" fill="#797979" fill-opacity="0.2" style="mix-blend-mode:multiply"/>
<path fill-rule="evenodd" clip-rule="evenodd" d="M74.6723 113.268C74.5529 117.045 73.6874 121.256 72.4214 125.342C72.3021 125.732 72.1768 126.122 72.0494 126.51C71.8149 127.223 71.5659 127.933 71.3093 128.632C69.0201 134.865 65.295 138.72 62.7996 141.42C58.2757 146.314 60.2798 150.411 55.9522 152.546C51.6245 154.68 41.7601 149.408 50.2757 130.144C52.8198 126.309 54.8015 122.975 56.389 120.1C59.5275 114.412 61.1272 110.513 62.4963 108.058C62.5489 107.965 62.5994 107.873 62.6498 107.783C62.9067 107.338 63.1171 106.98 63.2688 106.719C67.6105 106.876 72.2011 109.438 74.6681 113.198C74.6703 113.221 74.6703 113.244 74.6723 113.268Z" fill="#FF9B89"/>
<path fill-rule="evenodd" clip-rule="evenodd" d="M74.6723 113.268C74.553 117.045 73.6874 121.256 72.4214 125.342C72.3021 125.732 72.1768 126.122 72.0494 126.51C71.9625 126.221 71.8795 125.926 71.8007 125.621C70.1526 119.361 69.7987 109.957 62.4963 108.058C62.5489 107.965 62.5995 107.873 62.6498 107.783C62.9067 107.338 63.1171 106.98 63.2688 106.719C67.6105 106.876 72.2011 109.438 74.6681 113.198C74.6703 113.221 74.6703 113.244 74.6723 113.268Z" fill="#797979" fill-opacity="0.2" style="mix-blend-mode:multiply"/>
<path fill-rule="evenodd" clip-rule="evenodd" d="M101.386 107.951C105.748 105.613 110.86 105.847 115.743 109.114L115.891 109.214L115.485 109.988C110.785 106.781 105.892 106.533 101.722 108.767C98.1143 110.7 95.5362 114.325 95.1724 117.789L95.162 117.894L94.3761 117.799C94.7293 113.968 97.5057 110.03 101.386 107.951Z" fill="#362B42"/>
<path fill-rule="evenodd" clip-rule="evenodd" d="M56.6378 107.938C59.8432 106.071 64.4738 106.006 68.4853 107.756C72.868 109.667 75.9136 113.415 76.6078 118.395L76.6281 118.547L75.8463 118.678C75.2381 113.97 72.3796 110.42 68.2031 108.598C64.4332 106.953 60.0895 106.995 57.0976 108.684L56.9973 108.741L56.6378 107.938Z" fill="#362B42"/>
<path fill-rule="evenodd" clip-rule="evenodd" d="M58.2269 135.228C58.2269 135.228 60.6592 134.976 61.5516 136.444C62.444 137.911 60.589 140.953 60.589 140.953" fill="#FF9B89"/>
<path fill-rule="evenodd" clip-rule="evenodd" d="M58.9933 144.469C58.7758 156.088 50.4998 157.305 40.4342 139.868C32.8853 126.791 28.217 121.32 25.4064 116.62C22.5961 111.922 24.7375 112.525 21.1339 108.203C19.0711 105.731 20.3612 103.782 21.8153 103.931C22.7596 104.03 23.1139 105.209 23.996 106.393C24.0582 106.476 24.1722 106.383 24.1266 106.289C21.84 101.496 20.9183 98.6183 22.7679 98.6253C24.0995 98.6301 25.2677 100.974 26.0629 102.108C26.0983 102.161 26.1686 102.104 26.1396 102.047C22.7658 95.4801 23.0082 92.0843 25.1849 92.9186C25.9782 93.2234 26.6926 94.2418 27.6928 95.6336C27.7448 95.707 27.842 95.6243 27.7966 95.5463C24.1825 89.3338 24.9633 85.9144 27.0964 86.5217C28.3557 86.8808 29.4367 88.3201 31.8787 92.1623C26.1706 82.4382 29.0061 76.9204 31.8953 77.4544C34.7864 77.9862 37.5741 86.81 40.3038 89.3385C41.3353 90.2932 42.205 91.3921 42.9921 93.0013C44.2927 95.6572 45.3738 99.7053 46.602 106.79C47.8176 113.81 52.3286 122.081 55.5594 130.118C57.5643 135.111 59.0761 140.015 58.9933 144.469Z" fill="#FF9B89"/>
<path fill-rule="evenodd" clip-rule="evenodd" d="M22.6695 109.1C23.9183 107.825 25.1407 106.539 26.1726 105.108C27.2159 103.679 28.0032 102.116 28.6176 100.368C28.942 99.5012 29.2384 98.5774 29.6353 97.6726C30.0308 96.7685 30.504 95.8817 31.0769 95.0974C31.6433 94.3071 32.2872 93.6076 32.9641 92.978C33.6473 92.3561 34.3624 91.7982 35.1015 91.2957C35.2979 91.1621 35.5518 91.2356 35.6687 91.4594C35.774 91.6611 35.7324 91.9161 35.5798 92.0622L35.5737 92.0678C34.9346 92.6814 34.302 93.2918 33.7162 93.9449C33.1286 94.5954 32.5925 95.2879 32.1191 96.0196C31.6511 96.7567 31.2581 97.5389 30.9238 98.3737C30.5909 99.2097 30.2981 100.097 29.9737 101.01C29.6454 101.921 29.2627 102.841 28.7954 103.707C28.3215 104.568 27.7815 105.379 27.1825 106.114C27.0304 106.295 26.8812 106.479 26.7269 106.656L26.2549 107.176C25.9286 107.505 25.6065 107.839 25.2665 108.145C24.5934 108.767 23.8873 109.33 23.1631 109.854C22.97 109.994 22.7144 109.929 22.5919 109.709C22.4816 109.511 22.5168 109.255 22.6654 109.104L22.6695 109.1Z" fill="#797979" fill-opacity="0.2" style="mix-blend-mode:multiply"/>
<path fill-rule="evenodd" clip-rule="evenodd" d="M28.8975 83.019C29.5095 89.2927 33.0388 93.8434 33.0388 93.8434L28.8975 83.019Z" fill="#FF9B89"/>
<path fill-rule="evenodd" clip-rule="evenodd" d="M46.5995 142.505C49.0438 146.415 52.5255 147.269 52.8663 144.042C53.2073 140.815 50.1517 135.927 47.3667 135.244C44.5814 134.561 44.1552 138.595 46.5995 142.505Z" fill="#797979" fill-opacity="0.2" style="mix-blend-mode:multiply"/>
<path fill-rule="evenodd" clip-rule="evenodd" d="M55.5595 130.118C55.5326 130.392 55.5036 130.666 55.4704 130.94C42.0788 127.4 46.2747 106.314 42.9922 93.001C44.2928 95.6569 45.3738 99.7049 46.6021 106.79C47.8177 113.81 52.3285 122.081 55.5595 130.118Z" fill="#797979" fill-opacity="0.2" style="mix-blend-mode:multiply"/>
<path fill-rule="evenodd" clip-rule="evenodd" d="M112.387 135.067C112.387 135.067 109.966 134.816 109.077 136.277C108.189 137.739 110.035 140.766 110.035 140.766" fill="#FF9B89"/>
<path fill-rule="evenodd" clip-rule="evenodd" d="M149.121 108.203C145.517 112.525 147.659 111.922 144.848 116.62C144.78 116.734 144.711 116.847 144.643 116.96C141.812 121.587 137.187 127.105 129.82 139.868C128.596 141.99 127.397 143.836 126.237 145.419C117.86 156.856 111.452 154.675 111.261 144.469C111.046 132.847 121.681 118.173 123.653 106.79C125.624 95.4093 127.219 91.8668 129.951 89.3383C132.681 86.81 135.468 77.9862 138.359 77.4544C141.249 76.9204 144.084 82.4382 138.376 92.1623C140.818 88.3199 141.899 86.8808 143.158 86.5217C145.291 85.9144 146.072 89.3336 142.458 95.5463C142.413 95.6243 142.51 95.7068 142.562 95.6336C143.562 94.2418 144.276 93.2234 145.07 92.9184C147.247 92.0843 147.489 95.4801 144.115 102.047C144.086 102.104 144.156 102.16 144.192 102.108C144.987 100.974 146.155 98.6301 147.487 98.6253C149.336 98.6181 148.415 101.496 146.128 106.289C146.083 106.383 146.196 106.476 146.259 106.393C147.141 105.209 147.493 104.03 148.44 103.931C149.893 103.782 151.184 105.731 149.121 108.203Z" fill="#FF9B89"/>
<path fill-rule="evenodd" clip-rule="evenodd" d="M147.092 109.854C146.367 109.329 145.661 108.768 144.988 108.144C144.648 107.839 144.326 107.505 144 107.176L143.528 106.656C143.373 106.479 143.224 106.295 143.072 106.114C142.473 105.379 141.933 104.568 141.459 103.707C140.992 102.841 140.609 101.921 140.281 101.01C139.957 100.096 139.664 99.2095 139.331 98.3737C138.996 97.539 138.603 96.7565 138.136 96.0194C137.662 95.2879 137.126 94.5952 136.538 93.9449C135.952 93.2916 135.32 92.6812 134.681 92.0678L134.675 92.0622C134.5 91.8943 134.478 91.5965 134.625 91.3972C134.757 91.2176 134.982 91.1788 135.153 91.2955C135.892 91.798 136.607 92.3559 137.291 92.9781C137.967 93.6077 138.611 94.3071 139.178 95.0972C139.751 95.8815 140.224 96.7685 140.619 97.6724C141.016 98.5772 141.313 99.5012 141.637 100.368C142.251 102.115 143.039 103.679 144.082 105.108C145.114 106.539 146.336 107.825 147.585 109.099L147.589 109.104C147.76 109.277 147.774 109.576 147.622 109.77C147.485 109.945 147.26 109.976 147.092 109.854Z" fill="#797979" fill-opacity="0.2" style="mix-blend-mode:multiply"/>
<path fill-rule="evenodd" clip-rule="evenodd" d="M141.357 83.019C140.745 89.2927 137.216 93.8434 137.216 93.8434L141.357 83.019Z" fill="#FF9B89"/>
<path fill-rule="evenodd" clip-rule="evenodd" d="M123.655 142.505C121.211 146.415 117.729 147.269 117.388 144.042C117.047 140.815 120.103 135.927 122.888 135.244C125.673 134.561 126.099 138.595 123.655 142.505Z" fill="#797979" fill-opacity="0.2" style="mix-blend-mode:multiply"/>
<path fill-rule="evenodd" clip-rule="evenodd" d="M120.344 117.606C118.088 122.721 114.819 129.261 114.819 129.261L120.344 117.606Z" fill="#FF9B89"/>
<path fill-rule="evenodd" clip-rule="evenodd" d="M95.3171 72.3755L96.6203 79.778L95.3171 72.3755Z" fill="#797979" fill-opacity="0.2" style="mix-blend-mode:multiply"/>
<path fill-rule="evenodd" clip-rule="evenodd" d="M87.5669 63.9839L90.2255 64.1692L90.1773 65.0692L87.5187 64.8839L87.5669 63.9839Z" fill="#797979" fill-opacity="0.2" style="mix-blend-mode:multiply"/>
<path fill-rule="evenodd" clip-rule="evenodd" d="M82.8211 63.9849L82.8957 64.8825L78.9943 65.3043L78.9198 64.4066L82.8211 63.9849Z" fill="#797979" fill-opacity="0.2" style="mix-blend-mode:multiply"/>
<path fill-rule="evenodd" clip-rule="evenodd" d="M60.1479 134.96C60.9009 135.178 61.5012 135.57 61.8762 136.187C62.2323 136.772 62.2687 137.536 62.0715 138.422C61.9606 138.92 61.7784 139.443 61.5449 139.974C61.4075 140.287 61.2607 140.584 61.1137 140.856L61.0628 140.95L60.9763 141.103L60.9267 141.188L60.9133 141.21L60.2647 140.695L60.3109 140.616L60.3728 140.507L60.4409 140.383C60.5764 140.132 60.7121 139.858 60.8384 139.57C61.0483 139.093 61.2103 138.628 61.3056 138.2C61.452 137.542 61.4276 137.031 61.2269 136.701C60.977 136.29 60.5383 136.003 59.9538 135.834C59.4195 135.679 58.8473 135.641 58.3578 135.67L58.2626 135.677L58.1912 134.779L58.2296 134.775L58.3178 134.769C58.8793 134.737 59.5245 134.78 60.1479 134.96Z" fill="#797979" fill-opacity="0.2" style="mix-blend-mode:multiply"/>
<path fill-rule="evenodd" clip-rule="evenodd" d="M29.2903 82.9692C29.5299 85.4253 30.239 87.7927 31.272 90.0035C31.7258 90.9748 32.212 91.8499 32.6977 92.6138L32.8223 92.8074C32.8427 92.8386 32.8628 92.8693 32.8828 92.8994L32.9997 93.074C33.0377 93.13 33.0749 93.1839 33.111 93.2356L33.1998 93.3613L33.2641 93.45L33.3349 93.5447L32.743 94.1423L32.6771 94.0548L32.5791 93.9196L32.5499 93.8785C32.4382 93.7209 32.3173 93.5434 32.1889 93.3465L32.058 93.1432C31.5519 92.3472 31.0464 91.4373 30.5746 90.4277C29.5266 88.1848 28.7968 85.7822 28.5264 83.2779L28.5049 83.069L29.2903 82.9692Z" fill="#FF9B89"/>
<path fill-rule="evenodd" clip-rule="evenodd" d="M110.474 134.798C111.056 134.63 111.657 134.582 112.191 134.603L112.33 134.611L112.405 134.616L112.423 134.618L112.351 135.516L112.283 135.511L112.256 135.509C111.769 135.481 111.2 135.519 110.668 135.673C110.087 135.841 109.65 136.126 109.402 136.534C109.202 136.862 109.178 137.371 109.324 138.025C109.418 138.451 109.58 138.913 109.789 139.389C109.914 139.675 110.049 139.948 110.184 140.198L110.252 140.322L110.347 140.487L110.36 140.508L109.711 141.023L109.666 140.948L109.629 140.883L109.562 140.764L109.511 140.671C109.365 140.4 109.219 140.105 109.082 139.793C108.85 139.264 108.668 138.743 108.558 138.247C108.361 137.365 108.398 136.604 108.753 136.02C109.126 135.406 109.724 135.015 110.474 134.798Z" fill="#797979" fill-opacity="0.2" style="mix-blend-mode:multiply"/>
<path fill-rule="evenodd" clip-rule="evenodd" d="M140.964 82.9692L141.75 83.069C141.498 85.6486 140.757 88.1225 139.68 90.4277C139.208 91.4373 138.703 92.3472 138.197 93.1432C138.13 93.248 138.065 93.3481 138.002 93.4433L137.879 93.6272C137.839 93.6864 137.8 93.7433 137.761 93.798L137.676 93.9196L137.558 94.0811L137.512 94.1423L136.92 93.5447L136.962 93.489L137.022 93.4074L137.09 93.3115L137.199 93.1564L137.313 92.9883C137.391 92.872 137.472 92.747 137.557 92.6138C138.043 91.8499 138.529 90.9748 138.983 90.0035C139.987 87.8541 140.685 85.5567 140.943 83.1737L140.964 82.9692Z" fill="#FF9B89"/>
<path fill-rule="evenodd" clip-rule="evenodd" d="M119.991 117.404L120.697 117.809L120.516 118.219L120.328 118.64L120.134 119.07L119.832 119.735L119.517 120.421L119.41 120.654C119.316 120.857 119.221 121.061 119.125 121.268L118.979 121.58C118.228 123.189 117.428 124.861 116.624 126.514L116.187 127.408L115.563 128.678L115.163 129.484L114.476 129.037L114.803 128.38L115.254 127.465L115.665 126.625C116.557 124.798 117.449 122.938 118.282 121.156L118.57 120.538L118.924 119.771L119.233 119.096L119.431 118.658L119.718 118.019L119.902 117.606L119.991 117.404Z" fill="#FF9B89"/>
<path fill-rule="evenodd" clip-rule="evenodd" d="M29.2903 82.9692C29.5299 85.4253 30.239 87.7927 31.272 90.0035C31.7258 90.9748 32.212 91.8499 32.6977 92.6138L32.8223 92.8074C32.8427 92.8386 32.8628 92.8693 32.8828 92.8994L32.9997 93.074C33.0377 93.13 33.0749 93.1839 33.111 93.2356L33.1998 93.3613L33.2641 93.45L33.3349 93.5447L32.743 94.1423L32.6771 94.0548L32.5791 93.9196L32.5499 93.8785C32.4382 93.7209 32.3173 93.5434 32.1889 93.3465L32.058 93.1432C31.5519 92.3472 31.0464 91.4373 30.5746 90.4277C29.5266 88.1848 28.7968 85.7822 28.5264 83.2779L28.5049 83.069L29.2903 82.9692Z" fill="#797979" fill-opacity="0.2" style="mix-blend-mode:multiply"/>
<path fill-rule="evenodd" clip-rule="evenodd" d="M140.964 82.9692L141.75 83.069C141.498 85.6486 140.757 88.1225 139.68 90.4277C139.208 91.4373 138.703 92.3472 138.197 93.1432C138.13 93.248 138.065 93.3481 138.002 93.4433L137.879 93.6272C137.839 93.6864 137.8 93.7433 137.761 93.798L137.676 93.9196L137.558 94.0811L137.512 94.1423L136.92 93.5447L136.962 93.489L137.022 93.4074L137.09 93.3115L137.199 93.1564L137.313 92.9883C137.391 92.872 137.472 92.747 137.557 92.6138C138.043 91.8499 138.529 90.9748 138.983 90.0035C139.987 87.8541 140.685 85.5567 140.943 83.1737L140.964 82.9692Z" fill="#797979" fill-opacity="0.2" style="mix-blend-mode:multiply"/>
<path fill-rule="evenodd" clip-rule="evenodd" d="M119.991 117.404L120.697 117.809L120.516 118.219L120.328 118.64L120.134 119.07L119.832 119.735L119.517 120.421L119.41 120.654C119.316 120.857 119.221 121.061 119.125 121.268L118.979 121.58C118.228 123.189 117.428 124.861 116.624 126.514L116.187 127.408L115.563 128.678L115.163 129.484L114.476 129.037L114.803 128.38L115.254 127.465L115.665 126.625C116.557 124.798 117.449 122.938 118.282 121.156L118.57 120.538L118.924 119.771L119.233 119.096L119.431 118.658L119.718 118.019L119.902 117.606L119.991 117.404Z" fill="#797979" fill-opacity="0.2" style="mix-blend-mode:multiply"/>
<path fill-rule="evenodd" clip-rule="evenodd" d="M144.643 116.96C141.812 121.587 137.187 127.105 129.82 139.868C128.596 141.99 127.397 143.836 126.237 145.419C130.106 126.406 135.922 126.902 144.643 116.96Z" fill="#797979" fill-opacity="0.2" style="mix-blend-mode:multiply"/>
<path fill-rule="evenodd" clip-rule="evenodd" d="M119.598 25.1923C120.123 24.7946 120.801 24.7793 121.338 25.148L121.39 25.1849L126.078 28.6793C126.215 28.7815 126.254 28.991 126.164 29.1473C126.08 29.2945 125.912 29.3421 125.779 29.262L125.754 29.2455L121.066 25.751C120.733 25.503 120.306 25.4949 119.968 25.7257L119.926 25.7558L115.736 28.9292C115.599 29.0325 115.415 28.9901 115.325 28.8345C115.24 28.6881 115.268 28.4936 115.385 28.3851L115.408 28.3658L119.598 25.1923Z" fill="#797979" fill-opacity="0.2" style="mix-blend-mode:multiply"/>
<path fill-rule="evenodd" clip-rule="evenodd" d="M119.158 30.678C119.625 30.2591 120.254 30.1643 120.798 30.4261L120.852 30.4534L124.643 32.4639C124.791 32.5427 124.855 32.7438 124.787 32.9131C124.722 33.0725 124.562 33.1469 124.419 33.0895L124.393 33.0772L120.602 31.0667C120.263 30.8868 119.866 30.93 119.564 31.1763L119.525 31.2096L116.22 34.1743C116.092 34.2897 115.905 34.2643 115.804 34.1175C115.709 33.9799 115.723 33.7844 115.831 33.6654L115.854 33.6427L119.158 30.678Z" fill="#797979" fill-opacity="0.2" style="mix-blend-mode:multiply"/>
<path fill-rule="evenodd" clip-rule="evenodd" d="M118.765 37.3566C119.264 36.6678 120.119 36.4833 120.801 36.9093L120.849 36.9401L122.532 38.0741C122.673 38.1691 122.72 38.3764 122.636 38.5372C122.558 38.6886 122.393 38.7448 122.256 38.6717L122.231 38.6565L120.547 37.5223C120.122 37.2358 119.581 37.3323 119.253 37.7463L119.222 37.7874L117.711 39.8741C117.607 40.0181 117.42 40.0384 117.294 39.9194C117.175 39.8079 117.152 39.6136 117.236 39.4712L117.254 39.4434L118.765 37.3566Z" fill="#797979" fill-opacity="0.2" style="mix-blend-mode:multiply"/>
<path fill-rule="evenodd" clip-rule="evenodd" d="M120.774 20.5672C120.921 20.4857 121.098 20.5558 121.17 20.7239C121.237 20.882 121.186 21.0705 121.057 21.16L121.032 21.1756L116.266 23.813C116.119 23.8945 115.941 23.8244 115.87 23.6563C115.803 23.4982 115.853 23.3097 115.982 23.2202L116.007 23.2046L120.774 20.5672Z" fill="#FF9B89"/>
<path fill-rule="evenodd" clip-rule="evenodd" d="M120.774 20.5672C120.921 20.4857 121.098 20.5558 121.17 20.7239C121.237 20.882 121.186 21.0705 121.057 21.16L121.032 21.1756L116.266 23.813C116.119 23.8945 115.941 23.8244 115.87 23.6563C115.803 23.4982 115.853 23.3097 115.982 23.2202L116.007 23.2046L120.774 20.5672Z" fill="#FF9B89"/>
<path fill-rule="evenodd" clip-rule="evenodd" d="M120.774 20.5672C120.921 20.4857 121.098 20.5558 121.17 20.7239C121.237 20.882 121.186 21.0705 121.057 21.16L121.032 21.1756L116.266 23.813C116.119 23.8945 115.941 23.8244 115.87 23.6563C115.803 23.4982 115.853 23.3097 115.982 23.2202L116.007 23.2046L120.774 20.5672Z" fill="#797979" fill-opacity="0.2" style="mix-blend-mode:multiply"/>
<path fill-rule="evenodd" clip-rule="evenodd" d="M120.774 20.5672C120.921 20.4857 121.098 20.5558 121.17 20.7239C121.237 20.882 121.186 21.0705 121.057 21.16L121.032 21.1756L116.266 23.813C116.119 23.8945 115.941 23.8244 115.87 23.6563C115.803 23.4982 115.853 23.3097 115.982 23.2202L116.007 23.2046L120.774 20.5672Z" fill="#797979" fill-opacity="0.2" style="mix-blend-mode:multiply"/>
</svg>
