<svg width="170" height="200" viewBox="0 0 170 200" fill="none" xmlns="http://www.w3.org/2000/svg">
<path fill-rule="evenodd" clip-rule="evenodd" d="M112.109 191.94H102.137L101.348 184.223L100.866 179.502H111.5L111.736 184.289L112.109 191.94Z" fill="#FFC520"/>
<path fill-rule="evenodd" clip-rule="evenodd" d="M133.271 190.598L123.383 191.607L122.424 183.488L121.919 179.211L132.464 178.136L132.693 181.695L133.271 190.598Z" fill="#FFC520"/>
<path fill-rule="evenodd" clip-rule="evenodd" d="M111.5 179.501L111.736 184.289C107.744 184.418 104.184 184.35 101.349 184.223L100.866 179.501H111.5Z" fill="#362B42"/>
<path fill-rule="evenodd" clip-rule="evenodd" d="M132.694 181.695C129.249 182.503 125.785 183.081 122.424 183.488L121.919 179.211L132.464 178.136L132.694 181.695Z" fill="#362B42"/>
<path fill-rule="evenodd" clip-rule="evenodd" d="M140.156 176.914C137.868 178.214 131.718 180.947 120.287 181.114C119.925 181.121 119.558 181.123 119.185 181.123C118.844 178.748 118.494 176.164 118.135 173.424C114.268 143.744 109.715 95.7028 109.715 95.7028L107.184 95.8925L106.046 95.978C105.039 96.0544 104.304 96.7528 104.402 97.5391C108.136 127.212 110.616 158.372 111.671 172.839V172.846C112.051 178.077 112.247 181.123 112.247 181.123C112.247 181.123 101.71 182.162 89.9888 176.939C89.6478 174.962 89.3249 172.98 89.0195 171C84.0019 138.309 84.0551 105.629 85.042 82.1406L126.89 83.3918C138.748 145.037 135.453 157.672 138.959 170.137C139.433 171.826 140.032 173.509 140.811 175.313C141.063 175.901 140.799 176.549 140.156 176.914Z" fill="#15AD8B"/>
<path fill-rule="evenodd" clip-rule="evenodd" d="M106.255 82.7017L107.747 91.868L106.624 91.9792L105.132 82.8129L106.255 82.7017Z" fill="#797979" fill-opacity="0.2" style="mix-blend-mode:multiply"/>
<path fill-rule="evenodd" clip-rule="evenodd" d="M126.594 85.8745L126.988 86.7027L126.219 86.9273L125.667 87.0908L125.137 87.2501L124.627 87.4052L124.139 87.5562L123.671 87.7031L123.371 87.7987L122.938 87.9387L122.526 88.0745L122.263 88.1628L121.885 88.2919L121.528 88.4169L121.301 88.498L121.083 88.5772L120.773 88.6928L120.483 88.8043L120.301 88.8765L120.087 88.9636C120.052 88.9778 120.019 88.992 119.985 89.006L119.793 89.0884L119.616 89.1676C119.361 89.284 119.155 89.3894 118.998 89.4834L118.935 89.5221L118.962 89.5262C119.1 89.5451 119.268 89.5598 119.464 89.5698L119.549 89.5738C119.647 89.5779 119.749 89.5808 119.857 89.5827L120.079 89.5849C120.155 89.5852 120.233 89.5849 120.313 89.5842L120.561 89.5807C120.645 89.579 120.732 89.5769 120.82 89.5743L121.092 89.5652L121.375 89.5533L121.669 89.5388C121.719 89.5361 121.77 89.5334 121.82 89.5305L122.131 89.5121L122.452 89.4911C123.065 89.4493 123.714 89.3954 124.384 89.3323L124.635 89.3083L125.129 89.259C125.211 89.2507 125.292 89.2423 125.372 89.2339L125.845 89.1832L126.39 89.122L126.755 89.0787L126.932 89.9513L126.348 90.0197L126.236 90.0322C126.082 90.0495 125.925 90.0667 125.765 90.0839L125.276 90.135L124.774 90.185C124.69 90.1932 124.605 90.2013 124.519 90.2094C123.838 90.2736 123.177 90.3285 122.55 90.3712L122.201 90.394C122.143 90.3976 122.086 90.401 122.03 90.4044L121.697 90.4228C121.643 90.4256 121.589 90.4283 121.536 90.4309L121.221 90.4447C121.169 90.4468 121.119 90.4487 121.068 90.4505L120.772 90.4597C120.724 90.4609 120.676 90.4621 120.629 90.4631L120.352 90.4674C120.081 90.4701 119.831 90.4678 119.601 90.4602L119.403 90.4521L119.238 90.443C119.211 90.4413 119.184 90.4395 119.158 90.4377L119.003 90.4255L118.856 90.411C118.045 90.3222 117.598 90.114 117.593 89.6332C117.591 89.4618 117.694 89.2827 117.911 89.091L117.98 89.0331L118.056 88.9744C118.082 88.9547 118.11 88.9349 118.138 88.9149L118.228 88.8546C118.259 88.8343 118.291 88.8139 118.325 88.7933L118.429 88.7312L118.54 88.6682L118.658 88.6041C118.678 88.5934 118.699 88.5826 118.72 88.5718L118.849 88.5062L118.986 88.4397L119.13 88.3721L119.281 88.3034L119.441 88.2336L119.607 88.1626L119.782 88.0904L119.964 88.0171L120.154 87.9425L120.453 87.8282L120.77 87.711L120.992 87.6312L121.221 87.5499L121.58 87.4255L121.958 87.2977L122.355 87.1666L122.77 87.032L123.352 86.847L123.657 86.7521L124.129 86.6065L124.789 86.4064L125.664 86.1462L126.594 85.8745Z" fill="#797979" fill-opacity="0.2" style="mix-blend-mode:multiply"/>
<path fill-rule="evenodd" clip-rule="evenodd" d="M126.844 125.708C127.203 128.423 126.03 130.232 124.734 128.965C123.438 127.697 122.99 124.303 123.928 122.856C124.866 121.408 126.486 122.993 126.844 125.708Z" fill="#797979" fill-opacity="0.2" style="mix-blend-mode:multiply"/>
<path fill-rule="evenodd" clip-rule="evenodd" d="M98.8437 126.151C98.9632 128.76 97.6958 130.429 96.5625 129.154C95.4293 127.879 95.2798 124.617 96.2939 123.282C97.3077 121.947 98.7243 123.541 98.8437 126.151Z" fill="#797979" fill-opacity="0.2" style="mix-blend-mode:multiply"/>
<path fill-rule="evenodd" clip-rule="evenodd" d="M140.156 176.914C137.868 178.214 131.719 180.947 120.287 181.114C119.926 181.121 119.558 181.123 119.185 181.123C118.844 178.748 118.494 176.164 118.135 173.424C118.135 173.424 129.433 173.331 138.959 170.137C139.433 171.826 140.032 173.509 140.811 175.313C141.063 175.901 140.799 176.548 140.156 176.914Z" fill="#797979" fill-opacity="0.2" style="mix-blend-mode:multiply"/>
<path fill-rule="evenodd" clip-rule="evenodd" d="M112.247 181.123C112.247 181.123 101.71 182.161 89.989 176.939C89.6479 174.962 89.325 172.98 89.0199 171C89.0199 171 101.103 174.328 111.669 172.832L111.672 172.838V172.845C112.051 178.077 112.247 181.123 112.247 181.123Z" fill="#797979" fill-opacity="0.2" style="mix-blend-mode:multiply"/>
<path fill-rule="evenodd" clip-rule="evenodd" d="M120.287 181.114C119.926 181.121 119.558 181.123 119.185 181.123C115.148 153.023 109.716 95.7027 109.716 95.7027L107.184 95.8924L114.046 95.2333C114.76 95.164 115.338 95.6797 115.154 96.2208C114.378 98.4805 113.148 104.276 115.273 115.241C117.922 128.903 127.697 161.124 120.287 181.114Z" fill="#797979" fill-opacity="0.2" style="mix-blend-mode:multiply"/>
<path fill-rule="evenodd" clip-rule="evenodd" d="M117.253 94.3315L117.381 95.2093L112.968 95.6057L108.13 96.0444L103.242 96.4929L103.109 95.6156L106.234 95.3281L111.617 94.8384L117.253 94.3315Z" fill="#15AD8B"/>
<path fill-rule="evenodd" clip-rule="evenodd" d="M117.253 94.3315L117.381 95.2093L112.968 95.6057L108.13 96.0444L103.242 96.4929L103.109 95.6156L106.234 95.3281L111.617 94.8384L117.253 94.3315Z" fill="#797979" fill-opacity="0.2" style="mix-blend-mode:multiply"/>
<mask id="mask0_257_42928" style="mask-type:luminance" maskUnits="userSpaceOnUse" x="120" y="186" width="42" height="14">
<path fill-rule="evenodd" clip-rule="evenodd" d="M120.591 186.491H161.22V200H120.591V186.491Z" fill="white"/>
</mask>
<g mask="url(#mask0_257_42928)">
<path fill-rule="evenodd" clip-rule="evenodd" d="M160.885 199.803C160.85 199.92 160.712 200 160.559 200H120.928C120.733 200 120.576 199.868 120.592 199.713L120.774 198.101L121.891 188.333L133.931 186.548C135.441 186.324 136.992 186.771 137.935 187.719C142.234 192.024 157.306 192.985 159.653 194.534C160.741 195.248 161.125 196.311 161.205 197.31V197.312C161.288 198.388 161.019 199.391 160.885 199.803Z" fill="#FF4654"/>
</g>
<mask id="mask1_257_42928" style="mask-type:luminance" maskUnits="userSpaceOnUse" x="120" y="186" width="42" height="14">
<path fill-rule="evenodd" clip-rule="evenodd" d="M133.931 186.548L121.891 188.332L120.774 198.1L120.592 199.713C120.576 199.868 120.732 200 120.928 200H160.559C160.712 200 160.85 199.92 160.885 199.802C161.019 199.391 161.288 198.387 161.205 197.312V197.309C161.125 196.311 160.741 195.248 159.653 194.534C157.306 192.984 142.234 192.024 137.935 187.719C137.153 186.932 135.953 186.491 134.706 186.491C134.449 186.491 134.189 186.509 133.931 186.548Z" fill="white"/>
</mask>
<g mask="url(#mask1_257_42928)">
<path fill-rule="evenodd" clip-rule="evenodd" d="M147.578 190.744L147.867 191.598C145.204 192.147 143.137 193.224 141.58 194.678C140.766 195.439 140.143 196.256 139.688 197.071C139.549 197.32 139.435 197.553 139.344 197.765L139.289 197.898L139.245 198.012L139.215 198.095L139.203 198.133L138.101 197.931L138.128 197.845C138.133 197.83 138.138 197.815 138.144 197.799L138.181 197.697L138.226 197.586L138.277 197.464C138.287 197.443 138.296 197.421 138.306 197.399L138.369 197.263C138.38 197.24 138.391 197.216 138.403 197.192L138.477 197.043L138.559 196.885C138.588 196.831 138.618 196.776 138.65 196.719C139.146 195.83 139.823 194.942 140.711 194.112C142.378 192.555 144.585 191.39 147.397 190.782L147.578 190.744Z" fill="#FF4654"/>
<path fill-rule="evenodd" clip-rule="evenodd" d="M147.578 190.744L147.867 191.598C145.204 192.147 143.137 193.224 141.58 194.678C140.766 195.439 140.143 196.256 139.688 197.071C139.549 197.32 139.435 197.553 139.344 197.765L139.289 197.898L139.245 198.012L139.215 198.095L139.203 198.133L138.101 197.931L138.128 197.845C138.133 197.83 138.138 197.815 138.144 197.799L138.181 197.697L138.226 197.586L138.277 197.464C138.287 197.443 138.296 197.421 138.306 197.399L138.369 197.263C138.38 197.24 138.391 197.216 138.403 197.192L138.477 197.043L138.559 196.885C138.588 196.831 138.618 196.776 138.65 196.719C139.146 195.83 139.823 194.942 140.711 194.112C142.378 192.555 144.585 191.39 147.397 190.782L147.578 190.744Z" fill="#797979" fill-opacity="0.2" style="mix-blend-mode:multiply"/>
</g>
<mask id="mask2_257_42928" style="mask-type:luminance" maskUnits="userSpaceOnUse" x="120" y="195" width="42" height="6">
<path fill-rule="evenodd" clip-rule="evenodd" d="M120.591 195.537H161.22V200H120.591V195.537Z" fill="white"/>
</mask>
<g mask="url(#mask2_257_42928)">
<path fill-rule="evenodd" clip-rule="evenodd" d="M160.885 199.803C160.85 199.92 160.712 200 160.559 200H120.928C120.733 200 120.576 199.868 120.592 199.713L120.774 198.101C120.819 198.104 120.867 198.104 120.912 198.106C147.107 198.912 154.601 192.578 161.202 197.307L161.205 197.31V197.312C161.288 198.388 161.019 199.391 160.885 199.803Z" fill="#362B42"/>
</g>
<path fill-rule="evenodd" clip-rule="evenodd" d="M130.016 195.942C127.985 196.849 125.931 196.347 126.318 195.037C126.705 193.728 129.243 192.593 130.887 192.995C132.53 193.397 132.047 195.034 130.016 195.942Z" fill="white"/>
<path fill-rule="evenodd" clip-rule="evenodd" d="M114.234 199.714C114.253 199.868 114.097 200 113.899 200H78.4956C78.3391 200 78.2016 199.915 78.1665 199.796C78.0006 199.203 77.6047 197.451 78.2975 196.129C78.4891 195.76 78.7637 195.426 79.1531 195.16C81.005 193.889 94.6917 192.257 99.0082 187.957C100.072 186.898 101.824 186.417 103.504 186.711L111.559 188.114C112.382 188.256 112.992 188.799 113.065 189.454L114.049 198.064L114.081 198.353L114.234 199.714Z" fill="#FF4654"/>
<mask id="mask3_257_42928" style="mask-type:luminance" maskUnits="userSpaceOnUse" x="77" y="186" width="38" height="14">
<path fill-rule="evenodd" clip-rule="evenodd" d="M99.0085 187.957C94.692 192.257 81.005 193.889 79.1534 195.16C78.7637 195.426 78.4891 195.76 78.2975 196.129C77.6047 197.451 78.0009 199.203 78.1668 199.796C78.2019 199.915 78.3391 200 78.4956 200H113.899C114.097 200 114.253 199.868 114.234 199.714L114.081 198.353L113.066 189.454C112.992 188.799 112.382 188.256 111.559 188.114L103.504 186.711C103.177 186.654 102.848 186.626 102.521 186.626C101.169 186.626 99.8647 187.104 99.0085 187.957Z" fill="white"/>
</mask>
<g mask="url(#mask3_257_42928)">
<path fill-rule="evenodd" clip-rule="evenodd" d="M92.2515 190.49C97.4966 190.811 101.074 192.104 103.251 194.074C104.152 194.889 104.749 195.765 105.097 196.642C105.22 196.952 105.304 197.24 105.355 197.501L105.364 197.553L105.38 197.649L105.392 197.731L105.399 197.799L105.403 197.854L104.271 197.884L104.269 197.852L104.26 197.778L104.243 197.675C104.241 197.662 104.238 197.648 104.235 197.634C104.193 197.416 104.122 197.17 104.016 196.904C103.712 196.138 103.189 195.37 102.394 194.651C100.449 192.891 97.2136 191.707 92.3659 191.384L92.163 191.371L92.2515 190.49Z" fill="#FF4654"/>
<path fill-rule="evenodd" clip-rule="evenodd" d="M92.2515 190.49C97.4966 190.811 101.074 192.104 103.251 194.074C104.152 194.889 104.749 195.765 105.097 196.642C105.22 196.952 105.304 197.24 105.355 197.501L105.364 197.553L105.38 197.649L105.392 197.731L105.399 197.799L105.403 197.854L104.271 197.884L104.269 197.852L104.26 197.778L104.243 197.675C104.241 197.662 104.238 197.648 104.235 197.634C104.193 197.416 104.122 197.17 104.016 196.904C103.712 196.138 103.189 195.37 102.394 194.651C100.449 192.891 97.2136 191.707 92.3659 191.384L92.163 191.371L92.2515 190.49Z" fill="#797979" fill-opacity="0.2" style="mix-blend-mode:multiply"/>
</g>
<path fill-rule="evenodd" clip-rule="evenodd" d="M114.234 199.714C114.253 199.868 114.097 200 113.899 200H78.4958C78.3392 200 78.2017 199.916 78.1666 199.796C78.0007 199.203 77.6048 197.452 78.2976 196.129C84.6927 192.033 92.5943 198.109 114.049 198.064L114.081 198.354L114.234 199.714Z" fill="#362B42"/>
<path fill-rule="evenodd" clip-rule="evenodd" d="M110.433 196.433C109.095 196.661 107.846 195.333 108.185 194.041C108.523 192.749 110.196 192.463 111.195 193.526C112.195 194.589 111.771 196.204 110.433 196.433Z" fill="white"/>
<mask id="mask4_257_42928" style="mask-type:luminance" maskUnits="userSpaceOnUse" x="65" y="82" width="45" height="100">
<path fill-rule="evenodd" clip-rule="evenodd" d="M69.2784 171C69.5158 172.98 69.7672 174.962 70.0326 176.939C79.1548 182.162 87.3546 181.123 87.3546 181.123C87.3546 181.123 87.202 178.077 86.907 172.846V172.839C86.0857 158.372 84.155 127.212 81.2491 97.5393C81.1731 96.753 81.7449 96.0544 82.5293 95.9782L83.4147 95.8925L85.3848 95.7028C85.3848 95.7028 88.9275 143.744 91.9374 173.424C92.2165 176.165 92.4887 178.748 92.7539 181.123C93.0445 181.123 93.3306 181.121 93.6119 181.114C102.508 180.947 107.294 178.214 109.075 176.914C109.575 176.549 109.781 175.901 109.585 175.313C108.978 173.51 108.512 171.826 108.143 170.138C105.414 157.672 107.979 145.037 98.7509 83.392L66.183 82.1406C65.4149 105.63 65.3733 138.309 69.2784 171Z" fill="white"/>
</mask>
<g mask="url(#mask4_257_42928)">
<path fill-rule="evenodd" clip-rule="evenodd" d="M64.995 86.1067L65.4021 85.3232L65.6237 85.44L65.8407 85.5562L66.0531 85.672L66.2609 85.7873L66.464 85.9021L66.7601 86.0733L67.0455 86.2431L67.2299 86.3556L67.4095 86.4674L67.5843 86.5786L67.7543 86.6891L67.9195 86.7989L68.0797 86.908C68.106 86.9261 68.1321 86.9442 68.158 86.9622L68.3109 87.0701L68.4588 87.1773C68.5073 87.2129 68.5549 87.2483 68.6018 87.2836L68.7397 87.3891C68.7623 87.4066 68.7846 87.4241 68.8068 87.4415L68.9372 87.5457L69.0625 87.649C69.0829 87.6662 69.1032 87.6833 69.1232 87.7003L69.2408 87.8023C69.26 87.8192 69.279 87.836 69.2977 87.8529L69.4076 87.9534C69.4434 87.9867 69.4783 88.0199 69.5123 88.0529L69.6118 88.1514C69.628 88.1677 69.6439 88.184 69.6596 88.2002L69.7512 88.2972C70.4186 89.0202 70.6399 89.6532 70.3621 90.1516C70.0601 90.6934 69.2938 90.8194 68.285 90.5964L68.152 90.5653C68.0849 90.5488 68.0168 90.5308 67.9477 90.5114L67.8084 90.4706C67.7147 90.4421 67.6194 90.411 67.5227 90.3774L67.3765 90.3252L67.2284 90.2692C67.1787 90.2499 67.1286 90.23 67.0783 90.2095L66.9264 90.1461C66.8754 90.1244 66.8242 90.102 66.7727 90.0791L66.6175 90.0084L66.4608 89.9342L66.3026 89.8564C66.2762 89.8432 66.2497 89.8298 66.2231 89.8162L66.0631 89.7332L65.902 89.6467L65.7399 89.5568C65.6315 89.4957 65.5226 89.4323 65.4131 89.3667L65.2487 89.2667C65.2212 89.2497 65.1937 89.2327 65.1662 89.2154L65.001 89.1105L65.4772 88.3672C66.5862 89.0816 67.6422 89.5508 68.4837 89.7349C68.8466 89.8143 69.1492 89.835 69.3649 89.8027C69.5133 89.7805 69.5802 89.7434 69.593 89.7206L69.5941 89.7179L69.5955 89.7066L69.5951 89.6846C69.5918 89.6357 69.5723 89.5678 69.5323 89.4836C69.4279 89.2634 69.2104 88.9858 68.8815 88.6703C68.7617 88.5555 68.6294 88.4376 68.4847 88.3168L68.3358 88.1951C68.2083 88.0928 68.0722 87.9887 67.9276 87.8828L67.7501 87.7548C67.5381 87.6046 67.3096 87.451 67.0647 87.2944L66.8508 87.1595C66.7056 87.069 66.555 86.9777 66.3992 86.8855L66.1615 86.7465L65.9159 86.6063C65.8743 86.5828 65.8324 86.5593 65.7902 86.5358L65.5329 86.3938C65.4894 86.3701 65.4455 86.3463 65.4013 86.3224L65.1324 86.1789L64.995 86.1067Z" fill="#797979" fill-opacity="0.2" style="mix-blend-mode:multiply"/>
</g>
<path fill-rule="evenodd" clip-rule="evenodd" d="M92.815 178.09C91.8836 177.746 90.9386 177.363 89.9873 176.939C89.6479 174.962 89.3253 172.981 89.0196 170.999C84.0012 138.308 84.0544 105.631 85.0419 82.1396L87.6144 82.2165C85.0422 138.175 97.2331 147.589 92.815 178.09Z" fill="#797979" fill-opacity="0.2" style="mix-blend-mode:multiply"/>
<path fill-rule="evenodd" clip-rule="evenodd" d="M87.0605 49.4701L89.5115 61.3491L89.8435 63.377L89.841 63.3797C89.7218 63.4526 85.8568 65.8324 80.8211 68.5592C78.7722 69.6677 76.5318 70.8332 74.269 71.9265C73.1453 72.4685 72.0155 72.995 70.9012 73.4842C66.3911 75.474 62.1389 76.8997 59.5554 76.6938C57.6616 76.5434 55.4627 75.1363 53.2138 73.0409C46.2991 66.5994 38.9259 53.6524 38.6021 50.7003C38.1691 46.7862 51.3373 43.5582 58.6896 42.5467C66.039 41.5356 68.4017 48.796 68.6197 54.7686C68.6197 54.7686 72.0978 54.4592 77.1276 53.1307C80.1803 52.323 83.299 51.1902 87.0605 49.4701Z" fill="#6343F0"/>
<path fill-rule="evenodd" clip-rule="evenodd" d="M70.7549 73.533C66.2448 75.5225 61.9926 76.9484 59.4091 76.7426C57.5153 76.5922 55.3165 75.185 53.0675 73.0897C53.4428 72.3405 54.0493 71.5878 54.9004 70.8671C59.5769 66.9099 68.1969 66.8465 70.4181 70.7494C70.9275 71.6468 71.013 72.5981 70.7549 73.533Z" fill="#797979" fill-opacity="0.2" style="mix-blend-mode:multiply"/>
<path fill-rule="evenodd" clip-rule="evenodd" d="M69.0397 54.811C69.0707 56.3267 69.3515 57.8903 69.8005 59.416C69.9491 59.9212 70.1072 60.3904 70.2661 60.8149L70.3565 61.0514L70.4439 61.2702L70.5406 61.5L70.5601 61.5441L69.4932 61.8396L69.4359 61.7081L69.3655 61.5392L69.3051 61.3892L69.2414 61.2261C69.0557 60.7433 68.8701 60.2018 68.6971 59.6137C68.2561 58.1152 67.9713 56.5796 67.915 55.0755L67.9077 54.8251L69.0397 54.811Z" fill="#797979" fill-opacity="0.2" style="mix-blend-mode:multiply"/>
<path fill-rule="evenodd" clip-rule="evenodd" d="M87.0606 49.4702L89.697 63.4262C89.697 63.4262 85.7909 65.8376 80.6749 68.6081C81.3304 62.9849 78.9317 56.9765 76.9813 53.1796C80.0341 52.3721 83.2991 51.1903 87.0606 49.4702Z" fill="white" fill-opacity="0.3" style="mix-blend-mode:lighten"/>
<path fill-rule="evenodd" clip-rule="evenodd" d="M86.2122 61.6915C86.3537 62.2637 89.6165 62.6432 89.6971 63.4259L89.6946 63.4286C89.5757 63.5012 85.7107 65.8815 80.6747 68.6081C78.6258 69.7166 76.3854 70.8821 74.1226 71.9753C80.2125 65.0033 84.2864 53.7015 86.2122 61.6915Z" fill="#797979" fill-opacity="0.2" style="mix-blend-mode:multiply"/>
<path fill-rule="evenodd" clip-rule="evenodd" d="M53.6607 39.0869C53.6607 39.0869 53.6876 39.4849 53.7592 40.1749C53.89 41.4862 54.1824 43.86 54.747 46.5724C54.747 46.5724 52.5063 48.6958 45.9148 49.9177C45.8389 49.928 43.1518 46.519 41.8244 44.8276C41.3886 44.2699 41.097 43.8991 41.097 43.8991L53.6607 39.0869Z" fill="#FF9B89"/>
<path fill-rule="evenodd" clip-rule="evenodd" d="M39.1418 44.3404C41.5447 45.3701 54.126 40.9409 56.1364 38.3941C58.147 35.8471 58.5817 30.5143 58.9669 27.562C59.3521 24.6095 65.9323 17.2594 65.8134 16.3419C65.6946 15.4247 57.6211 12.5102 50.6368 26.5193C49.9507 24.2665 48.8636 21.7944 47.6593 21.2661C46.455 20.7378 28.4006 28.6575 28.1538 29.956C27.907 31.2542 36.7389 43.3108 39.1418 44.3404Z" fill="#FF9B89"/>
<mask id="mask5_257_42928" style="mask-type:luminance" maskUnits="userSpaceOnUse" x="22" y="0" width="20" height="26">
<path fill-rule="evenodd" clip-rule="evenodd" d="M22.661 0H41.4543V25.7196H22.661V0Z" fill="white"/>
</mask>
<g mask="url(#mask5_257_42928)">
<path fill-rule="evenodd" clip-rule="evenodd" d="M41.4543 24.0627L28.8727 1.51955C28.1411 0.208719 26.1636 -0.368399 24.509 0.246266C22.864 0.857397 22.1881 2.40654 23.0129 3.67408L37.3586 25.7196L41.4543 24.0627Z" fill="#FF9B89"/>
</g>
<path fill-rule="evenodd" clip-rule="evenodd" d="M47.6596 21.2662L44.079 11.6191L41.6019 2.66081C41.3192 1.63843 39.9422 1.04762 38.6844 1.40896L37.7281 1.68349C35.345 2.36817 34.238 4.50702 35.3438 6.29072L39.9651 13.7469L44.3204 22.1521L47.6596 21.2662Z" fill="#FF9B89"/>
<path fill-rule="evenodd" clip-rule="evenodd" d="M35.3192 26.0196L28.1277 16.5125L25.5643 10.3445C24.9096 8.76903 22.8118 7.85178 20.748 8.23873C20.0022 8.37854 19.5694 8.98636 19.8109 9.55442L23.4393 18.0884L32.1246 27.5789L35.3192 26.0196Z" fill="#FF9B89"/>
<path fill-rule="evenodd" clip-rule="evenodd" d="M30.8787 28.1127L24.6956 22.5838L24.8065 18.4779C24.8487 16.9116 23.491 15.5323 21.5407 15.1601C20.7691 15.0128 20.0358 15.4921 20.0867 16.1109L20.691 23.486C20.7148 23.7769 20.8702 24.0517 21.1291 24.2615L28.1539 29.956L30.8787 28.1127Z" fill="#FF9B89"/>
<path fill-rule="evenodd" clip-rule="evenodd" d="M43.6861 11.3372C43.9139 11.2938 44.1436 11.4027 44.1992 11.5805C44.2515 11.7478 44.131 11.9164 43.9267 11.9718L43.8874 11.9809L41.0679 12.5178C40.8401 12.5612 40.6104 12.4522 40.5548 12.2745C40.5025 12.1072 40.6231 11.9385 40.8273 11.8831L40.8666 11.8741L43.6861 11.3372Z" fill="#FF9B89"/>
<path fill-rule="evenodd" clip-rule="evenodd" d="M33.8013 11.0601C33.9964 10.9586 34.26 10.9997 34.3901 11.1519C34.5125 11.2952 34.473 11.4858 34.3053 11.5924L34.2724 11.6114L31.5196 13.0437C31.3245 13.1452 31.0609 13.1041 30.9309 12.9518C30.8084 12.8085 30.8479 12.6179 31.0156 12.5113L31.0486 12.4924L33.8013 11.0601Z" fill="#FF9B89"/>
<path fill-rule="evenodd" clip-rule="evenodd" d="M27.5286 16.3239C27.6904 16.1914 27.9591 16.1865 28.1288 16.3127C28.2879 16.4311 28.3035 16.6228 28.1715 16.7554L28.1431 16.7811L26.4104 18.1991C26.2486 18.3315 25.9798 18.3365 25.8102 18.2102C25.6511 18.0918 25.6355 17.9001 25.7675 17.7675L25.7959 17.7418L27.5286 16.3239Z" fill="#FF9B89"/>
<path fill-rule="evenodd" clip-rule="evenodd" d="M21.5403 15.0738C21.6544 14.914 21.913 14.8567 22.1178 14.9458C23.7037 15.6357 24.5334 16.5132 24.8606 17.8046L24.8958 17.9513L24.9171 18.0496L24.9368 18.1486L24.9548 18.2487L24.9786 18.4016L24.9924 18.5057L25.0046 18.612L25.0151 18.7208L25.0279 18.8895L25.0343 19.0059L25.0392 19.126L25.0435 19.3136L25.0443 19.5112L25.0428 19.649L25.0398 19.7919L25.0324 20.0169L25.0171 20.3381L24.9958 20.6859L24.9608 21.1619L24.8963 21.9146L24.8082 22.8429L22.9996 23.4962C22.7869 23.5731 22.5345 23.5008 22.436 23.3347C22.3433 23.1784 22.4199 22.9948 22.6067 22.9097L22.643 22.8949L23.999 22.4048L24.0729 21.6037L24.1101 21.1599L24.1406 20.7538L24.1644 20.3822L24.1777 20.1243L24.1872 19.8829L24.1929 19.6565L24.1944 19.5133L24.1943 19.3846C24.1901 18.7951 24.1356 18.3595 24.0276 17.9331C23.7492 16.8343 23.0743 16.1205 21.7044 15.5245C21.4996 15.4354 21.4261 15.2337 21.5403 15.0738Z" fill="#FF9B89"/>
<path fill-rule="evenodd" clip-rule="evenodd" d="M50.1298 26.5296C50.3122 26.4147 50.5795 26.4369 50.7268 26.5792C50.8741 26.7216 50.8457 26.9302 50.6632 27.0451C50.372 27.2286 50.0942 27.4135 49.8296 27.5998C47.218 29.4384 45.9302 31.3721 45.7212 33.3517C45.5614 34.8657 46.0371 36.3196 46.931 37.651C47.2031 38.0562 47.4945 38.4192 47.7852 38.7341L47.9026 38.8586L48.0118 38.9694L48.1243 39.0778L48.161 39.1113C48.3165 39.2482 48.3004 39.4576 48.125 39.579C47.9495 39.7004 47.6812 39.6878 47.5256 39.5509L47.4759 39.506L47.3837 39.4183L47.272 39.3066L47.1877 39.2191L47.0962 39.1214C46.783 38.7821 46.4705 38.3928 46.1789 37.9585C45.2157 36.5239 44.7006 34.9495 44.875 33.2973C45.1022 31.1447 46.493 29.0565 49.2609 27.1078C49.5371 26.9134 49.8267 26.7206 50.1298 26.5296Z" fill="#FF9B89"/>
<path fill-rule="evenodd" clip-rule="evenodd" d="M46.5507 25.6658C46.7145 25.7967 46.7113 26.0065 46.5435 26.1343L45.7583 26.7298L45.1852 27.1613L44.6255 27.5797L44.079 27.9854L43.5458 28.3784L42.8553 28.8828L42.3527 29.2466L41.8629 29.598L41.3861 29.9372L40.922 30.2643L40.4705 30.5795L40.0317 30.8827L39.6054 31.1741L39.3281 31.362L38.9225 31.6341L38.5291 31.8947L38.148 32.1439L37.7789 32.3819L37.4219 32.6088L37.0578 32.8364L36.8009 32.9945L36.5554 33.1434L36.3211 33.2833L36.0979 33.4144L35.8857 33.5367L35.6844 33.6505C35.6517 33.6687 35.6195 33.6866 35.5877 33.7042L35.4025 33.8054L35.1668 33.9304L35.0535 33.9887L34.9056 34.0627L34.7481 34.1377L34.6859 34.1656L34.6127 34.1963C34.4035 34.2789 34.1481 34.2135 34.0423 34.0502C33.9427 33.8966 34.011 33.711 34.1938 33.6208L34.3105 33.5693L34.4394 33.5084L34.5541 33.4516L34.6834 33.3855L34.9124 33.2643L35.0809 33.1724L35.2591 33.073L35.4471 32.966L35.645 32.8513L35.8528 32.7288L36.0708 32.5983L36.2989 32.4597L36.6604 32.2364L37.0059 32.0191L37.3634 31.7907L37.6085 31.6323L37.8589 31.4688L38.2448 31.2142L38.643 30.9481L39.0536 30.6705L39.3343 30.479L39.7657 30.1818L40.2097 29.8729L40.8215 29.4423L41.2953 29.1052L41.782 28.7559L42.4511 28.271L42.9682 27.8928L43.4984 27.502L44.226 26.9611L44.5987 26.6821L45.169 26.2528L45.9504 25.6601C46.1182 25.5323 46.387 25.5349 46.5507 25.6658Z" fill="#FF9B89"/>
<path fill-rule="evenodd" clip-rule="evenodd" d="M54.4108 20.5049L54.4517 20.5061C54.6853 20.5215 54.8587 20.6818 54.839 20.8641C54.7534 21.6537 55.2033 22.3758 56.024 23.016C56.2938 23.2264 56.5841 23.4118 56.874 23.5695C56.9498 23.6108 57.0212 23.6477 57.0873 23.6804L57.1785 23.7243L57.247 23.7554C57.4528 23.8431 57.5286 24.0444 57.4162 24.205C57.3038 24.3656 57.0459 24.4247 56.8401 24.337L56.7676 24.3048L56.678 24.2625L56.5727 24.2102L56.4531 24.1479C56.4321 24.1367 56.4105 24.1251 56.3884 24.1131C56.0597 23.9342 55.7313 23.7246 55.4237 23.4846C54.4422 22.7189 53.8831 21.8216 53.9929 20.8083C54.0115 20.6367 54.1946 20.5067 54.4108 20.5049Z" fill="#FF9B89"/>
<path fill-rule="evenodd" clip-rule="evenodd" d="M26.2072 31.8583C27.2714 32.4632 24.507 37.1091 23.104 36.6804C21.701 36.2519 25.1433 31.2536 26.2072 31.8583Z" fill="#FF9B89"/>
<path fill-rule="evenodd" clip-rule="evenodd" d="M14.2327 33.6033C15.0877 35.8524 12.7564 45.89 11.2218 44.7051C9.6872 43.5201 13.3776 31.3543 14.2327 33.6033Z" fill="#FF9B89"/>
<path fill-rule="evenodd" clip-rule="evenodd" d="M14.4321 14.6854L13.617 15.236L13.21 15.5108L13.007 15.6484L12.8202 15.7992C12.3297 16.2067 11.7999 16.5846 11.3723 17.0325C11.1506 17.251 10.9154 17.4606 10.7054 17.6847L10.1063 18.3745C9.8954 18.5982 9.73408 18.8465 9.55747 19.0866C9.38765 19.3297 9.19519 19.563 9.05764 19.8189C8.41742 20.8064 7.97278 21.8639 7.66654 22.936C7.51229 23.4725 7.4138 24.0169 7.34219 24.5602C7.32153 24.8326 7.28898 25.1049 7.28927 25.3748C7.28276 25.5108 7.28502 25.6447 7.29011 25.7776C7.29153 25.8446 7.29294 25.9115 7.29917 25.9749C7.30398 26.0389 7.30851 26.1074 7.3153 26.1553L5.7759 26.262C5.76798 26.1675 5.76798 26.0933 5.76628 26.0144C5.76317 25.9353 5.76543 25.8594 5.76798 25.7834C5.77053 25.6308 5.77675 25.479 5.79175 25.3297C5.80902 25.0285 5.85968 24.7327 5.89987 24.4357C6.0094 23.8457 6.1495 23.2611 6.34706 22.6886C6.7399 21.5448 7.28049 20.4303 8.01948 19.4006C8.18166 19.134 8.39903 18.8913 8.59375 18.6393C8.79527 18.3906 8.9815 18.1344 9.21698 17.9041L9.89031 17.1971C10.1249 16.968 10.3842 16.7549 10.6296 16.5336C11.1059 16.0793 11.681 15.7003 12.2165 15.2934L12.42 15.143L12.6391 15.0068L13.0778 14.7349L13.9543 14.1929L14.4321 14.6854Z" fill="#FF9B89"/>
<path fill-rule="evenodd" clip-rule="evenodd" d="M5.17046 17.7151C4.2942 19.1394 3.46634 20.5856 2.91075 22.1058C2.583 22.853 2.38262 23.6287 2.13412 24.3922C2.03138 24.7783 1.94845 25.1677 1.85448 25.5549C1.81118 25.749 1.75797 25.9418 1.72287 26.1368L1.62579 26.7235C1.35154 28.2847 1.23917 29.8637 1.28757 31.4374C1.2938 31.8307 1.32918 32.2234 1.34814 32.6163C1.38069 33.0084 1.42314 33.4 1.46871 33.7907C1.57315 34.5652 1.7124 35.3606 1.9125 36.0903L0.495655 36.3357C0.295553 35.4966 0.188851 34.7015 0.105357 33.8839C0.0719594 33.4775 0.0416752 33.0711 0.0221461 32.6647C0.0162025 32.2581 -0.00587383 31.8517 0.00148494 31.4455C0.00742857 29.8206 0.179228 28.1975 0.516316 26.5967L0.63717 25.9957C0.680191 25.7958 0.741608 25.5982 0.79312 25.3996C0.903218 25.0031 1.00228 24.6051 1.12172 24.2107C1.40362 23.4299 1.63768 22.6392 1.99996 21.8779C2.62461 20.3303 3.52436 18.8625 4.47138 17.4253L5.17046 17.7151Z" fill="#FF9B89"/>
<path fill-rule="evenodd" clip-rule="evenodd" d="M15.7823 24.6496C14.7393 25.6779 13.3567 25.869 13.293 24.9937C13.2293 24.1184 14.5327 22.833 15.6391 22.6799C16.7454 22.5271 16.8249 23.6212 15.7823 24.6496Z" fill="#FF9B89"/>
<path fill-rule="evenodd" clip-rule="evenodd" d="M45.6305 21.3924C45.8489 21.3259 46.0951 21.4101 46.1803 21.5806C46.2656 21.7511 46.1576 21.9431 45.9391 22.0097C43.7131 22.6874 41.5018 23.4895 39.3267 24.3902C36.8385 25.4205 34.526 26.5246 32.4499 27.6284L32.0937 27.8191L31.7512 28.0049L31.4229 28.1856C31.3693 28.2152 31.3164 28.2447 31.264 28.2739L30.9571 28.4464L30.6647 28.613L30.3385 28.802L29.8485 29.0946C29.6649 29.2084 29.3978 29.1845 29.252 29.0412C29.1062 28.8979 29.1368 28.6895 29.3205 28.5757L29.5012 28.4661L29.6564 28.3736L29.9214 28.2181L30.1612 28.0795L30.458 27.9103L30.7695 27.7353C30.8226 27.7056 30.8764 27.6757 30.9307 27.6457L31.2637 27.4624C31.3204 27.4315 31.3776 27.4003 31.4355 27.3689L31.7896 27.1781C31.8497 27.1459 31.9105 27.1135 31.9718 27.0809C34.0725 25.964 36.4113 24.8473 38.9287 23.8049C41.1317 22.8927 43.3724 22.0799 45.6305 21.3924Z" fill="#FF9B89"/>
<path fill-rule="evenodd" clip-rule="evenodd" d="M53.7591 40.1748C53.8899 41.4861 54.1825 43.8599 54.7472 46.5724C54.7472 46.5724 52.5064 48.696 45.9149 49.9176C45.8391 49.9279 43.1517 46.5191 41.8246 44.8275C45.0276 44.166 49.7019 42.8232 53.7591 40.1748Z" fill="#FF9B89"/>
<path fill-rule="evenodd" clip-rule="evenodd" d="M53.7591 40.1748C53.8899 41.4861 54.1825 43.8599 54.7472 46.5724C54.7472 46.5724 52.5064 48.696 45.9149 49.9176C45.8391 49.9279 43.1517 46.5191 41.8246 44.8275C45.0276 44.166 49.7019 42.8232 53.7591 40.1748Z" fill="#797979" fill-opacity="0.2" style="mix-blend-mode:multiply"/>
<path fill-rule="evenodd" clip-rule="evenodd" d="M57.5439 44.2559L58.4811 44.7514C56.7665 46.7261 54.1764 48.2072 50.9534 49.2657C48.8485 49.9569 46.5995 50.4278 44.3515 50.72C43.565 50.8222 42.8343 50.8949 42.1775 50.943L41.8505 50.9653L41.6545 50.9768L41.3374 50.9914L41.2928 50.1086L41.4901 50.1L41.6663 50.0903L41.8603 50.0782L42.0716 50.0634C42.7025 50.0172 43.4067 49.9472 44.1655 49.8485C46.3324 49.5669 48.4984 49.1134 50.5142 48.4514C53.4872 47.475 55.8652 46.1303 57.4442 44.3689L57.5439 44.2559Z" fill="#6343F0"/>
<path fill-rule="evenodd" clip-rule="evenodd" d="M57.5439 44.2559L58.4811 44.7514C56.7665 46.7261 54.1764 48.2072 50.9534 49.2657C48.8485 49.9569 46.5995 50.4278 44.3515 50.72C43.565 50.8222 42.8343 50.8949 42.1775 50.943L41.8505 50.9653L41.6545 50.9768L41.3374 50.9914L41.2928 50.1086L41.4901 50.1L41.6663 50.0903L41.8603 50.0782L42.0716 50.0634C42.7025 50.0172 43.4067 49.9472 44.1655 49.8485C46.3324 49.5669 48.4984 49.1134 50.5142 48.4514C53.4872 47.475 55.8652 46.1303 57.4442 44.3689L57.5439 44.2559Z" fill="#797979" fill-opacity="0.2" style="mix-blend-mode:multiply"/>
<path d="M158.461 122.936C158.472 122.962 159.725 125.872 160.92 128.829C162.082 131.703 163.188 134.622 163.049 134.981C162.997 135.116 162.853 135.261 162.637 135.409C163.468 138.24 163.506 141.343 163.607 142.784C163.649 143.367 163.351 143.934 162.801 144.33L157.498 148.141C156.664 151.244 155.771 153.629 155.197 154.151C153.871 155.359 150.702 153.285 151.032 151.58C151.131 151.073 151.491 149.797 151.91 148.109L148.969 147.162C148.401 146.978 148.173 146.445 148.486 146.033L148.984 145.378C149.731 144.397 151.164 143.864 152.611 144.03L152.81 144.052C152.973 143.194 153.121 142.309 153.241 141.421C152.744 141.475 149.545 141.748 148.849 139.976C147.719 133.63 144.401 134.978 146.469 130.295C146.97 129.16 147.347 128.169 147.625 127.328C148.5 124.693 148.452 123.46 148.452 123.46L149.637 125.297H149.638C149.49 124.282 149.398 123.611 149.398 123.611L158.461 122.936ZM153.383 140.232C153.463 139.453 153.516 138.68 153.532 137.93L153.383 140.232Z" fill="#FF9B89"/>
<path d="M158.461 122.936C158.472 122.962 159.725 125.872 160.92 128.829C162.082 131.703 163.188 134.622 163.049 134.981C162.997 135.116 162.853 135.261 162.637 135.409C163.468 138.24 163.506 141.343 163.607 142.784C163.649 143.367 163.351 143.934 162.801 144.33L157.498 148.141C156.664 151.244 155.771 153.629 155.197 154.151C153.871 155.359 150.702 153.285 151.032 151.58C151.131 151.073 151.491 149.797 151.91 148.109L148.969 147.162C148.401 146.978 148.173 146.445 148.486 146.033L148.984 145.378C149.731 144.397 151.164 143.864 152.611 144.03L152.81 144.052C152.973 143.194 153.121 142.309 153.241 141.421C152.744 141.475 149.545 141.748 148.849 139.976C147.719 133.63 144.401 134.978 146.469 130.295C146.97 129.16 147.347 128.169 147.625 127.328C148.5 124.693 148.452 123.46 148.452 123.46L149.637 125.297H149.638C149.49 124.282 149.398 123.611 149.398 123.611L158.461 122.936ZM153.383 140.232C153.463 139.453 153.516 138.68 153.532 137.93L153.383 140.232Z" fill="#797979" fill-opacity="0.2" style="mix-blend-mode:multiply"/>
<path fill-rule="evenodd" clip-rule="evenodd" d="M161.643 135.413C161.854 135.334 162.108 135.404 162.209 135.569C162.304 135.725 162.231 135.909 162.045 135.996L162.009 136.011L160.014 136.756L159.94 137.43L159.876 137.993L159.811 138.547L159.744 139.092L159.676 139.626L159.607 140.152L159.536 140.667C159.524 140.753 159.513 140.837 159.501 140.922L159.428 141.424C159.416 141.507 159.404 141.589 159.392 141.671L159.318 142.159C159.305 142.239 159.293 142.32 159.28 142.399L159.204 142.873L159.127 143.338L159.049 143.794L158.97 144.24C158.957 144.314 158.943 144.387 158.93 144.46L158.849 144.893L158.808 145.106L158.739 145.46L158.669 145.807L158.599 146.145L158.493 146.639L158.422 146.958L158.35 147.269L158.278 147.574L158.206 147.87L158.134 148.159L158.061 148.441L157.988 148.716L157.915 148.983L157.805 149.37L157.731 149.619L157.657 149.861L157.583 150.096L157.509 150.324L157.435 150.545L157.361 150.759L157.286 150.966L157.212 151.166L157.137 151.36L157.057 151.56L156.978 151.749C156.965 151.78 156.952 151.81 156.94 151.84L156.863 152.012L156.788 152.172L156.715 152.322L156.644 152.462C156.632 152.484 156.621 152.506 156.609 152.527L156.546 152.641L156.493 152.733C156.485 152.747 156.476 152.76 156.468 152.773L156.424 152.844L156.385 152.902L156.351 152.948C156.346 152.954 156.342 152.96 156.337 152.966C156.212 153.121 155.95 153.167 155.752 153.07C155.565 152.978 155.501 152.791 155.599 152.641L155.634 152.592L155.683 152.519L155.733 152.436L155.796 152.327L155.827 152.269L155.893 152.144C155.904 152.122 155.915 152.1 155.926 152.078L155.995 151.937L156.065 151.786C156.077 151.759 156.089 151.733 156.101 151.706L156.174 151.537L156.249 151.357C156.274 151.296 156.3 151.232 156.325 151.166L156.398 150.977C156.41 150.945 156.422 150.912 156.435 150.88L156.507 150.68C156.52 150.646 156.532 150.612 156.544 150.578L156.617 150.368C156.629 150.333 156.641 150.297 156.653 150.261L156.726 150.041L156.798 149.813L156.907 149.459L156.98 149.214L157.088 148.834L157.16 148.571L157.232 148.3L157.339 147.881L157.446 147.445L157.516 147.145L157.587 146.837L157.657 146.522L157.727 146.199L157.797 145.868L157.866 145.53L157.935 145.184L158.009 144.796L158.09 144.366C158.103 144.293 158.116 144.22 158.129 144.147L158.208 143.703C158.221 143.628 158.234 143.553 158.247 143.478L158.324 143.02C158.337 142.943 158.35 142.866 158.362 142.788L158.438 142.317C158.45 142.237 158.463 142.158 158.475 142.077L158.549 141.592C158.561 141.511 158.573 141.429 158.585 141.346L158.657 140.847L158.728 140.338L158.797 139.82C158.809 139.733 158.82 139.646 158.832 139.558L158.899 139.026C158.91 138.936 158.922 138.846 158.933 138.756L158.998 138.21C159.009 138.118 159.02 138.025 159.031 137.933L159.126 137.088C159.147 136.898 159.168 136.706 159.188 136.512C159.199 136.406 159.276 136.311 159.392 136.256L159.428 136.241L161.643 135.413Z" fill="#FF9B89"/>
<path fill-rule="evenodd" clip-rule="evenodd" d="M151.37 129.687C151.598 129.646 151.826 129.757 151.88 129.935C151.939 130.134 152.016 130.355 152.109 130.594L152.192 130.803C152.206 130.839 152.221 130.874 152.236 130.911L152.329 131.132C152.361 131.207 152.395 131.283 152.429 131.36L152.535 131.595L152.647 131.836C152.666 131.877 152.685 131.918 152.704 131.959L152.824 132.208L152.948 132.461L153.142 132.848L153.344 133.241L153.482 133.506L153.695 133.906L153.84 134.173L153.986 134.44C154.08 134.61 154.128 134.791 154.128 134.975L154.126 135.045L153.731 141.43C153.72 141.613 153.521 141.754 153.287 141.745C153.067 141.737 152.894 141.599 152.883 141.43L152.883 141.398L153.278 135.012C153.284 134.905 153.26 134.8 153.206 134.702L153.053 134.422L152.826 134.001L152.678 133.723L152.533 133.445L152.392 133.17L152.254 132.898L152.121 132.63L151.992 132.365L151.868 132.106C151.848 132.063 151.828 132.02 151.809 131.978L151.693 131.726C151.656 131.643 151.619 131.562 151.584 131.481L151.481 131.243C151.448 131.165 151.416 131.088 151.386 131.013L151.297 130.79C151.199 130.536 151.116 130.299 151.053 130.085C150.999 129.907 151.142 129.729 151.37 129.687Z" fill="#FF9B89"/>
<path fill-rule="evenodd" clip-rule="evenodd" d="M161.643 135.413C161.854 135.334 162.108 135.404 162.209 135.569C162.304 135.725 162.231 135.909 162.045 135.996L162.009 136.011L160.014 136.756L159.94 137.43L159.876 137.993L159.811 138.547L159.744 139.092L159.676 139.626L159.607 140.152L159.536 140.667C159.524 140.753 159.513 140.837 159.501 140.922L159.428 141.424C159.416 141.507 159.404 141.589 159.392 141.671L159.318 142.159C159.305 142.239 159.293 142.32 159.28 142.399L159.204 142.873L159.127 143.338L159.049 143.794L158.97 144.24C158.957 144.314 158.943 144.387 158.93 144.46L158.849 144.893L158.808 145.106L158.739 145.46L158.669 145.807L158.599 146.145L158.493 146.639L158.422 146.958L158.35 147.269L158.278 147.574L158.206 147.87L158.134 148.159L158.061 148.441L157.988 148.716L157.915 148.983L157.805 149.37L157.731 149.619L157.657 149.861L157.583 150.096L157.509 150.324L157.435 150.545L157.361 150.759L157.286 150.966L157.212 151.166L157.137 151.36L157.057 151.56L156.978 151.749C156.965 151.78 156.952 151.81 156.94 151.84L156.863 152.012L156.788 152.172L156.715 152.322L156.644 152.462C156.632 152.484 156.621 152.506 156.609 152.527L156.546 152.641L156.493 152.733C156.485 152.747 156.476 152.76 156.468 152.773L156.424 152.844L156.385 152.902L156.351 152.948C156.346 152.954 156.342 152.96 156.337 152.966C156.212 153.121 155.95 153.167 155.752 153.07C155.565 152.978 155.501 152.791 155.599 152.641L155.634 152.592L155.683 152.519L155.733 152.436L155.796 152.327L155.827 152.269L155.893 152.144C155.904 152.122 155.915 152.1 155.926 152.078L155.995 151.937L156.065 151.786C156.077 151.759 156.089 151.733 156.101 151.706L156.174 151.537L156.249 151.357C156.274 151.296 156.3 151.232 156.325 151.166L156.398 150.977C156.41 150.945 156.422 150.912 156.435 150.88L156.507 150.68C156.52 150.646 156.532 150.612 156.544 150.578L156.617 150.368C156.629 150.333 156.641 150.297 156.653 150.261L156.726 150.041L156.798 149.813L156.907 149.459L156.98 149.214L157.088 148.834L157.16 148.571L157.232 148.3L157.339 147.881L157.446 147.445L157.516 147.145L157.587 146.837L157.657 146.522L157.727 146.199L157.797 145.868L157.866 145.53L157.935 145.184L158.009 144.796L158.09 144.366C158.103 144.293 158.116 144.22 158.129 144.147L158.208 143.703C158.221 143.628 158.234 143.553 158.247 143.478L158.324 143.02C158.337 142.943 158.35 142.866 158.362 142.788L158.438 142.317C158.45 142.237 158.463 142.158 158.475 142.077L158.549 141.592C158.561 141.511 158.573 141.429 158.585 141.346L158.657 140.847L158.728 140.338L158.797 139.82C158.809 139.733 158.82 139.646 158.832 139.558L158.899 139.026C158.91 138.936 158.922 138.846 158.933 138.756L158.998 138.21C159.009 138.118 159.02 138.025 159.031 137.933L159.126 137.088C159.147 136.898 159.168 136.706 159.188 136.512C159.199 136.406 159.276 136.311 159.392 136.256L159.428 136.241L161.643 135.413Z" fill="#FF9B89"/>
<path fill-rule="evenodd" clip-rule="evenodd" d="M151.37 129.687C151.598 129.646 151.826 129.757 151.88 129.935C151.939 130.134 152.016 130.355 152.109 130.594L152.192 130.803C152.206 130.839 152.221 130.874 152.236 130.911L152.329 131.132C152.361 131.207 152.395 131.283 152.429 131.36L152.535 131.595L152.647 131.836C152.666 131.877 152.685 131.918 152.704 131.959L152.824 132.208L152.948 132.461L153.142 132.848L153.344 133.241L153.482 133.506L153.695 133.906L153.84 134.173L153.986 134.44C154.08 134.61 154.128 134.791 154.128 134.975L154.126 135.045L153.731 141.43C153.72 141.613 153.521 141.754 153.287 141.745C153.067 141.737 152.894 141.599 152.883 141.43L152.883 141.398L153.278 135.012C153.284 134.905 153.26 134.8 153.206 134.702L153.053 134.422L152.826 134.001L152.678 133.723L152.533 133.445L152.392 133.17L152.254 132.898L152.121 132.63L151.992 132.365L151.868 132.106C151.848 132.063 151.828 132.02 151.809 131.978L151.693 131.726C151.656 131.643 151.619 131.562 151.584 131.481L151.481 131.243C151.448 131.165 151.416 131.088 151.386 131.013L151.297 130.79C151.199 130.536 151.116 130.299 151.053 130.085C150.999 129.907 151.142 129.729 151.37 129.687Z" fill="#FF9B89"/>
<path fill-rule="evenodd" clip-rule="evenodd" d="M161.643 135.413C161.854 135.334 162.108 135.404 162.209 135.569C162.304 135.725 162.231 135.909 162.045 135.996L162.009 136.011L160.014 136.756L159.94 137.43L159.876 137.993L159.811 138.547L159.744 139.092L159.676 139.626L159.607 140.152L159.536 140.667C159.524 140.753 159.513 140.837 159.501 140.922L159.428 141.424C159.416 141.507 159.404 141.589 159.392 141.671L159.318 142.159C159.305 142.239 159.293 142.32 159.28 142.399L159.204 142.873L159.127 143.338L159.049 143.794L158.97 144.24C158.957 144.314 158.943 144.387 158.93 144.46L158.849 144.893L158.808 145.106L158.739 145.46L158.669 145.807L158.599 146.145L158.493 146.639L158.422 146.958L158.35 147.269L158.278 147.574L158.206 147.87L158.134 148.159L158.061 148.441L157.988 148.716L157.915 148.983L157.805 149.37L157.731 149.619L157.657 149.861L157.583 150.096L157.509 150.324L157.435 150.545L157.361 150.759L157.286 150.966L157.212 151.166L157.137 151.36L157.057 151.56L156.978 151.749C156.965 151.78 156.952 151.81 156.94 151.84L156.863 152.012L156.788 152.172L156.715 152.322L156.644 152.462C156.632 152.484 156.621 152.506 156.609 152.527L156.546 152.641L156.493 152.733C156.485 152.747 156.476 152.76 156.468 152.773L156.424 152.844L156.385 152.902L156.351 152.948C156.346 152.954 156.342 152.96 156.337 152.966C156.212 153.121 155.95 153.167 155.752 153.07C155.565 152.978 155.501 152.791 155.599 152.641L155.634 152.592L155.683 152.519L155.733 152.436L155.796 152.327L155.827 152.269L155.893 152.144C155.904 152.122 155.915 152.1 155.926 152.078L155.995 151.937L156.065 151.786C156.077 151.759 156.089 151.733 156.101 151.706L156.174 151.537L156.249 151.357C156.274 151.296 156.3 151.232 156.325 151.166L156.398 150.977C156.41 150.945 156.422 150.912 156.435 150.88L156.507 150.68C156.52 150.646 156.532 150.612 156.544 150.578L156.617 150.368C156.629 150.333 156.641 150.297 156.653 150.261L156.726 150.041L156.798 149.813L156.907 149.459L156.98 149.214L157.088 148.834L157.16 148.571L157.232 148.3L157.339 147.881L157.446 147.445L157.516 147.145L157.587 146.837L157.657 146.522L157.727 146.199L157.797 145.868L157.866 145.53L157.935 145.184L158.009 144.796L158.09 144.366C158.103 144.293 158.116 144.22 158.129 144.147L158.208 143.703C158.221 143.628 158.234 143.553 158.247 143.478L158.324 143.02C158.337 142.943 158.35 142.866 158.362 142.788L158.438 142.317C158.45 142.237 158.463 142.158 158.475 142.077L158.549 141.592C158.561 141.511 158.573 141.429 158.585 141.346L158.657 140.847L158.728 140.338L158.797 139.82C158.809 139.733 158.82 139.646 158.832 139.558L158.899 139.026C158.91 138.936 158.922 138.846 158.933 138.756L158.998 138.21C159.009 138.118 159.02 138.025 159.031 137.933L159.126 137.088C159.147 136.898 159.168 136.706 159.188 136.512C159.199 136.406 159.276 136.311 159.392 136.256L159.428 136.241L161.643 135.413Z" fill="#797979" fill-opacity="0.2" style="mix-blend-mode:multiply"/>
<path fill-rule="evenodd" clip-rule="evenodd" d="M151.37 129.687C151.598 129.646 151.826 129.757 151.88 129.935C151.939 130.134 152.016 130.355 152.109 130.594L152.192 130.803C152.206 130.839 152.221 130.874 152.236 130.911L152.329 131.132C152.361 131.207 152.395 131.283 152.429 131.36L152.535 131.595L152.647 131.836C152.666 131.877 152.685 131.918 152.704 131.959L152.824 132.208L152.948 132.461L153.142 132.848L153.344 133.241L153.482 133.506L153.695 133.906L153.84 134.173L153.986 134.44C154.08 134.61 154.128 134.791 154.128 134.975L154.126 135.045L153.731 141.43C153.72 141.613 153.521 141.754 153.287 141.745C153.067 141.737 152.894 141.599 152.883 141.43L152.883 141.398L153.278 135.012C153.284 134.905 153.26 134.8 153.206 134.702L153.053 134.422L152.826 134.001L152.678 133.723L152.533 133.445L152.392 133.17L152.254 132.898L152.121 132.63L151.992 132.365L151.868 132.106C151.848 132.063 151.828 132.02 151.809 131.978L151.693 131.726C151.656 131.643 151.619 131.562 151.584 131.481L151.481 131.243C151.448 131.165 151.416 131.088 151.386 131.013L151.297 130.79C151.199 130.536 151.116 130.299 151.053 130.085C150.999 129.907 151.142 129.729 151.37 129.687Z" fill="#797979" fill-opacity="0.2" style="mix-blend-mode:multiply"/>
<path fill-rule="evenodd" clip-rule="evenodd" d="M161.643 135.413C161.854 135.334 162.108 135.404 162.209 135.569C162.304 135.725 162.231 135.909 162.045 135.996L162.009 136.011L160.014 136.756L159.94 137.43L159.876 137.993L159.811 138.547L159.744 139.092L159.676 139.626L159.607 140.152L159.536 140.667C159.524 140.753 159.513 140.837 159.501 140.922L159.428 141.424C159.416 141.507 159.404 141.589 159.392 141.671L159.318 142.159C159.305 142.239 159.293 142.32 159.28 142.399L159.204 142.873L159.127 143.338L159.049 143.794L158.97 144.24C158.957 144.314 158.943 144.387 158.93 144.46L158.849 144.893L158.808 145.106L158.739 145.46L158.669 145.807L158.599 146.145L158.493 146.639L158.422 146.958L158.35 147.269L158.278 147.574L158.206 147.87L158.134 148.159L158.061 148.441L157.988 148.716L157.915 148.983L157.805 149.37L157.731 149.619L157.657 149.861L157.583 150.096L157.509 150.324L157.435 150.545L157.361 150.759L157.286 150.966L157.212 151.166L157.137 151.36L157.057 151.56L156.978 151.749C156.965 151.78 156.952 151.81 156.94 151.84L156.863 152.012L156.788 152.172L156.715 152.322L156.644 152.462C156.632 152.484 156.621 152.506 156.609 152.527L156.546 152.641L156.493 152.733C156.485 152.747 156.476 152.76 156.468 152.773L156.424 152.844L156.385 152.902L156.351 152.948C156.346 152.954 156.342 152.96 156.337 152.966C156.212 153.121 155.95 153.167 155.752 153.07C155.565 152.978 155.501 152.791 155.599 152.641L155.634 152.592L155.683 152.519L155.733 152.436L155.796 152.327L155.827 152.269L155.893 152.144C155.904 152.122 155.915 152.1 155.926 152.078L155.995 151.937L156.065 151.786C156.077 151.759 156.089 151.733 156.101 151.706L156.174 151.537L156.249 151.357C156.274 151.296 156.3 151.232 156.325 151.166L156.398 150.977C156.41 150.945 156.422 150.912 156.435 150.88L156.507 150.68C156.52 150.646 156.532 150.612 156.544 150.578L156.617 150.368C156.629 150.333 156.641 150.297 156.653 150.261L156.726 150.041L156.798 149.813L156.907 149.459L156.98 149.214L157.088 148.834L157.16 148.571L157.232 148.3L157.339 147.881L157.446 147.445L157.516 147.145L157.587 146.837L157.657 146.522L157.727 146.199L157.797 145.868L157.866 145.53L157.935 145.184L158.009 144.796L158.09 144.366C158.103 144.293 158.116 144.22 158.129 144.147L158.208 143.703C158.221 143.628 158.234 143.553 158.247 143.478L158.324 143.02C158.337 142.943 158.35 142.866 158.362 142.788L158.438 142.317C158.45 142.237 158.463 142.158 158.475 142.077L158.549 141.592C158.561 141.511 158.573 141.429 158.585 141.346L158.657 140.847L158.728 140.338L158.797 139.82C158.809 139.733 158.82 139.646 158.832 139.558L158.899 139.026C158.91 138.936 158.922 138.846 158.933 138.756L158.998 138.21C159.009 138.118 159.02 138.025 159.031 137.933L159.126 137.088C159.147 136.898 159.168 136.706 159.188 136.512C159.199 136.406 159.276 136.311 159.392 136.256L159.428 136.241L161.643 135.413Z" fill="#797979" fill-opacity="0.2" style="mix-blend-mode:multiply"/>
<path fill-rule="evenodd" clip-rule="evenodd" d="M151.37 129.687C151.598 129.646 151.826 129.757 151.88 129.935C151.939 130.134 152.016 130.355 152.109 130.594L152.192 130.803C152.206 130.839 152.221 130.874 152.236 130.911L152.329 131.132C152.361 131.207 152.395 131.283 152.429 131.36L152.535 131.595L152.647 131.836C152.666 131.877 152.685 131.918 152.704 131.959L152.824 132.208L152.948 132.461L153.142 132.848L153.344 133.241L153.482 133.506L153.695 133.906L153.84 134.173L153.986 134.44C154.08 134.61 154.128 134.791 154.128 134.975L154.126 135.045L153.731 141.43C153.72 141.613 153.521 141.754 153.287 141.745C153.067 141.737 152.894 141.599 152.883 141.43L152.883 141.398L153.278 135.012C153.284 134.905 153.26 134.8 153.206 134.702L153.053 134.422L152.826 134.001L152.678 133.723L152.533 133.445L152.392 133.17L152.254 132.898L152.121 132.63L151.992 132.365L151.868 132.106C151.848 132.063 151.828 132.02 151.809 131.978L151.693 131.726C151.656 131.643 151.619 131.562 151.584 131.481L151.481 131.243C151.448 131.165 151.416 131.088 151.386 131.013L151.297 130.79C151.199 130.536 151.116 130.299 151.053 130.085C150.999 129.907 151.142 129.729 151.37 129.687Z" fill="#797979" fill-opacity="0.2" style="mix-blend-mode:multiply"/>
<path fill-rule="evenodd" clip-rule="evenodd" d="M160.92 128.829C158.149 128.824 154.889 128.644 151.442 128.089C150.971 128.015 150.497 127.932 150.019 127.841C149.228 127.691 148.428 127.522 147.625 127.328C148.499 124.694 148.452 123.461 148.452 123.461L149.637 125.298C149.489 124.282 149.397 123.611 149.397 123.611L158.46 122.936C158.46 122.936 159.72 125.859 160.92 128.829Z" fill="#797979" fill-opacity="0.2" style="mix-blend-mode:multiply"/>
<path fill-rule="evenodd" clip-rule="evenodd" d="M162.047 122.991C160.796 126.247 145.005 127.223 140.906 121.039C139.866 119.471 138.828 116.284 137.791 112.186C135.316 102.444 132.815 87.5477 130.151 76.9782C129.516 74.4643 128.876 72.193 128.221 70.2966L129.181 61.4086L130.195 52.021L134.946 53.5613C134.946 53.5613 139.305 61.0802 143.588 69.8224C144.898 72.496 146.202 75.2831 147.373 78.005C148.348 80.2739 149.231 82.4989 149.945 84.5735C150.408 85.9102 150.918 87.3533 151.463 88.8728C156.104 101.785 163.167 120.079 162.047 122.991Z" fill="#6343F0"/>
<path fill-rule="evenodd" clip-rule="evenodd" d="M151.463 88.8732C149.121 89.0722 145.944 85.196 145.547 81.4769C145.313 79.3029 146.125 78.0911 147.373 78.0054C148.348 80.2743 149.231 82.4993 149.945 84.5739C150.408 85.9105 150.917 87.3537 151.463 88.8732Z" fill="#797979" fill-opacity="0.2" style="mix-blend-mode:multiply"/>
<path fill-rule="evenodd" clip-rule="evenodd" d="M143.588 69.8226L130.15 76.9784C129.516 74.4645 128.876 72.1931 128.221 70.2968L129.415 51.7681L134.946 53.5615C134.946 53.5615 139.305 61.0804 143.588 69.8226Z" fill="white" fill-opacity="0.3" style="mix-blend-mode:lighten"/>
<path fill-rule="evenodd" clip-rule="evenodd" d="M144.026 123.137C145.375 123.749 146.827 124.201 148.367 124.506C152.281 125.283 156.491 125.086 160.535 124.285C161.243 124.144 161.891 123.995 162.469 123.845L162.747 123.771L163.037 123.691L163.362 123.595L163.396 123.584L163.826 124.402L163.651 124.455L163.426 124.521L163.225 124.577L163.006 124.636C162.358 124.808 161.623 124.98 160.813 125.141C156.603 125.976 152.212 126.181 148.088 125.363C146.531 125.054 145.055 124.603 143.675 123.998L143.458 123.901L144.026 123.137Z" fill="#6343F0"/>
<path fill-rule="evenodd" clip-rule="evenodd" d="M144.026 123.137C145.375 123.749 146.827 124.201 148.367 124.506C152.281 125.283 156.491 125.086 160.535 124.285C161.243 124.144 161.891 123.995 162.469 123.845L162.747 123.771L163.037 123.691L163.362 123.595L163.396 123.584L163.826 124.402L163.651 124.455L163.426 124.521L163.225 124.577L163.006 124.636C162.358 124.808 161.623 124.98 160.813 125.141C156.603 125.976 152.212 126.181 148.088 125.363C146.531 125.054 145.055 124.603 143.675 123.998L143.458 123.901L144.026 123.137Z" fill="#797979" fill-opacity="0.2" style="mix-blend-mode:multiply"/>
<path fill-rule="evenodd" clip-rule="evenodd" d="M137.791 112.186C135.316 102.445 132.815 87.5482 130.151 76.9788C129.516 74.4647 128.876 72.1935 128.221 70.2972L129.181 61.4092C137.184 87.7934 151.777 96.1193 137.791 112.186Z" fill="#797979" fill-opacity="0.2" style="mix-blend-mode:multiply"/>
<path fill-rule="evenodd" clip-rule="evenodd" d="M130.195 52.0215C130.195 52.0215 129.747 56.0734 129.173 61.3812C128.372 68.8146 127.32 78.7133 126.89 83.3921L85.0422 82.1409C85.3001 75.9843 85.623 70.4566 85.9372 65.7292C86.456 57.8289 86.9479 52.1533 87.0605 49.4705C102.751 51.9961 111.662 46.4338 130.195 52.0215Z" fill="#6343F0"/>
<path fill-rule="evenodd" clip-rule="evenodd" d="M130.195 52.0215C130.195 52.0215 129.747 56.0734 129.173 61.3812C114.739 60.898 113.942 61.5844 115.634 64.2353C117.326 66.8861 98.5213 63.0695 85.9373 65.7292C86.456 57.8289 86.948 52.1533 87.0606 49.4705C102.751 51.9961 111.662 46.4338 130.195 52.0215Z" fill="white" fill-opacity="0.3" style="mix-blend-mode:lighten"/>
<path fill-rule="evenodd" clip-rule="evenodd" d="M84.5051 81.6304L128.39 83.0108L128.354 83.7728L84.4573 82.6505L84.5051 81.6304Z" fill="#362B42"/>
<path fill-rule="evenodd" clip-rule="evenodd" d="M93.9252 59.3721L98.5893 62.2259L97.8907 62.9211L93.2267 60.0673L93.9252 59.3721Z" fill="#6343F0"/>
<path fill-rule="evenodd" clip-rule="evenodd" d="M98.7868 58.125L99.5864 58.7504L94.2745 62.8861L93.4749 62.2607L98.7868 58.125Z" fill="#6343F0"/>
<path fill-rule="evenodd" clip-rule="evenodd" d="M93.9252 59.3721L98.5893 62.2259L97.8907 62.9211L93.2267 60.0673L93.9252 59.3721Z" fill="#797979" fill-opacity="0.2" style="mix-blend-mode:multiply"/>
<path fill-rule="evenodd" clip-rule="evenodd" d="M98.7868 58.125L99.5864 58.7504L94.2745 62.8861L93.4749 62.2607L98.7868 58.125Z" fill="#797979" fill-opacity="0.2" style="mix-blend-mode:multiply"/>
<path fill-rule="evenodd" clip-rule="evenodd" d="M110.932 15.655C107.57 18.9346 110.297 10.8973 107.366 11.0214C104.436 11.1458 101.225 21.4836 101.225 21.4836L120.528 20.9451C119.793 11.0981 114.293 12.3753 110.932 15.655Z" fill="#FFC520"/>
<path fill-rule="evenodd" clip-rule="evenodd" d="M107.047 25.5709C111.199 25.3673 115.345 25.0753 119.461 24.6353C121.517 24.4122 123.568 24.1545 125.588 23.817C126.597 23.6476 127.599 23.4574 128.569 23.2222C129.053 23.1043 129.529 22.9724 129.966 22.8158C130.182 22.7372 130.391 22.6508 130.553 22.5603C130.638 22.5159 130.695 22.4695 130.732 22.4386C130.764 22.4068 130.729 22.4176 130.728 22.4965C130.735 22.5753 130.772 22.5886 130.738 22.5616C130.696 22.5362 130.635 22.4969 130.543 22.4618C130.37 22.3893 130.152 22.3233 129.926 22.2672C129.469 22.1552 128.976 22.0722 128.48 22.0006C127.984 21.9255 127.473 21.8807 126.965 21.8312C126.456 21.7824 125.951 21.7201 125.435 21.6943L123.894 21.5922C123.379 21.5642 122.862 21.549 122.346 21.5264C121.314 21.4756 120.277 21.4666 119.241 21.444C115.096 21.3919 110.939 21.4456 106.789 21.6119C102.64 21.7846 98.4915 22.019 94.3711 22.4105C93.3429 22.5152 92.311 22.6067 91.2895 22.7394C90.7781 22.8026 90.2644 22.8589 89.7546 22.9276L88.2311 23.1515C87.7199 23.2185 87.2235 23.3201 86.722 23.4102C86.2213 23.5018 85.7175 23.5891 85.2312 23.7061C84.7439 23.8192 84.2607 23.9436 83.8138 24.0957C83.5916 24.1719 83.3785 24.2572 83.205 24.3493C83.1139 24.3946 83.0499 24.4436 83.001 24.4816C82.9605 24.5207 82.9749 24.5266 82.9744 24.4838C82.9664 24.4416 82.9537 24.4531 83.0001 24.4906C83.0525 24.5264 83.1235 24.5719 83.2192 24.611C83.4026 24.6923 83.627 24.7621 83.8557 24.8235C84.319 24.945 84.8138 25.0368 85.313 25.1144C86.3138 25.2687 87.339 25.3739 88.3666 25.4578C90.424 25.6239 92.4994 25.708 94.5755 25.7566C98.7298 25.8593 102.894 25.7626 107.047 25.5709ZM107.088 26.2101C102.916 26.3601 98.7397 26.4284 94.5585 26.3952C92.4678 26.3705 90.3759 26.3102 88.2826 26.1658C87.236 26.0924 86.1894 25.9981 85.1407 25.849C84.616 25.7735 84.0913 25.6838 83.5611 25.552C83.2957 25.4833 83.0296 25.4075 82.7542 25.2907C82.6178 25.2348 82.4746 25.1593 82.3314 25.0577C82.1935 24.9519 82.0181 24.782 81.9957 24.5291C81.9787 24.2756 82.1299 24.087 82.2533 23.9677C82.3818 23.8535 82.5148 23.7639 82.6427 23.6958C82.9011 23.5547 83.1558 23.4529 83.4106 23.3612C83.9195 23.1812 84.4283 23.0449 84.9392 22.9197C85.4489 22.7909 85.9624 22.6955 86.4758 22.595C86.9892 22.4965 87.5015 22.3861 88.018 22.3123L89.565 22.0663C90.0819 21.9905 90.5995 21.9274 91.1169 21.8574C92.1508 21.7114 93.1892 21.6078 94.2263 21.4903C98.378 21.0521 102.546 20.7546 106.721 20.5755L109.854 20.4582L112.99 20.3811C114.036 20.3709 115.082 20.3511 116.129 20.3486C117.176 20.3601 118.222 20.3526 119.27 20.38C120.317 20.4069 121.364 20.4204 122.413 20.4761C122.938 20.5006 123.462 20.5185 123.986 20.5492L125.56 20.6596C126.085 20.6885 126.611 20.7533 127.136 20.808C127.661 20.8655 128.186 20.9182 128.713 21.0044C129.24 21.0874 129.767 21.1811 130.305 21.32C130.574 21.3913 130.846 21.4728 131.133 21.5965C131.274 21.6557 131.427 21.7379 131.58 21.849C131.661 21.9174 131.738 21.9777 131.812 22.0844C131.829 22.1091 131.846 22.1332 131.862 22.1593C131.877 22.1898 131.891 22.2209 131.903 22.2525C131.93 22.3143 131.946 22.3797 131.947 22.4515C131.953 22.5233 131.945 22.5897 131.925 22.652C131.909 22.7187 131.884 22.7773 131.853 22.8241C131.793 22.9336 131.723 22.9997 131.652 23.0721C131.513 23.1938 131.372 23.2855 131.24 23.355C130.97 23.4997 130.71 23.5986 130.451 23.6903C129.933 23.8681 129.419 24.0015 128.905 24.1208C127.875 24.3573 126.843 24.5378 125.809 24.6966C123.741 25.0124 121.666 25.2439 119.588 25.4402C115.43 25.8269 111.26 26.0628 107.088 26.2101Z" fill="#FFC520"/>
<path fill-rule="evenodd" clip-rule="evenodd" d="M107.047 25.5709C111.199 25.3673 115.345 25.0753 119.461 24.6353C121.517 24.4122 123.568 24.1545 125.588 23.817C126.597 23.6476 127.599 23.4574 128.569 23.2222C129.053 23.1043 129.529 22.9724 129.966 22.8158C130.182 22.7372 130.391 22.6508 130.553 22.5603C130.638 22.5159 130.695 22.4695 130.732 22.4386C130.764 22.4068 130.729 22.4176 130.728 22.4965C130.735 22.5753 130.772 22.5886 130.738 22.5616C130.696 22.5362 130.635 22.4969 130.543 22.4618C130.37 22.3893 130.152 22.3233 129.926 22.2672C129.469 22.1552 128.976 22.0722 128.48 22.0006C127.984 21.9255 127.473 21.8807 126.965 21.8312C126.456 21.7824 125.951 21.7201 125.435 21.6943L123.894 21.5922C123.379 21.5642 122.862 21.549 122.346 21.5264C121.314 21.4756 120.277 21.4666 119.241 21.444C115.096 21.3919 110.939 21.4456 106.789 21.6119C102.64 21.7846 98.4915 22.019 94.3711 22.4105C93.3429 22.5152 92.311 22.6067 91.2895 22.7394C90.7781 22.8026 90.2644 22.8589 89.7546 22.9276L88.2311 23.1515C87.7199 23.2185 87.2235 23.3201 86.722 23.4102C86.2213 23.5018 85.7175 23.5891 85.2312 23.7061C84.7439 23.8192 84.2607 23.9436 83.8138 24.0957C83.5916 24.1719 83.3785 24.2572 83.205 24.3493C83.1139 24.3946 83.0499 24.4436 83.001 24.4816C82.9605 24.5207 82.9749 24.5266 82.9744 24.4838C82.9664 24.4416 82.9537 24.4531 83.0001 24.4906C83.0525 24.5264 83.1235 24.5719 83.2192 24.611C83.4026 24.6923 83.627 24.7621 83.8557 24.8235C84.319 24.945 84.8138 25.0368 85.313 25.1144C86.3138 25.2687 87.339 25.3739 88.3666 25.4578C90.424 25.6239 92.4994 25.708 94.5755 25.7566C98.7298 25.8593 102.894 25.7626 107.047 25.5709ZM107.088 26.2101C102.916 26.3601 98.7397 26.4284 94.5585 26.3952C92.4678 26.3705 90.3759 26.3102 88.2826 26.1658C87.236 26.0924 86.1894 25.9981 85.1407 25.849C84.616 25.7735 84.0913 25.6838 83.5611 25.552C83.2957 25.4833 83.0296 25.4075 82.7542 25.2907C82.6178 25.2348 82.4746 25.1593 82.3314 25.0577C82.1935 24.9519 82.0181 24.782 81.9957 24.5291C81.9787 24.2756 82.1299 24.087 82.2533 23.9677C82.3818 23.8535 82.5148 23.7639 82.6427 23.6958C82.9011 23.5547 83.1558 23.4529 83.4106 23.3612C83.9195 23.1812 84.4283 23.0449 84.9392 22.9197C85.4489 22.7909 85.9624 22.6955 86.4758 22.595C86.9892 22.4965 87.5015 22.3861 88.018 22.3123L89.565 22.0663C90.0819 21.9905 90.5995 21.9274 91.1169 21.8574C92.1508 21.7114 93.1892 21.6078 94.2263 21.4903C98.378 21.0521 102.546 20.7546 106.721 20.5755L109.854 20.4582L112.99 20.3811C114.036 20.3709 115.082 20.3511 116.129 20.3486C117.176 20.3601 118.222 20.3526 119.27 20.38C120.317 20.4069 121.364 20.4204 122.413 20.4761C122.938 20.5006 123.462 20.5185 123.986 20.5492L125.56 20.6596C126.085 20.6885 126.611 20.7533 127.136 20.808C127.661 20.8655 128.186 20.9182 128.713 21.0044C129.24 21.0874 129.767 21.1811 130.305 21.32C130.574 21.3913 130.846 21.4728 131.133 21.5965C131.274 21.6557 131.427 21.7379 131.58 21.849C131.661 21.9174 131.738 21.9777 131.812 22.0844C131.829 22.1091 131.846 22.1332 131.862 22.1593C131.877 22.1898 131.891 22.2209 131.903 22.2525C131.93 22.3143 131.946 22.3797 131.947 22.4515C131.953 22.5233 131.945 22.5897 131.925 22.652C131.909 22.7187 131.884 22.7773 131.853 22.8241C131.793 22.9336 131.723 22.9997 131.652 23.0721C131.513 23.1938 131.372 23.2855 131.24 23.355C130.97 23.4997 130.71 23.5986 130.451 23.6903C129.933 23.8681 129.419 24.0015 128.905 24.1208C127.875 24.3573 126.843 24.5378 125.809 24.6966C123.741 25.0124 121.666 25.2439 119.588 25.4402C115.43 25.8269 111.26 26.0628 107.088 26.2101Z" fill="#797979" fill-opacity="0.2" style="mix-blend-mode:multiply"/>
<path fill-rule="evenodd" clip-rule="evenodd" d="M105 47.3238L105.702 41.8408H115.865V47.7624L105 47.3238Z" fill="#FF9B89"/>
<path fill-rule="evenodd" clip-rule="evenodd" d="M104.326 32.2556C104.123 33.9691 102.318 34.9188 101.077 33.9653C99.8356 33.0116 100.089 30.8701 101.533 30.1102C102.977 29.3504 104.529 30.5424 104.326 32.2556Z" fill="#FF9B89"/>
<path fill-rule="evenodd" clip-rule="evenodd" d="M105 47.3238L105.702 41.8408H115.865V47.7624L105 47.3238Z" fill="#797979" fill-opacity="0.2" style="mix-blend-mode:multiply"/>
<path fill-rule="evenodd" clip-rule="evenodd" d="M104.326 32.2556C104.123 33.9691 102.318 34.9188 101.077 33.9653C99.8356 33.0116 100.089 30.8701 101.533 30.1102C102.977 29.3504 104.529 30.5424 104.326 32.2556Z" fill="#797979" fill-opacity="0.2" style="mix-blend-mode:multiply"/>
<path fill-rule="evenodd" clip-rule="evenodd" d="M120.248 31.8607C120.234 34.8627 119.997 37.8693 119.256 39.6247C117.377 44.0815 105.614 43.5519 103.263 40.5292C102.223 39.1923 102.202 36.884 102.502 34.7262C102.881 32.004 103.77 29.518 103.77 29.518L102.745 29.196C102.405 29.0888 102.193 28.8214 102.223 28.5358L102.65 24.4851L102.674 24.2592C102.728 23.7448 103.261 23.3409 103.921 23.3135L117.378 22.7571C118.716 22.7019 119.862 23.4961 119.946 24.5399C120.07 26.0977 120.222 28.4444 120.246 30.8871C120.248 31.2109 120.252 31.5345 120.248 31.8607Z" fill="#FF9B89"/>
<path fill-rule="evenodd" clip-rule="evenodd" d="M120.25 32.8191C120.235 35.8211 119.997 37.8694 119.256 39.6248C117.377 44.0816 105.614 43.552 103.263 40.5292C102.223 39.1924 102.202 36.8841 102.502 34.7263L102.505 34.7241C105.661 31.6017 109.47 36.4494 111.497 36.1371C113.527 35.8248 113.267 30.9572 120.25 32.8191Z" fill="#7D3F50"/>
<path fill-rule="evenodd" clip-rule="evenodd" d="M110.124 30.8576C110.344 30.8467 110.535 30.9688 110.57 31.1355L110.574 31.1672L110.765 33.5102C110.78 33.6928 110.602 33.8502 110.368 33.8618C110.148 33.8727 109.956 33.7506 109.922 33.5839L109.918 33.5522L109.727 31.2092C109.712 31.0266 109.89 30.8692 110.124 30.8576Z" fill="#FF9B89"/>
<path fill-rule="evenodd" clip-rule="evenodd" d="M107.298 26.7963L107.461 26.7711L107.564 26.7565L107.713 26.7377L107.81 26.7274L107.906 26.719L108 26.7126L108.095 26.708C108.11 26.7075 108.126 26.707 108.142 26.7066L108.237 26.7051C108.254 26.7051 108.27 26.7051 108.286 26.7052L108.384 26.707L108.484 26.7109L108.588 26.7172L108.696 26.7257L108.808 26.7367L108.925 26.7501L109.048 26.7659C109.069 26.7688 109.09 26.7718 109.112 26.7748L109.314 26.8054L109.534 26.842L109.774 26.8847L110.129 26.9517L110.528 27.0305L110.977 27.1216L111.482 27.2254C113.798 27.7042 115.476 27.84 117.693 27.5522L117.89 27.5257L118.089 28.3955C115.654 28.7339 113.826 28.6099 111.401 28.1221L110.208 27.8786L109.768 27.7925L109.462 27.7358L109.256 27.7001L109.068 27.67L108.897 27.6453L108.79 27.6317L108.689 27.6203L108.594 27.6111L108.502 27.6041L108.415 27.5991C108.4 27.5984 108.386 27.5978 108.372 27.5973L108.289 27.5953L108.208 27.5951L108.129 27.5968L108.012 27.6026L107.934 27.6086L107.856 27.6162L107.777 27.6254L107.655 27.6419L107.527 27.6615C106.497 27.827 105.497 28.427 104.312 29.6882L104.229 29.7773L103.31 29.2607C104.683 27.775 105.925 27.0169 107.298 26.7963Z" fill="#7D3F50"/>
<path fill-rule="evenodd" clip-rule="evenodd" d="M114.196 30.2126C114.019 30.8677 113.093 31.1431 112.529 30.7085C111.965 30.2736 112.186 29.4549 112.927 29.2344C113.668 29.014 114.372 29.5576 114.196 30.2126Z" fill="#362B42"/>
<path fill-rule="evenodd" clip-rule="evenodd" d="M108.207 30.2878C108.058 30.8437 107.272 31.0774 106.794 30.7085C106.315 30.3395 106.503 29.6449 107.131 29.4578C107.76 29.2709 108.357 29.7319 108.207 30.2878Z" fill="#362B42"/>
<path fill-rule="evenodd" clip-rule="evenodd" d="M125.69 32.1696C124.162 34.3348 120.886 34.6904 119.794 32.8099C118.701 30.9295 120.612 28.223 123.232 27.9385C125.853 27.6541 127.218 30.0045 125.69 32.1696Z" fill="#FF9B89"/>
<path fill-rule="evenodd" clip-rule="evenodd" d="M116.74 34.6271C116.795 34.8842 116.827 35.1486 116.823 35.4147L116.771 35.8145C116.76 35.9503 116.717 36.0813 116.667 36.2127C116.617 36.3434 116.572 36.4771 116.51 36.6063C116.439 36.7328 116.36 36.8578 116.281 36.9831C116.211 37.1123 116.097 37.2225 115.998 37.3398C115.896 37.4557 115.792 37.5708 115.666 37.6713C115.191 38.0964 114.579 38.4209 113.926 38.6183C113.267 38.8136 112.584 38.903 111.876 38.8209L111.831 38.4004C112.364 38.1934 112.893 37.9807 113.351 37.7356C113.816 37.4933 114.226 37.2205 114.576 36.9097C114.675 36.8397 114.749 36.7529 114.831 36.6708C114.912 36.5886 115.003 36.5113 115.069 36.419C115.141 36.3302 115.213 36.241 115.293 36.1535L115.486 35.867L115.59 35.723C115.621 35.6736 115.644 35.6208 115.675 35.5702L115.854 35.2592C115.972 35.0472 116.056 34.8224 116.201 34.5962L116.74 34.6271Z" fill="white"/>
<path fill-rule="evenodd" clip-rule="evenodd" d="M122.687 32.9315C121.021 30.3202 122.86 28.2731 126.642 28.9037L126.757 28.9236L126.567 29.5694C123.461 29.0127 122.101 30.4544 123.406 32.5718L123.447 32.6362L122.687 32.9315Z" fill="#FF9B89"/>
<path fill-rule="evenodd" clip-rule="evenodd" d="M43.6861 11.3372C43.9139 11.2938 44.1436 11.4027 44.1992 11.5805C44.2515 11.7478 44.131 11.9164 43.9267 11.9718L43.8874 11.9809L41.0679 12.5178C40.8401 12.5612 40.6104 12.4522 40.5548 12.2745C40.5025 12.1072 40.6231 11.9385 40.8273 11.8831L40.8666 11.8741L43.6861 11.3372Z" fill="#797979" fill-opacity="0.2" style="mix-blend-mode:multiply"/>
<path fill-rule="evenodd" clip-rule="evenodd" d="M33.8013 11.0601C33.9964 10.9586 34.26 10.9997 34.3901 11.1519C34.5125 11.2952 34.473 11.4858 34.3053 11.5924L34.2724 11.6114L31.5196 13.0437C31.3245 13.1452 31.0609 13.1041 30.9309 12.9518C30.8084 12.8085 30.8479 12.6179 31.0156 12.5113L31.0486 12.4924L33.8013 11.0601Z" fill="#797979" fill-opacity="0.2" style="mix-blend-mode:multiply"/>
<path fill-rule="evenodd" clip-rule="evenodd" d="M27.5286 16.3239C27.6904 16.1914 27.9591 16.1865 28.1288 16.3127C28.2879 16.4311 28.3035 16.6228 28.1715 16.7554L28.1431 16.7811L26.4104 18.1991C26.2486 18.3315 25.9798 18.3365 25.8102 18.2102C25.6511 18.0918 25.6355 17.9001 25.7675 17.7675L25.7959 17.7418L27.5286 16.3239Z" fill="#797979" fill-opacity="0.2" style="mix-blend-mode:multiply"/>
<path fill-rule="evenodd" clip-rule="evenodd" d="M21.5403 15.0738C21.6544 14.914 21.913 14.8567 22.1178 14.9458C23.7037 15.6357 24.5334 16.5132 24.8606 17.8046L24.8958 17.9513L24.9171 18.0496L24.9368 18.1486L24.9548 18.2487L24.9786 18.4016L24.9924 18.5057L25.0046 18.612L25.0151 18.7208L25.0279 18.8895L25.0343 19.0059L25.0392 19.126L25.0435 19.3136L25.0443 19.5112L25.0428 19.649L25.0398 19.7919L25.0324 20.0169L25.0171 20.3381L24.9958 20.6859L24.9608 21.1619L24.8963 21.9146L24.8082 22.8429L22.9996 23.4962C22.7869 23.5731 22.5345 23.5008 22.436 23.3347C22.3433 23.1784 22.4199 22.9948 22.6067 22.9097L22.643 22.8949L23.999 22.4048L24.0729 21.6037L24.1101 21.1599L24.1406 20.7538L24.1644 20.3822L24.1777 20.1243L24.1872 19.8829L24.1929 19.6565L24.1944 19.5133L24.1943 19.3846C24.1901 18.7951 24.1356 18.3595 24.0276 17.9331C23.7492 16.8343 23.0743 16.1205 21.7044 15.5245C21.4996 15.4354 21.4261 15.2337 21.5403 15.0738Z" fill="#797979" fill-opacity="0.2" style="mix-blend-mode:multiply"/>
<path fill-rule="evenodd" clip-rule="evenodd" d="M50.1298 26.5296C50.3122 26.4147 50.5795 26.4369 50.7268 26.5792C50.8741 26.7216 50.8457 26.9302 50.6632 27.0451C50.372 27.2286 50.0942 27.4135 49.8296 27.5998C47.218 29.4384 45.9302 31.3721 45.7212 33.3517C45.5614 34.8657 46.0371 36.3196 46.931 37.651C47.2031 38.0562 47.4945 38.4192 47.7852 38.7341L47.9026 38.8586L48.0118 38.9694L48.1243 39.0778L48.161 39.1113C48.3165 39.2482 48.3004 39.4576 48.125 39.579C47.9495 39.7004 47.6812 39.6878 47.5256 39.5509L47.4759 39.506L47.3837 39.4183L47.272 39.3066L47.1877 39.2191L47.0962 39.1214C46.783 38.7821 46.4705 38.3928 46.1789 37.9585C45.2157 36.5239 44.7006 34.9495 44.875 33.2973C45.1022 31.1447 46.493 29.0565 49.2609 27.1078C49.5371 26.9134 49.8267 26.7206 50.1298 26.5296Z" fill="#797979" fill-opacity="0.2" style="mix-blend-mode:multiply"/>
<path fill-rule="evenodd" clip-rule="evenodd" d="M46.5507 25.6658C46.7145 25.7967 46.7113 26.0065 46.5435 26.1343L45.7583 26.7298L45.1852 27.1613L44.6255 27.5797L44.079 27.9854L43.5458 28.3784L42.8553 28.8828L42.3527 29.2466L41.8629 29.598L41.3861 29.9372L40.922 30.2643L40.4705 30.5795L40.0317 30.8827L39.6054 31.1741L39.3281 31.362L38.9225 31.6341L38.5291 31.8947L38.148 32.1439L37.7789 32.3819L37.4219 32.6088L37.0578 32.8364L36.8009 32.9945L36.5554 33.1434L36.3211 33.2833L36.0979 33.4144L35.8857 33.5367L35.6844 33.6505C35.6517 33.6687 35.6195 33.6866 35.5877 33.7042L35.4025 33.8054L35.1668 33.9304L35.0535 33.9887L34.9056 34.0627L34.7481 34.1377L34.6859 34.1656L34.6127 34.1963C34.4035 34.2789 34.1481 34.2135 34.0423 34.0502C33.9427 33.8966 34.011 33.711 34.1938 33.6208L34.3105 33.5693L34.4394 33.5084L34.5541 33.4516L34.6834 33.3855L34.9124 33.2643L35.0809 33.1724L35.2591 33.073L35.4471 32.966L35.645 32.8513L35.8528 32.7288L36.0708 32.5983L36.2989 32.4597L36.6604 32.2364L37.0059 32.0191L37.3634 31.7907L37.6085 31.6323L37.8589 31.4688L38.2448 31.2142L38.643 30.9481L39.0536 30.6705L39.3343 30.479L39.7657 30.1818L40.2097 29.8729L40.8215 29.4423L41.2953 29.1052L41.782 28.7559L42.4511 28.271L42.9682 27.8928L43.4984 27.502L44.226 26.9611L44.5987 26.6821L45.169 26.2528L45.9504 25.6601C46.1182 25.5323 46.387 25.5349 46.5507 25.6658Z" fill="#797979" fill-opacity="0.2" style="mix-blend-mode:multiply"/>
<path fill-rule="evenodd" clip-rule="evenodd" d="M54.4108 20.5049L54.4517 20.5061C54.6853 20.5215 54.8587 20.6818 54.839 20.8641C54.7534 21.6537 55.2033 22.3758 56.024 23.016C56.2938 23.2264 56.5841 23.4118 56.874 23.5695C56.9498 23.6108 57.0212 23.6477 57.0873 23.6804L57.1785 23.7243L57.247 23.7554C57.4528 23.8431 57.5286 24.0444 57.4162 24.205C57.3038 24.3656 57.0459 24.4247 56.8401 24.337L56.7676 24.3048L56.678 24.2625L56.5727 24.2102L56.4531 24.1479C56.4321 24.1367 56.4105 24.1251 56.3884 24.1131C56.0597 23.9342 55.7313 23.7246 55.4237 23.4846C54.4422 22.7189 53.8831 21.8216 53.9929 20.8083C54.0115 20.6367 54.1946 20.5067 54.4108 20.5049Z" fill="#797979" fill-opacity="0.2" style="mix-blend-mode:multiply"/>
<path fill-rule="evenodd" clip-rule="evenodd" d="M45.6305 21.3924C45.8489 21.3259 46.0951 21.4101 46.1803 21.5806C46.2656 21.7511 46.1576 21.9431 45.9391 22.0097C43.7131 22.6874 41.5018 23.4895 39.3267 24.3902C36.8385 25.4205 34.526 26.5246 32.4499 27.6284L32.0937 27.8191L31.7512 28.0049L31.4229 28.1856C31.3693 28.2152 31.3164 28.2447 31.264 28.2739L30.9571 28.4464L30.6647 28.613L30.3385 28.802L29.8485 29.0946C29.6649 29.2084 29.3978 29.1845 29.252 29.0412C29.1062 28.8979 29.1368 28.6895 29.3205 28.5757L29.5012 28.4661L29.6564 28.3736L29.9214 28.2181L30.1612 28.0795L30.458 27.9103L30.7695 27.7353C30.8226 27.7056 30.8764 27.6757 30.9307 27.6457L31.2637 27.4624C31.3204 27.4315 31.3776 27.4003 31.4355 27.3689L31.7896 27.1781C31.8497 27.1459 31.9105 27.1135 31.9718 27.0809C34.0725 25.964 36.4113 24.8473 38.9287 23.8049C41.1317 22.8927 43.3724 22.0799 45.6305 21.3924Z" fill="#797979" fill-opacity="0.2" style="mix-blend-mode:multiply"/>
<path fill-rule="evenodd" clip-rule="evenodd" d="M110.124 30.8576C110.344 30.8467 110.535 30.9688 110.57 31.1355L110.574 31.1672L110.765 33.5102C110.78 33.6928 110.602 33.8502 110.368 33.8618C110.148 33.8727 109.956 33.7506 109.922 33.5839L109.918 33.5522L109.727 31.2092C109.712 31.0266 109.89 30.8692 110.124 30.8576Z" fill="#797979" fill-opacity="0.2" style="mix-blend-mode:multiply"/>
<path fill-rule="evenodd" clip-rule="evenodd" d="M122.687 32.9315C121.021 30.3202 122.86 28.2731 126.642 28.9037L126.757 28.9236L126.567 29.5694C123.461 29.0127 122.101 30.4544 123.406 32.5718L123.447 32.6362L122.687 32.9315Z" fill="#797979" fill-opacity="0.2" style="mix-blend-mode:multiply"/>
<path fill-rule="evenodd" clip-rule="evenodd" d="M119.871 29.6603C116.645 20.4848 108.247 26.9342 102.65 24.485L102.69 24.1056C102.735 23.6789 103.177 23.3441 103.724 23.3215L117.883 22.736C118.939 22.6925 119.843 23.32 119.913 24.144C120.022 25.4354 120.164 27.4371 120.222 29.6199C120.227 29.784 119.926 29.8187 119.871 29.6603Z" fill="#7D3F50"/>
<path fill-rule="evenodd" clip-rule="evenodd" d="M118.805 50.3822L117.875 46.1286C110.143 44.801 102.069 46.1286 102.069 46.1286L101.481 50.593C112.17 52.8531 118.805 50.3822 118.805 50.3822Z" fill="#6343F0"/>
<path fill-rule="evenodd" clip-rule="evenodd" d="M128.85 57.9131L129.979 57.9795L129.822 59.5866L129.626 61.5537L129.429 63.4733L129.272 64.9741L129.115 66.4433L128.881 68.5864L128.648 70.6551L128.417 72.6473L128.235 74.1758L127.975 76.3014L127.837 77.3822L127.75 78.051L126.624 77.959L126.787 76.6957L126.962 75.2931L127.21 73.2373L127.366 71.9119L127.52 70.5765L127.675 69.2072L127.87 67.4486L128.065 65.6391L128.261 63.7796L128.458 61.8714L128.654 59.9155L128.772 58.7196L128.85 57.9131Z" fill="#6343F0"/>
<path fill-rule="evenodd" clip-rule="evenodd" d="M128.85 57.9131L129.979 57.9795L129.822 59.5866L129.626 61.5537L129.429 63.4733L129.272 64.9741L129.115 66.4433L128.881 68.5864L128.648 70.6551L128.417 72.6473L128.235 74.1758L127.975 76.3014L127.837 77.3822L127.75 78.051L126.624 77.959L126.787 76.6957L126.962 75.2931L127.21 73.2373L127.366 71.9119L127.52 70.5765L127.675 69.2072L127.87 67.4486L128.065 65.6391L128.261 63.7796L128.458 61.8714L128.654 59.9155L128.772 58.7196L128.85 57.9131Z" fill="#797979" fill-opacity="0.2" style="mix-blend-mode:multiply"/>
<path fill-rule="evenodd" clip-rule="evenodd" d="M117.316 45.7551L118.435 45.6201L119.431 50.6488L119.036 50.7863C117.637 51.2735 116.111 51.6117 114.478 51.8146C111.108 52.2336 107.516 52.0658 104.046 51.5327C103.387 51.4315 102.781 51.3237 102.236 51.2151L101.858 51.1375L101.676 51.0982L101.424 51.0416L101.311 51.015L101.651 50.1723L101.901 50.23L102.155 50.2849L102.345 50.3244C102.912 50.4406 103.556 50.5571 104.264 50.6659C107.615 51.1805 111.08 51.3425 114.3 50.9422C115.668 50.7721 116.951 50.5026 118.135 50.1259L118.179 50.1117L117.316 45.7551Z" fill="#6343F0"/>
<path fill-rule="evenodd" clip-rule="evenodd" d="M117.316 45.7551L118.435 45.6201L119.431 50.6488L119.036 50.7863C117.637 51.2735 116.111 51.6117 114.478 51.8146C111.108 52.2336 107.516 52.0658 104.046 51.5327C103.387 51.4315 102.781 51.3237 102.236 51.2151L101.858 51.1375L101.676 51.0982L101.424 51.0416L101.311 51.015L101.651 50.1723L101.901 50.23L102.155 50.2849L102.345 50.3244C102.912 50.4406 103.556 50.5571 104.264 50.6659C107.615 51.1805 111.08 51.3425 114.3 50.9422C115.668 50.7721 116.951 50.5026 118.135 50.1259L118.179 50.1117L117.316 45.7551Z" fill="#797979" fill-opacity="0.2" style="mix-blend-mode:multiply"/>
<path fill-rule="evenodd" clip-rule="evenodd" d="M136.273 52.9231C135.671 53.007 135.192 52.6121 135.411 52.2121C135.63 51.8121 136.383 51.707 136.767 52.0231C137.15 52.3389 136.876 52.8392 136.273 52.9231Z" fill="white" fill-opacity="0.3" style="mix-blend-mode:lighten"/>
<path fill-rule="evenodd" clip-rule="evenodd" d="M73.44 198.112C72.3699 197.849 71.8885 197.22 72.5734 196.981C73.2586 196.742 74.5965 197.072 74.9814 197.575C75.3666 198.077 74.5102 198.376 73.44 198.112Z" fill="#FF4654"/>
<mask id="mask6_257_42928" style="mask-type:luminance" maskUnits="userSpaceOnUse" x="166" y="197" width="4" height="3">
<path fill-rule="evenodd" clip-rule="evenodd" d="M166.185 197.769H170V199.534H166.185V197.769Z" fill="white"/>
</mask>
<g mask="url(#mask6_257_42928)">
<path fill-rule="evenodd" clip-rule="evenodd" d="M168.394 199.404C166.946 199.757 165.79 199.35 166.313 198.672C166.836 197.994 168.647 197.553 169.571 197.878C170.496 198.203 169.842 199.051 168.394 199.404Z" fill="#362B42"/>
</g>
<path fill-rule="evenodd" clip-rule="evenodd" d="M165.061 196.772C164.738 197.288 163.821 197.338 163.409 196.863C162.997 196.387 163.4 195.742 164.134 195.701C164.868 195.661 165.383 196.256 165.061 196.772Z" fill="#FF4654"/>
</svg>
