<svg xmlns="http://www.w3.org/2000/svg" width="124" height="28" viewBox="0 0 124 28" fill="none">
<path d="M15 8V20C15 20.5933 15.1759 21.1734 15.5056 21.6667C15.8352 22.1601 16.3038 22.5446 16.852 22.7716C17.4001 22.9987 18.0033 23.0581 18.5853 22.9424C19.1672 22.8266 19.7018 22.5409 20.1213 22.1213C20.5409 21.7018 20.8266 21.1672 20.9424 20.5853C21.0581 20.0033 20.9987 19.4001 20.7716 18.852C20.5446 18.3038 20.1601 17.8352 19.6667 17.5056C19.1734 17.1759 18.5933 17 18 17H6C5.40666 17 4.82664 17.1759 4.33329 17.5056C3.83994 17.8352 3.45543 18.3038 3.22836 18.852C3.0013 19.4001 2.94189 20.0033 3.05765 20.5853C3.1734 21.1672 3.45912 21.7018 3.87868 22.1213C4.29824 22.5409 4.83279 22.8266 5.41473 22.9424C5.99667 23.0581 6.59987 22.9987 7.14805 22.7716C7.69623 22.5446 8.16477 22.1601 8.49441 21.6667C8.82405 21.1734 9 20.5933 9 20V8C9 7.40666 8.82405 6.82664 8.49441 6.33329C8.16477 5.83994 7.69623 5.45543 7.14805 5.22836C6.59987 5.0013 5.99667 4.94189 5.41473 5.05765C4.83279 5.1734 4.29824 5.45912 3.87868 5.87868C3.45912 6.29824 3.1734 6.83279 3.05765 7.41473C2.94189 7.99667 3.0013 8.59987 3.22836 9.14805C3.45543 9.69623 3.83994 10.1648 4.33329 10.4944C4.82664 10.8241 5.40666 11 6 11H18C18.5933 11 19.1734 10.8241 19.6667 10.4944C20.1601 10.1648 20.5446 9.69623 20.7716 9.14805C20.9987 8.59987 21.0581 7.99667 20.9424 7.41473C20.8266 6.83279 20.5409 6.29824 20.1213 5.87868C19.7018 5.45912 19.1672 5.1734 18.5853 5.05765C18.0033 4.94189 17.4001 5.0013 16.852 5.22836C16.3038 5.45543 15.8352 5.83994 15.5056 6.33329C15.1759 6.82664 15 7.40666 15 8Z" stroke="#ffffff" stroke-width="2" stroke-linecap="round" stroke-linejoin="round" fill="#020817"/>
<path d="M33.2912 21V7.90909H35.6626V13.924H35.8224L40.9297 7.90909H43.8253L38.7628 13.7834L43.87 21H41.0192L37.1136 15.3878L35.6626 17.1009V21H33.2912ZM48.9325 21.1918C47.9737 21.1918 47.1428 20.9808 46.4396 20.5589C45.7365 20.1371 45.1911 19.5469 44.8033 18.7884C44.4197 18.0298 44.228 17.1435 44.228 16.1293C44.228 15.1151 44.4197 14.2266 44.8033 13.4638C45.1911 12.701 45.7365 12.1087 46.4396 11.6868C47.1428 11.2649 47.9737 11.054 48.9325 11.054C49.8913 11.054 50.7223 11.2649 51.4254 11.6868C52.1286 12.1087 52.6719 12.701 53.0554 13.4638C53.4432 14.2266 53.6371 15.1151 53.6371 16.1293C53.6371 17.1435 53.4432 18.0298 53.0554 18.7884C52.6719 19.5469 52.1286 20.1371 51.4254 20.5589C50.7223 20.9808 49.8913 21.1918 48.9325 21.1918ZM48.9453 19.3381C49.4652 19.3381 49.8999 19.1953 50.2493 18.9098C50.5987 18.62 50.8587 18.2322 51.0291 17.7464C51.2038 17.2607 51.2912 16.7195 51.2912 16.1229C51.2912 15.522 51.2038 14.9787 51.0291 14.4929C50.8587 14.0028 50.5987 13.6129 50.2493 13.3232C49.8999 13.0334 49.4652 12.8885 48.9453 12.8885C48.4126 12.8885 47.9695 13.0334 47.6158 13.3232C47.2663 13.6129 47.0043 14.0028 46.8295 14.4929C46.6591 14.9787 46.5739 15.522 46.5739 16.1229C46.5739 16.7195 46.6591 17.2607 46.8295 17.7464C47.0043 18.2322 47.2663 18.62 47.6158 18.9098C47.9695 19.1953 48.4126 19.3381 48.9453 19.3381ZM55.601 21V11.1818H57.8127V12.8501H57.9277C58.1323 12.2876 58.4711 11.8487 58.9441 11.5334C59.4171 11.2138 59.9817 11.054 60.638 11.054C61.3027 11.054 61.8631 11.2159 62.3191 11.5398C62.7793 11.8594 63.1032 12.2962 63.2907 12.8501H63.3929C63.6103 12.3047 63.9767 11.87 64.4924 11.5462C65.0123 11.218 65.628 11.054 66.3397 11.054C67.2431 11.054 67.9803 11.3395 68.5513 11.9105C69.1223 12.4815 69.4078 13.3146 69.4078 14.4098V21H67.0875V14.7678C67.0875 14.1584 66.9256 13.7131 66.6017 13.4318C66.2779 13.1463 65.8816 13.0036 65.4128 13.0036C64.8546 13.0036 64.4178 13.1783 64.1025 13.5277C63.7914 13.8729 63.6358 14.3224 63.6358 14.8764V21H61.3667V14.6719C61.3667 14.1648 61.2132 13.7599 60.9064 13.4574C60.6039 13.1548 60.2076 13.0036 59.7175 13.0036C59.3851 13.0036 59.0826 13.0888 58.8098 13.2592C58.5371 13.4254 58.3198 13.6619 58.1578 13.9688C57.9959 14.2713 57.915 14.625 57.915 15.0298V21H55.601ZM71.7553 24.6818V11.1818H74.0309V12.8054H74.1651C74.2844 12.5668 74.4528 12.3132 74.6701 12.0447C74.8874 11.772 75.1815 11.5398 75.5522 11.348C75.9229 11.152 76.396 11.054 76.9712 11.054C77.7298 11.054 78.4137 11.2479 79.0231 11.6357C79.6367 12.0192 80.1225 12.5881 80.4805 13.3423C80.8427 14.0923 81.0238 15.0128 81.0238 16.1037C81.0238 17.1818 80.8469 18.098 80.4933 18.8523C80.1396 19.6065 79.658 20.1818 79.0487 20.5781C78.4393 20.9744 77.7489 21.1726 76.9776 21.1726C76.4151 21.1726 75.9485 21.0788 75.5778 20.8913C75.207 20.7038 74.9087 20.478 74.6829 20.2138C74.4613 19.9453 74.2887 19.6918 74.1651 19.4531H74.0692V24.6818H71.7553ZM74.0245 16.0909C74.0245 16.7259 74.114 17.282 74.293 17.7592C74.4762 18.2365 74.7383 18.6094 75.0792 18.8778C75.4244 19.142 75.842 19.2741 76.332 19.2741C76.8434 19.2741 77.2717 19.1378 77.6168 18.8651C77.962 18.5881 78.2219 18.2109 78.3967 17.7337C78.5756 17.2521 78.6651 16.7045 78.6651 16.0909C78.6651 15.4815 78.5778 14.9403 78.4031 14.4673C78.2283 13.9943 77.9684 13.6236 77.6232 13.3551C77.2781 13.0866 76.8477 12.9524 76.332 12.9524C75.8377 12.9524 75.418 13.0824 75.0728 13.3423C74.7276 13.6023 74.4656 13.9666 74.2866 14.4354C74.1119 14.9041 74.0245 15.456 74.0245 16.0909ZM85.3192 7.90909V21H83.0053V7.90909H85.3192ZM92.0453 21.1918C91.0609 21.1918 90.2108 20.9872 89.4949 20.5781C88.7832 20.1648 88.2356 19.581 87.8521 18.8267C87.4686 18.0682 87.2768 17.1754 87.2768 16.1484C87.2768 15.1385 87.4686 14.2521 87.8521 13.4893C88.2399 12.7223 88.7811 12.1257 89.4757 11.6996C90.1703 11.2692 90.9863 11.054 91.9238 11.054C92.5289 11.054 93.1 11.152 93.6369 11.348C94.1781 11.5398 94.6554 11.8381 95.0687 12.2429C95.4863 12.6477 95.8145 13.1634 96.0531 13.7898C96.2917 14.4119 96.411 15.1534 96.411 16.0142V16.7237H88.3635V15.1641H94.193C94.1887 14.7209 94.0929 14.3267 93.9054 13.9815C93.7179 13.6321 93.4558 13.3572 93.1191 13.157C92.7868 12.9567 92.399 12.8565 91.9558 12.8565C91.4828 12.8565 91.0673 12.9716 90.7093 13.2017C90.3514 13.4276 90.0723 13.7259 89.872 14.0966C89.676 14.4631 89.5758 14.8658 89.5716 15.3047V16.6662C89.5716 17.2372 89.676 17.7273 89.8848 18.1364C90.0936 18.5412 90.3855 18.8523 90.7605 19.0696C91.1355 19.2827 91.5744 19.3892 92.0772 19.3892C92.4139 19.3892 92.7186 19.3423 92.9913 19.2486C93.264 19.1506 93.5005 19.0078 93.7008 18.8203C93.9011 18.6328 94.0524 18.4006 94.1547 18.1236L96.3152 18.3665C96.1788 18.9375 95.9189 19.4361 95.5353 19.8622C95.1561 20.2841 94.6703 20.6122 94.0779 20.8466C93.4856 21.0767 92.8081 21.1918 92.0453 21.1918ZM100.478 17.919L100.472 15.1257H100.842L104.371 11.1818H107.075L102.734 16.0142H102.255L100.478 17.919ZM98.3686 21V7.90909H100.683V21H98.3686ZM104.531 21L101.335 16.532L102.894 14.902L107.298 21H104.531ZM111.09 7.90909V21H108.719V7.90909H111.09ZM115.87 15.2472V21H113.556V11.1818H115.768V12.8501H115.883C116.109 12.3004 116.469 11.8636 116.963 11.5398C117.462 11.2159 118.077 11.054 118.81 11.054C119.488 11.054 120.078 11.1989 120.581 11.4886C121.088 11.7784 121.48 12.1982 121.757 12.7479C122.038 13.2976 122.177 13.9645 122.173 14.7486V21H119.859V15.1065C119.859 14.4503 119.688 13.9368 119.347 13.5661C119.011 13.1953 118.544 13.0099 117.947 13.0099C117.543 13.0099 117.183 13.0994 116.867 13.2784C116.556 13.4531 116.311 13.7067 116.132 14.0391C115.957 14.3714 115.87 14.7741 115.87 15.2472Z" fill="#ffffff"/>
</svg>